<svg width="200" height="200" viewBox="0 0 330 200" xmlns="http://www.w3.org/2000/svg"><g><g><g><g><g><line x1="51.5625" y1="177" x2="46.5625" y2="177" style="visibility: inherit;" fill="rgb(0, 0, 0)" stroke="rgb(204, 204, 204)" stroke-width="1px"></line><line x1="51.5625" y1="154.875" x2="46.5625" y2="154.875" style="visibility: inherit;" fill="rgb(0, 0, 0)" stroke="rgb(204, 204, 204)" stroke-width="1px"></line><line x1="51.5625" y1="132.75" x2="46.5625" y2="132.75" style="visibility: inherit;" fill="rgb(0, 0, 0)" stroke="rgb(204, 204, 204)" stroke-width="1px"></line><line x1="51.5625" y1="110.625" x2="46.5625" y2="110.625" style="visibility: inherit;" fill="rgb(0, 0, 0)" stroke="rgb(204, 204, 204)" stroke-width="1px"></line><line x1="51.5625" y1="88.5" x2="46.5625" y2="88.5" style="visibility: inherit;" fill="rgb(0, 0, 0)" stroke="rgb(204, 204, 204)" stroke-width="1px"></line><line x1="51.5625" y1="66.375" x2="46.5625" y2="66.375" style="visibility: inherit;" fill="rgb(0, 0, 0)" stroke="rgb(204, 204, 204)" stroke-width="1px"></line><line x1="51.5625" y1="44.24999999999998" x2="46.5625" y2="44.24999999999998" style="visibility: inherit;" fill="rgb(0, 0, 0)" stroke="rgb(204, 204, 204)" stroke-width="1px"></line><line x1="51.5625" y1="22.12500000000002" x2="46.5625" y2="22.12500000000002" style="visibility: inherit;" fill="rgb(0, 0, 0)" stroke="rgb(204, 204, 204)" stroke-width="1px"></line><line x1="51.5625" y1="0" x2="46.5625" y2="0" style="visibility: inherit;" fill="rgb(0, 0, 0)" stroke="rgb(204, 204, 204)" stroke-width="1px"></line></g><g transform="translate(41.5625, 0)"><text x="0" y="177" dx="0em" dy="0.3em" style="text-anchor: end; visibility: hidden; font-family: Roboto, sans-serif; font-size: 12px; font-weight: 200;" fill="rgb(33, 33, 33)" stroke="none" stroke-width="1px">0.25</text><text x="0" y="154.875" dx="0em" dy="0.3em" style="text-anchor: end; visibility: inherit; font-family: Roboto, sans-serif; font-size: 12px; font-weight: 200;" fill="rgb(33, 33, 33)" stroke="none" stroke-width="1px">0.3</text><text x="0" y="132.75" dx="0em" dy="0.3em" style="text-anchor: end; visibility: hidden; font-family: Roboto, sans-serif; font-size: 12px; font-weight: 200;" fill="rgb(33, 33, 33)" stroke="none" stroke-width="1px">0.35</text><text x="0" y="110.625" dx="0em" dy="0.3em" style="text-anchor: end; visibility: inherit; font-family: Roboto, sans-serif; font-size: 12px; font-weight: 200;" fill="rgb(33, 33, 33)" stroke="none" stroke-width="1px">0.4</text><text x="0" y="88.5" dx="0em" dy="0.3em" style="text-anchor: end; visibility: hidden; font-family: Roboto, sans-serif; font-size: 12px; font-weight: 200;" fill="rgb(33, 33, 33)" stroke="none" stroke-width="1px">0.45</text><text x="0" y="66.375" dx="0em" dy="0.3em" style="text-anchor: end; visibility: inherit; font-family: Roboto, sans-serif; font-size: 12px; font-weight: 200;" fill="rgb(33, 33, 33)" stroke="none" stroke-width="1px">0.5</text><text x="0" y="44.24999999999998" dx="0em" dy="0.3em" style="text-anchor: end; visibility: hidden; font-family: Roboto, sans-serif; font-size: 12px; font-weight: 200;" fill="rgb(33, 33, 33)" stroke="none" stroke-width="1px">0.55</text><text x="0" y="22.12500000000002" dx="0em" dy="0.3em" style="text-anchor: end; visibility: inherit; font-family: Roboto, sans-serif; font-size: 12px; font-weight: 200;" fill="rgb(33, 33, 33)" stroke="none" stroke-width="1px">0.6</text><text x="0" y="0" dx="0em" dy="0.3em" style="text-anchor: end; visibility: hidden; font-family: Roboto, sans-serif; font-size: 12px; font-weight: 200;" fill="rgb(33, 33, 33)" stroke="none" stroke-width="1px">0.65</text></g><line x1="51.5625" y1="0" x2="51.5625" y2="177" fill="rgb(0, 0, 0)" stroke="rgb(204, 204, 204)" stroke-width="1px"></line></g></g><g transform="translate(51, 0)" clip-path="url(#clip_0)"><clipPath id="clip_0"><rect width="278" height="177"></rect></clipPath><g><g><g><line x1="0" y1="0" x2="0" y2="177" fill="rgb(0, 0, 0)" stroke="rgb(66, 66, 66)" stroke-width="1px" opacity="0.25"></line><line x1="21.418269230769234" y1="0" x2="21.418269230769234" y2="177" fill="rgb(0, 0, 0)" stroke="rgb(66, 66, 66)" stroke-width="1px" opacity="0.25"></line><line x1="42.83653846153847" y1="0" x2="42.83653846153847" y2="177" fill="rgb(0, 0, 0)" stroke="rgb(66, 66, 66)" stroke-width="1px" opacity="0.25"></line><line x1="64.2548076923077" y1="0" x2="64.2548076923077" y2="177" fill="rgb(0, 0, 0)" stroke="rgb(66, 66, 66)" stroke-width="1px" opacity="0.25"></line><line x1="85.67307692307693" y1="0" x2="85.67307692307693" y2="177" fill="rgb(0, 0, 0)" stroke="rgb(66, 66, 66)" stroke-width="1px" opacity="0.25"></line><line x1="107.09134615384616" y1="0" x2="107.09134615384616" y2="177" fill="rgb(0, 0, 0)" stroke="rgb(66, 66, 66)" stroke-width="1px" opacity="0.25"></line><line x1="128.5096153846154" y1="0" x2="128.5096153846154" y2="177" fill="rgb(0, 0, 0)" stroke="rgb(66, 66, 66)" stroke-width="1px" opacity="0.25"></line><line x1="149.9278846153846" y1="0" x2="149.9278846153846" y2="177" fill="rgb(0, 0, 0)" stroke="rgb(66, 66, 66)" stroke-width="1px" opacity="0.25"></line><line x1="171.34615384615387" y1="0" x2="171.34615384615387" y2="177" fill="rgb(0, 0, 0)" stroke="rgb(66, 66, 66)" stroke-width="1px" opacity="0.25"></line><line x1="192.76442307692307" y1="0" x2="192.76442307692307" y2="177" fill="rgb(0, 0, 0)" stroke="rgb(66, 66, 66)" stroke-width="1px" opacity="0.25"></line><line x1="214.18269230769232" y1="0" x2="214.18269230769232" y2="177" fill="rgb(0, 0, 0)" stroke="rgb(66, 66, 66)" stroke-width="1px" opacity="0.25"></line><line x1="235.60096153846155" y1="0" x2="235.60096153846155" y2="177" fill="rgb(0, 0, 0)" stroke="rgb(66, 66, 66)" stroke-width="1px" opacity="0.25"></line><line x1="257.0192307692308" y1="0" x2="257.0192307692308" y2="177" fill="rgb(0, 0, 0)" stroke="rgb(66, 66, 66)" stroke-width="1px" opacity="0.25"></line><line x1="278.4375" y1="0" x2="278.4375" y2="177" fill="rgb(0, 0, 0)" stroke="rgb(66, 66, 66)" stroke-width="1px" opacity="0.25"></line></g><g><line x1="0" y1="177" x2="278.4375" y2="177" fill="rgb(0, 0, 0)" stroke="rgb(66, 66, 66)" stroke-width="1px" opacity="0.25"></line><line x1="0" y1="154.875" x2="278.4375" y2="154.875" fill="rgb(0, 0, 0)" stroke="rgb(66, 66, 66)" stroke-width="1px" opacity="0.25"></line><line x1="0" y1="132.75" x2="278.4375" y2="132.75" fill="rgb(0, 0, 0)" stroke="rgb(66, 66, 66)" stroke-width="1px" opacity="0.25"></line><line x1="0" y1="110.625" x2="278.4375" y2="110.625" fill="rgb(0, 0, 0)" stroke="rgb(66, 66, 66)" stroke-width="1px" opacity="0.25"></line><line x1="0" y1="88.5" x2="278.4375" y2="88.5" fill="rgb(0, 0, 0)" stroke="rgb(66, 66, 66)" stroke-width="1px" opacity="0.25"></line><line x1="0" y1="66.375" x2="278.4375" y2="66.375" fill="rgb(0, 0, 0)" stroke="rgb(66, 66, 66)" stroke-width="1px" opacity="0.25"></line><line x1="0" y1="44.24999999999998" x2="278.4375" y2="44.24999999999998" fill="rgb(0, 0, 0)" stroke="rgb(66, 66, 66)" stroke-width="1px" opacity="0.25"></line><line x1="0" y1="22.12500000000002" x2="278.4375" y2="22.12500000000002" fill="rgb(0, 0, 0)" stroke="rgb(66, 66, 66)" stroke-width="1px" opacity="0.25"></line><line x1="0" y1="0" x2="278.4375" y2="0" fill="rgb(0, 0, 0)" stroke="rgb(66, 66, 66)" stroke-width="1px" opacity="0.25"></line></g></g></g><g><g><line x1="0" y1="287.625" x2="278.4375" y2="287.625" fill="rgb(0, 0, 0)" stroke="rgb(153, 153, 153)" stroke-width="1.5px"></line></g></g><g><g><line x1="21.418269230769234" y1="0" x2="21.418269230769234" y2="177" fill="rgb(0, 0, 0)" stroke="rgb(153, 153, 153)" stroke-width="1.5px"></line></g></g><g><g><g><g><g><path stroke="rgb(255, 112, 67)" stroke-width="2px" d="M32.128474759615386,177.1818028751787L32.23556610576923,175.32494638292678L32.55684014423077,174.1852961593602L32.87811418269231,173.2350335664795L32.98520552884615,172.55810451188913L33.199388221153846,171.88316944047807L33.94902764423077,171.01728848100743L34.484484375,170.35605728316037L34.91284975961538,169.62161763123711L35.019941105769234,169.07761109835863L35.23412379807693,168.84939623455318L35.44830649038461,165.81898132311832L35.55539783653846,163.89808066098212L35.662489182692305,162.75548893456576L36.090854567307694,161.5307750180056L36.19794591346154,160.83854238240053L36.94758533653847,159.7371823373324L37.161768028846154,158.80883884923963L37.268859375,158.20780751405542L37.59013341346154,158.2629598098897L38.339772836538465,157.90661294567005L38.55395552884616,157.5776882607187L38.661046875000004,157.2703494690922L38.87522956730769,157.1022037782113L39.089412259615386,156.80985456215382L39.73196033653846,156.27877741162206L39.83905168269231,155.9575516408934L39.94614302884615,154.36665339626396L40.2674170673077,151.0256888947339L40.374508413461534,148.5187023151786L40.481599759615385,147.54295042567674L40.58869110576923,146.41231107362046L40.802873798076924,145.78678834824524L40.90996514423077,145.36111945741632L41.23123918269231,144.85882650514398L41.33833052884615,144.7742009383437L41.445421875,144.5732513083218L41.87378725961538,144.23274521906367L41.980878605769234,143.86772780346385L42.08796995192307,143.75503520207116L42.40924399038462,143.51728470943277L42.837609375,143.47718062890712L42.94470072115384,143.4559455865213L43.15888341346154,143.25035015664034L43.26597475961538,143.22352560115775L43.37306610576923,143.14431536050392L43.48015745192308,143.19998425752968L43.69434014423077,143.07895964688691L43.90852283653846,142.9744099635281L44.122705528846154,142.8288150047301L44.33688822115385,142.5794888147735L44.551070913461544,137.9773037379398L44.65816225961538,137.06712067397916L44.872344951923075,135.97968392534546L44.97943629807692,135.72867131807502L45.08652764423077,135.85806661592775L45.193618990384614,135.72585330454623L45.300710336538465,135.6225873175151L45.51489302884615,135.43680739062347L45.621984375,135.15247204695535L46.050349759615386,134.92392484423158L46.692897836538464,134.50599185870075L46.90708052884616,134.52222675231687L47.014171875,134.5500240513539L47.121263221153846,134.45256701641415L47.335445913461534,134.21329706628998L47.442537259615385,133.98389484119343L47.65671995192308,133.7539619125839L47.763811298076924,133.60789973842594L47.870902644230775,133.44758333151037L47.97799399038462,133.25465505948364L48.513450721153845,132.86035113710582L48.620542067307696,132.63592768417845L48.72763341346154,132.61161101881893L49.15599879807692,124.02438954129356L49.263090144230766,120.55947994360051L49.37018149038462,120.3801236937566L49.58436418269231,121.97437621296187L50.44109495192308,122.7839922913357L50.54818629807693,123.16199873736167L50.86946033653846,123.48608435899415L51.083643028846154,123.90860611027719L51.29782572115385,124.13642985717202L51.51200841346154,124.57799336967317L51.72619110576923,124.80286776815323L51.833282451923075,124.88083283778708L52.04746514423077,125.09025102065013L52.26164783653846,125.27172209743266L52.3687391826923,125.32733768179182L52.582921875,125.36099715801575L53.11837860576924,125.34307033880056L53.225469951923074,125.28917520680129L53.332561298076925,125.26528869532406L53.43965264423077,125.18531455077446L54.29638341346154,122.09362758086753L54.51056610576923,120.78461596898215L54.61765745192308,120.16013903934943L54.93893149038461,119.74540499758236L55.04602283653846,119.50935119933793L55.367296875,118.88507650820559L55.581479567307696,118.2827894659528L55.68857091346153,117.84015569518141L56.00984495192308,117.84411794799645L56.22402764423077,117.84659552489565L56.759484375,117.80554965683727L56.86657572115384,117.85056283205097L56.973667067307694,117.90828185158576L57.08075841346154,117.934436320529L57.616215144230765,117.73392739848235L57.723306490384616,117.67432159755194L57.93748918269231,117.50178235515094L58.25876322115384,117.43035725202643L58.36585456730769,116.27355700401355L58.47294591346154,113.68133797447615L58.58003725961539,112.64535777092418L59.00840264423077,111.11511734318998L59.22258533653846,110.22456139440698L59.32967668269231,110.21988113591293L59.43676802884615,110.15417374890576L59.86513341346154,110.35442471934279L60.293498798076925,109.9098326172407L60.40059014423077,109.58383370673508L60.50768149038462,109.54843644640357L60.614772836538464,109.22514040673678L60.7218641826923,109.04434503558223L60.82895552884615,109.08733975555265L60.936046874999995,109.21542432705023L61.57859495192308,109.68917745232258L61.89986899038461,110.08123472857281L62.00696033653846,110.23404704646947L62.86369110576923,110.49656567047049L63.29205649038461,107.1620986465812L63.39914783653846,105.4516495409131L63.506239182692305,104.30527335062742L63.613330528846156,104.42498325499962L63.720421875,104.57454176064175L64.04169591346154,104.48879307100678L64.25587860576923,104.75070588940088L64.47006129807693,104.60068968626085L64.57715264423078,104.33218941505088L64.79133533653847,103.89044811377126L65.21970072115384,103.67182343035459L65.3267920673077,103.5144951154561L65.64806610576923,103.29939004837102L65.75515745192308,103.18938034807819L65.86224879807692,103.19574240467057L65.96934014423077,103.16182748449509L66.29061418269231,103.03263395412365L66.61188822115385,103.0307562195277L66.7189795673077,103.03413443821765L67.04025360576924,102.98718816672623L67.14734495192307,102.97592153927599L67.57571033653846,102.94981809723922L67.68280168269231,99.03613385718197L68.11116706730769,97.22534144020754L68.21825841346154,95.80407686291146L68.32534975961538,94.64802080546623L68.43244110576923,94.17964596840623L68.53953245192308,93.86535684640934L68.64662379807693,93.53235884532768L68.75371514423077,93.32481632843874L68.96789783653846,93.34810190329112L69.0749891826923,93.5515094454834L69.18208052884616,93.95189520452914L69.289171875,94.18303781589567L69.71753725961538,94.55879292989195L69.82462860576923,94.79222709002745L69.93171995192307,95.03306667246017L70.03881129807692,95.15626992724891L70.14590264423077,95.35346361364456L70.36008533653846,95.76127770760972L70.57426802884615,95.90509212743828L70.78845072115385,96.07842901189082L70.89554206730769,96.19337679051726L71.21681610576924,96.36377864541633L71.32390745192308,96.51641721404803L71.43099879807691,96.6358365886045L71.64518149038462,96.50805587009386L71.8593641826923,96.40445850751276L72.2877295673077,96.66959342635559L72.39482091346153,93.44949701593453L72.71609495192308,90.10720716217834L72.82318629807692,88.56057458698558L72.93027764423077,87.56781263100986L73.03736899038462,87.67476583092144L73.14446033653846,88.16284291487176L73.25155168269231,88.56812075103066L73.35864302884615,89.04183181121793L73.57282572115385,88.814725249975L73.6799170673077,88.63025826213901L73.78700841346154,88.71424707769242L73.89409975961537,88.81828195452026L74.10828245192307,88.63460778951243L74.42955649038461,88.31060709213972L74.85792187499999,88.53013679180003L75.17919591346154,89.04534791584882L75.28628725961538,89.29322643683L75.39337860576924,89.54904682401205L75.71465264423077,89.73095554091566L76.0359266826923,89.8425272761466L76.14301802884616,89.79225429646264L76.250109375,89.70209253282601L76.35720072115386,89.63153744012865L76.4642920673077,89.63776086134166L76.57138341346153,89.65941412664921L76.89265745192309,86.87943542848511L76.99974879807692,85.14000345975448L77.10684014423077,83.72430302328046L77.21393149038461,82.93009102717744L77.53520552884615,82.30425464138811L78.28484495192308,82.52195417896166L78.60611899038462,82.37288226494347L78.71321033653845,82.39737408047412L78.92739302884615,82.37958565166886L79.03448437499999,82.42394678480206L79.14157572115384,82.62410605363118L79.2486670673077,82.91135089046995L79.35575841346154,83.23797076611066L79.56994110576923,83.44196598332131L79.67703245192308,83.6657804763377L79.78412379807693,83.83436201906562L79.9983064903846,84.00826389727807L80.10539783653846,84.27710624419339L80.426671875,84.38865774799996L80.6408545673077,84.53354803877836L80.85503725961539,84.70965100024802L80.96212860576922,84.78824669536746L81.06921995192307,84.92110194216252L81.71176802884615,81.26350140243817L81.818859375,79.20777936977177L81.92595072115384,78.55898090125339L82.35431610576923,77.91253448081743L82.67559014423077,77.54816680283982L82.88977283653846,77.83811528761171L83.21104687500001,78.20078734921802L83.63941225961538,78.3954337380373L84.06777764423077,78.58655702722334L84.17486899038461,78.77765536101022L84.28196033653846,78.85757313842389L84.49614302884616,78.78709453150519L84.71032572115385,78.90114287021692L84.81741706730769,79.16906224181015L84.92450841346155,79.40871220522976L85.13869110576923,79.85462316688213L85.35287379807691,80.20961360225866L85.45996514423078,80.37685241752737L85.56705649038462,80.58302825363799L85.67414783653847,80.6421517948647L85.88833052884615,80.66874807598231L85.995421875,80.70541553808474L86.10251322115384,80.51003280945552L86.31669591346153,80.78977412979565L86.63796995192307,79.06740838289716L86.85215264423077,78.02971090078628L87.17342668269231,77.60507940173314L87.28051802884615,77.39399341893296L87.49470072115385,76.79726449341837L87.70888341346154,76.72837159449615L87.92306610576924,76.36591955670568L88.13724879807693,76.17217005878003L88.24434014423076,76.19358759873693L88.5656141826923,76.40190365763657L88.779796875,76.72573483498188L88.88688822115385,76.98225757188375L89.31525360576923,77.16513102475867L89.74361899038462,77.29654594197312L90.06489302884614,77.19609199127221L90.17198437500001,77.15326935744679L90.27907572115384,77.10717730937242L90.3861670673077,77.04601521025799L90.49325841346153,77.10886795956317L90.60034975961538,77.21875231050507L91.02871514423076,74.61925148119364L91.24289783653846,72.64940304845474L91.34998918269231,71.94542581611812L91.45708052884615,71.46392770274844L91.564171875,71.0934877137206L91.67126322115385,70.69043326615466L91.99253725961537,70.90420330309375L92.20671995192308,70.98328639712041L92.95635937499999,71.15076385525526L93.27763341346154,71.19329905860222L93.81309014423077,71.5462717673337L93.9201814903846,71.74349636203976L94.02727283653847,71.88279928783736L94.348546875,72.04815953981972L94.5627295673077,72.15482928164062L94.66982091346154,72.2980354178384L94.77691225961539,72.43355475356789L95.09818629807693,72.62131607824928L95.63364302884615,70.25456469830493L95.84782572115384,70.11976504073513L96.06200841346154,70.51055563536866L96.16909975961538,70.55521926908246L96.38328245192308,70.819920448235L96.70455649038462,70.44358600841244L96.81164783653846,70.12459699908662L97.02583052884616,69.61039929151397L97.45419591346155,69.52574158644595L97.56128725961538,69.53339408597895L97.77546995192307,69.258003823528L98.09674399038461,68.91835670028289L98.31092668269231,68.74239410969116L98.525109375,68.69122829444707L98.63220072115384,68.71910780315103L98.73929206730769,68.86941461351218L98.95347475961539,68.94724989883126L99.16765745192308,68.89562486381543L99.27474879807693,68.8629196391774L99.38184014423078,68.83837491907315L99.48893149038462,68.84461625598452L99.59602283653845,68.88491160978427L99.81020552884615,69.09547078793975L99.917296875,70.66227994075855L100.02438822115384,71.22794514722491L100.55984495192307,68.92889978782455L100.66693629807693,67.12932849106862L100.98821033653846,65.50256706582111L101.0953016826923,64.75703874413136L101.20239302884616,64.19840846767401L101.309484375,63.773734464111186L102.38039783653846,64.39865420690911L102.4874891826923,64.79040168781123L102.701671875,65.04850197469617L103.23712860576923,65.55516318461551L103.34421995192308,65.78145899761472L103.45131129807692,65.95234695904702L103.77258533653846,66.07202352185993L103.8796766826923,66.16773580968348L104.20095072115384,66.34317045485953L104.52222475961538,60.398747879719615L104.62931610576923,60.46520545390597L104.84349879807692,60.62318749610993L104.95059014423077,60.4224706017042L105.05768149038462,60.613962419215746L105.16477283653846,60.406121782889294L105.27186418269231,60.25452539469621L105.91441225961539,60.93656768289698L106.23568629807691,61.3582631819695L106.44986899038462,61.73883024890722L106.6640516826923,62.27013547444046L107.0924170673077,62.944654805801534L107.19950841346153,63.37771431406871L107.62787379807692,63.51853521943411L107.73496514423077,63.60001045632556L107.84205649038462,63.54725668530579L107.94914783653846,63.48588501036715L108.270421875,63.52179385793539L109.12715264423076,46.19976744396885L109.23424399038461,50.21596171464562L109.44842668269231,50.782199060952884L109.66260937499999,52.450938305876406L109.87679206730769,54.598357356561294L109.98388341346154,55.597062979324484L110.09097475961538,56.2518955196046L110.19806610576924,56.957307799166635L110.6264314903846,57.520416810218215L110.73352283653847,58.14204616195185L110.94770552884616,58.637256329335116L111.054796875,58.77927600447973L111.16188822115386,59.0186974829712L111.37607091346153,59.607983304636406L111.48316225961538,59.787753733144264L111.80443629807692,59.87546544798974L112.01861899038461,59.95124977546191L112.55407572115384,60.07670008967669L112.6611670673077,60.190920959892004L112.98244110576923,60.32600302158723L113.30371514423076,60.37413618957356L113.62498918269232,60.52580779788112L113.83917187499999,57.42163106201422L114.16044591346154,57.48261560439065L114.26753725961538,57.144553944104885L114.69590264423077,57.3017786530459L114.8029939903846,57.182148479688415L115.87390745192307,57.185929634134936L116.08809014423078,57.304501770711546L116.19518149038461,57.504619073138585L116.30227283653845,57.611860627690504L116.40936418269231,57.64129553720924L116.623546875,57.66576124719127L116.83772956730769,57.84351236517036L117.05191225961539,57.95044788655524L117.37318629807693,58.14905868135026L117.58736899038462,58.36007365084965L117.69446033653846,58.47506705818941L118.01573437500001,58.495691251149L118.12282572115384,58.54981220447434L118.33700841346155,58.60511502434858L118.55119110576923,56.345428757727454L118.65828245192307,54.95189011863491L118.76537379807692,54.052287452051786L118.97955649038461,54.05743449487077L119.08664783653846,53.85883794759385L119.407921875,54.04875346740883L119.83628725961539,54.36086384487632L119.94337860576923,54.50049672146133L120.15756129807691,54.58046788942511L120.37174399038462,54.54194040877639L120.800109375,54.67515414823902L120.90720072115384,54.83528366011273L121.0142920673077,54.851487149726715L121.12138341346153,54.9534058868476L121.2284747596154,54.989448076462025L121.33556610576923,55.06078509448486L121.44265745192307,55.07595679735253L121.65684014423077,55.342628059238834L122.08520552884615,55.63315569010417L122.29938822115385,55.93086532740023L122.40647956730768,56.18752962343828L122.72775360576924,56.386460745292524L123.15611899038463,53.29941449401237L123.47739302884615,50.837057863697176L123.79866706730769,50.37871272267385L123.90575841346154,50.15153943837576L124.33412379807692,50.13107471073204L124.54830649038462,50.08189189675172L124.65539783653847,50.38831601287554L124.86958052884614,50.82117210474986L125.08376322115384,51.44239281801807L125.1908545673077,51.770161051681185L125.51212860576923,52.11757125802669L126.04758533653846,52.49341458289524L126.26176802884615,52.50287722473564L126.368859375,52.66017972782389L126.58304206730769,53.03297631356201L126.69013341346154,53.28583562620332L127.11849879807693,53.38539190440091L127.3326814903846,53.54988739102312L127.5468641826923,53.65634949928058L127.76104687499999,52.636655091795525L127.9752295673077,50.364919066162805L128.08232091346153,48.57281860097162L128.18941225961538,48.109670605563615L128.40359495192308,47.90178120511979L128.51068629807693,48.09879158960706L128.83196033653846,48.27297623769599L128.9390516826923,48.80971088299845L129.04614302884616,49.02899445468006L129.15323437499998,49.13504409416805L129.26032572115386,49.452908311034946L129.7957824519231,49.90471878871066L130.00996514423076,50.18119613662205L130.22414783653846,50.58618824681543L130.33123918269231,50.86773329377713L130.43833052884617,51.12930006623589L130.9737872596154,51.37883767390442L131.40215264423077,51.75391926112291L131.61633533653844,51.971203397169816L131.72342668269232,52.181754046949834L132.3659747596154,49.871926077767085L132.47306610576922,49.04213151250115L132.58015745192307,48.26041697808405L132.68724879807692,47.78486834376038L132.79434014423077,48.22527518516168L133.22270552884615,48.26238786366811L133.43688822115385,48.29048963300721L133.54397956730767,48.319704770519316L134.18652764423078,48.14800865618824L134.2936189903846,47.966657073309634L134.61489302884615,48.11827341974415L134.82907572115386,48.245419253472335L134.93616706730768,48.37307481143706L135.04325841346156,48.373117185675085L135.25744110576923,48.371644507076155L135.57871514423078,48.569987517729906L135.6858064903846,48.85074626334638L135.79289783653846,49.1219903762825L136.00708052884616,49.42110643003512L136.114171875,49.75439538487273L136.22126322115383,49.93353246407792L136.32835456730768,49.98983655427149L136.43544591346154,50.10202677282245L136.5425372596154,50.11549359102582L136.8638112980769,47.16086371862613L136.97090264423076,48.09913553073241L137.18508533653846,45.40170923038861L137.29217668269231,43.820758778837586L137.39926802884617,42.93267178475098L137.7205420673077,42.699672317142706L137.82763341346154,42.96580583789078L137.9347247596154,43.41400795542074L138.36309014423077,43.97901559688377L139.1127295673077,45.202776687250896L139.32691225961537,46.100231633726594L139.5410949519231,46.915326181735914L139.64818629807692,47.32642879705808L139.75527764423077,47.524307063944235L140.07655168269233,47.409794134931005L140.18364302884615,47.41509478273169L140.290734375,47.323673123014984L140.5049170673077,47.30446865194618L140.61200841346155,47.36989783068645L140.82619110576923,47.517999916196736L141.04037379807693,47.678105466914694L141.36164783653845,47.84445304474385L141.57583052884615,44.78680876970979L141.682921875,44.307045495991034L142.00419591346156,42.22046150951631L142.11128725961538,41.30375917070538L142.32546995192305,41.131185908993665L142.43256129807693,40.94388532631434L142.53965264423078,41.362287139849904L142.6467439903846,41.777054021332866L142.75383533653846,42.20766993139637L142.96801802884616,42.728682278242424L143.075109375,43.11847364821836L143.18220072115383,43.44420751284842L143.5034747596154,44.190264036365065L143.8247487980769,44.92418335086569L144.14602283653846,45.1370764625458L144.2531141826923,45.27025614097046L144.46729687500002,45.548071813072724L144.57438822115384,45.84449483840821L144.6814795673077,46.10371042423939L144.78857091346154,46.33016757448613L144.8956622596154,46.52545958924353L145.00275360576924,46.73381863932645L145.75239302884614,46.750327091818036L145.96657572115384,46.76271141851241L146.18075841346152,41.99892615845381L146.39494110576925,40.31945117456066L146.50203245192307,39.91611365164724L147.14458052884615,40.758653412374315L147.251671875,41.207639700241366L147.4658545673077,41.84742164973464L147.57294591346152,42.03322470405128L147.68003725961537,42.14584593903082L148.10840264423078,42.569197076148164L148.32258533653848,42.97009571646832L148.53676802884615,43.261570407481095L148.75095072115383,43.44924184890457L148.8580420673077,43.685374922823144L148.96513341346153,43.81538644270376L149.28640745192308,43.88919444582629L149.39349879807693,44.128095505844165L149.50059014423076,44.33255242002639L149.71477283653846,44.49720510657209L149.8218641826923,44.70146528968563L150.14313822115383,44.88617157989355L150.2502295673077,45.0455993059493L150.57150360576924,45.07656320591076L150.67859495192306,50.48737390434327L150.78568629807694,46.62067670581092L150.9998689903846,43.588162642463146L151.428234375,41.71926955088621L151.53532572115384,40.77736847224622L151.6424170673077,40.28244877232784L151.96369110576924,40.38020493014859L152.49914783653847,41.57009529724246L152.71333052884617,42.17711559328153L153.0346045673077,42.69272058840224L153.14169591346152,42.893724308226304L153.46296995192307,43.21440770972599L153.57006129807692,43.47819920032519L154.10551802884615,43.43554892330942L154.31970072115385,43.700928367314205L154.4267920673077,43.82955041953176L154.53388341346152,43.8797788943544L154.64097475961537,43.8529986098823L154.74806610576923,43.88953284951552L154.85515745192308,43.94931742270292L154.96224879807693,43.98335246276559L155.28352283653848,39.91944847125829L155.3906141826923,37.75464705001726L155.49770552884615,35.42418503386626L155.60479687499998,35.377756009238084L155.8189795673077,36.18988080605097L156.03316225961538,36.56821615567345L156.1402536057692,37.220562607470406L156.46152764423076,38.205525273336924L156.5686189903846,38.83895616188881L156.88989302884616,39.42773633274577L157.2111670673077,39.808075792033335L157.6395324519231,40.397153524421945L158.17498918269231,40.91364020577868L158.28208052884617,41.35318143648982L158.389171875,41.606757053632L158.8175372596154,41.73985963398128L159.13881129807694,41.91974594196028L159.67426802884617,42.094923567773975L159.99554206730767,37.85935014009598L160.31681610576922,35.023860916615284L160.53099879807695,34.910672763061996L160.63809014423077,35.45006134454756L160.9593641826923,36.28951672520848L161.38772956730767,38.00589389685755L161.81609495192308,38.54440566947437L162.24446033653845,38.645171016754965L162.3515516826923,38.7650479497327L162.88700841346153,39.40623220335324L163.10119110576923,39.91005250531961L163.20828245192308,40.043618182650384L163.42246514423076,40.23209576625296L163.52955649038464,40.40121348392166L163.7437391826923,40.56400084311484L164.49337860576924,40.650722335664746L165.45720072115387,38.290397722058465L165.5642920673077,36.911761032660564L165.7784747596154,36.84604796595558L165.88556610576921,36.55679560200684L166.20684014423077,36.42045411167333L166.31393149038462,36.37811685024375L166.52811418269232,36.18640394460367L166.9564795673077,36.11642479569441L167.1706622596154,36.285152898256335L167.59902764423077,36.7002634680416L167.70611899038462,37.11521835781014L167.81321033653845,37.511321900229916L167.92030168269233,37.762952254975595L168.02739302884615,38.040931634166675L168.45575841346155,38.408865983521245L168.56284975961537,38.673272034666105L168.77703245192308,38.892441142285584L168.8841237980769,39.12062300961301L169.3124891826923,35.95763290954285L169.84794591346156,35.26360692401325L169.95503725961538,35.00047260415311L170.38340264423078,35.625002753089404L170.7046766826923,35.87293067655L171.13304206730768,36.06841347861907L171.45431610576924,36.47931027560607L171.77559014423076,36.98446104615437L173.16777764423077,37.276178584632284L173.2748689903846,37.45672676929059L173.703234375,37.66236908416877L174.77414783653848,36.53822490680774L174.88123918269233,35.5115153617177L175.3096045673077,35.34009921708785L175.52378725961537,34.975144780630345L175.63087860576923,34.99034040984778L175.73796995192305,35.050319444044085L175.84506129807693,35.12780010158041L176.16633533653845,35.226785406197386L176.38051802884615,35.456907597020454L176.487609375,35.63520814587783L176.70179206730768,35.807777962744886L176.91597475961538,36.01975298026839L177.02306610576923,36.1986436492183L177.23724879807693,36.39928244626396L177.34434014423078,36.66505557939931L177.4514314903846,36.851158265146736L177.55852283653846,36.89296818010399L177.6656141826923,36.87854429621927L177.77270552884616,36.90658294284007L177.879796875,36.98367840721406L177.98688822115383,37.076524583543524L178.20107091346156,37.177017133262886L178.95071033653846,37.35693936397265L179.27198437500002,36.58895601540582L179.37907572115384,36.12835590666401L179.59325841346154,36.272646323596646L180.12871514423077,36.016956755969055L180.23580649038462,35.849690836342056L180.34289783653847,35.57435916761864L180.77126322115384,35.3669706279058L180.98544591346152,35.32423687541599L181.09253725961537,35.30860859491894L181.41381129807692,35.35324773990195L181.52090264423077,35.42589217307017L181.94926802884615,35.61503748823312L182.056359375,35.65744917827309L182.16345072115385,35.75425654195226L182.37763341346152,35.942032382145385L183.12727283653848,36.858018770965856L183.2343641826923,35.71062899539051L183.34145552884615,34.76174673383935L183.55563822115383,35.1707209285826L183.76982091346153,34.663730617566735L183.87691225961538,33.99332406294576L184.6265516826923,34.29341620309489L184.94782572115383,34.17281695665917L185.16200841346154,34.298629024398295L185.8045564903846,34.67979260609865L186.12583052884617,34.965133823909305L186.232921875,35.289894126628624L186.55419591346154,35.27467826770237L187.30383533653847,35.44818018535666L187.625109375,32.36459215080674L187.73220072115384,28.618800804590798L187.8392920673077,26.68594875668028L188.0534747596154,27.943226496783133L188.26765745192307,28.40662353063063L188.8031141826923,28.39477879300376L189.017296875,28.850374820796613L189.12438822115385,29.08733486114023L189.2314795673077,29.40499995337773L189.44566225961537,29.738826109092546L189.65984495192308,30.112405915928534L189.76693629807693,30.4833151578144L189.87402764423075,30.881592421486104L189.98111899038463,31.238877277823743L190.30239302884615,31.359321344645313L190.51657572115386,31.651524095983223L190.73075841346153,31.86066911771946L190.83784975961538,32.09758546444805L190.9449411057692,32.36303338106294L191.26621514423076,32.60431800303351L191.80167187499998,32.878305447205854L192.3371286057692,28.044361181321733L192.4442199519231,26.15929710105834L192.55131129807694,26.317935557578668L192.97967668269231,25.9412161418287L193.08676802884617,26.08280001333285L193.193859375,26.308972932403854L193.94349879807694,27.557946668568597L194.05059014423077,28.38296401888332L194.26477283653844,28.789406993330687L194.37186418269232,29.157615338767272L194.586046875,29.572175452115914L195.22859495192307,30.262809746863095L195.44277764423077,30.97693755233386L195.65696033653845,31.620898437524396L195.7640516826923,31.975413901820495L196.19241706730767,32.22288550330087L196.62078245192308,32.571502383904985L196.72787379807693,32.73863067409833L196.83496514423078,42.293647576459904L197.1562391826923,37.737147288971364L197.26333052884615,33.94842425432989L197.7987872596154,32.07486747173782L197.90587860576923,30.743457117487907L198.1200612980769,30.017448257690585L198.33424399038464,29.505998832753864L198.44133533653846,29.1132414476702L198.5484266826923,28.938608344592396L198.65551802884616,28.708293769477436L198.86970072115386,28.51650036199009L199.08388341346154,28.501860528130027L199.5122487980769,28.901457434260053L199.7264314903846,29.211837426044482L199.94061418269231,29.452271434794653L200.26188822115387,29.88242688961672L200.3689795673077,30.15237838737874L200.7973449519231,30.31985639758529L201.11861899038462,30.41946755187286L201.33280168269232,30.724353458503323L201.43989302884614,29.762607601892615L201.65407572115384,26.96357772804002L201.9753497596154,26.09491845403133L202.08244110576922,24.754492571556682L202.18953245192307,24.29181510842092L202.29662379807692,23.875781790234115L202.83208052884615,25.00402633894531L202.939171875,25.490376368457365L203.04626322115385,25.817834910925804L203.26044591346155,26.38978532384428L203.36753725961537,26.870517310086424L203.47462860576923,27.44319519793008L203.58171995192308,27.862973090380514L203.79590264423078,28.10723325989848L204.01008533653845,28.32115125287894L204.331359375,28.58848804014522L204.54554206730768,28.688491235837944L204.65263341346156,28.67175229231452L204.75972475961538,28.63712737464868L204.86681610576923,28.74982075395564L205.5093641826923,28.88608577550878L205.61645552884613,29.010899428733765L205.93772956730768,29.194737699156132L206.04482091346154,29.305990163400825L206.1519122596154,29.663848402449563L206.25900360576924,30.265190006702607L206.79446033653846,28.771839130764885L207.65119110576924,28.392104487923177L207.7582824519231,27.99740455228531L208.18664783653847,27.591974137296955L208.40083052884614,27.71447460536404L208.7221045673077,27.606472305561542L208.82919591346155,27.666361637178365L208.93628725961537,27.8595011158367L209.04337860576922,27.889064522002936L209.25756129807692,27.95429876531055L209.36465264423077,27.940140599518326L209.68592668269233,27.928944894378944L210.22138341346155,28.177917807522753L210.32847475961537,28.446896606220825L210.54265745192305,28.726423033198117L210.64974879807693,28.900996403765916L210.8639314903846,28.487523339314606L211.61357091346156,27.6045286191245L211.72066225961538,27.22510125236158L211.82775360576923,27.108220064618852L212.14902764423078,27.743455281244895L212.57739302884616,27.796575123302468L212.684484375,27.668255492587306L212.79157572115383,27.60729974778856L213.1128497596154,27.752049531175903L213.21994110576924,27.920429972192153L213.4341237980769,28.140557436573808L213.6483064903846,28.405015592830367L213.8624891826923,28.494144740734693L213.96958052884614,28.591447021385513L214.2908545673077,28.75216360439091L214.5050372596154,28.93267723053232L214.61212860576924,29.12475258189165L214.71921995192307,29.20335756586623L215.14758533653847,29.158693163672897L215.36176802884614,28.200950020003205L215.79013341346152,25.62514428701871L216.00431610576925,24.271122648756926L216.21849879807692,24.160528787637507L216.32559014423077,24.205580704608376L216.75395552884615,24.632869144200594L217.0752295673077,25.255444025945273L217.18232091346152,25.759408328504332L217.39650360576925,26.060172756654623L217.50359495192308,26.31625397213855L217.71777764423078,26.50464392428731L217.8248689903846,26.57960286572656L217.93196033653848,26.68663346073078L218.14614302884615,27.019413180953542L218.253234375,27.32387438285723L218.36032572115383,27.476620691230128L219.00287379807693,27.704849062687277L219.10996514423076,27.828609107927154L219.2170564903846,27.988942765590952L219.32414783653846,28.101938595412637L219.4312391826923,28.152434057020265L219.75251322115383,28.251897279037923L219.96669591346154,28.135326542624174L220.71633533653846,26.346669446330253L221.14470072115384,25.17831398898422L221.2517920673077,24.878834556663367L221.35888341346154,24.646713287308376L221.4659747596154,24.651110726997015L221.89434014423077,24.609312497618614L222.00143149038462,24.65355775537659L222.10852283653847,24.504098890915945L222.2156141826923,24.621847557243964L222.32270552884617,24.66937110854224L222.53688822115384,24.929943525988055L222.8581622596154,25.204320623992817L223.17943629807692,25.393992635321002L223.28652764423074,25.606987150139403L223.50071033653848,25.692098469511723L223.71489302884615,25.79340446649555L223.92907572115385,25.931572476974527L224.46453245192308,26.362761163682563L224.89289783653848,22.96310650346925L225.21417187499998,22.49963471316246L225.64253725961538,22.34748725308743L225.85671995192308,22.895635618053497L225.96381129807693,22.98351993160404L226.07090264423076,22.940614569169046L226.3921766826923,22.88376988648283L226.71345072115383,23.236226437562173L226.92763341346154,23.538409458442608L227.5701814903846,24.034152130391607L227.67727283653844,24.49532352692269L227.78436418269231,24.750113968887245L228.10563822115384,25.043704429172468L228.4269122596154,25.271585463823673L228.74818629807694,25.27615395745148L228.85527764423077,25.241125974419795L229.17655168269232,23.724749048568636L229.28364302884617,23.841524446021197L229.390734375,22.802244308001207L229.49782572115384,22.73932550096894L229.8190997596154,22.89372176971665L230.03328245192307,23.280177647153348L230.35455649038462,23.59402484552851L230.46164783653845,23.504139631133047L230.67583052884618,23.79689277955336L230.99710456730767,23.635682462146494L231.42546995192308,23.571777390534074L231.53256129807693,23.555874244627013L231.63965264423078,23.577792523060218L231.74674399038463,23.5603695260012L231.85383533653845,23.6897562710359L232.06801802884615,24.007348571295402L232.175109375,24.194833895012657L232.28220072115386,24.449370587137317L232.38929206730768,24.692569592158225L233.03184014423076,24.90221112880724L233.24602283653846,25.148245202980124L233.3531141826923,25.293333642173838L233.46020552884616,25.49777680187764L233.56729687499998,25.642049143012443L233.67438822115386,25.799065595445665L233.78147956730768,31.36795624827006L233.88857091346154,29.79793883999975L234.10275360576924,29.35480729127402L234.3169362980769,28.70386310448928L234.42402764423076,27.768166399184963L234.5311189903846,27.204364071002068L234.74530168269231,27.123735314435063L234.85239302884614,26.750427929059448L234.959484375,26.252206222710498L235.1736670673077,25.54551484376043L235.92330649038462,25.201806784807744L237.42258533653845,25.175480926715814L237.52967668269233,25.283310571124243L237.95804206730767,25.351637565380372L238.06513341346155,25.373168971112968L238.17222475961537,25.352623144371293L238.38640745192308,22.022387540091866L238.4934987980769,21.14524932846415L238.70768149038463,21.698054314523862L239.02895552884615,22.093944740813953L239.136046875,22.608723028017256L239.35022956730768,22.335650779910807L239.45732091346156,22.239580773179487L239.56441225961538,22.18248737029121L239.99277764423078,21.670600176882065L240.0998689903846,21.479982305187775L240.3140516826923,21.527227371107834L240.42114302884613,21.59321688960272L240.74241706730768,21.92964602321554L240.84950841346154,22.153647999824102L240.9565997596154,22.254078114545955L241.4920564903846,22.320961597273737L241.59914783653846,22.45329888028502L241.70623918269231,22.549475785270907L241.81333052884614,22.603795371160274L242.8842439903846,22.71460498673042L242.99133533653847,29.63067152084307L243.20551802884614,27.505358731635788L243.63388341346155,25.83960923903488L244.06224879807692,24.220039792974607L244.16934014423077,23.20324953086365L244.704796875,23.18747921995635L244.9189795673077,23.372084690405842L245.02607091346155,23.364265723987767L245.24025360576923,23.18754568336271L245.34734495192305,22.97271128081L245.45443629807693,22.63558485259247L245.88280168269233,22.565806723532873L245.98989302884615,22.484577713547807L246.096984375,22.400571583592093L246.20407572115383,22.36162522964668L246.41825841346156,22.45428656061287L246.52534975961538,22.471818879364704L246.73953245192305,22.62238981432844L246.84662379807693,22.663010121030386L246.95371514423078,22.617140257741678L247.0608064903846,22.672889664403L247.16789783653846,22.70464075483765L247.38208052884616,22.737047737109005L247.489171875,22.74660655574044L247.9175372596154,20.35647402236484L248.02462860576924,19.626566279111042L248.4529939903846,19.164736383067215L248.56008533653846,19.04200636917749L248.77426802884614,19.058423349704736L248.88135937500002,19.52393954363247L248.98845072115384,19.733154912989022L249.20263341346154,19.62430484306853L249.3097247596154,19.46824351079489L249.73809014423077,20.2643428273632L250.0593641826923,20.922903646685732L250.16645552884614,21.242523079906732L250.27354687500002,21.563553610917808L250.4877295673077,21.62198619811347L250.59482091346152,21.561240999511526L251.02318629807692,21.67250474012592L251.665734375,21.793848798970597L251.77282572115385,21.89518249410404L252.20119110576925,22.065175440180422" style="fill: none;" fill="none"></path></g></g></g></g><g opacity="0.2"><g><g><g><path stroke="rgb(255, 112, 67)" stroke-width="2px" d="M30.62919591346154,188.57849103212357L31.057561298076923,175.44209142029285L31.16465264423077,175.6448496580124L32.128474759615386,172.1394597440958L32.23556610576923,172.53966164588928L32.55684014423077,172.4758208245039L32.87811418269231,171.80963967740536L32.98520552884615,171.54271093010902L33.199388221153846,170.87076683342457L33.94902764423077,169.7184670418501L34.484484375,169.36421048641205L34.91284975961538,168.51995815336704L35.019941105769234,168.26160129904747L35.23412379807693,168.5070739388466L35.44830649038461,161.27335895597935L35.55539783653846,161.01672966778278L35.662489182692305,161.04160134494305L36.090854567307694,159.69370414316654L36.19794591346154,159.80019342899323L36.94758533653847,158.08514226973057L37.161768028846154,157.41632361710072L37.268859375,157.3062605112791L37.59013341346154,158.34568825364113L38.339772836538465,157.37209264934063L38.55395552884616,157.08430123329163L38.661046875000004,156.80934128165245L38.87522956730769,156.84998524188995L39.089412259615386,156.37133073806763L39.73196033653846,155.4821616858244L39.83905168269231,155.47571298480034L39.94614302884615,151.98030602931976L40.2674170673077,146.0142421424389L40.374508413461534,144.7582224458456L40.481599759615385,146.079322591424L40.58869110576923,144.71635204553604L40.802873798076924,144.84850426018238L40.90996514423077,144.7226161211729L41.23123918269231,144.1053870767355L41.33833052884615,144.64726258814335L41.445421875,144.27182686328888L41.87378725961538,143.72198608517647L41.980878605769234,143.3202016800642L42.08796995192307,143.58599629998207L42.40924399038462,143.1606589704752L42.837609375,143.41702450811863L42.94470072115384,143.42409302294254L43.15888341346154,142.9419570118189L43.26597475961538,143.18328876793385L43.37306610576923,143.02549999952316L43.48015745192308,143.28348760306835L43.69434014423077,142.8974227309227L43.90852283653846,142.8175854384899L44.122705528846154,142.6104225665331L44.33688822115385,142.20549952983856L44.551070913461544,131.07402612268925L44.65816225961538,135.70184607803822L44.872344951923075,134.34852880239487L44.97943629807692,135.35215240716934L45.08652764423077,136.05215956270695L45.193618990384614,135.52753333747387L45.300710336538465,135.46768833696842L45.51489302884615,135.1581375002861L45.621984375,134.72596903145313L46.050349759615386,134.58110404014587L46.692897836538464,133.87909238040447L46.90708052884616,134.546579092741L47.014171875,134.5917199999094L47.121263221153846,134.30638146400452L47.335445913461534,133.85439214110374L47.442537259615385,133.63979150354862L47.65671995192308,133.40906251966953L47.763811298076924,133.38880647718906L47.870902644230775,133.20710872113705L47.97799399038462,132.96526265144348L48.513450721153845,132.26889525353909L48.620542067307696,132.29929250478745L48.72763341346154,132.5751360207796L49.15599879807692,111.14355732500553L49.263090144230766,115.36211554706097L49.37018149038462,120.11108931899071L49.58436418269231,124.36575499176979L50.44109495192308,123.99841640889645L50.54818629807693,123.72900840640068L50.86946033653846,123.97221279144287L51.083643028846154,124.54238873720169L51.29782572115385,124.47816547751427L51.51200841346154,125.24033863842487L51.72619110576923,125.14017936587334L51.833282451923075,124.99778044223785L52.04746514423077,125.40437829494476L52.26164783653846,125.54392871260643L52.3687391826923,125.41076105833054L52.582921875,125.41148637235165L53.11837860576924,125.31618010997772L53.225469951923074,125.20833250880241L53.332561298076925,125.22945892810822L53.43965264423077,125.06535333395004L54.29638341346154,117.45609712600708L54.51056610576923,118.82109855115414L54.61765745192308,119.22342364490032L54.93893149038461,119.12330393493176L55.04602283653846,119.15527050197124L55.367296875,117.94866447150707L55.581479567307696,117.37935890257359L55.68857091346153,117.17620503902435L56.00984495192308,117.85006132721901L56.22402764423077,117.85031189024448L56.759484375,117.74398085474968L56.86657572115384,117.91808259487152L56.973667067307694,117.99486038088799L57.08075841346154,117.9736680239439L57.616215144230765,117.43316401541233L57.723306490384616,117.58491289615631L57.93748918269231,117.24297349154949L58.25876322115384,117.32321959733963L58.36585456730769,114.53835663199425L58.47294591346154,109.79300943017006L58.58003725961539,111.0913874655962L59.00840264423077,108.81975670158863L59.22258533653846,108.88872747123241L59.32967668269231,110.2128607481718L59.43676802884615,110.05561266839504L59.86513341346154,110.65480117499828L60.293498798076925,109.24294446408749L60.40059014423077,109.09483534097672L60.50768149038462,109.4953405559063L60.614772836538464,108.74019634723663L60.7218641826923,108.77315197885036L60.82895552884615,109.15183183550835L60.936046874999995,109.40755118429661L61.57859495192308,110.39980714023113L61.89986899038461,110.66932064294815L62.00696033653846,110.46326552331448L62.86369110576923,110.89034360647202L63.29205649038461,102.16039811074734L63.39914783653846,102.885975882411L63.506239182692305,102.5857090651989L63.613330528846156,104.60454811155796L63.720421875,104.79887951910496L64.04169591346154,104.36017003655434L64.25587860576923,105.143575116992L64.47006129807693,104.37566538155079L64.57715264423078,103.92943900823593L64.79133533653847,103.22783616185188L65.21970072115384,103.34388640522957L65.3267920673077,103.27850264310837L65.64806610576923,102.97673244774342L65.75515745192308,103.0243657976389L65.86224879807692,103.20528548955917L65.96934014423077,103.11095510423183L66.29061418269231,102.83884365856647L66.61188822115385,103.02793961763382L66.7189795673077,103.03920176625252L67.04025360576924,102.91676875948906L67.14734495192307,102.95902159810066L67.57571033653846,102.91066293418407L67.68280168269231,93.16560749709606L68.11116706730769,94.5091528147459L68.21825841346154,93.67217999696732L68.32534975961538,92.91393671929836L68.43244110576923,93.47708371281624L68.53953245192308,93.393923163414L68.64662379807693,93.03286184370518L68.75371514423077,93.01350255310535L68.96789783653846,93.38303026556969L69.0749891826923,93.8566207587719L69.18208052884616,94.55247384309769L69.289171875,94.52975173294544L69.71753725961538,95.12242560088634L69.82462860576923,95.14237833023071L69.93171995192307,95.3943260461092L70.03881129807692,95.34107480943203L70.14590264423077,95.64925414323807L70.36008533653846,96.37299884855747L70.57426802884615,96.12081375718117L70.78845072115385,96.33843433856964L70.89554206730769,96.365798458457L71.21681610576924,96.61938142776489L71.32390745192308,96.74537506699562L71.43099879807691,96.81496565043926L71.64518149038462,96.31638479232788L71.8593641826923,96.24906246364117L72.2877295673077,97.06729580461979L72.39482091346153,88.61935240030289L72.71609495192308,85.09377238154411L72.82318629807692,86.24062572419643L72.93027764423077,86.07866969704628L73.03736899038462,87.8351956307888L73.14446033653846,88.89495854079723L73.25155168269231,89.17603750526905L73.35864302884615,89.7523984014988L73.57282572115385,88.47406540811062L73.6799170673077,88.35355778038502L73.78700841346154,88.84023030102253L73.89409975961537,88.97433426976204L74.10828245192307,88.35909654200077L74.42955649038461,87.82460604608059L74.85792187499999,88.85943134129047L75.17919591346154,89.81816460192204L75.28628725961538,89.66504421830177L75.39337860576924,89.93277740478516L75.71465264423077,90.00381861627102L76.0359266826923,90.00988487899303L76.14301802884616,89.71684482693672L76.250109375,89.56684988737106L76.35720072115386,89.52570480108261L76.4642920673077,89.6470959931612L76.57138341346153,89.69189402461052L76.89265745192309,82.70946738123894L76.99974879807692,82.53085550665855L77.10684014423077,81.60075236856937L77.21393149038461,81.73877303302288L77.53520552884615,81.36550006270409L78.28484495192308,82.848503485322L78.60611899038462,82.14927439391613L78.71321033653845,82.43411180377007L78.92739302884615,82.352903008461L79.03448437499999,82.49048848450184L79.14157572115384,82.92434495687485L79.2486670673077,83.34221814572811L79.35575841346154,83.72790057957172L79.56994110576923,83.74795880913734L79.67703245192308,84.00150221586227L79.78412379807693,84.08723433315754L79.9983064903846,84.26911671459675L80.10539783653846,84.68036976456642L80.426671875,84.5559850037098L80.6408545673077,84.75088347494602L80.85503725961539,84.97380544245243L80.96212860576922,84.90614023804665L81.06921995192307,85.12038481235504L81.71176802884615,75.77710059285164L81.818859375,76.12419632077217L81.92595072115384,77.58578319847584L82.35431610576923,76.94286485016346L82.67559014423077,77.00161528587341L82.88977283653846,78.27303801476955L83.21104687500001,78.7447954416275L83.63941225961538,78.68740332126617L84.06777764423077,78.87324196100235L84.17486899038461,79.06430286169052L84.28196033653846,78.97744980454445L84.49614302884616,78.68137662112713L84.71032572115385,79.07221537828445L84.81741706730769,79.57094129920006L84.92450841346155,79.76818715035915L85.13869110576923,80.5234896093607L85.35287379807691,80.74209925532341L85.45996514423078,80.62771064043045L85.56705649038462,80.89229200780392L85.67414783653847,80.73083710670471L85.88833052884615,80.70864249765873L85.995421875,80.76041673123837L86.10251322115384,80.21695871651173L86.31669591346153,81.20938611030579L86.63796995192307,76.4838597625494L86.85215264423077,76.47316467761993L87.17342668269231,76.96813215315342L87.28051802884615,77.07736444473267L87.49470072115385,75.90217110514641L87.70888341346154,76.62503224611282L87.92306610576924,75.82224150002003L88.13724879807693,75.88154581189156L88.24434014423076,76.22571390867233L88.5656141826923,76.71437774598598L88.779796875,77.21148160099983L88.88688822115385,77.36704167723656L89.31525360576923,77.43944120407104L89.74361899038462,77.4936683177948L90.06489302884614,77.04541106522083L90.17198437500001,77.08903540670872L90.27907572115384,77.03803923726082L90.3861670673077,76.95427206158638L90.49325841346153,77.20314708352089L90.60034975961538,77.38357883691788L91.02871514423076,70.72000023722649L91.24289783653846,69.69463039934635L91.34998918269231,70.88945996761322L91.45708052884615,70.74168053269386L91.564171875,70.53782773017883L91.67126322115385,70.08585159480572L91.99253725961537,71.22485835850239L92.20671995192308,71.10191103816032L92.95635937499999,71.40198004245758L93.27763341346154,71.25710186362267L93.81309014423077,72.07573083043098L93.9201814903846,72.03933325409889L94.02727283653847,72.0917536765337L94.348546875,72.29619991779327L94.5627295673077,72.31483389437199L94.66982091346154,72.51284462213516L94.77691225961539,72.6368337571621L95.09818629807693,72.90295806527138L95.63364302884615,66.7044376283884L95.84782572115384,69.91756555438042L96.06200841346154,71.09674152731895L96.16909975961538,70.62221471965313L96.38328245192308,71.21697221696377L96.70455649038462,69.87908434867859L96.81164783653846,69.64611348509789L97.02583052884616,68.83910273015499L97.45419591346155,69.39875502884388L97.56128725961538,69.54487283527851L97.77546995192307,68.84491842985153L98.09674399038461,68.40888601541519L98.31092668269231,68.47845022380352L98.525109375,68.61447957158089L98.63220072115384,68.76092706620693L98.73929206730769,69.09487482905388L98.95347475961539,69.06400282680988L99.16765745192308,68.8181873112917L99.27474879807693,68.81386180222034L99.38184014423078,68.80155783891678L99.48893149038462,68.85397826135159L99.59602283653845,68.94535464048386L99.81020552884615,69.41130955517292L99.917296875,73.01249366998672L100.02438822115384,72.07644295692444L100.55984495192307,65.48033174872398L100.66693629807693,64.42997154593468L100.98821033653846,63.062424927949905L101.0953016826923,63.63874626159668L101.20239302884616,63.36046305298805L101.309484375,63.13672345876694L102.38039783653846,65.33603382110596L102.4874891826923,65.37802290916443L102.701671875,65.43565240502357L103.23712860576923,66.31515499949455L103.34421995192308,66.1209027171135L103.45131129807692,66.20867890119553L103.77258533653846,66.25153836607933L103.8796766826923,66.31130424141884L104.20095072115384,66.60632242262363L104.52222475961538,51.482114017009735L104.62931610576923,60.56489181518555L104.84349879807692,60.86016055941582L104.95059014423077,60.121395260095596L105.05768149038462,60.90120014548302L105.16477283653846,60.09436082839966L105.27186418269231,60.02713081240654L105.91441225961539,61.959631115198135L106.23568629807691,61.99080643057823L106.44986899038462,62.309680849313736L106.6640516826923,63.067093312740326L107.0924170673077,63.956433802843094L107.19950841346153,64.02730357646942L107.62787379807692,63.72976657748222L107.73496514423077,63.722223311662674L107.84205649038462,63.46812602877617L107.94914783653846,63.39382749795914L108.270421875,63.57565712928772L109.12715264423076,20.216727823019028L109.23424399038461,56.24025312066078L109.44842668269231,51.63155508041382L109.66260937499999,54.95404717326164L109.87679206730769,57.81948593258858L109.98388341346154,57.095121413469315L110.09097475961538,57.23414433002472L110.19806610576924,58.015426218509674L110.6264314903846,58.36508032679558L110.73352283653847,59.07449018955231L110.94770552884616,59.380071580410004L111.054796875,58.992305517196655L111.16188822115386,59.37782970070839L111.37607091346153,60.49191203713417L111.48316225961538,60.05740937590599L111.80443629807692,60.00703302025795L112.01861899038461,60.06492626667023L112.55407572115384,60.26487556099892L112.6611670673077,60.36225226521492L112.98244110576923,60.52862611413002L113.30371514423076,60.446335941553116L113.62498918269232,60.75331521034241L113.83917187499999,52.765365958213806L114.16044591346154,57.5740924179554L114.26753725961538,56.637461453676224L114.69590264423077,57.53761571645737L114.8029939903846,57.002703219652176L115.87390745192307,57.19160136580467L116.08809014423078,57.4823599755764L116.19518149038461,57.804795026779175L116.30227283653845,57.77272295951843L116.40936418269231,57.68544790148735L116.623546875,57.70245981216431L116.83772956730769,58.11013904213905L117.05191225961539,58.11085116863251L117.37318629807693,58.446974873542786L117.58736899038462,58.676596105098724L117.69446033653846,58.64755716919899L118.01573437500001,58.52662754058838L118.12282572115384,58.63099363446236L118.33700841346155,58.68806925415993L118.55119110576923,52.955899357795715L118.65828245192307,52.86158215999603L118.76537379807692,52.70288345217705L118.97955649038461,54.0651550590992L119.08664783653846,53.56094312667847L119.407921875,54.33362674713135L119.83628725961539,54.8290294110775L119.94337860576923,54.709946036338806L120.15756129807691,54.70042464137077L120.37174399038462,54.48414918780327L120.800109375,54.87497475743294L120.90720072115384,55.0754779279232L121.0142920673077,54.875792384147644L121.12138341346153,55.106283992528915L121.2284747596154,55.04351136088371L121.33556610576923,55.16779062151909L121.44265745192307,55.09871435165405L121.65684014423077,55.74263495206833L122.08520552884615,56.06894713640213L122.29938822115385,56.37742978334427L122.40647956730768,56.572526067495346L122.72775360576924,56.68485742807388L123.15611899038463,48.66884511709213L123.47739302884615,47.143522918224335L123.79866706730769,49.691195011138916L123.90575841346154,49.81077951192856L124.33412379807692,50.10037761926651L124.54830649038462,50.00811767578125L124.65539783653847,50.84795218706131L124.86958052884614,51.47045624256134L125.08376322115384,52.37422388792038L125.1908545673077,52.2618134021759L125.51212860576923,52.63868656754494L126.04758533653846,53.05717957019806L126.26176802884615,52.517071187496185L126.368859375,52.89613348245621L126.58304206730769,53.59217119216919L126.69013341346154,53.66512459516525L127.11849879807693,53.534726321697235L127.3326814903846,53.79663062095642L127.5468641826923,53.81604266166687L127.76104687499999,51.10711348056793L127.9752295673077,46.957315027713776L128.08232091346153,45.88466790318489L128.18941225961538,47.41494861245155L128.40359495192308,47.58994710445404L128.51068629807693,48.39430716633797L128.83196033653846,48.53425320982933L128.9390516826923,49.61481285095215L129.04614302884616,49.357919812202454L129.15323437499998,49.29411855340004L129.26032572115386,49.92970463633537L129.7957824519231,50.58243450522423L130.00996514423076,50.59591215848923L130.22414783653846,51.19367641210556L130.33123918269231,51.290050864219666L130.43833052884617,51.52165022492409L130.9737872596154,51.75314408540726L131.40215264423077,52.31654164195061L131.61633533653844,52.29712960124016L131.72342668269232,52.4975800216198L132.3659747596154,46.40718412399292L132.47306610576922,47.79743966460228L132.58015745192307,47.08784517645836L132.68724879807692,47.07154539227486L132.79434014423077,48.88588544726372L133.22270552884615,48.318056881427765L133.43688822115385,48.332642287015915L133.54397956730767,48.36352747678757L134.18652764423078,47.89046448469162L134.2936189903846,47.694629698991776L134.61489302884615,48.345697939395905L134.82907572115386,48.43613800406456L134.93616706730768,48.564558148384094L135.04325841346156,48.373180747032166L135.25744110576923,48.369435489177704L135.57871514423078,48.86750203371048L135.6858064903846,49.27188438177109L135.79289783653846,49.52885654568672L136.00708052884616,49.869780510663986L136.114171875,50.254328817129135L136.22126322115383,50.20223808288574L136.32835456730768,50.074292689561844L136.43544591346154,50.27031210064888L136.5425372596154,50.135693818330765L136.8638112980769,42.72891891002655L136.97090264423076,49.50654324889183L137.18508533653846,41.355569779872894L137.29217668269231,41.449333101511L137.39926802884617,41.60054129362106L137.7205420673077,42.350173115730286L137.82763341346154,43.36500611901283L137.9347247596154,44.086311131715775L138.36309014423077,44.82652705907822L139.1127295673077,47.03841832280159L139.32691225961537,47.446414053440094L139.5410949519231,48.13796800374985L139.64818629807692,47.943082720041275L139.75527764423077,47.82112446427345L140.07655168269233,47.23802474141121L140.18364302884615,47.42304575443268L140.290734375,47.18654063344002L140.5049170673077,47.27566194534302L140.61200841346155,47.468041598796844L140.82619110576923,47.740153044462204L141.04037379807693,47.91826379299164L141.36164783653845,48.09397441148758L141.57583052884615,40.20034235715866L141.682921875,43.58740058541298L142.00419591346156,39.09058552980423L142.11128725961538,39.92870566248894L142.32546995192305,40.872326016426086L142.43256129807693,40.6629344522953L142.53965264423078,41.9898898601532L142.6467439903846,42.39920434355736L142.75383533653846,42.85359379649162L142.96801802884616,43.510200798511505L143.075109375,43.70316070318222L143.18220072115383,43.93280830979347L143.5034747596154,45.309348821640015L143.8247487980769,46.02506232261658L144.14602283653846,45.45641613006592L144.2531141826923,45.47002565860748L144.46729687500002,45.96479532122612L144.57438822115384,46.28912937641144L144.6814795673077,46.492533802986145L144.78857091346154,46.669853299856186L144.8956622596154,46.81839761137962L145.00275360576924,47.046357214450836L145.75239302884614,46.775089770555496L145.96657572115384,46.78128790855408L146.18075841346152,34.85324826836586L146.39494110576925,37.80023869872093L146.50203245192307,39.311107367277145L147.14458052884615,42.02246305346489L147.251671875,41.88111913204193L147.4658545673077,42.80709457397461L147.57294591346152,42.311929285526276L147.68003725961537,42.31477779150009L148.10840264423078,43.20422378182411L148.32258533653848,43.57144367694855L148.53676802884615,43.698782444000244L148.75095072115383,43.730749011039734L148.8580420673077,44.03957453370094L148.96513341346153,44.01040372252464L149.28640745192308,43.999906450510025L149.39349879807693,44.48644709587097L149.50059014423076,44.63923779129982L149.71477283653846,44.744184136390686L149.8218641826923,45.00785556435585L150.14313822115383,45.16323101520538L150.2502295673077,45.28474089503288L150.57150360576924,45.12300905585289L150.67859495192306,58.603589951992035L150.78568629807694,40.82063090801239L150.9998689903846,39.03939154744148L151.428234375,38.91592991352081L151.53532572115384,39.364516854286194L151.6424170673077,39.540069222450256L151.96369110576924,40.526839166879654L152.49914783653847,43.354930847883224L152.71333052884617,43.087646037340164L153.0346045673077,43.4661280810833L153.14169591346152,43.19522988796234L153.46296995192307,43.69543281197548L153.57006129807692,43.873886436223984L154.10551802884615,43.3715735077858L154.31970072115385,44.09899753332138L154.4267920673077,44.02248349785805L154.53388341346152,43.955121606588364L154.64097475961537,43.81282818317413L154.74806610576923,43.9443342089653L154.85515745192308,44.038994282484055L154.96224879807693,44.03440502285957L155.28352283653848,33.823592483997345L155.3906141826923,34.50744491815567L155.49770552884615,31.92849200963974L155.60479687499998,35.30811247229576L155.8189795673077,37.408068001270294L156.03316225961538,37.13571918010712L156.1402536057692,38.19908228516579L156.46152764423076,39.68296927213669L156.5686189903846,39.789102494716644L156.88989302884616,40.31090658903122L157.2111670673077,40.37858498096466L157.6395324519231,41.28077012300491L158.17498918269231,41.68837022781372L158.28208052884617,42.012493282556534L158.389171875,41.98712047934532L158.8175372596154,41.93951350450516L159.13881129807694,42.18957540392876L159.67426802884617,42.35769000649452L159.99554206730767,31.505989998579025L160.31681610576922,30.770627081394196L160.53099879807695,34.74089053273201L160.63809014423077,36.259144216775894L160.9593641826923,37.5486997961998L161.38772956730767,40.58045965433121L161.81609495192308,39.35217332839966L162.24446033653845,38.79631903767586L162.3515516826923,38.944863349199295L162.88700841346153,40.3680085837841L163.10119110576923,40.66578295826912L163.20828245192308,40.243966698646545L163.42246514423076,40.514812141656876L163.52955649038464,40.654890060424805L163.7437391826923,40.8081818819046L164.49337860576924,40.78080457448959L165.45720072115387,34.749910801649094L165.5642920673077,34.84380599856377L165.7784747596154,36.74747836589813L165.88556610576921,36.12291705608368L166.20684014423077,36.21594187617302L166.31393149038462,36.314610958099365L166.52811418269232,35.898834586143494L166.9564795673077,36.011456072330475L167.1706622596154,36.53824505209923L167.59902764423077,37.322929322719574L167.70611899038462,37.73765069246292L167.81321033653845,38.10547721385956L167.92030168269233,38.140397787094116L168.02739302884615,38.45790070295334L168.45575841346155,38.9607675075531L168.56284975961537,39.06988111138344L168.77703245192308,39.22119480371475L168.8841237980769,39.462895810604095L169.3124891826923,31.21314775943756L169.84794591346156,34.222567945718765L169.95503725961538,34.605771124362946L170.38340264423078,36.561797976493835L170.7046766826923,36.244822561740875L171.13304206730768,36.36163768172264L171.45431610576924,37.0956554710865L171.77559014423076,37.742187201976776L173.16777764423077,37.71375489234924L173.2748689903846,37.727549046278L173.703234375,37.97083255648613L174.77414783653848,34.852008640766144L174.88123918269233,33.97145104408264L175.3096045673077,35.08297500014305L175.52378725961537,34.42771312594414L175.63087860576923,35.013133853673935L175.73796995192305,35.14028799533844L175.84506129807693,35.2440210878849L176.16633533653845,35.37526336312294L176.38051802884615,35.802090883255005L176.487609375,35.902658969163895L176.70179206730768,36.0666326880455L176.91597475961538,36.33771550655365L177.02306610576923,36.466979652643204L177.23724879807693,36.70024064183235L177.34434014423078,37.063715279102325L177.4514314903846,37.13031229376793L177.55852283653846,36.955683052539825L177.6656141826923,36.85690847039223L177.77270552884616,36.948640912771225L177.879796875,37.099321603775024L177.98688822115383,37.21579384803772L178.20107091346156,37.32775595784187L178.95071033653846,37.62682271003723L179.27198437500002,35.43698099255562L179.37907572115384,35.437455743551254L179.59325841346154,36.48908194899559L180.12871514423077,35.633422404527664L180.23580649038462,35.59879195690155L180.34289783653847,35.161361664533615L180.77126322115384,35.05588781833649L180.98544591346152,35.26013624668121L181.09253725961537,35.285166174173355L181.41381129807692,35.42020645737648L181.52090264423077,35.53485882282257L181.94926802884615,35.898755460977554L182.056359375,35.72106671333313L182.16345072115385,35.89946758747101L182.37763341346152,36.223696142435074L183.12727283653848,38.23199835419655L183.2343641826923,33.989544332027435L183.34145552884615,33.33842334151268L183.55563822115383,35.7841822206974L183.76982091346153,33.90324515104294L183.87691225961538,32.98771423101425L184.6265516826923,34.743554413318634L184.94782572115383,33.991918087005615L185.16200841346154,34.48734712600708L185.8045564903846,35.25153797864914L186.12583052884617,35.39314565062523L186.232921875,35.77703458070755L186.55419591346154,35.2518544793129L187.30383533653847,35.70843306183815L187.625109375,27.739210098981857L187.73220072115384,23.000113785266876L187.8392920673077,23.786670684814453L188.0534747596154,29.82914310693741L188.26765745192307,29.101719081401825L188.8031141826923,28.377011686563492L189.017296875,29.533768862485886L189.12438822115385,29.442774921655655L189.2314795673077,29.881497591733932L189.44566225961537,30.23956534266472L189.65984495192308,30.672775626182556L189.76693629807693,31.039679020643234L189.87402764423075,31.479008316993713L189.98111899038463,31.774804562330246L190.30239302884615,31.539987444877625L190.51657572115386,32.089828222990036L190.73075841346153,32.17438665032387L190.83784975961538,32.45295998454094L190.9449411057692,32.76120525598526L191.26621514423076,32.96624493598938L191.80167187499998,33.289286613464355L192.3371286057692,20.7934447824955L192.4442199519231,23.3317009806633L192.55131129807694,26.55589324235916L192.97967668269231,25.376137018203735L193.08676802884617,26.295175820589066L193.193859375,26.64823231101036L193.94349879807694,29.431407272815704L194.05059014423077,29.620490044355392L194.26477283653844,29.39907145500183L194.37186418269232,29.70992785692215L194.586046875,30.194015622138977L195.22859495192307,31.298761188983917L195.44277764423077,32.04812926054001L195.65696033653845,32.58683976531029L195.7640516826923,32.507187098264694L196.19241706730767,32.59409290552139L196.62078245192308,33.094427704811096L196.72787379807693,32.98932310938835L196.83496514423078,56.62617293000221L197.1562391826923,30.902396857738495L197.26333052884615,28.265339702367783L197.7987872596154,29.264532297849655L197.90587860576923,28.746341586112976L198.1200612980769,28.92843496799469L198.33424399038464,28.73882469534874L198.44133533653846,28.52410537004471L198.5484266826923,28.67665868997574L198.65551802884616,28.36282190680504L198.86970072115386,28.228810250759125L199.08388341346154,28.479900777339935L199.5122487980769,29.500852793455124L199.7264314903846,29.677407413721085L199.94061418269231,29.812922447919846L200.26188822115387,30.527660071849823L200.3689795673077,30.55730563402176L200.7973449519231,30.571073412895203L201.11861899038462,30.568884283304214L201.33280168269232,31.18168231844902L201.43989302884614,28.319988816976547L201.65407572115384,22.765032917261124L201.9753497596154,24.79192954301834L202.08244110576922,22.743853747844696L202.18953245192307,23.59779891371727L202.29662379807692,23.25173181295395L202.83208052884615,26.6963931620121L202.939171875,26.21990141272545L203.04626322115385,26.30902272462845L203.26044591346155,27.247710943222046L203.36753725961537,27.59161528944969L203.47462860576923,28.30221202969551L203.58171995192308,28.492639929056168L203.79590264423078,28.473623514175415L204.01008533653845,28.642028242349625L204.331359375,28.98949322104454L204.54554206730768,28.838496029376984L204.65263341346156,28.64664387702942L204.75972475961538,28.585189998149872L204.86681610576923,28.91886082291603L205.5093641826923,29.09048330783844L205.61645552884613,29.198119908571243L205.93772956730768,29.470495104789734L206.04482091346154,29.472868859767914L206.1519122596154,30.200635761022568L206.25900360576924,31.167202413082123L206.79446033653846,26.53181281685829L207.65119110576924,27.82250252366066L207.7582824519231,27.405354648828506L208.18664783653847,26.983828514814377L208.40083052884614,27.8982253074646L208.7221045673077,27.44446885585785L208.82919591346155,27.7561956346035L208.93628725961537,28.149210333824158L209.04337860576922,27.93340963125229L209.25756129807692,28.05215013027191L209.36465264423077,27.918903350830078L209.68592668269233,27.912151336669922L210.22138341346155,28.551377177238464L210.32847475961537,28.850364804267883L210.54265745192305,29.145712673664093L210.64974879807693,29.162856459617615L210.8639314903846,27.867313742637634L211.61357091346156,26.28003653883934L211.72066225961538,26.655960202217102L211.82775360576923,26.93289828300476L212.14902764423078,28.696308106184006L212.57739302884616,27.87625488638878L212.684484375,27.47577604651451L212.79157572115383,27.51586613059044L213.1128497596154,27.969174206256866L213.21994110576924,28.173000633716583L213.4341237980769,28.470748633146286L213.6483064903846,28.801702827215195L213.8624891826923,28.62783846259117L213.96958052884614,28.73740044236183L214.2908545673077,28.993238478899002L214.5050372596154,29.20344766974449L214.61212860576924,29.412865608930588L214.71921995192307,29.321265041828156L215.14758533653847,29.091696560382843L215.36176802884614,26.764335304498672L215.79013341346152,21.76143568754196L216.00431610576925,22.24009019136429L216.21849879807692,23.99463799595833L216.32559014423077,24.273158580064774L216.75395552884615,25.273801803588867L217.0752295673077,26.18930634856224L217.18232091346152,26.51535478234291L217.39650360576925,26.511319398880005L217.50359495192308,26.70037579536438L217.71777764423078,26.787228852510452L217.8248689903846,26.692041277885437L217.93196033653848,26.847179353237152L218.14614302884615,27.51858276128769L218.253234375,27.780566185712814L218.36032572115383,27.70574015378952L219.00287379807693,28.047191619873047L219.10996514423076,28.014249175786972L219.2170564903846,28.22944325208664L219.32414783653846,28.27143234014511L219.4312391826923,28.22817724943161L219.75251322115383,28.40109211206436L219.96669591346154,27.96047043800354L220.71633533653846,23.66368380188942L221.14470072115384,23.425780802965164L221.2517920673077,24.429615408182144L221.35888341346154,24.298531383275986L221.4659747596154,24.657706886529922L221.89434014423077,24.5466151535511L222.00143149038462,24.71992564201355L222.10852283653847,24.27991059422493L222.2156141826923,24.798470556735992L222.32270552884617,24.740656435489655L222.53688822115384,25.32080215215683L222.8581622596154,25.61588627099991L223.17943629807692,25.678500652313232L223.28652764423074,25.926478922367096L223.50071033653848,25.81976544857025L223.71489302884615,25.945363461971283L223.92907572115385,26.138824492692947L224.46453245192308,27.00954419374466L224.89289783653848,17.86362451314926L225.21417187499998,21.80442702770233L225.64253725961538,22.11926606297493L225.85671995192308,23.717858165502548L225.96381129807693,23.115346401929855L226.07090264423076,22.87625652551651L226.3921766826923,22.79850286245346L226.71345072115383,23.764911264181137L226.92763341346154,23.99168398976326L227.5701814903846,24.7777661383152L227.67727283653844,25.18708062171936L227.78436418269231,25.13229963183403L228.10563822115384,25.484090119600296L228.4269122596154,25.613407015800476L228.74818629807694,25.283006697893143L228.85527764423077,25.188583999872208L229.17655168269232,21.450183659791946L229.28364302884617,24.01668754220009L229.390734375,21.243324100971222L229.49782572115384,22.644947290420532L229.8190997596154,23.12531617283821L230.03328245192307,23.859861463308334L230.35455649038462,24.064795643091202L230.46164783653845,23.369311809539795L230.67583052884618,24.236022502183914L230.99710456730767,23.3938669860363L231.42546995192308,23.475919783115387L231.53256129807693,23.532019525766373L231.63965264423078,23.610669940710068L231.74674399038463,23.534235030412674L231.85383533653845,23.88383638858795L232.06801802884615,24.483737021684647L232.175109375,24.47606188058853L232.28220072115386,24.83117562532425L232.38929206730768,25.057368099689484L233.03184014423076,25.21667343378067L233.24602283653846,25.517296314239502L233.3531141826923,25.510966300964355L233.46020552884616,25.804441541433334L233.56729687499998,25.858457654714584L233.67438822115386,26.034590274095535L233.78147956730768,39.72129222750664L233.88857091346154,27.442912727594376L234.10275360576924,28.690109968185425L234.3169362980769,27.72744682431221L234.42402764423076,26.364621341228485L234.5311189903846,26.358660578727722L234.74530168269231,27.002792179584503L234.85239302884614,26.190466850996017L234.959484375,25.504873663187027L235.1736670673077,24.485477775335312L235.92330649038462,24.686244696378708L237.42258533653845,25.135992139577866L237.52967668269233,25.445055037736893L237.95804206730767,25.454128056764603L238.06513341346155,25.405466079711914L238.17222475961537,25.321804404258728L238.38640745192308,17.027034133672714L238.4934987980769,19.829542011022568L238.70768149038463,22.527261793613434L239.02895552884615,22.687780380249023L239.136046875,23.38089045882225L239.35022956730768,21.926042407751083L239.45732091346156,22.095475763082504L239.56441225961538,22.096847265958786L239.99277764423078,20.90276938676834L240.0998689903846,21.194055497646332L240.3140516826923,21.59809496998787L240.42114302884613,21.692201167345047L240.74241706730768,22.43428972363472L240.84950841346154,22.48965096473694L240.9565997596154,22.404723286628723L241.4920564903846,22.421286821365356L241.59914783653846,22.65180480480194L241.70623918269231,22.693741142749786L241.81333052884614,22.685274749994278L242.8842439903846,22.880819410085678L242.99133533653847,40.00477132201195L243.20551802884614,24.31738954782486L243.63388341346155,23.340985000133514L244.06224879807692,21.7906856238842L244.16934014423077,21.67806413769722L244.704796875,23.163823753595352L244.9189795673077,23.648992896080017L245.02607091346155,23.352537274360657L245.24025360576923,22.92246562242508L245.34734495192305,22.650459676980972L245.45443629807693,22.129895210266113L245.88280168269233,22.461139529943466L245.98989302884615,22.36273419857025L246.096984375,22.274562388658524L246.20407572115383,22.30320569872856L246.41825841346156,22.59327855706215L246.52534975961538,22.498117357492447L246.73953245192305,22.848246216773987L246.84662379807693,22.723940581083298L246.95371514423078,22.54833546280861L247.0608064903846,22.75651377439499L247.16789783653846,22.75226739048958L247.38208052884616,22.785658210515976L247.489171875,22.76094478368759L247.9175372596154,16.771275222301483L248.02462860576924,18.531704664230347L248.4529939903846,18.471991539001465L248.56008533653846,18.857911348342896L248.77426802884614,19.083048820495605L248.88135937500002,20.222213834524155L248.98845072115384,20.04697796702385L249.20263341346154,19.46102973818779L249.3097247596154,19.234151512384415L249.73809014423077,21.458491802215576L250.0593641826923,21.91074487566948L250.16645552884614,21.721952229738235L250.27354687500002,22.045099407434464L250.4877295673077,21.709635078907013L250.59482091346152,21.470123201608658L251.02318629807692,21.839400351047516L251.665734375,21.97586488723755L251.77282572115385,22.0471830368042L252.20119110576925,22.32016485929489" style="fill: none;" fill="none"></path></g></g></g></g></g></g><g transform="translate(51, 177)" clip-path="url(#clip_1)"><clipPath id="clip_1"><rect width="278" height="23"></rect></clipPath><g><g><line x1="0" y1="0" x2="0" y2="5" style="visibility: inherit;" fill="rgb(0, 0, 0)" stroke="rgb(204, 204, 204)" stroke-width="1px"></line><line x1="21.418269230769234" y1="0" x2="21.418269230769234" y2="5" style="visibility: inherit;" fill="rgb(0, 0, 0)" stroke="rgb(204, 204, 204)" stroke-width="1px"></line><line x1="42.83653846153847" y1="0" x2="42.83653846153847" y2="5" style="visibility: inherit;" fill="rgb(0, 0, 0)" stroke="rgb(204, 204, 204)" stroke-width="1px"></line><line x1="64.2548076923077" y1="0" x2="64.2548076923077" y2="5" style="visibility: inherit;" fill="rgb(0, 0, 0)" stroke="rgb(204, 204, 204)" stroke-width="1px"></line><line x1="85.67307692307693" y1="0" x2="85.67307692307693" y2="5" style="visibility: inherit;" fill="rgb(0, 0, 0)" stroke="rgb(204, 204, 204)" stroke-width="1px"></line><line x1="107.09134615384616" y1="0" x2="107.09134615384616" y2="5" style="visibility: inherit;" fill="rgb(0, 0, 0)" stroke="rgb(204, 204, 204)" stroke-width="1px"></line><line x1="128.5096153846154" y1="0" x2="128.5096153846154" y2="5" style="visibility: inherit;" fill="rgb(0, 0, 0)" stroke="rgb(204, 204, 204)" stroke-width="1px"></line><line x1="149.9278846153846" y1="0" x2="149.9278846153846" y2="5" style="visibility: inherit;" fill="rgb(0, 0, 0)" stroke="rgb(204, 204, 204)" stroke-width="1px"></line><line x1="171.34615384615387" y1="0" x2="171.34615384615387" y2="5" style="visibility: inherit;" fill="rgb(0, 0, 0)" stroke="rgb(204, 204, 204)" stroke-width="1px"></line><line x1="192.76442307692307" y1="0" x2="192.76442307692307" y2="5" style="visibility: inherit;" fill="rgb(0, 0, 0)" stroke="rgb(204, 204, 204)" stroke-width="1px"></line><line x1="214.18269230769232" y1="0" x2="214.18269230769232" y2="5" style="visibility: inherit;" fill="rgb(0, 0, 0)" stroke="rgb(204, 204, 204)" stroke-width="1px"></line><line x1="235.60096153846155" y1="0" x2="235.60096153846155" y2="5" style="visibility: inherit;" fill="rgb(0, 0, 0)" stroke="rgb(204, 204, 204)" stroke-width="1px"></line><line x1="257.0192307692308" y1="0" x2="257.0192307692308" y2="5" style="visibility: inherit;" fill="rgb(0, 0, 0)" stroke="rgb(204, 204, 204)" stroke-width="1px"></line><line x1="278.4375" y1="0" x2="278.4375" y2="5" style="visibility: inherit;" fill="rgb(0, 0, 0)" stroke="rgb(204, 204, 204)" stroke-width="1px"></line></g><g transform="translate(0, 8)"><text x="0" y="0" dx="0em" dy="0.95em" style="text-anchor: middle; visibility: hidden; font-family: Roboto, sans-serif; font-size: 12px; font-weight: 200;" fill="rgb(33, 33, 33)" stroke="none" stroke-width="1px">-20k</text><text x="21.418269230769234" y="0" dx="0em" dy="0.95em" style="text-anchor: middle; visibility: inherit; font-family: Roboto, sans-serif; font-size: 12px; font-weight: 200;" fill="rgb(33, 33, 33)" stroke="none" stroke-width="1px">0</text><text x="42.83653846153847" y="0" dx="0em" dy="0.95em" style="text-anchor: middle; visibility: hidden; font-family: Roboto, sans-serif; font-size: 12px; font-weight: 200;" fill="rgb(33, 33, 33)" stroke="none" stroke-width="1px">20k</text><text x="64.2548076923077" y="0" dx="0em" dy="0.95em" style="text-anchor: middle; visibility: inherit; font-family: Roboto, sans-serif; font-size: 12px; font-weight: 200;" fill="rgb(33, 33, 33)" stroke="none" stroke-width="1px">40k</text><text x="85.67307692307693" y="0" dx="0em" dy="0.95em" style="text-anchor: middle; visibility: hidden; font-family: Roboto, sans-serif; font-size: 12px; font-weight: 200;" fill="rgb(33, 33, 33)" stroke="none" stroke-width="1px">60k</text><text x="107.09134615384616" y="0" dx="0em" dy="0.95em" style="text-anchor: middle; visibility: inherit; font-family: Roboto, sans-serif; font-size: 12px; font-weight: 200;" fill="rgb(33, 33, 33)" stroke="none" stroke-width="1px">80k</text><text x="128.5096153846154" y="0" dx="0em" dy="0.95em" style="text-anchor: middle; visibility: hidden; font-family: Roboto, sans-serif; font-size: 12px; font-weight: 200;" fill="rgb(33, 33, 33)" stroke="none" stroke-width="1px">100k</text><text x="149.9278846153846" y="0" dx="0em" dy="0.95em" style="text-anchor: middle; visibility: inherit; font-family: Roboto, sans-serif; font-size: 12px; font-weight: 200;" fill="rgb(33, 33, 33)" stroke="none" stroke-width="1px">120k</text><text x="171.34615384615387" y="0" dx="0em" dy="0.95em" style="text-anchor: middle; visibility: hidden; font-family: Roboto, sans-serif; font-size: 12px; font-weight: 200;" fill="rgb(33, 33, 33)" stroke="none" stroke-width="1px">140k</text><text x="192.76442307692307" y="0" dx="0em" dy="0.95em" style="text-anchor: middle; visibility: inherit; font-family: Roboto, sans-serif; font-size: 12px; font-weight: 200;" fill="rgb(33, 33, 33)" stroke="none" stroke-width="1px">160k</text><text x="214.18269230769232" y="0" dx="0em" dy="0.95em" style="text-anchor: middle; visibility: hidden; font-family: Roboto, sans-serif; font-size: 12px; font-weight: 200;" fill="rgb(33, 33, 33)" stroke="none" stroke-width="1px">180k</text><text x="235.60096153846155" y="0" dx="0em" dy="0.95em" style="text-anchor: middle; visibility: inherit; font-family: Roboto, sans-serif; font-size: 12px; font-weight: 200;" fill="rgb(33, 33, 33)" stroke="none" stroke-width="1px">200k</text><text x="257.0192307692308" y="0" dx="0em" dy="0.95em" style="text-anchor: middle; visibility: hidden; font-family: Roboto, sans-serif; font-size: 12px; font-weight: 200;" fill="rgb(33, 33, 33)" stroke="none" stroke-width="1px">220k</text><text x="278.4375" y="0" dx="0em" dy="0.95em" style="text-anchor: middle; visibility: hidden; font-family: Roboto, sans-serif; font-size: 12px; font-weight: 200;" fill="rgb(33, 33, 33)" stroke="none" stroke-width="1px">240k</text></g><line x1="0" y1="0" x2="278.4375" y2="0" fill="rgb(0, 0, 0)" stroke="rgb(204, 204, 204)" stroke-width="1px"></line></g></g></g></g></svg>