<svg width="200" height="200" viewBox="0 0 330 200" xmlns="http://www.w3.org/2000/svg"><g><g><g><g><g><line x1="51.5625" y1="177" x2="46.5625" y2="177" style="visibility: inherit;" fill="rgb(0, 0, 0)" stroke="rgb(204, 204, 204)" stroke-width="1px"></line><line x1="51.5625" y1="154.875" x2="46.5625" y2="154.875" style="visibility: inherit;" fill="rgb(0, 0, 0)" stroke="rgb(204, 204, 204)" stroke-width="1px"></line><line x1="51.5625" y1="132.75" x2="46.5625" y2="132.75" style="visibility: inherit;" fill="rgb(0, 0, 0)" stroke="rgb(204, 204, 204)" stroke-width="1px"></line><line x1="51.5625" y1="110.625" x2="46.5625" y2="110.625" style="visibility: inherit;" fill="rgb(0, 0, 0)" stroke="rgb(204, 204, 204)" stroke-width="1px"></line><line x1="51.5625" y1="88.49999999999999" x2="46.5625" y2="88.49999999999999" style="visibility: inherit;" fill="rgb(0, 0, 0)" stroke="rgb(204, 204, 204)" stroke-width="1px"></line><line x1="51.5625" y1="66.375" x2="46.5625" y2="66.375" style="visibility: inherit;" fill="rgb(0, 0, 0)" stroke="rgb(204, 204, 204)" stroke-width="1px"></line><line x1="51.5625" y1="44.25" x2="46.5625" y2="44.25" style="visibility: inherit;" fill="rgb(0, 0, 0)" stroke="rgb(204, 204, 204)" stroke-width="1px"></line><line x1="51.5625" y1="22.12499999999998" x2="46.5625" y2="22.12499999999998" style="visibility: inherit;" fill="rgb(0, 0, 0)" stroke="rgb(204, 204, 204)" stroke-width="1px"></line><line x1="51.5625" y1="0" x2="46.5625" y2="0" style="visibility: inherit;" fill="rgb(0, 0, 0)" stroke="rgb(204, 204, 204)" stroke-width="1px"></line></g><g transform="translate(41.5625, 0)"><text x="0" y="177" dx="0em" dy="0.3em" style="text-anchor: end; visibility: hidden; font-family: Roboto, sans-serif; font-size: 12px; font-weight: 200;" fill="rgb(33, 33, 33)" stroke="none" stroke-width="1px">0.2</text><text x="0" y="154.875" dx="0em" dy="0.3em" style="text-anchor: end; visibility: inherit; font-family: Roboto, sans-serif; font-size: 12px; font-weight: 200;" fill="rgb(33, 33, 33)" stroke="none" stroke-width="1px">0.25</text><text x="0" y="132.75" dx="0em" dy="0.3em" style="text-anchor: end; visibility: hidden; font-family: Roboto, sans-serif; font-size: 12px; font-weight: 200;" fill="rgb(33, 33, 33)" stroke="none" stroke-width="1px">0.3</text><text x="0" y="110.625" dx="0em" dy="0.3em" style="text-anchor: end; visibility: inherit; font-family: Roboto, sans-serif; font-size: 12px; font-weight: 200;" fill="rgb(33, 33, 33)" stroke="none" stroke-width="1px">0.35</text><text x="0" y="88.49999999999999" dx="0em" dy="0.3em" style="text-anchor: end; visibility: hidden; font-family: Roboto, sans-serif; font-size: 12px; font-weight: 200;" fill="rgb(33, 33, 33)" stroke="none" stroke-width="1px">0.4</text><text x="0" y="66.375" dx="0em" dy="0.3em" style="text-anchor: end; visibility: inherit; font-family: Roboto, sans-serif; font-size: 12px; font-weight: 200;" fill="rgb(33, 33, 33)" stroke="none" stroke-width="1px">0.45</text><text x="0" y="44.25" dx="0em" dy="0.3em" style="text-anchor: end; visibility: hidden; font-family: Roboto, sans-serif; font-size: 12px; font-weight: 200;" fill="rgb(33, 33, 33)" stroke="none" stroke-width="1px">0.5</text><text x="0" y="22.12499999999998" dx="0em" dy="0.3em" style="text-anchor: end; visibility: inherit; font-family: Roboto, sans-serif; font-size: 12px; font-weight: 200;" fill="rgb(33, 33, 33)" stroke="none" stroke-width="1px">0.55</text><text x="0" y="0" dx="0em" dy="0.3em" style="text-anchor: end; visibility: hidden; font-family: Roboto, sans-serif; font-size: 12px; font-weight: 200;" fill="rgb(33, 33, 33)" stroke="none" stroke-width="1px">0.6</text></g><line x1="51.5625" y1="0" x2="51.5625" y2="177" fill="rgb(0, 0, 0)" stroke="rgb(204, 204, 204)" stroke-width="1px"></line></g></g><g transform="translate(51, 0)" clip-path="url(#clip_0)"><clipPath id="clip_0"><rect width="278" height="177"></rect></clipPath><g><g><g><line x1="0" y1="0" x2="0" y2="177" fill="rgb(0, 0, 0)" stroke="rgb(66, 66, 66)" stroke-width="1px" opacity="0.25"></line><line x1="21.418269230769234" y1="0" x2="21.418269230769234" y2="177" fill="rgb(0, 0, 0)" stroke="rgb(66, 66, 66)" stroke-width="1px" opacity="0.25"></line><line x1="42.83653846153847" y1="0" x2="42.83653846153847" y2="177" fill="rgb(0, 0, 0)" stroke="rgb(66, 66, 66)" stroke-width="1px" opacity="0.25"></line><line x1="64.2548076923077" y1="0" x2="64.2548076923077" y2="177" fill="rgb(0, 0, 0)" stroke="rgb(66, 66, 66)" stroke-width="1px" opacity="0.25"></line><line x1="85.67307692307693" y1="0" x2="85.67307692307693" y2="177" fill="rgb(0, 0, 0)" stroke="rgb(66, 66, 66)" stroke-width="1px" opacity="0.25"></line><line x1="107.09134615384616" y1="0" x2="107.09134615384616" y2="177" fill="rgb(0, 0, 0)" stroke="rgb(66, 66, 66)" stroke-width="1px" opacity="0.25"></line><line x1="128.5096153846154" y1="0" x2="128.5096153846154" y2="177" fill="rgb(0, 0, 0)" stroke="rgb(66, 66, 66)" stroke-width="1px" opacity="0.25"></line><line x1="149.9278846153846" y1="0" x2="149.9278846153846" y2="177" fill="rgb(0, 0, 0)" stroke="rgb(66, 66, 66)" stroke-width="1px" opacity="0.25"></line><line x1="171.34615384615387" y1="0" x2="171.34615384615387" y2="177" fill="rgb(0, 0, 0)" stroke="rgb(66, 66, 66)" stroke-width="1px" opacity="0.25"></line><line x1="192.76442307692307" y1="0" x2="192.76442307692307" y2="177" fill="rgb(0, 0, 0)" stroke="rgb(66, 66, 66)" stroke-width="1px" opacity="0.25"></line><line x1="214.18269230769232" y1="0" x2="214.18269230769232" y2="177" fill="rgb(0, 0, 0)" stroke="rgb(66, 66, 66)" stroke-width="1px" opacity="0.25"></line><line x1="235.60096153846155" y1="0" x2="235.60096153846155" y2="177" fill="rgb(0, 0, 0)" stroke="rgb(66, 66, 66)" stroke-width="1px" opacity="0.25"></line><line x1="257.0192307692308" y1="0" x2="257.0192307692308" y2="177" fill="rgb(0, 0, 0)" stroke="rgb(66, 66, 66)" stroke-width="1px" opacity="0.25"></line><line x1="278.4375" y1="0" x2="278.4375" y2="177" fill="rgb(0, 0, 0)" stroke="rgb(66, 66, 66)" stroke-width="1px" opacity="0.25"></line></g><g><line x1="0" y1="177" x2="278.4375" y2="177" fill="rgb(0, 0, 0)" stroke="rgb(66, 66, 66)" stroke-width="1px" opacity="0.25"></line><line x1="0" y1="154.875" x2="278.4375" y2="154.875" fill="rgb(0, 0, 0)" stroke="rgb(66, 66, 66)" stroke-width="1px" opacity="0.25"></line><line x1="0" y1="132.75" x2="278.4375" y2="132.75" fill="rgb(0, 0, 0)" stroke="rgb(66, 66, 66)" stroke-width="1px" opacity="0.25"></line><line x1="0" y1="110.625" x2="278.4375" y2="110.625" fill="rgb(0, 0, 0)" stroke="rgb(66, 66, 66)" stroke-width="1px" opacity="0.25"></line><line x1="0" y1="88.49999999999999" x2="278.4375" y2="88.49999999999999" fill="rgb(0, 0, 0)" stroke="rgb(66, 66, 66)" stroke-width="1px" opacity="0.25"></line><line x1="0" y1="66.375" x2="278.4375" y2="66.375" fill="rgb(0, 0, 0)" stroke="rgb(66, 66, 66)" stroke-width="1px" opacity="0.25"></line><line x1="0" y1="44.25" x2="278.4375" y2="44.25" fill="rgb(0, 0, 0)" stroke="rgb(66, 66, 66)" stroke-width="1px" opacity="0.25"></line><line x1="0" y1="22.12499999999998" x2="278.4375" y2="22.12499999999998" fill="rgb(0, 0, 0)" stroke="rgb(66, 66, 66)" stroke-width="1px" opacity="0.25"></line><line x1="0" y1="0" x2="278.4375" y2="0" fill="rgb(0, 0, 0)" stroke="rgb(66, 66, 66)" stroke-width="1px" opacity="0.25"></line></g></g></g><g><g><line x1="0" y1="265.5" x2="278.4375" y2="265.5" fill="rgb(0, 0, 0)" stroke="rgb(153, 153, 153)" stroke-width="1.5px"></line></g></g><g><g><line x1="21.418269230769234" y1="0" x2="21.418269230769234" y2="177" fill="rgb(0, 0, 0)" stroke="rgb(153, 153, 153)" stroke-width="1.5px"></line></g></g><g><g><g><g><g><path stroke="rgb(255, 112, 67)" stroke-width="2px" d="M31.057561298076923,179.19845696959987L31.16465264423077,175.95045653424884L32.128474759615386,172.98058820785548L32.23556610576923,171.32312318647607L32.55684014423077,170.24500623603686L32.87811418269231,169.32049113359392L32.98520552884615,168.71898744905025L33.199388221153846,168.14145635903122L33.94902764423077,167.29966164134186L34.484484375,166.57576416433218L34.91284975961538,165.8202513545712L35.019941105769234,165.23276057481246L35.23412379807693,164.95127830588424L35.44830649038461,161.63657543470043L35.55539783653846,159.50555523877864L35.662489182692305,158.04201442089897L36.090854567307694,157.174310714526L36.19794591346154,156.74777358801538L36.94758533653847,155.88410673756212L37.161768028846154,155.04119804631947L37.268859375,154.50569121915862L37.59013341346154,154.585841839783L38.339772836538465,154.1568971367315L38.55395552884616,153.80886869976734L38.661046875000004,153.52934011429437L38.87522956730769,153.38054442769223L39.089412259615386,153.09731013396936L39.73196033653846,152.60838963877893L39.83905168269231,152.29909098322236L39.94614302884615,151.3013288865986L40.2674170673077,148.1828832441868L40.374508413461534,145.83350950564753L40.481599759615385,144.98559481552726L40.58869110576923,144.0135154047697L40.802873798076924,143.25617656821544L40.90996514423077,142.68781720229708L41.23123918269231,142.18381429093316L41.33833052884615,142.05739746318596L41.445421875,141.8529056717535L41.87378725961538,141.4670877700794L41.980878605769234,141.05250139509133L42.08796995192307,140.92316527053407L42.40924399038462,140.75387335350925L42.837609375,140.71207990366707L42.94470072115384,140.68095867108397L43.15888341346154,140.4705709294742L43.26597475961538,140.44317089177758L43.37306610576923,140.3396035114383L43.48015745192308,140.3865344869766L43.69434014423077,140.28497527525863L43.90852283653846,140.22878198317312L44.122705528846154,140.1210945277907L44.33688822115385,139.89121068295822L44.551070913461544,136.37097493277182L44.65816225961538,135.1438326386582L44.872344951923075,133.77540576147862L44.97943629807692,133.31607824377912L45.08652764423077,133.2103265393537L45.193618990384614,132.94109733514557L45.300710336538465,132.8351584292207L45.51489302884615,132.62642150621141L45.621984375,132.41245894134357L46.050349759615386,132.3726646631975L46.692897836538464,132.09766064465157L46.90708052884616,132.20169962275094L47.014171875,132.23783762948554L47.121263221153846,132.20376356659435L47.335445913461534,132.05520493518176L47.442537259615385,131.8748015149287L47.65671995192308,131.61758787535737L47.763811298076924,131.46503737034269L47.870902644230775,131.29437662638347L47.97799399038462,131.08707603500557L48.513450721153845,130.70801287106437L48.620542067307696,130.4875854624019L48.72763341346154,130.4600274367753L49.15599879807692,122.80258107206963L49.263090144230766,119.27485236538497L49.37018149038462,119.54850727923541L49.58436418269231,121.03265569572345L50.44109495192308,121.55147274115501L50.54818629807693,121.75271568762551L50.86946033653846,121.94107127229744L51.083643028846154,122.31346746707183L51.29782572115385,122.53925783887043L51.51200841346154,123.05213272842487L51.72619110576923,123.3352233604951L51.833282451923075,123.4027267000892L52.04746514423077,123.58806468259203L52.26164783653846,123.76041540033167L52.3687391826923,123.80401775554743L52.582921875,123.77970786282974L53.11837860576924,123.71729340189431L53.225469951923074,123.63950144072615L53.332561298076925,123.60789169562008L53.43965264423077,123.51012245829193L54.29638341346154,119.92152373799851L54.51056610576923,118.62757413273555L54.61765745192308,118.06554916909639L54.93893149038461,117.93816885597289L55.04602283653846,117.88195451049079L55.367296875,117.4664258775L55.581479567307696,116.89119741421246L55.68857091346153,116.47027425230324L56.00984495192308,116.5296950594233L56.22402764423077,116.539958915451L56.759484375,116.49835200389553L56.86657572115384,116.5526554482003L56.973667067307694,116.57162271123052L57.08075841346154,116.59854325163914L57.616215144230765,116.39605691736074L57.723306490384616,116.31975086155613L57.93748918269231,116.16879405750679L58.25876322115384,116.12352704509406L58.36585456730769,113.37099017205422L58.47294591346154,111.53509586156953L58.58003725961539,110.61793146193949L59.00840264423077,109.42529472506597L59.22258533653846,108.65052705881924L59.32967668269231,108.71884875224788L59.43676802884615,108.64619692997191L59.86513341346154,108.83785022995504L60.293498798076925,108.48292839945339L60.40059014423077,108.2046970392524L60.50768149038462,108.20347797067517L60.614772836538464,107.87798519844742L60.7218641826923,107.75094817826111L60.82895552884615,107.88015072196103L60.936046874999995,108.06383184581627L61.57859495192308,108.61209853881375L61.89986899038461,109.09404970046148L62.00696033653846,109.29239525697392L62.86369110576923,109.62997267426108L63.29205649038461,106.45943440068397L63.39914783653846,104.80690958540819L63.506239182692305,103.68524962330567L63.613330528846156,103.81340650120205L63.720421875,104.18531617163912L64.04169591346154,104.0777135052639L64.25587860576923,104.28298982133616L64.47006129807693,104.07378243893476L64.57715264423078,103.78578239375408L64.79133533653847,103.3321038525942L65.21970072115384,103.19908316979665L65.3267920673077,103.09209390312351L65.64806610576923,102.93731257814119L65.75515745192308,102.91922233997553L65.86224879807692,102.98578953444223L65.96934014423077,103.02282332002675L66.29061418269231,102.90934393179153L66.61188822115385,102.94360733849842L66.7189795673077,102.96602218641661L67.04025360576924,102.88861430462494L67.14734495192307,102.8772431241053L67.57571033653846,102.76594882169829L67.68280168269231,99.49332119202295L68.11116706730769,98.12711851701545L68.21825841346154,96.71002300921324L68.32534975961538,95.55949624981427L68.43244110576923,95.1417927658912L68.53953245192308,94.95569988586641L68.64662379807693,94.70760599671685L68.75371514423077,94.56780158221056L68.96789783653846,94.58294144117433L69.0749891826923,94.6704331209874L69.18208052884616,94.9088828188548L69.289171875,95.07638648881732L69.71753725961538,95.33314506849183L69.82462860576923,95.4761385180982L69.93171995192307,95.66752975931358L70.03881129807692,95.69119648784753L70.14590264423077,95.86612611204599L70.36008533653846,96.25563380831608L70.57426802884615,96.38140642472584L70.78845072115385,96.51824474828528L70.89554206730769,96.59772606192283L71.21681610576924,96.7588908880845L71.32390745192308,96.92597425639005L71.43099879807691,97.05888714587314L71.64518149038462,96.96003355500474L71.8593641826923,96.85062989543303L72.2877295673077,96.82912899226204L72.39482091346153,93.497476340355L72.71609495192308,90.64057805003019L72.82318629807692,89.44684529221826L72.93027764423077,88.68332571337682L73.03736899038462,89.03009097904004L73.14446033653846,89.48926176506303L73.25155168269231,89.80871035383956L73.35864302884615,90.1681987090517L73.57282572115385,89.8696678187614L73.6799170673077,89.71973064578565L73.78700841346154,89.80352720640295L73.89409975961537,89.97091566337464L74.10828245192307,89.86459995396925L74.42955649038461,89.67339263610833L74.85792187499999,89.94088499696727L75.17919591346154,90.43858022064971L75.28628725961538,90.70767839295272L75.39337860576924,90.97482741798521L75.71465264423077,91.10083453610874L76.0359266826923,91.12323504540522L76.14301802884616,91.01191078933003L76.250109375,90.87073330469084L76.35720072115386,90.77804044715852L76.4642920673077,90.75644327898196L76.57138341346153,90.72443163811784L76.89265745192309,88.03700273287072L76.99974879807692,86.07116184861525L77.10684014423077,84.39560055274407L77.21393149038461,83.53374407612466L77.53520552884615,82.86850260450352L78.28484495192308,83.23726745697208L78.60611899038462,83.14961644561498L78.71321033653845,83.28857731551773L78.92739302884615,83.40647878486422L79.03448437499999,83.48135527514522L79.14157572115384,83.77361588801804L79.2486670673077,84.13913640454928L79.35575841346154,84.5527379219265L79.56994110576923,84.7754152539093L79.67703245192308,85.00919411317817L79.78412379807693,85.162812481739L79.9983064903846,85.3681113901245L80.10539783653846,85.65371887579606L80.426671875,85.67524140295413L80.6408545673077,85.7938397658886L80.85503725961539,85.9360795577181L80.96212860576922,85.9829264020808L81.06921995192307,86.0801107785635L81.71176802884615,82.86890097269611L81.818859375,81.23451620226619L81.92595072115384,80.53951136401604L82.35431610576923,80.11250176508015L82.67559014423077,79.73272359656563L82.88977283653846,79.83206035666029L83.21104687500001,80.04010649903036L83.63941225961538,80.1136347018684L84.06777764423077,80.13848200815944L84.17486899038461,80.17104057894964L84.28196033653846,80.15716907636416L84.49614302884616,80.02346971187643L84.71032572115385,80.133382591925L84.81741706730769,80.38662486274359L84.92450841346155,80.61627113818717L85.13869110576923,81.06822273730988L85.35287379807691,81.43539362311218L85.45996514423078,81.5927494475833L85.56705649038462,81.77900615987726L85.67414783653847,81.79681224022836L85.88833052884615,81.81089299556334L85.995421875,81.83776706240606L86.10251322115384,81.18391234744804L86.31669591346153,81.42981783192883L86.63796995192307,79.91190825487097L86.85215264423077,78.92214284291813L87.17342668269231,78.69355701178878L87.28051802884615,78.52013981205566L87.49470072115385,77.93630613602605L87.70888341346154,77.9104349357927L87.92306610576924,77.56075081485774L88.13724879807693,77.37861832534233L88.24434014423076,77.36174647542809L88.5656141826923,77.70375672896489L88.779796875,78.11802739453186L88.88688822115385,78.38860769004746L89.31525360576923,78.54868761259986L89.74361899038462,78.65898864602251L90.06489302884614,78.54552348932742L90.17198437500001,78.48779396701526L90.27907572115384,78.44341858320634L90.3861670673077,78.42116106208087L90.49325841346153,78.50239804778052L90.60034975961538,78.59713833566637L91.02871514423076,76.50093399307805L91.24289783653846,74.54849243057772L91.34998918269231,73.73548559482694L91.45708052884615,73.17082985720518L91.564171875,72.70815277982639L91.67126322115385,72.27448533111149L91.99253725961537,72.3159310944875L92.20671995192308,72.2536817448139L92.95635937499999,72.43030240874292L93.27763341346154,72.50665034497261L93.81309014423077,72.83031503942297L93.9201814903846,73.03867726079633L94.02727283653847,73.19452175827033L94.348546875,73.41788867909436L94.5627295673077,73.5841813492699L94.66982091346154,73.76371511864205L94.77691225961539,73.90393999843323L95.09818629807693,74.06552263872936L95.63364302884615,71.60751006470393L95.84782572115384,71.17387892881793L96.06200841346154,71.40702983188487L96.16909975961538,71.51453180580054L96.38328245192308,71.88396027963589L96.70455649038462,71.81032224465152L96.81164783653846,71.73346073012794L97.02583052884616,71.42483289588242L97.45419591346155,71.3679497393891L97.56128725961538,71.40234223919659L97.77546995192307,71.14060639689892L98.09674399038461,70.81942764729575L98.31092668269231,70.62416201716849L98.525109375,70.54846422604435L98.63220072115384,70.54645889241522L98.73929206730769,70.6986952140273L98.95347475961539,70.80959674801478L99.16765745192308,70.76587411216529L99.27474879807693,70.72295567066449L99.38184014423078,70.70444192094192L99.48893149038462,70.7058196222936L99.59602283653845,70.72672821022006L99.81020552884615,70.94100561104376L99.917296875,70.95835371829364L100.02438822115384,72.35866469751174L100.55984495192307,70.19347175723537L100.66693629807693,68.5296944783105L100.98821033653846,67.08784188067754L101.0953016826923,66.43069235823057L101.20239302884616,65.94972893799248L101.309484375,65.55423696163237L102.38039783653846,66.38195068432653L102.4874891826923,66.9172236489878L102.701671875,67.26057412431395L103.23712860576923,67.77654933456036L103.34421995192308,67.96326362802655L103.45131129807692,68.0993673545961L103.77258533653846,68.18737015383509L103.8796766826923,68.28161232028641L104.20095072115384,68.4391529819622L104.52222475961538,61.52911678917732L104.62931610576923,62.9143450735064L104.84349879807692,63.91833360660381L104.95059014423077,63.926443980147276L105.05768149038462,63.99108135462394L105.16477283653846,63.65996945357674L105.27186418269231,63.470723482706276L105.91441225961539,63.79436354204305L106.23568629807691,64.10277794220619L106.44986899038462,64.41599352609259L106.6640516826923,64.89361065895045L107.0924170673077,65.51886302394082L107.19950841346153,65.93223717309482L107.62787379807692,66.08338608442216L107.73496514423077,66.13462889849227L107.84205649038462,66.11427027975965L107.94914783653846,66.0609996974197L108.270421875,66.02360936163227L109.12715264423076,48.464163506974955L109.23424399038461,51.70633958873164L109.44842668269231,52.43509581146843L109.66260937499999,54.21510361110094L109.87679206730769,56.86656111165837L109.98388341346154,58.156976256876916L110.09097475961538,58.818361207312186L110.19806610576924,59.51898533968083L110.6264314903846,59.97827885072203L110.73352283653847,60.51494690490228L110.94770552884616,60.931117234900356L111.054796875,61.03062931792425L111.16188822115386,61.30338898954682L111.37607091346153,61.91144864951309L111.48316225961538,62.09521969076832L111.80443629807692,62.216216963033915L112.01861899038461,62.349092877805845L112.55407572115384,62.501835129797826L112.6611670673077,62.604099078262074L112.98244110576923,62.75507988529456L113.30371514423076,62.83098273871572L113.62498918269232,62.961177828301366L113.83917187499999,59.23795838498434L114.16044591346154,59.35480374898529L114.26753725961538,59.019341741836165L114.69590264423077,59.50289812376268L114.8029939903846,59.54088114911418L115.87390745192307,59.47540947922526L116.08809014423078,59.595110035708295L116.19518149038461,59.825064651233404L116.30227283653845,59.96965755943205L116.40936418269231,59.98725790932028L116.623546875,59.96503920051008L116.83772956730769,60.14858193810313L117.05191225961539,60.31951790818888L117.37318629807693,60.49337126475166L117.58736899038462,60.69802981413359L117.69446033653846,60.81310232756706L118.01573437500001,60.84468798207148L118.12282572115384,60.88745604972187L118.33700841346155,60.9497096420535L118.55119110576923,58.86949828155091L118.65828245192307,57.25596617393045L118.76537379807692,56.336751536919756L118.97955649038461,56.114552245374966L119.08664783653846,55.88992750396518L119.407921875,56.46350224465244L119.83628725961539,56.813961277306774L119.94337860576923,56.999502170026716L120.15756129807691,57.063594256603956L120.37174399038462,57.064813205459245L120.800109375,57.121744542633614L120.90720072115384,57.26772302944368L121.0142920673077,57.267038086407815L121.12138341346153,57.38599007091131L121.2284747596154,57.43209395862346L121.33556610576923,57.53941950831845L121.44265745192307,57.58989935895226L121.65684014423077,57.94958006012692L122.08520552884615,58.31141133706723L122.29938822115385,58.646617600923484L122.40647956730768,58.87730779624327L122.72775360576924,59.0389266870996L123.15611899038463,55.21294086948519L123.47739302884615,52.64846624002149L123.79866706730769,52.26744594016845L123.90575841346154,52.31636264228329L124.33412379807692,52.373997272869964L124.54830649038462,52.443150473726405L124.65539783653847,52.77870843594828L124.86958052884614,53.41933030954336L125.08376322115384,54.137490308709936L125.1908545673077,54.47985052253486L125.51212860576923,54.7896696697812L126.04758533653846,55.21390725798254L126.26176802884615,55.292855242650774L126.368859375,55.47117090807025L126.58304206730769,55.85936587205924L126.69013341346154,56.05705105156539L127.11849879807693,56.067155181710945L127.3326814903846,56.21228805145322L127.5468641826923,56.304326283697485L127.76104687499999,55.647301404335614L127.9752295673077,53.06169390598444L128.08232091346153,51.419994842526336L128.18941225961538,50.93916623682798L128.40359495192308,50.73460504943739L128.51068629807693,50.9890369029916L128.83196033653846,51.0704306156681L128.9390516826923,51.54546663708959L129.04614302884616,51.6530949029176L129.15323437499998,51.662310621312194L129.26032572115386,51.929733801586L129.7957824519231,52.330264013232316L130.00996514423076,52.54241358114574L130.22414783653846,52.9821105770665L130.33123918269231,53.24610812499508L130.43833052884617,53.46684145947924L130.9737872596154,53.715806454543056L131.40215264423077,54.090486449077L131.61633533653844,54.32930487517967L131.72342668269232,54.5419570513037L132.3659747596154,52.6376721207778L132.47306610576922,51.75039059784893L132.58015745192307,51.577318512599966L132.68724879807692,51.60440631103591L132.79434014423077,52.119675036621565L133.22270552884615,51.8296161153033L133.43688822115385,51.76366573918547L133.54397956730767,51.69064139335563L134.18652764423078,51.44254143243557L134.2936189903846,51.210895432266746L134.61489302884615,51.22988386346884L134.82907572115386,51.23370728131525L134.93616706730768,51.342888881184976L135.04325841346156,51.32004668081898L135.25744110576923,51.30680028656184L135.57871514423078,51.48677999412454L135.6858064903846,51.76060361644885L135.79289783653846,52.06439018238342L136.00708052884616,52.33739758723233L136.114171875,52.65320147391114L136.22126322115383,52.81885658094853L136.32835456730768,52.83832267755013L136.43544591346154,52.90544270177926L136.5425372596154,52.91938713610319L136.8638112980769,50.77913101565928L136.97090264423076,51.85498036773259L137.18508533653846,48.81298822063956L137.29217668269231,47.2090427213833L137.39926802884617,46.186334570284195L137.7205420673077,45.7501821518156L137.82763341346154,45.918662577880205L137.9347247596154,46.30031284690663L138.36309014423077,46.98018985391119L139.1127295673077,48.150349881651756L139.32691225961537,49.074249563457194L139.5410949519231,49.885018210316666L139.64818629807692,50.27220896524487L139.75527764423077,50.44064303423344L140.07655168269233,50.244593752535465L140.18364302884615,50.20912248081701L140.290734375,50.094704122464265L140.5049170673077,50.0997397369864L140.61200841346155,50.217529521389146L140.82619110576923,50.393149737121654L141.04037379807693,50.55642038798453L141.36164783653845,50.7219029201038L141.57583052884615,48.52822953063057L141.682921875,48.19975021837832L142.00419591346156,46.39450165843178L142.11128725961538,45.467556150050235L142.32546995192305,45.059553355748214L142.43256129807693,44.62980979131148L142.53965264423078,44.914002689400235L142.6467439903846,45.27915578644211L142.75383533653846,45.643653324608394L142.96801802884616,46.192440939762825L143.075109375,46.54326720405736L143.18220072115383,46.84013599377344L143.5034747596154,47.65163312090319L143.8247487980769,48.38989094932605L144.14602283653846,48.58929838561848L144.2531141826923,48.714091258191054L144.46729687500002,48.99293583449303L144.57438822115384,49.296970867017365L144.6814795673077,49.52707271152702L144.78857091346154,49.72622372134902L144.8956622596154,49.87344506039845L145.00275360576924,50.034224865762155L145.75239302884614,49.997841595368236L145.96657572115384,49.94163966104784L146.18075841346152,45.622678863557574L146.39494110576925,43.43098997327828L146.50203245192307,42.96106506140917L147.14458052884615,43.895511840295114L147.251671875,44.37016030222852L147.4658545673077,44.92096818727659L147.57294591346152,45.031643207325956L147.68003725961537,45.09496761289502L148.10840264423078,45.462001621289666L148.32258533653848,45.948414909579505L148.53676802884615,46.28034241660721L148.75095072115383,46.565708426620304L148.8580420673077,46.913925753823364L148.96513341346153,47.132899771208436L149.28640745192308,47.23202748899153L149.39349879807693,47.46002489807897L149.50059014423076,47.63845900584872L149.71477283653846,47.77957494193088L149.8218641826923,47.94093788941963L150.14313822115383,48.09938888716854L150.2502295673077,48.223229396153414L150.57150360576924,48.26486028302246L150.67859495192306,53.29641511481127L150.78568629807694,49.58566297555635L150.9998689903846,46.31058169284267L151.428234375,44.15581187533616L151.53532572115384,43.14690383033323L151.6424170673077,42.59524806592685L151.96369110576924,42.72633502634658L152.49914783653847,43.91814113707719L152.71333052884617,44.50336985618696L153.0346045673077,45.06252714890733L153.14169591346152,45.30276009975965L153.46296995192307,45.758062222833026L153.57006129807692,46.11292704298174L154.10551802884615,46.166725226366985L154.31970072115385,46.491988800838286L154.4267920673077,46.637255890890756L154.53388341346152,46.692565628126125L154.64097475961537,46.677769969841734L154.74806610576923,46.70742125567251L154.85515745192308,46.7533067360905L154.96224879807693,46.771754455291465L155.28352283653848,39.125548453166004L155.3906141826923,38.45998547734853L155.49770552884615,36.82510295070432L155.60479687499998,37.332760456545465L155.8189795673077,38.34266613921126L156.03316225961538,38.75798119902972L156.1402536057692,39.35687181830623L156.46152764423076,40.38726144719252L156.5686189903846,41.036385689307025L156.88989302884616,41.7357354844384L157.2111670673077,42.28916184215386L157.6395324519231,43.03846048181436L158.17498918269231,43.6047176353048L158.28208052884617,44.08329439353409L158.389171875,44.32104524488128L158.8175372596154,44.40795998880193L159.13881129807694,44.50876026218487L159.67426802884617,44.673126494081934L159.99554206730767,42.07012294244294L160.31681610576922,38.96532732553199L160.53099879807695,38.540597321432344L160.63809014423077,38.727952946330035L160.9593641826923,39.204078334036424L161.38772956730767,40.60970171538767L161.81609495192308,40.94369957594736L162.24446033653845,40.880379389218476L162.3515516826923,40.893037933404415L162.88700841346153,41.61732771295019L163.10119110576923,42.15215844093391L163.20828245192308,42.33272048341413L163.42246514423076,42.59499308173167L163.52955649038464,42.82578479471386L163.7437391826923,43.05891462101092L164.49337860576924,43.20470052917928L165.45720072115387,41.06228774762229L165.5642920673077,39.95725600705188L165.7784747596154,40.05681366196659L165.88556610576921,39.830305054613255L166.20684014423077,39.643116232650435L166.31393149038462,39.60720619970378L166.52811418269232,39.38058884986528L166.9564795673077,39.367051446725654L167.1706622596154,39.534238722497086L167.59902764423077,40.038690785511626L167.70611899038462,40.498567903008635L167.81321033653845,40.90721345184239L167.92030168269233,41.15888904474969L168.02739302884615,41.433667260067416L168.45575841346155,41.76574148992108L168.56284975961537,42.03848803197988L168.77703245192308,42.27154455277708L168.8841237980769,42.50574841316575L169.3124891826923,39.57740644345306L169.84794591346156,39.07126463490499L169.95503725961538,38.77424716375929L170.38340264423078,39.51141990079086L170.7046766826923,39.71758239778045L171.13304206730768,39.9005921203623L171.45431610576924,40.305745823307596L171.77559014423076,40.80842133946641L173.16777764423077,40.98222368113651L173.2748689903846,41.054781169607956L173.703234375,41.22253162319343L174.77414783653848,40.027143327324914L174.88123918269233,39.02820365901549L175.3096045673077,38.93452351853708L175.52378725961537,38.60311810711304L175.63087860576923,38.618123808737295L175.73796995192305,38.70570379450065L175.84506129807693,38.80076837512339L176.16633533653845,38.880046570137054L176.38051802884615,39.061862518689004L176.487609375,39.195797389925104L176.70179206730768,39.37639407287869L176.91597475961538,39.59755291921397L177.02306610576923,39.76267899502815L177.23724879807693,39.92488597291413L177.34434014423078,40.13634029899662L177.4514314903846,40.281474982944864L177.55852283653846,40.274217495469884L177.6656141826923,40.25604247400081L177.77270552884616,40.29367811291764L177.879796875,40.393749408777644L177.98688822115383,40.50786104968557L178.20107091346156,40.61566906673531L178.95071033653846,40.41003066005005L179.27198437500002,39.579163132320005L179.37907572115384,38.969962333566045L179.59325841346154,39.050676140145114L180.12871514423077,38.817946334454824L180.23580649038462,38.67141928659283L180.34289783653847,38.42866038314344L180.77126322115384,38.33421484846976L180.98544591346152,38.33963440787258L181.09253725961537,38.37461006004487L181.41381129807692,38.52905323123261L181.52090264423077,38.66974283465936L181.94926802884615,38.89793229823826L182.056359375,38.95205995276878L182.16345072115385,39.06181545755451L182.37763341346152,39.20514812291373L183.12727283653848,40.33808971775003L183.2343641826923,39.070858641460084L183.34145552884615,37.950194540020554L183.55563822115383,38.17716436528963L183.76982091346153,37.62680357065084L183.87691225961538,36.93130312780308L184.6265516826923,37.346526208041716L184.94782572115383,37.13001372964297L185.16200841346154,37.18809708685349L185.8045564903846,37.67649255234401L186.12583052884617,38.07590570472718L186.232921875,38.42859708322904L186.55419591346154,38.39713940056458L187.30383533653847,38.58407462258515L187.625109375,37.255134383555514L187.73220072115384,33.41557641012446L187.8392920673077,30.835283346074675L188.0534747596154,31.449323992191466L188.26765745192307,31.53961814657371L188.8031141826923,31.082814867589L189.017296875,31.462380621011906L189.12438822115385,31.622346730933103L189.2314795673077,31.8820521902475L189.44566225961537,32.30886333414518L189.65984495192308,32.72304210203053L189.76693629807693,33.18538776121834L189.87402764423075,33.666990834965084L189.98111899038463,34.07276252418385L190.30239302884615,34.18903447097315L190.51657572115386,34.567638986741144L190.73075841346153,34.86220578756013L190.83784975961538,35.13845367673682L190.9449411057692,35.439664694330965L191.26621514423076,35.664342697061244L191.80167187499998,35.92304895853828L192.3371286057692,30.134094849442405L192.4442199519231,27.840320357808444L192.55131129807694,28.136772220807654L192.97967668269231,28.157142058299407L193.08676802884617,28.463920578531276L193.193859375,28.891049650413937L193.94349879807694,30.162661222877013L194.05059014423077,30.983463387645447L194.26477283653844,31.424544978712337L194.37186418269232,31.8853504947271L194.586046875,32.3524938041834L195.22859495192307,33.06645954935958L195.44277764423077,33.78382520251997L195.65696033653845,34.43316810353711L195.7640516826923,34.78614416732859L196.19241706730767,35.07274001249353L196.62078245192308,35.457734116367604L196.72787379807693,35.65917996671919L196.83496514423078,46.28613403503371L197.1562391826923,41.25409807601136L197.26333052884615,37.079248177042935L197.7987872596154,35.36623344840485L197.90587860576923,34.095035600792635L198.1200612980769,33.570283191282286L198.33424399038464,33.11452565007134L198.44133533653846,32.66438990481331L198.5484266826923,32.41707540540479L198.65551802884616,32.14080988757955L198.86970072115386,31.886092790324394L199.08388341346154,31.81769435903959L199.5122487980769,32.22586469233949L199.7264314903846,32.54207449186398L199.94061418269231,32.728909665516355L200.26188822115387,33.14318450341903L200.3689795673077,33.408123040498985L200.7973449519231,33.591066363037626L201.11861899038462,33.66958319102583L201.33280168269232,33.97537983032976L201.43989302884614,34.766475788193425L201.65407572115384,31.079529435299346L201.9753497596154,29.90544160059838L202.08244110576922,28.334758233140377L202.18953245192307,27.84521846241383L202.29662379807692,27.441848220030234L202.83208052884615,28.37270368432982L202.939171875,28.72209442434299L203.04626322115385,28.896913795337586L203.26044591346155,29.332749061981122L203.36753725961537,29.726167698621303L203.47462860576923,30.259940504979838L203.58171995192308,30.6060306429575L203.79590264423078,30.87334510086241L204.01008533653845,31.134001185883637L204.331359375,31.535535150998527L204.54554206730768,31.717860707183934L204.65263341346156,31.832119601094895L204.75972475961538,31.86610251493701L204.86681610576923,32.01607818500665L205.5093641826923,32.18021969256677L205.61645552884613,32.351573599921906L205.93772956730768,32.5471100887938L206.04482091346154,32.65224670656224L206.1519122596154,33.087596757934705L206.25900360576924,33.51474808676612L206.79446033653846,32.261794918916074L207.65119110576924,31.851189633692155L207.7582824519231,31.47380573778441L208.18664783653847,30.904151530439176L208.40083052884614,30.968260557278686L208.7221045673077,30.79881668736022L208.82919591346155,30.878273145255335L208.93628725961537,31.118242273269242L209.04337860576922,31.132521778069822L209.25756129807692,31.147377294136813L209.36465264423077,31.121654881139847L209.68592668269233,31.073115463912675L210.22138341346155,31.300874302303882L210.32847475961537,31.585757416198323L210.54265745192305,31.908143402165017L210.64974879807693,32.101269043103365L210.8639314903846,31.25484525955649L211.61357091346156,30.748647342901993L211.72066225961538,30.596616811026095L211.82775360576923,30.60892585901558L212.14902764423078,31.30729553692424L212.57739302884616,31.367964742141247L212.684484375,31.195022176240233L212.79157572115383,31.086488026699016L213.1128497596154,31.193195747328136L213.21994110576924,31.33423554121989L213.4341237980769,31.512311513540375L213.6483064903846,31.726967773030516L213.8624891826923,31.73820263218304L213.96958052884614,31.831527579256417L214.2908545673077,31.950158028858034L214.5050372596154,32.13125697914189L214.61212860576924,32.347378874679954L214.71921995192307,32.42410145095618L215.14758533653847,32.389269077131935L215.36176802884614,32.70856566628799L215.79013341346152,30.249745961433558L216.00431610576925,28.529071173909866L216.21849879807692,28.29307692160817L216.32559014423077,28.207669788066198L216.75395552884615,28.323791058935893L217.0752295673077,28.728427023934266L217.18232091346152,29.10127982571535L217.39650360576925,29.411617738454435L217.50359495192308,29.72530695345932L217.71777764423078,29.88304146854246L217.8248689903846,29.931620780993487L217.93196033653848,30.003200557451816L218.14614302884615,30.3238355556854L218.253234375,30.63807986019421L218.36032572115383,30.82091888092974L219.00287379807693,30.94140441598311L219.10996514423076,30.999685307632774L219.2170564903846,31.1266500355547L219.32414783653846,31.257752287491854L219.4312391826923,31.391358153882422L219.75251322115383,31.506748197592973L219.96669591346154,31.8629744756923L220.71633533653846,29.921678323072506L221.14470072115384,28.75076051862378L221.2517920673077,28.478460838266265L221.35888341346154,28.311072021644126L221.4659747596154,28.297486513805854L221.89434014423077,28.141561049194575L222.00143149038462,28.188901315910442L222.10852283653847,27.9491239135163L222.2156141826923,28.00530699161869L222.32270552884617,27.99725985090841L222.53688822115384,28.22810851073805L222.8581622596154,28.43867435775127L223.17943629807692,28.597750584613813L223.28652764423074,28.78299810906146L223.50071033653848,28.811561050533577L223.71489302884615,28.941299201559637L223.92907572115385,29.11391294092634L224.46453245192308,29.66843133026778L224.89289783653848,26.6817889026071L225.21417187499998,26.451407170967183L225.64253725961538,26.046252022192412L225.85671995192308,26.30393683314655L225.96381129807693,26.24293691754542L226.07090264423076,26.058130257369275L226.3921766826923,25.968261905337073L226.71345072115383,26.374954860105927L226.92763341346154,26.740622938093452L227.5701814903846,27.33121576334056L227.67727283653844,27.823755648285267L227.78436418269231,28.11465866956122L228.10563822115384,28.45479362960464L228.4269122596154,28.6493584856737L228.74818629807694,28.607003065666493L228.85527764423077,28.534694965315424L229.17655168269232,27.519568667192814L229.28364302884617,28.16423641763897L229.390734375,26.943287546174336L229.49782572115384,26.817576595983905L229.8190997596154,27.30621750881795L230.03328245192307,27.888725863281017L230.35455649038462,28.29595004700612L230.46164783653845,28.155124349492716L230.67583052884618,28.398069967685895L230.99710456730767,28.05077150455639L231.42546995192308,27.76433281297397L231.53256129807693,27.608020330637146L231.63965264423078,27.55669668028918L231.74674399038463,27.479123691977062L231.85383533653845,27.571660840666887L232.06801802884615,27.826747348401884L232.175109375,27.991446477469164L232.28220072115386,28.232364202914447L232.38929206730768,28.46617857538331L233.03184014423076,28.645470630661617L233.24602283653846,28.87059421034813L233.3531141826923,28.961938516450882L233.46020552884616,29.106314787955856L233.56729687499998,29.20620192867029L233.67438822115386,29.33083749879307L233.78147956730768,34.468817109280245L233.88857091346154,33.40316737557255L234.10275360576924,32.926458876519206L234.3169362980769,32.21142767738625L234.42402764423076,31.046196763940618L234.5311189903846,30.49748043133495L234.74530168269231,30.349552761993834L234.85239302884614,29.97427865951184L234.959484375,29.580788595014337L235.1736670673077,28.885420443137615L235.92330649038462,28.45349282116897L237.42258533653845,28.42734403664593L237.52967668269233,28.528411860792183L237.95804206730767,28.63734000654716L238.06513341346155,28.65849230129541L238.17222475961537,28.631800445550805L238.38640745192308,24.185335190674124L238.4934987980769,24.297260267484457L238.70768149038463,25.00392600473662L239.02895552884615,25.41514937029419L239.136046875,25.993354534781837L239.35022956730768,25.849638304517804L239.45732091346156,25.77750339591867L239.56441225961538,25.882872262503916L239.99277764423078,25.420364879909922L240.0998689903846,25.20121262272819L240.3140516826923,25.15518699765577L240.42114302884613,25.129249076130254L240.74241706730768,25.43046128754751L240.84950841346154,25.641657078295584L240.9565997596154,25.737125387209456L241.4920564903846,25.753271836291415L241.59914783653846,25.900975095183046L241.70623918269231,25.94203755077745L241.81333052884614,25.956314902407062L242.8842439903846,25.98500020557769L242.99133533653847,34.39724906834438L243.20551802884614,31.39914623828219L243.63388341346155,29.402387225219528L244.06224879807692,27.651911558859933L244.16934014423077,26.547399045320404L244.704796875,26.745109141643116L244.9189795673077,27.048782587513507L245.02607091346155,27.141965568342915L245.24025360576923,27.01893643157427L245.34734495192305,26.860265121559785L245.45443629807693,26.58738941293982L245.88280168269233,26.48621506894841L245.98989302884615,26.37757116201646L246.096984375,26.25256619240717L246.20407572115383,26.176666458760934L246.41825841346156,26.28065208215429L246.52534975961538,26.30441982518983L246.73953245192305,26.458542114325475L246.84662379807693,26.49139731277711L246.95371514423078,26.424948401151216L247.0608064903846,26.44536188059935L247.16789783653846,26.47812976130181L247.38208052884616,26.52508339696127L247.489171875,26.513492544966944L247.9175372596154,24.115755319880233L248.02462860576924,23.373414445094358L248.4529939903846,23.065255158050153L248.56008533653846,23.017383273186244L248.77426802884614,23.029182777250995L248.88135937500002,23.545195547011588L248.98845072115384,23.745578829805325L249.20263341346154,23.58819551727786L249.3097247596154,23.332729992041653L249.73809014423077,24.010570869904576L250.0593641826923,24.616164413727375L250.16645552884614,24.904710333130968L250.27354687500002,25.198572337974433L250.4877295673077,25.267026114672017L250.59482091346152,25.16739273560621L251.02318629807692,25.17020598943574L251.665734375,25.21500133213728L251.77282572115385,25.280312268360433L252.20119110576925,25.47852986361023" style="fill: none;" fill="none"></path></g></g></g></g><g opacity="0.2"><g><g><g><path stroke="rgb(255, 112, 67)" stroke-width="2px" d="M30.62919591346154,184.18553962558508L31.057561298076923,170.61084593832493L31.16465264423077,171.0784558877349L32.128474759615386,168.52578572183847L32.23556610576923,168.8369256556034L32.55684014423077,168.6278308108449L32.87811418269231,167.93371848016977L32.98520552884615,167.81673192232847L33.199388221153846,167.27515972405672L33.94902764423077,166.0369695648551L34.484484375,165.48991794884205L34.91284975961538,164.68698213994503L35.019941105769234,164.3515244051814L35.23412379807693,164.52905490249395L35.44830649038461,156.66452112793922L35.55539783653846,156.30902494490147L35.662489182692305,155.84670319408178L36.090854567307694,155.8727551549673L36.19794591346154,156.10796789824963L36.94758533653847,154.5886064618826L37.161768028846154,153.77683500945568L37.268859375,153.7024309784174L37.59013341346154,154.70606777071953L38.339772836538465,153.51348008215427L38.55395552884616,153.28682604432106L38.661046875000004,153.11004723608494L38.87522956730769,153.157350897789L39.089412259615386,152.67245869338512L39.73196033653846,151.87500889599323L39.83905168269231,151.83514299988747L39.94614302884615,149.80468574166298L40.2674170673077,143.50521478056908L40.374508413461534,142.3094488978386L40.481599759615385,143.71372278034687L40.58869110576923,142.55539628863335L40.802873798076924,142.12016831338406L40.90996514423077,141.8352781534195L41.23123918269231,141.42780992388725L41.33833052884615,141.86777222156525L41.445421875,141.54616798460484L41.87378725961538,140.8883609175682L41.980878605769234,140.43062183260918L42.08796995192307,140.72916108369827L42.40924399038462,140.49993547797203L42.837609375,140.64938972890377L42.94470072115384,140.63427682220936L43.15888341346154,140.15498931705952L43.26597475961538,140.40207083523273L43.37306610576923,140.1842524409294L43.48015745192308,140.456930950284L43.69434014423077,140.13263645768166L43.90852283653846,140.1444920450449L44.122705528846154,139.95956334471703L44.33688822115385,139.5463849157095L44.551070913461544,131.09062130749226L44.65816225961538,133.30311919748783L44.872344951923075,131.72276544570923L44.97943629807692,132.62708696722984L45.08652764423077,133.0516989827156L45.193618990384614,132.5372535288334L45.300710336538465,132.67625007033348L45.51489302884615,132.31331612169743L45.621984375,132.09151509404182L46.050349759615386,132.31297324597836L46.692897836538464,131.68515461683273L46.90708052884616,132.35775808990002L47.014171875,132.2920446395874L47.121263221153846,132.1526524722576L47.335445913461534,131.83236698806286L47.442537259615385,131.60419638454914L47.65671995192308,131.23176741600037L47.763811298076924,131.23621161282063L47.870902644230775,131.03838551044464L47.97799399038462,130.77612514793873L48.513450721153845,130.1394181251526L48.620542067307696,130.15694434940815L48.72763341346154,130.41869039833546L49.15599879807692,111.31641152501106L49.263090144230766,113.98325930535793L49.37018149038462,119.95898965001106L49.58436418269231,123.25887832045555L50.44109495192308,122.32969830930233L50.54818629807693,122.05458010733128L50.86946033653846,122.22360464930534L51.083643028846154,122.87206175923347L51.29782572115385,122.8779433965683L51.51200841346154,123.82144506275654L51.72619110576923,123.75985930860043L51.833282451923075,123.50398170948029L52.04746514423077,123.86607165634632L52.26164783653846,124.01894147694111L52.3687391826923,123.86942128837109L52.582921875,123.74324302375317L53.11837860576924,123.62367171049118L53.225469951923074,123.52281349897385L53.332561298076925,123.56047707796097L53.43965264423077,123.36346860229969L54.29638341346154,114.53862565755844L54.51056610576923,116.68664972484112L54.61765745192308,117.22251172363758L54.93893149038461,117.74709838628769L55.04602283653846,117.79763299226761L55.367296875,116.8431329280138L55.581479567307696,116.0283547192812L55.68857091346153,115.83888950943947L56.00984495192308,116.61882627010345L56.22402764423077,116.55535469949245L56.759484375,116.43594163656235L56.86657572115384,116.6341106146574L56.973667067307694,116.60007360577583L57.08075841346154,116.63892406225204L57.616215144230765,116.09232741594315L57.723306490384616,116.2052917778492L57.93748918269231,115.9423588514328L58.25876322115384,116.05562652647495L58.36585456730769,109.24218486249447L58.47294591346154,108.78125439584255L58.58003725961539,109.24218486249447L59.00840264423077,107.63633961975574L59.22258533653846,107.4883755594492L59.32967668269231,108.82133129239082L59.43676802884615,108.537219196558L59.86513341346154,109.12533017992973L60.293498798076925,107.95054565370083L60.40059014423077,107.78734999895096L60.50768149038462,108.2016493678093L60.614772836538464,107.38974604010582L60.7218641826923,107.56039264798164L60.82895552884615,108.07395453751087L60.936046874999995,108.33935353159904L61.57859495192308,109.43449857831001L61.89986899038461,109.81697644293308L62.00696033653846,109.58991359174252L62.86369110576923,110.13633880019188L63.29205649038461,101.7036269903183L63.39914783653846,102.32812236249447L63.506239182692305,102.00275968015194L63.613330528846156,104.00564181804657L63.720421875,104.74318067729473L64.04169591346154,103.91630950570107L64.25587860576923,104.59090429544449L64.47006129807693,103.7599713653326L64.57715264423078,103.35378232598305L64.79133533653847,102.65158604085445L65.21970072115384,102.99955214560032L65.3267920673077,102.93161000311375L65.64806610576923,102.70514059066772L65.75515745192308,102.89208698272705L65.86224879807692,103.08564032614231L65.96934014423077,103.07837399840355L66.29061418269231,102.73912484943867L66.61188822115385,102.99500244855881L66.7189795673077,102.99964445829391L67.04025360576924,102.77250248193741L67.14734495192307,102.86018635332584L67.57571033653846,102.59900736808777L67.68280168269231,94.58437974750996L68.11116706730769,96.0778145045042L68.21825841346154,94.58437974750996L68.32534975961538,93.83370611071587L68.43244110576923,94.51523754000664L68.53953245192308,94.67656056582928L68.64662379807693,94.33546516299248L68.75371514423077,94.35809496045113L68.96789783653846,94.60565122961998L69.0749891826923,94.80167064070702L69.18208052884616,95.2665573656559L69.289171875,95.32764199376106L69.71753725961538,95.71828293800354L69.82462860576923,95.69062869250774L69.93171995192307,95.95461662113667L70.03881129807692,95.72669658064842L70.14590264423077,96.12852054834366L70.36008533653846,96.83989535272121L70.57426802884615,96.57006534934044L70.78845072115385,96.72350223362446L70.89554206730769,96.71694803237915L71.21681610576924,97.00063812732697L71.32390745192308,97.17659930884838L71.43099879807691,97.25825648009777L71.64518149038462,96.81175316870213L71.8593641826923,96.68652440607548L72.2877295673077,96.79687763750553L72.39482091346153,88.49999736249447L72.71609495192308,86.35523061454296L72.82318629807692,87.65624615550041L72.93027764423077,87.53804634511471L73.03736899038462,89.55023887753487L73.14446033653846,90.17801794409752L73.25155168269231,90.28788323700428L73.35864302884615,90.70743124186993L73.57282572115385,89.42187148332596L73.6799170673077,89.49482488632202L73.78700841346154,89.92922204732895L73.89409975961537,90.22199834883213L74.10828245192307,89.7051263898611L74.42955649038461,89.38658165931702L74.85792187499999,90.34212353825569L75.17919591346154,91.18512305617332L75.28628725961538,91.11132565140724L75.39337860576924,91.37555095553398L75.71465264423077,91.28984521329403L76.0359266826923,91.15683580935001L76.14301802884616,90.84492440521717L76.250109375,90.65896707773209L76.35720072115386,90.63900116086006L76.4642920673077,90.72404752671719L76.57138341346153,90.67641417682171L76.89265745192309,84.005859375L76.99974879807692,83.12240052223206L77.10684014423077,81.88225860893726L77.21393149038461,82.24095936119556L77.53520552884615,81.87064039707184L78.28484495192308,83.79041473567486L78.60611899038462,83.01813992857933L78.71321033653845,83.49701862037182L78.92739302884615,83.58333098888397L79.03448437499999,83.59367001056671L79.14157572115384,84.21200680732727L79.2486670673077,84.68741717934608L79.35575841346154,85.17314019799232L79.56994110576923,85.1094312518835L79.67703245192308,85.35986240208149L79.78412379807693,85.39324003458023L79.9983064903846,85.67605975270271L80.10539783653846,86.08213010430336L80.426671875,85.70752519369125L80.6408545673077,85.97173731029034L80.85503725961539,86.14943924546242L80.96212860576922,86.05319666862488L81.06921995192307,86.22588734328747L81.71176802884615,78.05208626389503L81.818859375,78.78293904662132L81.92595072115384,79.49700410664082L82.35431610576923,79.47198736667633L82.67559014423077,79.16305634379387L82.88977283653846,79.98106549680233L83.21104687500001,80.35217571258545L83.63941225961538,80.22392700612545L84.06777764423077,80.17575296759605L84.17486899038461,80.21987843513489L84.28196033653846,80.13636182248592L84.49614302884616,79.82292066514492L84.71032572115385,80.2982519119978L84.81741706730769,80.76648826897144L84.92450841346155,80.9607405513525L85.13869110576923,81.74615013599396L85.35287379807691,81.9861499518156L85.45996514423078,81.82878318428993L85.56705649038462,82.05839122831821L85.67414783653847,81.82352136075497L85.88833052884615,81.83201412856579L85.995421875,81.87807816267014L86.10251322115384,80.20313027501106L86.31669591346153,81.79867605865002L86.63796995192307,77.63504388928413L86.85215264423077,77.43749472498894L87.17342668269231,78.35067826509476L87.28051802884615,78.26001401245594L87.49470072115385,77.06055562198162L87.70888341346154,77.87162813544273L87.92306610576924,77.03622463345528L88.13724879807693,77.10541959106922L88.24434014423076,77.33643870055676L88.5656141826923,78.2167721092701L88.779796875,78.73943339288235L88.88688822115385,78.79447813332081L89.31525360576923,78.78880749642849L89.74361899038462,78.8244401961565L90.06489302884614,78.37532575428486L90.17198437500001,78.40119968354702L90.27907572115384,78.37685550749302L90.3861670673077,78.38777478039265L90.49325841346153,78.62425352633L90.60034975961538,78.73924876749516L91.02871514423076,73.3566274791956L91.24289783653846,71.61983008682728L91.34998918269231,72.51597534120083L91.45708052884615,72.32384625077248L91.564171875,72.01413716375828L91.67126322115385,71.6239841580391L91.99253725961537,72.37809973955154L92.20671995192308,72.16030772030354L92.95635937499999,72.69523340463638L93.27763341346154,72.62117224931717L93.81309014423077,73.31581208109856L93.9201814903846,73.35122059285641L94.02727283653847,73.42828850448132L94.348546875,73.75293906033039L94.5627295673077,73.8336203545332L94.66982091346154,74.03301577270031L94.77691225961539,74.11427731812L95.09818629807693,74.30789659917355L95.63364302884615,67.92049120366573L95.84782572115384,70.52343222498894L96.06200841346154,71.75675618648529L96.16909975961538,71.67578476667404L96.38328245192308,72.43810299038887L96.70455649038462,71.69986519217491L96.81164783653846,71.61816845834255L97.02583052884616,70.96189114451408L97.45419591346155,71.28262500464916L97.56128725961538,71.45393098890781L97.77546995192307,70.74800263345242L98.09674399038461,70.33765952289104L98.31092668269231,70.33126357197762L98.525109375,70.43491753935814L98.63220072115384,70.54345089197159L98.73929206730769,70.92704969644547L98.95347475961539,70.97594904899597L99.16765745192308,70.700290158391L99.27474879807693,70.65857800841331L99.38184014423078,70.67667129635811L99.48893149038462,70.70788617432117L99.59602283653845,70.75809109210968L99.81020552884615,71.26242171227932L99.917296875,70.98437587916851L100.02438822115384,74.45913116633892L100.55984495192307,66.94568234682083L100.66693629807693,66.03402855992317L100.98821033653846,64.92506298422813L101.0953016826923,65.44496807456017L101.20239302884616,65.22828380763531L101.309484375,64.96099899709225L102.38039783653846,67.62352126836777L102.4874891826923,67.72013309597969L102.701671875,67.77559983730316L103.23712860576923,68.55051214993L103.34421995192308,68.24333506822586L103.45131129807692,68.30352294445038L103.77258533653846,68.31937435269356L103.8796766826923,68.42297556996346L104.20095072115384,68.67546397447586L104.52222475961538,51.1640625L104.62931610576923,64.9921875L104.84349879807692,65.42431640625L104.95059014423077,63.938609540462494L105.05768149038462,64.08803741633892L105.16477283653846,63.16330160200596L105.27186418269231,63.186854526400566L105.91441225961539,64.2798236310482L106.23568629807691,64.5653995424509L106.44986899038462,64.88581690192223L106.6640516826923,65.61003635823727L107.0924170673077,66.45674157142639L107.19950841346153,66.55229839682579L107.62787379807692,66.31010945141315L107.73496514423077,66.21149311959743L107.84205649038462,66.08373235166073L107.94914783653846,65.98109382390976L108.270421875,65.96752385795116L109.12715264423076,22.124994724988937L109.23424399038461,56.56960371136665L109.44842668269231,53.528230145573616L109.66260937499999,56.885115310549736L109.87679206730769,60.84374736249447L109.98388341346154,60.09259897470474L110.09097475961538,59.81043863296509L110.19806610576924,60.56992153823376L110.6264314903846,60.66721911728382L110.73352283653847,61.319948986172676L110.94770552884616,61.5553727298975L111.054796875,61.17989744246006L111.16188822115386,61.71252849698067L111.37607091346153,62.82353813946247L111.48316225961538,62.370876252651215L111.80443629807692,62.397712871432304L112.01861899038461,62.54840674996376L112.55407572115384,62.7309485077858L112.6611670673077,62.75749500095844L112.98244110576923,62.981551095843315L113.30371514423076,62.944837018847466L113.62498918269232,63.15647046267986L113.83917187499999,53.65312922000885L114.16044591346154,59.530071794986725L114.26753725961538,58.51614873111248L114.69590264423077,60.22823269665241L114.8029939903846,59.59785568714142L115.87390745192307,59.37720197439194L116.08809014423078,59.774660870432854L116.19518149038461,60.169996574521065L116.30227283653845,60.18654692173004L116.40936418269231,60.0136584341526L116.623546875,59.93171113729477L116.83772956730769,60.42389604449272L117.05191225961539,60.57592186331749L117.37318629807693,60.75415129959583L117.58736899038462,61.00501763820648L117.69446033653846,60.985711097717285L118.01573437500001,60.89206646382809L118.12282572115384,60.95160815119743L118.33700841346155,61.04309003055096L118.55119110576923,55.74918124079704L118.65828245192307,54.83566801249981L118.76537379807692,54.95792958140373L118.97955649038461,55.781253308057785L119.08664783653846,55.55299039185047L119.407921875,57.32386435568333L119.83628725961539,57.33964982628822L119.94337860576923,57.277813509106636L120.15756129807691,57.15973238646984L120.37174399038462,57.06664162874222L120.800109375,57.20714154839516L120.90720072115384,57.48669075965881L121.0142920673077,57.26601067185402L121.12138341346153,57.56441804766655L121.2284747596154,57.50124979019165L121.33556610576923,57.70040783286095L121.44265745192307,57.665619134902954L121.65684014423077,58.489101111888885L122.08520552884615,58.854158252477646L122.29938822115385,59.149426996707916L122.40647956730768,59.22334308922291L122.72775360576924,59.281355023384094L123.15611899038463,49.473962143063545L123.47739302884615,48.80175429582596L123.79866706730769,51.69591549038887L123.90575841346154,52.38973769545555L124.33412379807692,52.46044921875L124.54830649038462,52.54688027501106L124.65539783653847,53.282045379281044L124.86958052884614,54.38026311993599L125.08376322115384,55.21473030745983L125.1908545673077,54.99339084327221L125.51212860576923,55.25439839065075L126.04758533653846,55.85026364028454L126.26176802884615,55.41127721965313L126.368859375,55.738644406199455L126.58304206730769,56.441658318042755L126.69013341346154,56.35357882082462L127.11849879807693,56.08231137692928L127.3326814903846,56.429987356066704L127.5468641826923,56.442383632063866L127.76104687499999,54.661764085292816L127.9752295673077,49.183282658457756L128.08232091346153,48.95744624733925L128.18941225961538,50.21792332828045L128.40359495192308,50.427763268351555L128.51068629807693,51.37068468332291L128.83196033653846,51.192521184682846L128.9390516826923,52.25802066922188L129.04614302884616,51.814537301659584L129.15323437499998,51.67613419890404L129.26032572115386,52.33086857199669L129.7957824519231,52.93105933070183L130.00996514423076,52.86063793301582L130.22414783653846,53.64165607094765L130.33123918269231,53.64210444688797L130.43833052884617,53.79794146120548L130.9737872596154,54.089253947138786L131.40215264423077,54.652506440877914L131.61633533653844,54.687532514333725L131.72342668269232,54.86093531548977L132.3659747596154,49.78124472498894L132.47306610576922,50.41946831345558L132.58015745192307,51.317710384726524L132.68724879807692,51.64503800868988L132.79434014423077,52.892578125L133.22270552884615,51.39452773332596L133.43688822115385,51.664740175008774L133.54397956730767,51.5811048746109L134.18652764423078,51.07039149105549L134.2936189903846,50.86342643201351L134.61489302884615,51.258366510272026L134.82907572115386,51.23944240808487L134.93616706730768,51.50666128098965L135.04325841346156,51.285783380270004L135.25744110576923,51.286930695176125L135.57871514423078,51.75674955546856L135.6858064903846,52.17133904993534L135.79289783653846,52.520070031285286L136.00708052884616,52.74690869450569L136.114171875,53.12690730392933L136.22126322115383,53.06733924150467L136.32835456730768,52.867521822452545L136.43544591346154,53.00612273812294L136.5425372596154,52.94030378758907L136.8638112980769,47.56874683499336L136.97090264423076,53.46875439584255L137.18508533653846,44.25L137.29217668269231,44.803124472498894L137.39926802884617,44.65227234363556L137.7205420673077,45.0959535241127L137.82763341346154,46.17138321697712L137.9347247596154,46.87278825044632L138.36309014423077,48.00000536441803L139.1127295673077,49.905589923262596L139.32691225961537,50.46009908616543L139.5410949519231,51.10117118060589L139.64818629807692,50.85299509763718L139.75527764423077,50.69329413771629L140.07655168269233,49.95051982998848L140.18364302884615,50.15591557323933L140.290734375,49.92307658493519L140.5049170673077,50.10729315876961L140.61200841346155,50.39421419799328L140.82619110576923,50.656580060720444L141.04037379807693,50.80132636427879L141.36164783653845,50.9701267182827L141.57583052884615,45.23771944642067L141.682921875,47.70703125L142.00419591346156,43.68662881851196L142.11128725961538,44.077137887477875L142.32546995192305,44.4475491642952L142.43256129807693,43.98519444465637L142.53965264423078,45.340292036533356L142.6467439903846,45.82688543200493L142.75383533653846,46.19039963185787L142.96801802884616,47.01562236249447L143.075109375,47.06950660049915L143.18220072115383,47.28543917834759L143.5034747596154,48.868878811597824L143.8247487980769,49.497277691960335L144.14602283653846,48.88840954005718L144.2531141826923,48.90128056704998L144.46729687500002,49.411202698946L144.57438822115384,49.75302341580391L144.6814795673077,49.87222547829151L144.78857091346154,50.02495023608208L144.8956622596154,50.09427706897259L145.00275360576924,50.275394573807716L145.75239302884614,49.943266689777374L145.96657572115384,49.85733675956726L146.18075841346152,39.14423766732216L146.39494110576925,40.143456637859344L146.50203245192307,42.25617769360542L147.14458052884615,45.29718200862408L147.251671875,45.08213299512863L147.4658545673077,45.74718001484871L147.57294591346152,45.197655737400055L147.68003725961537,45.18995422124863L148.10840264423078,46.01255263388157L148.32258533653848,46.67803484201431L148.53676802884615,46.77823367714882L148.75095072115383,46.9937574416399L148.8580420673077,47.43625174462795L148.96513341346153,47.461360797286034L149.28640745192308,47.3807190656662L149.39349879807693,47.80202101171017L149.50059014423076,47.90611016750336L149.71477283653846,47.99124884605408L149.8218641826923,48.18298231065273L150.14313822115383,48.33706538379192L150.2502295673077,48.408990159630775L150.57150360576924,48.32730661332607L150.67859495192306,60.84374736249447L150.78568629807694,44.01953476667404L150.9998689903846,41.397959768772125L151.428234375,40.92365714907646L151.53532572115384,41.63354176282883L151.6424170673077,41.767764419317245L151.96369110576924,42.922965466976166L152.49914783653847,45.705850303173065L152.71333052884617,45.381212934851646L153.0346045673077,45.9012630879879L153.14169591346152,45.66310952603817L153.46296995192307,46.44101540744305L153.57006129807692,46.6452242732048L154.10551802884615,46.24742250144482L154.31970072115385,46.979884162545204L154.4267920673077,46.855156525969505L154.53388341346152,46.775530233979225L154.64097475961537,46.6555764824152L154.74806610576923,46.75189818441868L154.85515745192308,46.82213495671749L154.96224879807693,46.7994260340929L155.28352283653848,27.656239449977875L155.3906141826923,37.461641013622284L155.49770552884615,34.37277916073799L155.60479687499998,38.094246715307236L155.8189795673077,39.857524663209915L156.03316225961538,39.380953788757324L156.1402536057692,40.25520774722099L156.46152764423076,41.932845890522L156.5686189903846,42.01007205247879L156.88989302884616,42.78476017713547L157.2111670673077,43.11930137872696L157.6395324519231,44.16240844130516L158.17498918269231,44.454103365540504L158.28208052884617,44.80115953087807L158.389171875,44.677671521902084L158.8175372596154,44.53833210468292L159.13881129807694,44.65996067225933L159.67426802884617,44.91967584192753L159.99554206730767,38.16561761498451L160.31681610576922,34.30813390016556L160.53099879807695,37.90350231528282L160.63809014423077,39.00898638367653L160.9593641826923,39.91826641559601L161.38772956730767,42.71813678741455L161.81609495192308,41.44469636678696L162.24446033653845,40.78539910912514L162.3515516826923,40.91202574968338L162.88700841346153,42.703762382268906L163.10119110576923,42.95440453290939L163.20828245192308,42.6035635471344L163.42246514423076,42.98840197920799L163.52955649038464,43.17197236418724L163.7437391826923,43.40860936045647L164.49337860576924,43.42337939143181L165.45720072115387,37.848668575286865L165.5642920673077,38.299708396196365L165.7784747596154,40.20615014433861L165.88556610576921,39.4905421435833L166.20684014423077,39.36233299970627L166.31393149038462,39.55334115028381L166.52811418269232,39.040662825107574L166.9564795673077,39.34674534201622L167.1706622596154,39.785019636154175L167.59902764423077,40.79536888003349L167.70611899038462,41.18838357925415L167.81321033653845,41.52018177509308L167.92030168269233,41.53640243411064L168.02739302884615,41.84583458304405L168.45575841346155,42.26385283470154L168.56284975961537,42.44760784506798L168.77703245192308,42.62112933397293L168.8841237980769,42.8570542037487L169.3124891826923,35.18489348888397L169.84794591346156,38.3120519220829L169.95503725961538,38.32872095704079L170.38340264423078,40.61717900633812L170.7046766826923,40.02682614326477L171.13304206730768,40.17510670423508L171.45431610576924,40.9134763777256L171.77559014423076,41.56243461370468L173.16777764423077,41.24292719364166L173.2748689903846,41.16361740231514L173.703234375,41.4741573035717L174.77414783653848,38.234060883522034L174.88123918269233,37.52979415655136L175.3096045673077,38.79400330781937L175.52378725961537,38.10600998997688L175.63087860576923,38.64063236117363L175.73796995192305,38.837073773145676L175.84506129807693,38.94336524605751L176.16633533653845,38.99896386265755L176.38051802884615,39.334586441516876L176.487609375,39.39669969677925L176.70179206730768,39.64728909730911L176.91597475961538,39.92929118871689L177.02306610576923,40.01036810874939L177.23724879807693,40.16819643974304L177.34434014423078,40.45352178812027L177.4514314903846,40.499177008867264L177.55852283653846,40.26333126425743L177.6656141826923,40.22877994179726L177.77270552884616,40.35013157129288L177.879796875,40.54385635256767L177.98688822115383,40.67902851104736L178.20107091346156,40.77738109230995L178.95071033653846,40.101573050022125L179.27198437500002,38.332861840724945L179.37907572115384,38.056161135435104L179.59325841346154,39.17174685001373L180.12871514423077,38.46885162591934L180.23580649038462,38.45162871479988L180.34289783653847,38.06452202796936L180.77126322115384,38.1925465464592L180.98544591346152,38.34776374697685L181.09253725961537,38.427073538303375L181.41381129807692,38.76071798801422L181.52090264423077,38.8807772397995L181.94926802884615,39.24021649360657L182.056359375,39.03325143456459L182.16345072115385,39.226448714733124L182.37763341346152,39.420147120952606L183.12727283653848,42.037502110004425L183.2343641826923,37.17001202702522L183.34145552884615,36.26919838786125L183.55563822115383,38.51761910319328L183.76982091346153,36.80126237869263L183.87691225961538,35.888052463531494L184.6265516826923,37.96936082839966L184.94782572115383,36.80524501204491L185.16200841346154,37.27522212266922L185.8045564903846,38.409085750579834L186.12583052884617,38.675025433301926L186.232921875,38.9576341509819L186.55419591346154,38.34995287656784L187.30383533653847,38.864477455616L187.625109375,35.26172402501106L187.73220072115384,27.656239449977875L187.8392920673077,26.96484375L188.0534747596154,32.37038496136665L188.26765745192307,31.675059378147125L188.8031141826923,30.39760994911194L189.017296875,32.03172925114632L189.12438822115385,31.862295895814896L189.2314795673077,32.271610379219055L189.44566225961537,32.94908004999161L189.65984495192308,33.344310253858566L189.76693629807693,33.87890625L189.87402764423075,34.38939544558525L189.98111899038463,34.68142005801201L190.30239302884615,34.36344239115715L190.51657572115386,35.13554576039314L190.73075841346153,35.304055988788605L190.83784975961538,35.55282551050186L190.9449411057692,35.8914812207222L191.26621514423076,36.001359701156616L191.80167187499998,36.311108350753784L192.3371286057692,21.450663685798645L192.4442199519231,24.399658620357513L192.55131129807694,28.581450015306473L192.97967668269231,28.18769681453705L193.08676802884617,28.92408835887909L193.193859375,29.53174325823784L193.94349879807694,32.07007858157158L194.05059014423077,32.21466663479805L194.26477283653844,32.086167365312576L194.37186418269232,32.57655876874924L194.586046875,33.05320876836777L195.22859495192307,34.137408167123795L195.44277764423077,34.85987368226051L195.65696033653845,35.407182455062866L195.7640516826923,35.31560826301575L196.19241706730767,35.50263378024101L196.62078245192308,36.03522527217865L196.72787379807693,35.96134874224663L196.83496514423078,62.22656513750553L197.1562391826923,33.706044137477875L197.26333052884615,30.816973328590393L197.7987872596154,32.79671135544777L197.90587860576923,32.18823882937431L198.1200612980769,32.78315457701683L198.33424399038464,32.43088933825493L198.44133533653846,31.98918628692627L198.5484266826923,32.04610365629196L198.65551802884616,31.72641161084175L198.86970072115386,31.504017144441605L199.08388341346154,31.715096712112427L199.5122487980769,32.83812019228935L199.7264314903846,33.016389191150665L199.94061418269231,33.00916242599487L200.26188822115387,33.76459676027298L200.3689795673077,33.80553084611893L200.7973449519231,33.86548134684563L201.11861899038462,33.787358433008194L201.33280168269232,34.43407478928566L201.43989302884614,35.95311972498894L201.65407572115384,25.549109905958176L201.9753497596154,28.144309848546982L202.08244110576922,25.97873318195343L202.18953245192307,27.110908806324005L202.29662379807692,26.83679285645485L202.83208052884615,29.768986880779266L202.939171875,29.246180534362793L203.04626322115385,29.15914285182953L203.26044591346155,29.986501961946487L203.36753725961537,30.31629565358162L203.47462860576923,31.060599714517593L203.58171995192308,31.125165849924088L203.79590264423078,31.274316787719727L204.01008533653845,31.524985313415527L204.331359375,32.13783609867096L204.54554206730768,31.991349041461945L204.65263341346156,32.00350794196129L204.75972475961538,31.917076885700226L204.86681610576923,32.24104169011116L205.5093641826923,32.42643195390701L205.61645552884613,32.608604460954666L205.93772956730768,32.84041482210159L206.04482091346154,32.80995163321495L206.1519122596154,33.74062183499336L206.25900360576924,34.155475080013275L206.79446033653846,30.38236516714096L207.65119110576924,31.235281705856323L207.7582824519231,30.907729893922806L208.18664783653847,30.049670219421387L208.40083052884614,31.064424097537994L208.7221045673077,30.54465088248253L208.82919591346155,30.997457832098007L208.93628725961537,31.47819596529007L209.04337860576922,31.15394103527069L209.25756129807692,31.169660568237305L209.36465264423077,31.083071261644363L209.68592668269233,31.000306338071823L210.22138341346155,31.642512559890747L210.32847475961537,32.01308208703995L210.54265745192305,32.39172238111496L210.64974879807693,32.39095750451088L210.8639314903846,29.985209584236145L211.61357091346156,29.989350467920303L211.72066225961538,30.368571013212204L211.82775360576923,30.627389430999756L212.14902764423078,32.35485005378723L212.57739302884616,31.458968549966812L212.684484375,30.935608327388763L212.79157572115383,30.923686802387238L213.1128497596154,31.353257328271866L213.21994110576924,31.54579523205757L213.4341237980769,31.779425472021103L213.6483064903846,32.04895216226578L213.8624891826923,31.75505492091179L213.96958052884614,31.971514999866486L214.2908545673077,32.12810370326042L214.5050372596154,32.40290540456772L214.61212860576924,32.67156171798706L214.71921995192307,32.53918531537056L215.14758533653847,32.33702051639557L215.36176802884614,33.187510550022125L215.79013341346152,26.561516404151917L216.00431610576925,25.948058992624283L216.21849879807692,27.93908554315567L216.32559014423077,28.079559087753296L216.75395552884615,28.49797296524048L217.0752295673077,29.335380971431732L217.18232091346152,29.66055902838707L217.39650360576925,29.87712460756302L217.50359495192308,30.195840775966644L217.71777764423078,30.11964324116707L217.8248689903846,30.00448974967003L217.93196033653848,30.11057022213936L218.14614302884615,30.804788053035736L218.253234375,31.109446316957474L218.36032572115383,31.09517741203308L219.00287379807693,31.12213271856308L219.10996514423076,31.08710664510727L219.2170564903846,31.31709712743759L219.32414783653846,31.454405665397644L219.4312391826923,31.591766953468323L219.75251322115383,31.679833263158798L219.96669591346154,32.39731389284134L220.71633533653846,27.009734094142914L221.14470072115384,26.994383811950684L221.2517920673077,28.07001131772995L221.35888341346154,28.059988796710968L221.4659747596154,28.277108252048492L221.89434014423077,27.907672852277756L222.00143149038462,28.259911715984344L222.10852283653847,27.58945780992508L222.2156141826923,28.089581608772278L222.32270552884617,27.985189139842987L222.53688822115384,28.57438150048256L222.8581622596154,28.754523128271103L223.17943629807692,28.836364924907684L223.28652764423074,29.06086939573288L223.50071033653848,28.854405462741852L223.71489302884615,29.13590642809868L223.92907572115385,29.37283354997635L224.46453245192308,30.500208914279938L224.89289783653848,22.201825261116028L225.21417187499998,26.10583457350731L225.64253725961538,25.438519299030304L225.85671995192308,26.690464049577713L225.96381129807693,26.151437044143677L226.07090264423076,25.780920267105103L226.3921766826923,25.83345937728882L226.71345072115383,26.984994292259216L226.92763341346154,27.28912505507469L227.5701814903846,28.217105001211166L227.67727283653844,28.562565475702286L227.78436418269231,28.551013201475143L228.10563822115384,28.964996069669724L228.4269122596154,28.941205769777298L228.74818629807694,28.543469935655594L228.85527764423077,28.42623281478882L229.17655168269232,25.99687922000885L229.28364302884617,29.131238043308258L229.390734375,25.111864238977432L229.49782572115384,26.629010170698166L229.8190997596154,28.039178878068924L230.03328245192307,28.762488394975662L230.35455649038462,28.90678632259369L230.46164783653845,27.943885803222656L230.67583052884618,28.762488394975662L230.99710456730767,27.529823809862137L231.42546995192308,27.334674775600433L231.53256129807693,27.373551607131958L231.63965264423078,27.479711204767227L231.74674399038463,27.362764209508896L231.85383533653845,27.71046656370163L232.06801802884615,28.209377110004425L232.175109375,28.2384951710701L232.28220072115386,28.593740791082382L232.38929206730768,28.81690013408661L233.03184014423076,28.914408713579178L233.24602283653846,29.208279579877853L233.3531141826923,29.09895497560501L233.46020552884616,29.322879195213318L233.56729687499998,29.356032639741898L233.67438822115386,29.517790853977203L233.78147956730768,42.17578652501106L233.88857091346154,31.804692775011063L234.10275360576924,32.211396127939224L234.3169362980769,31.138880878686905L234.42402764423076,29.298350393772125L234.5311189903846,29.674405932426453L234.74530168269231,30.127661257982254L234.85239302884614,29.411367505788803L234.959484375,28.990553498268127L235.1736670673077,27.842368215322495L235.92330649038462,27.80560138821602L237.42258533653845,28.388120859861374L237.52967668269233,28.680013597011566L237.95804206730767,28.800732225179672L238.06513341346155,28.69022074341774L238.17222475961537,28.5917626619339L238.38640745192308,17.515637308359146L238.4934987980769,24.465147882699966L238.70768149038463,26.063924610614777L239.02895552884615,26.0319844186306L239.136046875,26.860662281513214L239.35022956730768,25.634063959121704L239.45732091346156,25.66930103302002L239.56441225961538,26.040925562381744L239.99277764423078,24.72660380601883L240.0998689903846,24.872484236955643L240.3140516826923,25.08614856004715L240.42114302884613,25.090342193841934L240.74241706730768,25.882279604673386L240.84950841346154,25.95845076441765L240.9565997596154,25.880327850580215L241.4920564903846,25.777491509914398L241.59914783653846,26.122529983520508L241.70623918269231,26.003631234169006L241.81333052884614,25.977730929851532L242.8842439903846,26.028028160333633L242.99133533653847,47.01562236249447L243.20551802884614,26.901991993188858L243.63388341346155,26.407248705625534L244.06224879807692,25.02619805932045L244.16934014423077,24.890630275011063L244.704796875,27.04167428612709L244.9189795673077,27.504292756319046L245.02607091346155,27.28174003958702L245.24025360576923,26.834392726421356L245.34734495192305,26.62225815653801L245.45443629807693,26.178075850009918L245.88280168269233,26.33445355296135L245.98989302884615,26.214605301618576L246.096984375,26.06505873799324L246.20407572115383,26.062816858291626L246.41825841346156,26.43663051724434L246.52534975961538,26.340071439743042L246.73953245192305,26.689725548028946L246.84662379807693,26.54068011045456L246.95371514423078,26.325275033712387L247.0608064903846,26.4759820997715L247.16789783653846,26.5272815823555L247.38208052884616,26.595513850450516L247.489171875,26.496106266975403L247.9175372596154,20.519149482250214L248.02462860576924,22.259903132915497L248.4529939903846,22.60301622748375L248.56008533653846,22.945575445890427L248.77426802884614,23.046882033348083L248.88135937500002,24.319214701652527L248.98845072115384,24.046153753995895L249.20263341346154,23.35212054848671L249.3097247596154,22.949531704187393L249.73809014423077,25.027332186698914L250.0593641826923,25.52455472946167L250.16645552884614,25.337529212236404L250.27354687500002,25.63936534523964L250.4877295673077,25.3697067797184L250.59482091346152,25.017942667007446L251.02318629807692,25.17442587018013L251.665734375,25.2821943461895L251.77282572115385,25.37827867269516L252.20119110576925,25.775856256484985" style="fill: none;" fill="none"></path></g></g></g></g></g></g><g transform="translate(51, 177)" clip-path="url(#clip_1)"><clipPath id="clip_1"><rect width="278" height="23"></rect></clipPath><g><g><line x1="0" y1="0" x2="0" y2="5" style="visibility: inherit;" fill="rgb(0, 0, 0)" stroke="rgb(204, 204, 204)" stroke-width="1px"></line><line x1="21.418269230769234" y1="0" x2="21.418269230769234" y2="5" style="visibility: inherit;" fill="rgb(0, 0, 0)" stroke="rgb(204, 204, 204)" stroke-width="1px"></line><line x1="42.83653846153847" y1="0" x2="42.83653846153847" y2="5" style="visibility: inherit;" fill="rgb(0, 0, 0)" stroke="rgb(204, 204, 204)" stroke-width="1px"></line><line x1="64.2548076923077" y1="0" x2="64.2548076923077" y2="5" style="visibility: inherit;" fill="rgb(0, 0, 0)" stroke="rgb(204, 204, 204)" stroke-width="1px"></line><line x1="85.67307692307693" y1="0" x2="85.67307692307693" y2="5" style="visibility: inherit;" fill="rgb(0, 0, 0)" stroke="rgb(204, 204, 204)" stroke-width="1px"></line><line x1="107.09134615384616" y1="0" x2="107.09134615384616" y2="5" style="visibility: inherit;" fill="rgb(0, 0, 0)" stroke="rgb(204, 204, 204)" stroke-width="1px"></line><line x1="128.5096153846154" y1="0" x2="128.5096153846154" y2="5" style="visibility: inherit;" fill="rgb(0, 0, 0)" stroke="rgb(204, 204, 204)" stroke-width="1px"></line><line x1="149.9278846153846" y1="0" x2="149.9278846153846" y2="5" style="visibility: inherit;" fill="rgb(0, 0, 0)" stroke="rgb(204, 204, 204)" stroke-width="1px"></line><line x1="171.34615384615387" y1="0" x2="171.34615384615387" y2="5" style="visibility: inherit;" fill="rgb(0, 0, 0)" stroke="rgb(204, 204, 204)" stroke-width="1px"></line><line x1="192.76442307692307" y1="0" x2="192.76442307692307" y2="5" style="visibility: inherit;" fill="rgb(0, 0, 0)" stroke="rgb(204, 204, 204)" stroke-width="1px"></line><line x1="214.18269230769232" y1="0" x2="214.18269230769232" y2="5" style="visibility: inherit;" fill="rgb(0, 0, 0)" stroke="rgb(204, 204, 204)" stroke-width="1px"></line><line x1="235.60096153846155" y1="0" x2="235.60096153846155" y2="5" style="visibility: inherit;" fill="rgb(0, 0, 0)" stroke="rgb(204, 204, 204)" stroke-width="1px"></line><line x1="257.0192307692308" y1="0" x2="257.0192307692308" y2="5" style="visibility: inherit;" fill="rgb(0, 0, 0)" stroke="rgb(204, 204, 204)" stroke-width="1px"></line><line x1="278.4375" y1="0" x2="278.4375" y2="5" style="visibility: inherit;" fill="rgb(0, 0, 0)" stroke="rgb(204, 204, 204)" stroke-width="1px"></line></g><g transform="translate(0, 8)"><text x="0" y="0" dx="0em" dy="0.95em" style="text-anchor: middle; visibility: hidden; font-family: Roboto, sans-serif; font-size: 12px; font-weight: 200;" fill="rgb(33, 33, 33)" stroke="none" stroke-width="1px">-20k</text><text x="21.418269230769234" y="0" dx="0em" dy="0.95em" style="text-anchor: middle; visibility: inherit; font-family: Roboto, sans-serif; font-size: 12px; font-weight: 200;" fill="rgb(33, 33, 33)" stroke="none" stroke-width="1px">0</text><text x="42.83653846153847" y="0" dx="0em" dy="0.95em" style="text-anchor: middle; visibility: hidden; font-family: Roboto, sans-serif; font-size: 12px; font-weight: 200;" fill="rgb(33, 33, 33)" stroke="none" stroke-width="1px">20k</text><text x="64.2548076923077" y="0" dx="0em" dy="0.95em" style="text-anchor: middle; visibility: inherit; font-family: Roboto, sans-serif; font-size: 12px; font-weight: 200;" fill="rgb(33, 33, 33)" stroke="none" stroke-width="1px">40k</text><text x="85.67307692307693" y="0" dx="0em" dy="0.95em" style="text-anchor: middle; visibility: hidden; font-family: Roboto, sans-serif; font-size: 12px; font-weight: 200;" fill="rgb(33, 33, 33)" stroke="none" stroke-width="1px">60k</text><text x="107.09134615384616" y="0" dx="0em" dy="0.95em" style="text-anchor: middle; visibility: inherit; font-family: Roboto, sans-serif; font-size: 12px; font-weight: 200;" fill="rgb(33, 33, 33)" stroke="none" stroke-width="1px">80k</text><text x="128.5096153846154" y="0" dx="0em" dy="0.95em" style="text-anchor: middle; visibility: hidden; font-family: Roboto, sans-serif; font-size: 12px; font-weight: 200;" fill="rgb(33, 33, 33)" stroke="none" stroke-width="1px">100k</text><text x="149.9278846153846" y="0" dx="0em" dy="0.95em" style="text-anchor: middle; visibility: inherit; font-family: Roboto, sans-serif; font-size: 12px; font-weight: 200;" fill="rgb(33, 33, 33)" stroke="none" stroke-width="1px">120k</text><text x="171.34615384615387" y="0" dx="0em" dy="0.95em" style="text-anchor: middle; visibility: hidden; font-family: Roboto, sans-serif; font-size: 12px; font-weight: 200;" fill="rgb(33, 33, 33)" stroke="none" stroke-width="1px">140k</text><text x="192.76442307692307" y="0" dx="0em" dy="0.95em" style="text-anchor: middle; visibility: inherit; font-family: Roboto, sans-serif; font-size: 12px; font-weight: 200;" fill="rgb(33, 33, 33)" stroke="none" stroke-width="1px">160k</text><text x="214.18269230769232" y="0" dx="0em" dy="0.95em" style="text-anchor: middle; visibility: hidden; font-family: Roboto, sans-serif; font-size: 12px; font-weight: 200;" fill="rgb(33, 33, 33)" stroke="none" stroke-width="1px">180k</text><text x="235.60096153846155" y="0" dx="0em" dy="0.95em" style="text-anchor: middle; visibility: inherit; font-family: Roboto, sans-serif; font-size: 12px; font-weight: 200;" fill="rgb(33, 33, 33)" stroke="none" stroke-width="1px">200k</text><text x="257.0192307692308" y="0" dx="0em" dy="0.95em" style="text-anchor: middle; visibility: hidden; font-family: Roboto, sans-serif; font-size: 12px; font-weight: 200;" fill="rgb(33, 33, 33)" stroke="none" stroke-width="1px">220k</text><text x="278.4375" y="0" dx="0em" dy="0.95em" style="text-anchor: middle; visibility: hidden; font-family: Roboto, sans-serif; font-size: 12px; font-weight: 200;" fill="rgb(33, 33, 33)" stroke="none" stroke-width="1px">240k</text></g><line x1="0" y1="0" x2="278.4375" y2="0" fill="rgb(0, 0, 0)" stroke="rgb(204, 204, 204)" stroke-width="1px"></line></g></g></g></g></svg>