<svg width="200" height="200" viewBox="0 0 330 200" xmlns="http://www.w3.org/2000/svg"><g><g><g><g><g><line x1="51.5625" y1="177" x2="46.5625" y2="177" style="visibility: inherit;" fill="rgb(0, 0, 0)" stroke="rgb(204, 204, 204)" stroke-width="1px"></line><line x1="51.5625" y1="162.25" x2="46.5625" y2="162.25" style="visibility: inherit;" fill="rgb(0, 0, 0)" stroke="rgb(204, 204, 204)" stroke-width="1px"></line><line x1="51.5625" y1="147.5" x2="46.5625" y2="147.5" style="visibility: inherit;" fill="rgb(0, 0, 0)" stroke="rgb(204, 204, 204)" stroke-width="1px"></line><line x1="51.5625" y1="132.75" x2="46.5625" y2="132.75" style="visibility: inherit;" fill="rgb(0, 0, 0)" stroke="rgb(204, 204, 204)" stroke-width="1px"></line><line x1="51.5625" y1="118.00000000000001" x2="46.5625" y2="118.00000000000001" style="visibility: inherit;" fill="rgb(0, 0, 0)" stroke="rgb(204, 204, 204)" stroke-width="1px"></line><line x1="51.5625" y1="103.24999999999999" x2="46.5625" y2="103.24999999999999" style="visibility: inherit;" fill="rgb(0, 0, 0)" stroke="rgb(204, 204, 204)" stroke-width="1px"></line><line x1="51.5625" y1="88.50000000000001" x2="46.5625" y2="88.50000000000001" style="visibility: inherit;" fill="rgb(0, 0, 0)" stroke="rgb(204, 204, 204)" stroke-width="1px"></line><line x1="51.5625" y1="73.75000000000001" x2="46.5625" y2="73.75000000000001" style="visibility: inherit;" fill="rgb(0, 0, 0)" stroke="rgb(204, 204, 204)" stroke-width="1px"></line><line x1="51.5625" y1="59.00000000000003" x2="46.5625" y2="59.00000000000003" style="visibility: inherit;" fill="rgb(0, 0, 0)" stroke="rgb(204, 204, 204)" stroke-width="1px"></line><line x1="51.5625" y1="44.25000000000002" x2="46.5625" y2="44.25000000000002" style="visibility: inherit;" fill="rgb(0, 0, 0)" stroke="rgb(204, 204, 204)" stroke-width="1px"></line><line x1="51.5625" y1="29.500000000000014" x2="46.5625" y2="29.500000000000014" style="visibility: inherit;" fill="rgb(0, 0, 0)" stroke="rgb(204, 204, 204)" stroke-width="1px"></line><line x1="51.5625" y1="14.750000000000007" x2="46.5625" y2="14.750000000000007" style="visibility: inherit;" fill="rgb(0, 0, 0)" stroke="rgb(204, 204, 204)" stroke-width="1px"></line><line x1="51.5625" y1="0" x2="46.5625" y2="0" style="visibility: inherit;" fill="rgb(0, 0, 0)" stroke="rgb(204, 204, 204)" stroke-width="1px"></line></g><g transform="translate(41.5625, 0)"><text x="0" y="177" dx="0em" dy="0.3em" style="text-anchor: end; visibility: hidden; font-family: Roboto, sans-serif; font-size: 12px; font-weight: 200;" fill="rgb(33, 33, 33)" stroke="none" stroke-width="1px">0.3</text><text x="0" y="162.25" dx="0em" dy="0.3em" style="text-anchor: end; visibility: inherit; font-family: Roboto, sans-serif; font-size: 12px; font-weight: 200;" fill="rgb(33, 33, 33)" stroke="none" stroke-width="1px">0.35</text><text x="0" y="147.5" dx="0em" dy="0.3em" style="text-anchor: end; visibility: hidden; font-family: Roboto, sans-serif; font-size: 12px; font-weight: 200;" fill="rgb(33, 33, 33)" stroke="none" stroke-width="1px">0.4</text><text x="0" y="132.75" dx="0em" dy="0.3em" style="text-anchor: end; visibility: inherit; font-family: Roboto, sans-serif; font-size: 12px; font-weight: 200;" fill="rgb(33, 33, 33)" stroke="none" stroke-width="1px">0.45</text><text x="0" y="118.00000000000001" dx="0em" dy="0.3em" style="text-anchor: end; visibility: hidden; font-family: Roboto, sans-serif; font-size: 12px; font-weight: 200;" fill="rgb(33, 33, 33)" stroke="none" stroke-width="1px">0.5</text><text x="0" y="103.24999999999999" dx="0em" dy="0.3em" style="text-anchor: end; visibility: inherit; font-family: Roboto, sans-serif; font-size: 12px; font-weight: 200;" fill="rgb(33, 33, 33)" stroke="none" stroke-width="1px">0.55</text><text x="0" y="88.50000000000001" dx="0em" dy="0.3em" style="text-anchor: end; visibility: hidden; font-family: Roboto, sans-serif; font-size: 12px; font-weight: 200;" fill="rgb(33, 33, 33)" stroke="none" stroke-width="1px">0.6</text><text x="0" y="73.75000000000001" dx="0em" dy="0.3em" style="text-anchor: end; visibility: inherit; font-family: Roboto, sans-serif; font-size: 12px; font-weight: 200;" fill="rgb(33, 33, 33)" stroke="none" stroke-width="1px">0.65</text><text x="0" y="59.00000000000003" dx="0em" dy="0.3em" style="text-anchor: end; visibility: hidden; font-family: Roboto, sans-serif; font-size: 12px; font-weight: 200;" fill="rgb(33, 33, 33)" stroke="none" stroke-width="1px">0.7</text><text x="0" y="44.25000000000002" dx="0em" dy="0.3em" style="text-anchor: end; visibility: inherit; font-family: Roboto, sans-serif; font-size: 12px; font-weight: 200;" fill="rgb(33, 33, 33)" stroke="none" stroke-width="1px">0.75</text><text x="0" y="29.500000000000014" dx="0em" dy="0.3em" style="text-anchor: end; visibility: hidden; font-family: Roboto, sans-serif; font-size: 12px; font-weight: 200;" fill="rgb(33, 33, 33)" stroke="none" stroke-width="1px">0.8</text><text x="0" y="14.750000000000007" dx="0em" dy="0.3em" style="text-anchor: end; visibility: inherit; font-family: Roboto, sans-serif; font-size: 12px; font-weight: 200;" fill="rgb(33, 33, 33)" stroke="none" stroke-width="1px">0.85</text><text x="0" y="0" dx="0em" dy="0.3em" style="text-anchor: end; visibility: hidden; font-family: Roboto, sans-serif; font-size: 12px; font-weight: 200;" fill="rgb(33, 33, 33)" stroke="none" stroke-width="1px">0.9</text></g><line x1="51.5625" y1="0" x2="51.5625" y2="177" fill="rgb(0, 0, 0)" stroke="rgb(204, 204, 204)" stroke-width="1px"></line></g></g><g transform="translate(51, 0)" clip-path="url(#clip_0)"><clipPath id="clip_0"><rect width="278" height="177"></rect></clipPath><g><g><g><line x1="0" y1="0" x2="0" y2="177" fill="rgb(0, 0, 0)" stroke="rgb(66, 66, 66)" stroke-width="1px" opacity="0.25"></line><line x1="25.3125" y1="0" x2="25.3125" y2="177" fill="rgb(0, 0, 0)" stroke="rgb(66, 66, 66)" stroke-width="1px" opacity="0.25"></line><line x1="50.625" y1="0" x2="50.625" y2="177" fill="rgb(0, 0, 0)" stroke="rgb(66, 66, 66)" stroke-width="1px" opacity="0.25"></line><line x1="75.9375" y1="0" x2="75.9375" y2="177" fill="rgb(0, 0, 0)" stroke="rgb(66, 66, 66)" stroke-width="1px" opacity="0.25"></line><line x1="101.25" y1="0" x2="101.25" y2="177" fill="rgb(0, 0, 0)" stroke="rgb(66, 66, 66)" stroke-width="1px" opacity="0.25"></line><line x1="126.5625" y1="0" x2="126.5625" y2="177" fill="rgb(0, 0, 0)" stroke="rgb(66, 66, 66)" stroke-width="1px" opacity="0.25"></line><line x1="151.875" y1="0" x2="151.875" y2="177" fill="rgb(0, 0, 0)" stroke="rgb(66, 66, 66)" stroke-width="1px" opacity="0.25"></line><line x1="177.1875" y1="0" x2="177.1875" y2="177" fill="rgb(0, 0, 0)" stroke="rgb(66, 66, 66)" stroke-width="1px" opacity="0.25"></line><line x1="202.5" y1="0" x2="202.5" y2="177" fill="rgb(0, 0, 0)" stroke="rgb(66, 66, 66)" stroke-width="1px" opacity="0.25"></line><line x1="227.8125" y1="0" x2="227.8125" y2="177" fill="rgb(0, 0, 0)" stroke="rgb(66, 66, 66)" stroke-width="1px" opacity="0.25"></line><line x1="253.125" y1="0" x2="253.125" y2="177" fill="rgb(0, 0, 0)" stroke="rgb(66, 66, 66)" stroke-width="1px" opacity="0.25"></line><line x1="278.4375" y1="0" x2="278.4375" y2="177" fill="rgb(0, 0, 0)" stroke="rgb(66, 66, 66)" stroke-width="1px" opacity="0.25"></line></g><g><line x1="0" y1="177" x2="278.4375" y2="177" fill="rgb(0, 0, 0)" stroke="rgb(66, 66, 66)" stroke-width="1px" opacity="0.25"></line><line x1="0" y1="162.25" x2="278.4375" y2="162.25" fill="rgb(0, 0, 0)" stroke="rgb(66, 66, 66)" stroke-width="1px" opacity="0.25"></line><line x1="0" y1="147.5" x2="278.4375" y2="147.5" fill="rgb(0, 0, 0)" stroke="rgb(66, 66, 66)" stroke-width="1px" opacity="0.25"></line><line x1="0" y1="132.75" x2="278.4375" y2="132.75" fill="rgb(0, 0, 0)" stroke="rgb(66, 66, 66)" stroke-width="1px" opacity="0.25"></line><line x1="0" y1="118.00000000000001" x2="278.4375" y2="118.00000000000001" fill="rgb(0, 0, 0)" stroke="rgb(66, 66, 66)" stroke-width="1px" opacity="0.25"></line><line x1="0" y1="103.24999999999999" x2="278.4375" y2="103.24999999999999" fill="rgb(0, 0, 0)" stroke="rgb(66, 66, 66)" stroke-width="1px" opacity="0.25"></line><line x1="0" y1="88.50000000000001" x2="278.4375" y2="88.50000000000001" fill="rgb(0, 0, 0)" stroke="rgb(66, 66, 66)" stroke-width="1px" opacity="0.25"></line><line x1="0" y1="73.75000000000001" x2="278.4375" y2="73.75000000000001" fill="rgb(0, 0, 0)" stroke="rgb(66, 66, 66)" stroke-width="1px" opacity="0.25"></line><line x1="0" y1="59.00000000000003" x2="278.4375" y2="59.00000000000003" fill="rgb(0, 0, 0)" stroke="rgb(66, 66, 66)" stroke-width="1px" opacity="0.25"></line><line x1="0" y1="44.25000000000002" x2="278.4375" y2="44.25000000000002" fill="rgb(0, 0, 0)" stroke="rgb(66, 66, 66)" stroke-width="1px" opacity="0.25"></line><line x1="0" y1="29.500000000000014" x2="278.4375" y2="29.500000000000014" fill="rgb(0, 0, 0)" stroke="rgb(66, 66, 66)" stroke-width="1px" opacity="0.25"></line><line x1="0" y1="14.750000000000007" x2="278.4375" y2="14.750000000000007" fill="rgb(0, 0, 0)" stroke="rgb(66, 66, 66)" stroke-width="1px" opacity="0.25"></line><line x1="0" y1="0" x2="278.4375" y2="0" fill="rgb(0, 0, 0)" stroke="rgb(66, 66, 66)" stroke-width="1px" opacity="0.25"></line></g></g></g><g><g><line x1="0" y1="265.5" x2="278.4375" y2="265.5" fill="rgb(0, 0, 0)" stroke="rgb(153, 153, 153)" stroke-width="1.5px"></line></g></g><g><g><line x1="25.3125" y1="0" x2="25.3125" y2="177" fill="rgb(0, 0, 0)" stroke="rgb(153, 153, 153)" stroke-width="1.5px"></line></g></g><g><g><g><g><g><path stroke="rgb(0, 153, 136)" stroke-width="2px" d="M31.387500000000003,178.43620646139146L31.514062499999998,176.4011387689524L31.640625,174.90375281283386L31.7671875,173.6929851065055L31.89375,172.66481179798498L32.0203125,171.8086194339313L32.2734375,170.72995741024377L32.4,169.81062596189656L32.653125,168.78721254437357L33.0328125,167.50741942654486L33.159375000000004,166.47437228531243L33.2859375,165.60303851522673L33.4125,164.93243948138593L33.665625,164.076780778073L33.792187500000004,163.36026949836287L33.918749999999996,162.6878845393817L34.0453125,162.03282146998322L34.2984375,161.2454765515596L34.425000000000004,160.6075749202955L34.678125,159.79628149283113L34.93125,158.91257492063505L35.184375,158.0865178069438L35.43749999999999,157.21046732428167L35.5640625,156.50051759815108L35.817187499999996,155.78669040879177L35.94375,155.18174804138985L36.196875,154.4973832302528L36.323437500000004,153.9215087970024L36.703125,153.18460996627235L36.8296875,152.59610669421744L37.4625,151.50610326890634L37.96875,134.7148119876589L38.0953125,124.56037048517271L38.475,117.46430001269842L38.854687500000004,112.44283612734671L38.98125,109.80555968383896L39.234375,108.24169855654202L39.3609375,106.91099842393373L39.4875,106.06565184595571L39.8671875,105.82139968396653L40.120312500000004,105.60507757378483L40.753125,105.15172919579067L41.259375000000006,104.5187054452164L41.385937500000004,104.16819212298768L41.639062499999994,103.96475571072804L41.765625,103.86106496856632L41.8921875,103.68773769024622L42.01875,103.52423919846781L42.1453125,103.39463773733478L42.3984375,103.12955770114722L42.6515625,102.91078248750962L42.778124999999996,102.68603712994931L43.5375,102.55484725641656L43.6640625,102.35952042107256L43.9171875,102.1539925012855L44.043749999999996,102.01295874559092L44.4234375,101.77285929944046L45.309374999999996,101.54695959345058L45.5625,101.3493575063679L45.6890625,101.24183861060938L45.9421875,101.07777023103239L46.06875,100.88326773516178L46.19531250000001,100.75301297588253L46.4484375,100.6567422156519L46.9546875,100.5101274731747L47.081250000000004,100.41801598566721L47.2078125,100.3158014947054L47.5875,100.21533925139173L47.7140625,100.11418408634223L47.840624999999996,100.03056930590844L47.9671875,99.9746260588716L48.2203125,99.86197714479869L48.346875000000004,99.79583666606014L48.6,99.73212646176377L48.7265625,99.65884613233783L48.853125,99.59128105186207L48.9796875,99.49845609392396L49.359375,99.33189445332093L49.4859375,99.19935790059212L49.612500000000004,99.06595348928718L49.7390625,98.978736827459L50.11875,87.87932392936118L50.4984375,83.27225332844954L50.625,80.76071213119448L50.751562500000006,79.3699361230923L51.0046875,78.40393284237345L51.131249999999994,77.95475024745441L51.2578125,77.5735792563294L51.384375,77.59585465466586L51.6375,77.40357886240251L51.890625,77.4279027133308L52.143750000000004,77.63533032829295L52.396874999999994,77.88133018550118L52.65,78.11628428302313L52.7765625,78.16284811021153L53.0296875,78.21973566723624L53.15625,78.2659444601104L53.282812500000006,78.26394680683408L53.409375,78.29169747557995L53.535937499999996,78.36968570546364L53.7890625,78.48671365735564L53.915625,78.63421989058037L54.421875,78.787402299491L54.801562499999996,78.93320829120127L55.18125,79.09101130036623L55.3078125,79.18394180219238L55.434375,79.24366691160722L55.5609375,79.31421858339624L55.6875,79.35712632101247L55.940625,79.38896184302251L56.067187499999996,79.41831777773429L56.3203125,79.47194911409693L56.446875,79.53501838069724L56.573437500000004,79.58040672315103L56.7,79.64561980827419L57.332812499999996,79.67009719529014L57.459375,79.63463585566437L57.5859375,79.62312133902883L57.965625,79.63426020022972L58.0921875,79.62976049349749L58.21874999999999,79.63242008069781L58.3453125,79.65948358642832L58.598437499999996,79.70678095500337L59.3578125,79.66932723808685L59.6109375,79.68528522186519L59.7375,79.70888450821066L60.1171875,79.74104945111168L60.24375,79.75323066859181L60.370312500000004,79.78289841263732L60.623437499999994,79.73161751418851L60.8765625,79.65498451226678L61.1296875,79.65533337493972L61.25625,79.64747544229174L61.509375,79.69543342650023L61.7625,79.73060153043322L61.889062499999994,79.79437371561559L62.1421875,74.63184185307999L62.26875,70.88835191417802L62.775000000000006,68.53837539964361L62.901562500000004,66.96551121600538L63.028124999999996,66.09825926618619L63.154687499999994,65.35519009588265L63.28125,64.8249906167871L63.9140625,64.86493164691245L64.1671875,64.94011310573174L64.29375,64.8537757386908L64.4203125,64.77456436098488L64.546875,64.72937963927315L64.9265625,64.72488805368259L65.05312500000001,64.69057820269298L65.30625,64.6345371844103L65.4328125,64.60858595619978L65.6859375,64.51924946457373L65.8125,64.53780972093483L66.1921875,64.60827919918383L66.4453125,64.67683747457319L67.078125,64.94467131523403L67.2046875,65.16927662031719L67.33125,65.35267540536445L67.4578125,65.44528603984193L67.58437500000001,65.53645522852703L68.090625,65.6374924389122L68.2171875,65.7358557109593L68.4703125,66.00111254003994L68.85000000000001,66.17512106864065L68.9765625,66.31009311657198L69.10312499999999,66.37596871364742L69.2296875,66.41653500740904L69.4828125,66.42116030898798L69.609375,66.4235275557465L69.73593749999999,66.44293217485111L69.98906249999999,66.5364360846577L70.11562500000001,66.5800612710415L70.2421875,66.65738992348304L70.36875,66.68843331608171L70.621875,66.75935229464173L70.7484375,66.82758243563053L71.0015625,66.84746267606188L71.2546875,66.91729637509208L71.38125,66.95562365368377L71.5078125,66.99560555646043L71.63437499999999,67.00853124159111L71.76093750000001,67.03176705180131L71.8875,67.0469886072786L72.0140625,67.0581612115092L72.7734375,67.08980502635161L72.9,67.12477108210281L73.153125,67.09409077388023L73.2796875,67.05961138857586L73.7859375,67.06482054503674L74.0390625,67.0743112189288L74.16562499999999,67.05288503305407L74.29218750000001,67.03651968083555L74.671875,62.38681480551823L74.79843749999999,59.58493672171275L74.925,58.26929780458834L75.0515625,57.726159004064925L75.17812500000001,57.123049275691834L75.3046875,56.740202961334894L75.43125,56.54597138045388L75.5578125,56.34238068269585L75.68437499999999,56.08846352104482L75.8109375,56.14410339357936L75.9375,55.95268041230728L76.190625,55.592011108025865L76.3171875,55.47326053024826L76.5703125,55.39340136552751L76.8234375,55.48950773540078L77.0765625,55.82944091595971L77.203125,55.97487633489229L77.5828125,56.096143824235554L77.70937500000001,56.199436081871944L77.8359375,56.1748449882421L77.9625,56.15769899371583L78.34218750000001,56.31391887952878L78.46875,56.45702491456268L78.721875,56.62752784641978L78.8484375,56.74522560448885L79.228125,56.81204625136517L79.3546875,56.87911856273927L79.86093749999999,56.899598241449105L79.98750000000001,56.88263435399577L80.3671875,56.81161756060152L80.49374999999999,56.76322607244029L80.6203125,56.72096145179854L80.74687499999999,56.67313113228671L80.87343750000001,56.619443454838944L81,56.60273938089439L81.1265625,56.64113450473446L81.253125,56.67642367139995L81.50625,56.706860090825224L81.63281249999999,56.72207650276023L81.759375,56.75380449731348L81.8859375,56.7996313168955L82.39218749999999,56.824546169898056L82.51875000000001,56.85335077742408L82.6453125,56.85576504409118L82.77187500000001,56.88830100262048L82.8984375,56.941554515146514L83.1515625,57.04030232941109L83.40468750000001,57.085758622378115L83.6578125,57.21512144559024L83.784375,57.25086961837648L83.9109375,57.32630650193716L84.1640625,57.34660727972522L84.290625,57.30731770512303L84.4171875,57.286606533031716L84.6703125,57.29332460326022L84.92343749999999,57.280798944008765L85.05000000000001,57.2724606467321L85.4296875,57.2444164200446L85.55624999999999,57.26628033183938L85.93593750000001,57.26291251100855L86.0625,57.292773985372534L86.1890625,57.28799425572548L86.315625,57.25193604833125L86.44218749999999,57.21254191998385L86.56875,49.56919416310633L86.6953125,48.436819651855515L86.9484375,48.99753597923131L87.075,49.614905831503926L87.2015625,50.14255823927409L87.328125,49.94479390524201L87.58125000000001,49.313087728872155L87.9609375,48.36586093142883L88.08749999999999,47.94771496793783L88.46718750000001,47.635194160587545L88.846875,47.35482038143095L88.97343749999999,47.17042644669306L89.10000000000001,46.99376101404246L89.4796875,47.03203682368886L89.7328125,46.97805748144328L89.859375,47.06147395229064L89.9859375,47.20326682720018L90.1125,47.27107568260093L90.2390625,47.50708410546815L90.365625,47.669219502244225L90.4921875,47.72027757670513L90.74531250000001,47.757952802813236L90.871875,47.86156100835575L90.99843750000001,47.99676021818028L91.125,48.118841963313265L91.25156249999999,48.20535590487853L91.378125,48.20047701739155L91.63125000000001,48.167439921753925L92.5171875,48.33567532542784L92.896875,48.456141141912L93.0234375,48.497980301297126L93.14999999999999,48.54397987408425L93.27656250000001,48.6541933243453L93.403125,48.79258201271173L93.52968750000001,48.850977407395106L93.65625,48.94261199623306L93.78281249999999,49.00947207444883L93.909375,49.06394318481673L94.03593749999999,49.10771040761702L94.16250000000001,49.13082683470388L94.2890625,49.18095360032641L94.5421875,49.23302293915701L94.66875,49.27841563879938L95.0484375,49.367833088990984L95.3015625,49.44691614577589L95.5546875,49.514664222415796L95.68124999999999,49.59292038060221L95.80781250000001,49.61273941860791L96.5671875,49.69999316612599L96.69375000000001,49.77366349267792L96.8203125,49.80329259138008L97.3265625,49.83788678586903L97.453125,49.878273377063415L97.70625,49.887404733444775L97.959375,49.89862275930972L98.33906250000001,49.965348033980916L98.84531249999999,44.30999595455908L99.3515625,43.44780534823287L99.478125,43.128507866379934L99.6046875,42.69002369279701L99.85781250000001,42.903020520419126L99.984375,43.28503195012228L100.1109375,43.3512972328938L100.2375,43.20943425499659L100.3640625,43.03267897607841L100.6171875,43.051671704304L100.8703125,43.03798642197358L100.996875,43.2189652826733L101.1234375,43.35772566237131L101.25,43.48790838860322L101.50312500000001,43.77053371991426L101.6296875,43.91737010434695L101.75625000000001,44.02505980941907L102.009375,44.050645583947016L102.38906250000001,44.14197830800983L102.6421875,44.09929573801027L103.021875,44.02993173758307L103.14843750000001,43.97869875049665L103.4015625,43.8996609569554L103.528125,43.89462123638183L103.6546875,43.80342031911488L103.90781249999999,43.780785902711585L104.1609375,43.72397126220038L104.28750000000001,43.75278170980436L104.6671875,43.68144075916664L104.79374999999999,43.70355399159467L104.92031250000001,43.7501811010115L105.046875,43.78576041593983L105.553125,43.92158277830382L105.67968749999999,44.04055690765919L105.80625,44.12199203968371L106.059375,44.15669498920637L106.43906249999999,44.12480884838222L106.56562500000001,44.1396552684791L106.6921875,44.176323745422785L106.81875,44.237493547066L106.9453125,44.23489307896137L107.07187499999999,44.24321465215588L107.578125,44.246287492045816L107.83125,44.29436842628065L107.9578125,44.311710429356964L108.084375,44.32537910471348L108.2109375,44.287216479360985L108.3375,44.28099497245546L108.7171875,44.273224926512206L108.84375,44.27681301624821L108.97031249999999,44.27047661895304L109.85625,44.38748660060611L110.2359375,44.43181690199881L110.86875,44.50459604635064L110.9953125,44.538290245379365L111.121875,39.63768807831129L111.5015625,37.057610033647556L111.7546875,36.12743580263634L111.88125,35.9848544354545L112.0078125,36.238573226649L112.13437499999999,36.486802669357324L112.3875,36.18679469346472L112.51406250000001,36.17902253579775L113.02031249999999,36.53716043538855L113.14687500000001,36.607114004534516L113.2734375,36.65161815133217L113.4,36.701579921522885L113.5265625,36.76598522250603L113.653125,36.873716981320094L113.90625,37.029233927195406L114.2859375,37.20886437574932L114.4125,37.29094279098457L114.66562499999999,37.52349999122589L115.171875,37.581763974265854L115.29843749999999,37.680514831207155L115.55156249999999,37.75781291655419L115.93125,37.88902097899748L116.184375,37.963835274929025L116.43749999999999,37.97727775320662L116.5640625,38.05185761299882L116.690625,38.17627226261591L116.94375,38.22858313887298L117.0703125,38.294067336135974L117.19687499999999,38.30072311938639L117.32343750000001,38.34713471162819L117.45,38.425192738941355L117.57656250000001,38.46836318097773L117.703125,38.50540626956381L117.95625,38.55203784056519L118.08281249999999,38.57336323587903L118.20937500000001,38.61439736562258L118.8421875,38.66432382987312L118.96875,38.685291089572736L119.0953125,38.713865278934385L119.3484375,38.74077207969127L119.475,38.75211238340441L119.6015625,38.77412969753684L119.72812499999999,38.81322984031168L120.6140625,38.99665639478761L120.99375,39.15863250302554L121.1203125,39.27912668351699L121.3734375,39.43948070981724L122.00625,39.52212579714431L122.1328125,39.57332348625171L122.259375,39.61889653086843L122.5125,39.6381449739944L122.6390625,39.65871079211301L122.765625,39.65613255169909L122.89218749999999,39.677556522291454L123.01875,39.727350048781375L123.1453125,39.78501492295323L123.27187500000001,39.817131075582836L123.525,38.015009780718074L123.6515625,36.82877835034916L123.90468750000001,35.56822030782456L124.03125,34.65785515928123L124.1578125,33.59270861520681L124.284375,33.295919673289745L124.4109375,33.39504462280625L124.5375,33.728897534601415L124.9171875,34.096019198174794L125.1703125,34.42717292885517L125.296875,34.61563164580189L125.55000000000001,34.54194335096077L125.80312500000001,34.54607760878207L126.05624999999999,34.580827164481875L126.1828125,34.53341825475146L126.30937499999999,34.573294852196284L126.5625,34.5830626809711L126.6890625,34.69545750165669L127.19531250000001,34.81470906939914L127.321875,34.923332787792745L127.4484375,34.97575555875354L127.575,35.04659597059757L127.95468749999999,35.135105347518135L128.08125,35.24176288597822L128.334375,35.301354533154026L128.9671875,35.33837552411452L129.09375,35.39368705477176L129.346875,35.3582566292635L129.47343750000002,35.29745689103315L129.6,35.31071688574141L129.853125,35.30756019259446L129.97968749999998,35.3037812394199L130.10625000000002,35.362654762405015L130.2328125,35.40400645550363L130.4859375,35.500522455074034L130.7390625,35.60542888671019L130.865625,35.67243098753606L131.11875,35.69447917662811L131.2453125,35.715993374125674L131.371875,35.74379852386508L131.625,35.78886117322561L131.7515625,35.83336256613325L132.00468750000002,35.84961887997383L132.13125,35.91419058324097L132.384375,36.00778668690442L133.0171875,36.05394996147588L133.14375,36.066906028635714L133.5234375,36.0909267030045L133.7765625,36.21179586421758L133.903125,36.28687749964781L134.2828125,36.34543050922626L134.409375,36.37427450178669L134.5359375,36.41607101534964L134.915625,36.449363874048956L135.04218749999998,36.4825271169251L135.5484375,40.28487526177797L135.67499999999998,37.1013023543324L136.940625,34.361378269670375L137.19375,32.87874069051623L137.3203125,32.067031373004205L137.446875,31.62523021067386L137.57343749999998,31.426818619759125L137.70000000000002,31.33302138483002L137.8265625,31.315925826045707L138.0796875,31.405689733870556L138.3328125,31.51564606287939L138.7125,31.427589537256132L138.965625,31.560351611109496L139.0921875,31.707128096182334L139.47187499999998,31.902206378316396L139.5984375,31.956114981851318L139.8515625,31.99235661881049L140.1046875,32.0120900634341L140.23125000000002,32.046598611081414L140.35781250000002,32.12128468621061L140.6109375,32.1539708391922L140.7375,32.18978033161742L140.990625,32.111708984950674L141.1171875,32.11210917602749L141.37031249999998,32.24015929204684L141.496875,32.32096320332564L141.6234375,32.39500473702832L141.74999999999997,32.44120206096701L141.8765625,32.47653757130465L142.003125,32.54090253469565L142.25625,32.67046973679791L142.7625,32.78770230754811L142.8890625,32.816552129653694L143.015625,32.832891420881516L143.14218749999998,32.85252761623896L143.26874999999998,32.86551203597567L143.39531250000002,32.88729905050384L143.52187500000002,32.898746555813496L143.6484375,32.95818933592342L143.775,33.019990925467646L144.28125,33.03104145793713L144.53437499999998,33.05952438991425L144.6609375,33.07420171070789L145.04062499999998,33.043930821232195L145.546875,33.05591321743264L145.6734375,33.046433620195025L145.9265625,33.03679312022951L146.1796875,33.077794651701616L146.30625,33.13315240175401L146.43281249999998,33.16911709088611L146.8125,33.18755199777203L146.9390625,33.216533912820346L147.065625,33.24661122179197L147.19218750000002,33.2620693350802L147.31875,33.241389173565516L147.4453125,33.21822005408896L147.571875,33.193923293935626L147.825,27.04552017413819L147.9515625,25.123832075376743L148.33124999999998,26.072313289987722L148.9640625,26.730310571877816L149.2171875,27.11073981087724L149.34375,27.587365975149414L149.59687499999998,28.010590428214012L149.7234375,28.446414514840136L149.85,28.69926498202117L150.2296875,28.593181955025422L150.35625000000002,28.60503513050427L150.4828125,28.612758937074883L150.609375,28.621458496209478L150.7359375,28.674645665619654L150.9890625,28.70407519539232L151.2421875,28.71998864293119L151.36874999999998,28.757058202505245L151.49531249999998,28.747656905222016L151.74843750000002,28.858537604551373L151.875,28.89323309072308L152.128125,28.966849726488885L152.25468750000002,29.032858253747637L152.38125,29.096679187554415L152.5078125,29.055698881589354L152.634375,28.952899867321822L152.76093749999998,28.884883412138098L153.39375,28.79581070447893L153.646875,28.81431119742951L153.9,28.869292551892766L154.0265625,28.955973943840124L154.153125,29.07000987575693L154.5328125,29.19379795102024L154.7859375,29.322227576421195L155.2921875,29.481237923530642L155.5453125,29.589444825308256L155.671875,29.65313109711213L155.925,29.71090963456276L156.43124999999998,29.822873252470746L156.55781249999998,29.885641513967215L156.68437500000002,29.937777101220927L156.81093750000002,29.97369342996018L156.9375,30.016912972648967L157.44375,30.089138195347815L157.696875,30.150218466181766L157.82343749999998,30.19528554633808L158.203125,30.246780745718183L158.58281250000002,30.29686483891803L158.709375,30.29402032585145L159.0890625,30.325271887130768L159.3421875,30.383866740791333L159.46875,30.46703328700563L159.5953125,30.49625517136873L159.8484375,30.509870727104097L160.228125,28.680092572714205L160.3546875,27.492248058048084L160.48125000000002,26.155556773976777L160.734375,25.467545542619465L160.8609375,24.84475819677225L160.98749999999998,24.512765410006697L161.1140625,24.60122664121431L161.240625,24.551454730913882L161.3671875,24.497389833978318L161.74687500000002,24.724179006130424L161.87343750000002,24.91993750125821L162.1265625,25.23725221747554L162.253125,25.374461902346603L162.3796875,25.47644592116262L162.759375,25.647722296655083L162.88593749999998,25.80365320011374L163.0125,25.981084418084606L163.51875,26.197235245577332L163.64531250000002,26.384458529395978L163.771875,26.586235587264998L164.4046875,26.799206581393438L164.65781249999998,26.878360609221193L164.91093750000002,26.991600763802385L165.03750000000002,27.012126023772176L165.1640625,27.051927504064313L165.54375000000002,27.12514732904532L165.6703125,27.160343805714245L165.796875,27.18502759919391L165.9234375,27.1473057984461L166.04999999999998,27.140448517748712L166.1765625,27.180756775825635L166.303125,27.260681014233498L166.4296875,27.28066393195013L166.6828125,27.40323901449695L167.0625,27.588220431059888L167.1890625,27.68329984763285L167.315625,27.772806398981952L167.4421875,27.81514443928843L167.821875,27.913061082213197L167.94843749999998,27.927240741162947L168.20156250000002,27.912060220187552L168.328125,27.878300022569714L168.4546875,27.870914930991805L168.58125,27.849681207473576L168.70781250000002,27.81103011902302L168.9609375,27.82135336957056L169.0875,27.84525729037334L169.2140625,27.843619876009267L169.340625,27.850338943542294L169.59375,27.800530104482938L169.97343750000002,27.77191080370235L170.353125,27.74996357988534L170.4796875,27.784734546132174L170.7328125,27.843253671519324L170.859375,27.88546179496786L170.9859375,27.902002017280736L171.11249999999998,27.904386401522917L171.2390625,27.885335922449084L171.365625,27.876093006258735L171.61875,27.89789994724126L172.125,27.91849572758398L172.2515625,27.95278317511395L172.5046875,25.546245686890554L172.7578125,25.294194360185795L173.01093749999998,25.279241716628746L173.1375,25.548621914247L173.77031250000002,25.397055042659876L173.896875,25.15714860729913L174.0234375,25.065652422741305L174.27656249999998,24.62053049363807L174.403125,24.369500403154568L174.5296875,24.475880887835434L175.03593750000002,24.5499286334093L175.2890625,24.517785220168555L175.5421875,24.425056951536245L175.7953125,24.32972377377361L175.921875,24.37971209190851L176.0484375,24.44584242524252L176.428125,24.499397421011643L176.55468749999997,24.543606677132413L176.68125,24.59351811318256L176.8078125,24.688228043965434L176.93437500000002,24.75056814733265L177.0609375,24.745223519701494L177.440625,24.707447837292374L177.5671875,24.59447423845484L177.94687499999998,24.58026309150432L178.07343749999998,24.535247393476844L178.20000000000002,24.507787840383006L178.453125,24.487317166815302L178.5796875,24.47031538611062L178.959375,24.46147175386792L179.0859375,24.45355620238328L179.2125,24.45012210758413L179.465625,24.486695831727317L179.5921875,24.535908356732914L179.971875,24.585572347299316L180.09843750000002,24.619443050179523L180.225,24.646812886687353L180.478125,24.673665243799842L180.8578125,24.687483786592097L180.984375,24.721678733258994L181.3640625,24.770575260776056L181.49062500000002,24.826970467363495L181.6171875,24.879671030875848L182.1234375,25.03022528507519L182.3765625,25.129279189218323L182.50312499999998,25.198593385761487L182.6296875,25.25014815792174L182.75625,25.26918762960869L182.8828125,25.299566185705938L183.00937499999998,25.350364754338937L183.13593749999998,25.3929482875704L183.515625,25.49012602439161L183.6421875,25.576284724894986L183.76875,25.62907011414994L183.8953125,25.66908993187804L184.1484375,25.71726840652977L184.40156249999998,25.790759884822094L184.528125,25.837611844246247L184.9078125,23.02259755736865L185.034375,21.164528397359145L185.4140625,20.603577129624945L185.540625,20.105802030910674L185.79375,19.937675912111807L185.9203125,20.204489611941455L186.29999999999998,20.9484441896426L186.9328125,21.42225402713702L187.05937500000002,21.731684149032155L187.1859375,21.831669009164216L187.4390625,21.878359864017536L187.6921875,21.874196809447486L187.81875,21.940808654973914L188.07187499999998,21.961574722021815L188.1984375,21.98644118826985L188.4515625,22.00017243219262L188.7046875,22.09539259429481L188.9578125,22.202166062329468L189.084375,22.281302608093217L189.46406249999998,22.334769914770487L189.7171875,22.317180794611186L189.84375,22.316044975599432L190.096875,22.327144342232216L190.22343750000002,22.311269114952374L190.4765625,22.287613982284725L190.7296875,22.353776904538094L191.23593749999998,22.415559370872295L191.61562500000002,22.476394533846943L191.7421875,22.553478050073462L191.86875,22.569238595867496L192.5015625,22.670571549358577L192.7546875,22.66997019268427L192.88125,22.71003706346368L193.0078125,22.728330940547092L193.134375,22.782759291256994L193.2609375,22.84206565757128L193.5140625,22.897195151683867L194.4,22.968105227492593L195.159375,23.140451711858724L195.5390625,23.24903614666783L195.665625,23.34268593398762L195.91875,23.433859679746845L196.0453125,23.515438350229388L196.425,23.599812526815526L196.55156250000002,23.68196753222549L196.8046875,24.031338331453814L196.93125,24.25414833864737L197.0578125,23.599156888968736L197.184375,23.564222736744316L197.3109375,23.446413042299866L197.5640625,23.008909989686558L198.07031249999997,22.20000141220798L198.196875,21.71462109898039L198.3234375,21.47067107686111L198.45000000000002,21.453468501142886L198.5765625,21.562446605904274L199.0828125,21.574963791217396L199.209375,21.595520963100213L199.46249999999998,21.58655125488495L199.58906249999998,21.659942928491017L200.0953125,21.526603927336918L200.221875,21.47068974383048L200.728125,21.49359088544473L200.85468749999998,21.533052524354602L200.98125,21.52460820700319L201.36093749999998,21.627201075706424L201.4875,21.651993486495975L201.740625,21.61205101800694L202.1203125,21.62515128131351L202.246875,21.56827650353696L202.5,21.534784638198538L202.6265625,21.49223907191295L203.00625000000002,21.37350580333915L203.259375,21.2435866191342L204.271875,21.324912309310132L204.65156249999998,21.39240236262159L204.77812500000002,21.42415394294074L205.03125,21.46559907143004L205.284375,21.50392094340735L205.4109375,21.566321915905593L206.55,21.680440060210778L206.67656250000002,21.769617123551743L206.803125,21.830775644271114L206.9296875,21.894999281101548L207.1828125,21.926057014187098L207.4359375,21.94144928057187L207.5625,21.965088937277727L207.68906249999998,21.9869039139719L207.81562499999998,21.97502451429197L208.1953125,21.9629664974775L208.4484375,21.955661353907946L208.57500000000002,21.963094292546472L208.7015625,21.972829066792244L208.828125,21.984064509319758L208.9546875,21.988238602785785L209.08124999999998,18.6701095282486L209.2078125,16.379822455611876L209.4609375,15.890783001641713L209.58749999999998,15.176258712804518L209.7140625,15.219559162733681L209.84062500000002,15.929082399533831L209.96718750000002,16.248009017662156L210.09375,16.084321577284342L210.2203125,15.816563224156885L210.346875,15.903010830497841L210.4734375,15.766821733245989L210.6,15.675824255424613L210.7265625,15.707855517076197L211.4859375,15.862838992122887L211.865625,16.124453597452675L211.9921875,16.527477010003626L212.2453125,16.798155918068836L212.371875,16.917821606604516L212.87812499999998,17.06584844625488L213.00468750000002,17.183402810314288L213.13125000000002,17.27072403062524L213.2578125,17.350539786989334L213.6375,17.50210079155851L213.7640625,17.645738271489687L213.890625,17.812832395800918L214.0171875,17.9593964341694L214.14374999999998,18.078872389996928L214.396875,18.23692044461065L214.5234375,18.359179334904525L215.0296875,18.46427616898164L215.15625,18.585661825084372L215.2828125,18.64487665685639L215.5359375,18.615937887386263L215.915625,18.588151203844426L216.421875,18.727499954255514L216.5484375,18.861664910526354L216.675,18.907721578723958L216.80156250000002,18.921957051543444L216.928125,18.944804165236988L217.18125,19.0095815738874L217.30781249999998,19.056008868267387L218.19375000000002,19.178688843757058L218.5734375,19.259885811632937L218.8265625,19.331912507907184L219.0796875,19.30668701547126L219.459375,19.347234736786703L219.58593750000003,19.407243544403624L219.96562500000002,19.443945130433963L220.0921875,19.48678479237933L220.3453125,19.488054738304516L220.471875,19.48050328842492L220.97812499999998,19.539314751337123L221.23125,19.5696079519452L221.35781250000002,19.654706179324478L221.7375,18.67281948281749L221.86406250000002,17.853169481476733L221.990625,16.991298771214847L222.24375,16.73682969588775L222.496875,16.561655603520556L222.75,16.556684924764962L222.87656249999998,16.688419266702887L223.12968750000002,17.086218240357773L223.3828125,17.24675009399495L223.509375,17.350130687653056L223.6359375,17.48825987011137L223.8890625,17.624450158059293L224.1421875,17.613113135683328L224.26874999999998,17.63790472184891L224.3953125,17.58528766533896L224.521875,17.519971427328386L224.6484375,17.496121416692148L224.9015625,17.6175339282776L225.1546875,17.6730653322473L225.28125,17.685466997428847L225.4078125,17.68545968091732L225.534375,17.69350847456601L225.6609375,17.739145236335684L226.04062499999998,17.84867679901271L226.6734375,17.91375570194334L227.30625,17.964773802139838L227.43281249999998,17.963066427814056L227.559375,17.968224316183996L228.065625,17.941715687122503L228.19218750000002,17.979200654987423L228.31875,18.055363114931595L229.2046875,18.130136451875195L229.33124999999998,18.166476036164216L229.58437500000002,18.300820389421638L229.7109375,18.410615395922594L229.8375,18.47289132560443L229.9640625,18.486568567068307L230.09062500000002,18.489127133435595L230.4703125,18.45368092903288L230.7234375,18.46919058351992L230.9765625,18.470189992125523L231.2296875,18.434694494924376L231.35625000000002,18.433505538774362L231.7359375,18.45439157704878L231.8625,18.48421116960272L232.36875,18.485982491327665L232.49531249999998,18.46665560826862L232.621875,18.441738317163026L232.7484375,18.44352731093838L233.0015625,18.422642594486913L233.128125,18.366786340421697L233.7609375,17.632856619087615L233.8875,17.233432872133136L234.140625,16.785000719449965L234.39374999999998,16.059582637442396L234.52031250000002,15.867481664832367L234.64687500000002,15.60606107474324L234.7734375,15.73843406057926L235.0265625,15.510127773383742L235.2796875,15.3620594444868L235.40625,15.284422570645628L235.5328125,15.384935888159191L235.7859375,15.606898351018382L236.0390625,15.807912470999234L236.2921875,15.907828832926072L236.671875,15.955350724018702L236.7984375,15.933188585732642L237.3046875,16.089760725673546L237.684375,16.115979900942186L237.9375,16.162545604101368L238.0640625,16.187158252353417L238.190625,16.191586819621925L238.31718750000002,16.193238191207058L238.696875,16.238644607305464L238.8234375,16.29266441311831L238.95,16.26573593882561L239.0765625,16.237917563127546L239.203125,16.26628216553154L239.32968749999998,16.3102316167857L239.70937500000002,16.27339258831177L239.8359375,16.285654109963396L239.9625,16.31304903164422L240.215625,16.397927494853242L240.3421875,16.453109748369172L240.46875,16.469528965476577L240.5953125,16.507373221113387L240.72187499999998,16.57142179453019L240.8484375,16.618199522755408L241.10156250000003,16.727430996574093L241.48125000000002,16.739910302923423L241.734375,16.70137165687463L241.8609375,16.680098239791278L241.9875,16.64617787850617L242.1140625,16.642037529067526L242.62031249999998,16.659148227164916L242.87343750000002,16.69367969691145L243,16.705691293832015L243.37968750000002,16.683308956597035L243.50625,16.683974383815443L243.6328125,16.675884389009646L243.759375,16.693909873441786L244.39218749999998,16.707158702537956L245.4046875,16.767780743792976L245.53125,16.79257707760062L245.6578125,16.798227125199627L246.0375,16.605464109058392L246.290625,16.658852820560515L246.4171875,16.567099121192225L246.54375000000002,16.341375676977155L246.6703125,16.00437288772315L246.796875,15.972483738012592L246.9234375,15.77736181244106L247.05,15.493844474702206L247.303125,15.266897586196112L247.4296875,15.130968586927352L247.80937500000002,14.97511089821201L248.315625,15.14688714134425" style="fill: none;" fill="none"></path></g></g></g></g><g opacity="0.2"><g><g><g><path stroke="rgb(0, 153, 136)" stroke-width="2px" d="M30.5015625,179.816166639328L31.387500000000003,174.08894646167755L31.514062499999998,173.34854590892792L31.640625,172.6576777100563L31.7671875,171.87683540582657L31.89375,171.12255278229713L32.0203125,170.52433136105537L32.2734375,169.11196473240852L32.4,168.43162897229195L32.653125,167.25209254026413L33.0328125,165.58772984147072L33.159375000000004,164.9248016178608L33.2859375,164.29603788256645L33.4125,163.92654094099998L33.665625,162.79329273104668L33.792187500000004,162.28550258278847L33.918749999999996,161.67930710315704L34.0453125,161.05022686719894L34.2984375,160.06445917487144L34.425000000000004,159.6507224738598L34.678125,158.57934135198593L34.93125,157.58701506257057L35.184375,156.84743213653564L35.43749999999999,155.8963916003704L35.5640625,155.43559300899506L35.817187499999996,154.71594962477684L35.94375,154.27433449029922L36.196875,153.47083601355553L36.323437500000004,153.05769714713097L36.703125,152.0792617201805L36.8296875,151.71335178613663L37.4625,149.8710981309414L37.96875,109.52787506580353L38.0953125,109.32870823144913L38.475,106.82019430398942L38.854687500000004,104.91064029932024L38.98125,105.84964501857759L39.234375,105.89590686559679L39.3609375,104.91494822502136L39.4875,104.79763197898865L39.8671875,105.45502144098283L40.120312500000004,105.28059440851212L40.753125,104.47170662879945L41.259375000000006,103.56916981935501L41.385937500000004,103.64242213964464L41.639062499999994,103.65960109233856L41.765625,103.70552885532379L41.8921875,103.42774677276611L42.01875,103.27899146080017L42.1453125,103.20023554563522L42.3984375,102.73193764686584L42.6515625,102.58261966705324L42.778124999999996,102.34891909360886L43.5375,102.35806244611742L43.6640625,102.06653016805649L43.9171875,101.84570062160493L44.043749999999996,101.8014081120491L44.4234375,101.41271013021469L45.309374999999996,101.2081100344658L45.5625,101.05295437574387L45.6890625,101.0805602669716L45.9421875,100.83166766166687L46.06875,100.59151399135591L46.19531250000001,100.55763083696365L46.4484375,100.51233607530595L46.9546875,100.29020535945894L47.081250000000004,100.27984875440598L47.2078125,100.16247975826263L47.5875,100.06464588642122L47.7140625,99.962451338768L47.840624999999996,99.90514713525772L47.9671875,99.89071118831635L48.2203125,99.69300377368927L48.346875000000004,99.69662594795227L48.6,99.63656115531921L48.7265625,99.54892563819885L48.853125,99.48993343114854L48.9796875,99.35921865701677L49.359375,99.08205199241638L49.4859375,99.00055307149887L49.612500000000004,98.86584687232973L49.7390625,98.84791183471681L50.11875,71.23020458221437L50.4984375,76.36164742708208L50.625,76.99340033531189L50.751562500000006,77.28377211093904L51.0046875,76.95492792129518L51.131249999999994,77.28097635507585L51.2578125,77.00182276964189L51.384375,77.62926775217058L51.6375,77.11516517400743L51.890625,77.46438848972322L52.143750000000004,77.94647175073625L52.396874999999994,78.25032997131348L52.65,78.46871542930603L52.7765625,78.23269385099412L53.0296875,78.3050670027733L53.15625,78.33525764942169L53.282812500000006,78.26095032691957L53.409375,78.33332347869874L53.535937499999996,78.48666805028917L53.7890625,78.66225558519363L53.915625,78.85547924041748L54.421875,79.01717591285707L54.801562499999996,79.15191727876665L55.18125,79.32771581411363L55.3078125,79.32333755493165L55.434375,79.33325457572938L55.5609375,79.42004609107973L55.6875,79.42148792743683L55.940625,79.43671512603761L56.067187499999996,79.46235167980196L56.3203125,79.55239611864091L56.446875,79.6296222805977L56.573437500000004,79.64848923683168L56.7,79.74343943595888L57.332812499999996,79.70681327581406L57.459375,79.58144384622575L57.5859375,79.60584956407547L57.965625,79.65096849203111L58.0921875,79.62301093339921L58.21874999999999,79.63640946149827L58.3453125,79.70007884502412L58.598437499999996,79.77772700786592L59.3578125,79.61314666271211L59.6109375,79.70922219753267L59.7375,79.7442834377289L60.1171875,79.78929686546327L60.24375,79.77150249481203L60.370312500000004,79.8274000287056L60.623437499999994,79.65469616651535L60.8765625,79.54003500938417L61.1296875,79.65585666894913L61.25625,79.63568854331972L61.509375,79.76737040281296L61.7625,79.7833536863327L61.889062499999994,79.89003199338914L62.1421875,66.8880440592766L62.26875,65.27311700582504L62.775000000000006,65.01341062784196L62.901562500000004,64.60621494054796L63.028124999999996,64.79738134145738L63.154687499999994,64.2405863404274L63.28125,64.02969139814377L63.9140625,64.92484319210054L64.1671875,65.05288529396057L64.29375,64.72426968812944L64.4203125,64.65574729442598L64.546875,64.66160255670549L64.9265625,64.7181506752968L65.05312500000001,64.6391134262085L65.30625,64.55047565698625L65.4328125,64.56965911388399L65.6859375,64.38524472713472L65.8125,64.5656501054764L66.1921875,64.71398341655733L66.4453125,64.77967488765718L67.078125,65.3464220762253L67.2046875,65.50618457794191L67.33125,65.62777358293535L67.4578125,65.58420199155809L67.58437500000001,65.67320901155473L68.090625,65.78904825448991L68.2171875,65.88340061903001L68.4703125,66.3989977836609L68.85000000000001,66.43613386154176L68.9765625,66.51255118846895L69.10312499999999,66.47478210926057L69.2296875,66.47738444805147L69.4828125,66.42809826135637L69.609375,66.42707842588425L69.73593749999999,66.47203910350801L69.98906249999999,66.67669194936752L70.11562500000001,66.64549905061723L70.2421875,66.77338290214539L70.36875,66.73499840497972L70.621875,66.8657307624817L70.7484375,66.92992764711381L71.0015625,66.87728303670885L71.2546875,67.02204692363739L71.38125,67.01311457157136L71.5078125,67.05557841062547L71.63437499999999,67.02791976928712L71.76093750000001,67.06662076711655L71.8875,67.06982094049455L72.0140625,67.07492011785509L72.7734375,67.13727074861528L72.9,67.17722016572954L73.153125,67.04807031154634L73.2796875,67.00789231061937L73.7859375,67.07263427972794L74.0390625,67.08854722976686L74.16562499999999,67.02074575424196L74.29218750000001,67.01197165250778L74.671875,55.41225749254228L74.79843749999999,55.38211959600451L74.925,56.29583942890168L75.0515625,56.9114508032799L75.17812500000001,56.218384683132186L75.3046875,56.16593348979952L75.43125,56.2546240091324L75.5578125,56.036994636058814L75.68437499999999,55.70758777856829L75.8109375,56.22756320238115L75.9375,55.66554594039919L76.190625,55.05100715160372L76.3171875,55.29513466358187L76.5703125,55.27361261844637L76.8234375,55.63366729021073L77.0765625,56.33934068679811L77.203125,56.193029463291175L77.5828125,56.27804505825044L77.70937500000001,56.35437446832658L77.8359375,56.1379583477974L77.9625,56.131980001926436L78.34218750000001,56.548248708248146L78.46875,56.6716839671135L78.721875,56.883282244205496L78.8484375,56.921772241592414L79.228125,56.912277221679695L79.3546875,56.97972702980043L79.86093749999999,56.93031775951386L79.98750000000001,56.85718852281572L80.3671875,56.70509237051012L80.49374999999999,56.69063884019854L80.6203125,56.6575645208359L80.74687499999999,56.60138565301897L80.87343750000001,56.538911938667304L81,56.57768326997758L81.1265625,56.69872719049455L81.253125,56.729357421398184L81.50625,56.752514719963095L81.63281249999999,56.744901120662696L81.759375,56.80139648914338L81.8859375,56.86837154626848L82.39218749999999,56.86191844940188L82.51875000000001,56.89655768871308L82.6453125,56.85938644409182L82.77187500000001,56.93710494041444L82.8984375,57.02143478393557L83.1515625,57.18842405080796L83.40468750000001,57.153943061828635L83.6578125,57.40916568040849L83.784375,57.30449187755587L83.9109375,57.439461827278144L84.1640625,57.377058446407325L84.290625,57.24838334321977L84.4171875,57.255539774894736L84.6703125,57.30340170860292L84.92343749999999,57.26201045513154L85.05000000000001,57.259953200817115L85.4296875,57.20235008001328L85.55624999999999,57.29907619953157L85.93593750000001,57.25786077976229L86.0625,57.33756619691851L86.1890625,57.2808246612549L86.315625,57.19784873723985L86.44218749999999,57.153450727462776L86.56875,38.1041725277901L86.6953125,46.738257884979255L86.9484375,49.838610470294974L87.075,50.54096060991288L87.2015625,50.934036850929274L87.328125,49.64814740419389L87.58125000000001,48.365528464317336L87.9609375,46.94502073526384L88.08749999999999,47.32049602270128L88.46718750000001,47.16641294956209L88.846875,46.93425971269609L88.97343749999999,46.8938355445862L89.10000000000001,46.728762865066535L89.4796875,47.08945053815843L89.7328125,46.897088468074806L89.859375,47.18659865856173L89.9859375,47.415956139564535L90.1125,47.372788965702064L90.2390625,47.86109673976899L90.365625,47.9124225974083L90.4921875,47.796864688396475L90.74531250000001,47.81446564197541L90.871875,48.01697331666947L90.99843750000001,48.199559032917044L91.125,48.30196458101274L91.25156249999999,48.33512681722643L91.378125,48.19315868616105L91.63125000000001,48.11788427829743L92.5171875,48.588028430938735L92.896875,48.63683986663819L93.0234375,48.56073904037478L93.14999999999999,48.61297923326494L93.27656250000001,48.81951349973679L93.403125,49.0001650452614L93.52968750000001,48.93857049942017L93.65625,49.08006387948992L93.78281249999999,49.10976219177248L93.909375,49.145649850368514L94.03593749999999,49.17336124181748L94.16250000000001,49.165501475334175L94.2890625,49.256143748760245L94.5421875,49.31112694740297L94.66875,49.34650468826296L95.0484375,49.50195926427843L95.3015625,49.56554073095323L95.5546875,49.616286337375655L95.68124999999999,49.71030461788178L95.80781250000001,49.64246797561646L96.5671875,49.83087378740312L96.69375000000001,49.884168982505805L96.8203125,49.84773623943331L97.3265625,49.88977807760241L97.453125,49.938853263854995L97.70625,49.90110176801682L97.959375,49.915449798107154L98.33906250000001,50.06543594598772L98.84531249999999,35.82696783542635L99.3515625,42.154519438743606L99.478125,42.649561643600485L99.6046875,42.03229743242265L99.85781250000001,43.22251576185229L99.984375,43.858049094677L100.1109375,43.4506951570511L100.2375,42.996639788150816L100.3640625,42.76754605770114L100.6171875,43.080160796642325L100.8703125,43.01745849847795L100.996875,43.49043357372287L101.1234375,43.56586623191836L101.25,43.68318247795108L101.50312500000001,44.19447171688081L101.6296875,44.13762468099597L101.75625000000001,44.186594367027304L102.009375,44.089024245739L102.38906250000001,44.27897739410402L102.6421875,44.03527188301088L103.021875,43.92588573694232L103.14843750000001,43.901849269866965L103.4015625,43.781104266643545L103.528125,43.88706165552142L103.6546875,43.666618943214445L103.90781249999999,43.746834278106704L104.1609375,43.63874930143358L104.28750000000001,43.79599738121034L104.6671875,43.57442933321001L104.79374999999999,43.73672384023669L104.92031250000001,43.82012176513675L105.046875,43.83912938833239L105.553125,44.12531632184984L105.67968749999999,44.21901810169223L105.80625,44.24414473772051L106.059375,44.20874941349032L106.43906249999999,44.07697963714602L106.56562500000001,44.161924898624434L106.6921875,44.23132646083834L106.81875,44.329248249530806L106.9453125,44.23099237680438L107.07187499999999,44.25569701194765L107.578125,44.25089675188067L107.83125,44.36648982763292L107.9578125,44.337723433971426L108.084375,44.34588211774827L108.2109375,44.22997254133226L108.3375,44.271662712097175L108.7171875,44.261569857597365L108.84375,44.28219515085222L108.97031249999999,44.260972023010275L109.85625,44.56300157308579L110.2359375,44.498312354087844L110.86875,44.61376476287844L110.9953125,44.58883154392244L111.121875,32.286784827709226L111.5015625,33.187492966651945L111.7546875,34.732174456119566L111.88125,35.77098238468173L112.0078125,36.61915141344073L112.13437499999999,36.859146833419814L112.3875,35.736782729625716L112.51406250000001,36.167364299297354L113.02031249999999,37.074367284774794L113.14687500000001,36.71204435825351L113.2734375,36.718374371528654L113.4,36.77652257680895L113.5265625,36.86259317398074L113.653125,37.03531461954119L113.90625,37.26250934600832L114.2859375,37.47831004858019L114.4125,37.414060413837454L114.66562499999999,37.87233579158786L115.171875,37.66915994882586L115.29843749999999,37.828641116619124L115.55156249999999,37.873760044574766L115.93125,38.085833072662375L116.184375,38.07605671882632L116.43749999999999,37.99744147062303L116.5640625,38.1637274026871L116.690625,38.36289423704149L116.94375,38.30704945325854L117.0703125,38.392293632030515L117.19687499999999,38.310706794261954L117.32343750000001,38.41675209999086L117.45,38.54227977991106L117.57656250000001,38.5331188440323L117.703125,38.560970902442946L117.95625,38.62198519706728L118.08281249999999,38.60535132884982L118.20937500000001,38.675948560237906L118.8421875,38.739213526248946L118.96875,38.716741979122176L119.0953125,38.75672656297685L119.3484375,38.78113228082659L119.475,38.76912283897401L119.6015625,38.80715566873552L119.72812499999999,38.87188005447389L120.6140625,39.27179622650149L120.99375,39.4015966653824L121.1203125,39.45986795425417L121.3734375,39.68001174926759L122.00625,39.64609342813493L122.1328125,39.65012001991275L122.259375,39.68725609779361L122.5125,39.66701763868334L122.6390625,39.68955951929094L122.765625,39.6522651910782L122.89218749999999,39.70969247817995L123.01875,39.802040338516264L123.1453125,39.871512234210996L123.27187500000001,39.865305304527304L123.525,35.31182783842088L123.6515625,35.04943120479586L123.90468750000001,33.67738324403766L124.03125,33.292307436466245L124.1578125,31.994988799095175L124.284375,32.85073626041415L124.4109375,33.543732047081015L124.5375,34.22967690229419L124.9171875,34.646701693534865L125.1703125,34.923903524875655L125.296875,34.89831972122194L125.55000000000001,34.43141090869906L125.80312500000001,34.55227899551393L126.05624999999999,34.632951498031645L126.1828125,34.46230489015582L126.30937499999999,34.63310974836352L126.5625,34.59771442413333L126.6890625,34.86404973268512L127.19531250000001,34.99358642101289L127.321875,35.08626836538316L127.4484375,35.05438971519472L127.575,35.152856588363676L127.95468749999999,35.26786941289904L128.08125,35.40174919366839L128.334375,35.39074200391771L128.9671875,35.39390701055528L129.09375,35.47665435075762L129.346875,35.30511099100115L129.47343750000002,35.20625728368761L129.6,35.33060687780382L129.853125,35.30282515287402L129.97968749999998,35.298112809658065L130.10625000000002,35.45096504688265L130.2328125,35.46603399515155L130.4859375,35.64529645442965L130.7390625,35.76278853416444L130.865625,35.7729341387749L131.11875,35.72755146026613L131.2453125,35.74826467037203L131.371875,35.78550624847414L131.625,35.85645514726641L131.7515625,35.90011465549472L132.00468750000002,35.87400335073474L132.13125,36.01104813814166L132.384375,36.14818084239961L133.0171875,36.123194873333006L133.14375,36.08634012937548L133.5234375,36.12695771455767L133.7765625,36.393099606037154L133.903125,36.39949995279315L134.2828125,36.43326002359393L134.409375,36.41754049062732L134.5359375,36.47876578569414L134.915625,36.49930316209796L135.04218749999998,36.53227198123935L135.5484375,45.988397479057326L135.67499999999998,32.325942993164084L136.940625,30.25149214267733L137.19375,30.654784321784987L137.3203125,30.849467396736166L137.446875,30.96252846717836L137.57343749999998,31.129201233387015L137.70000000000002,31.192325532436396L137.8265625,31.290282487869288L138.0796875,31.54033559560778L138.3328125,31.680580556392695L138.7125,31.295504748821283L138.965625,31.75949472188952L139.0921875,31.92729282379153L139.47187499999998,32.1948238015175L139.5984375,32.03697788715365L139.8515625,32.046719074249296L140.1046875,32.04169023036958L140.23125000000002,32.098361432552366L140.35781250000002,32.23331379890444L140.6109375,32.203000068664565L140.7375,32.2434945702553L140.990625,31.994601964950586L141.1171875,32.1127094626427L141.37031249999998,32.43223446607592L141.496875,32.44216907024385L141.6234375,32.506067037582426L141.74999999999997,32.51049804687503L141.8765625,32.529540836811094L142.003125,32.63744997978212L142.25625,32.86482053995135L142.7625,32.963551163673415L142.8890625,32.85982686281206L143.015625,32.85740035772326L143.14218749999998,32.881981909275076L143.26874999999998,32.88498866558077L143.39531250000002,32.91997957229616L143.52187500000002,32.91591781377794L143.6484375,33.04735350608828L143.775,33.112693309783964L144.28125,33.04761725664141L144.53437499999998,33.10224878787997L144.6609375,33.09621769189836L145.04062499999998,32.9985244870186L145.546875,33.07388681173327L145.6734375,33.03221422433855L145.9265625,33.02233237028125L146.1796875,33.13929694890978L146.30625,33.21618902683261L146.43281249999998,33.22306412458422L146.8125,33.21520435810091L146.9390625,33.260006785392775L147.065625,33.29172718524936L147.19218750000002,33.28525650501253L147.31875,33.2103689312935L147.4453125,33.18346637487413L147.571875,33.157478153705625L147.825,17.822915494442032L147.9515625,22.24129992723468L148.33124999999998,27.495035111904183L148.9640625,27.717306494712854L149.2171875,27.681383669376398L149.34375,28.302305221557642L149.59687499999998,28.645427107811006L149.7234375,29.10015064477923L149.85,29.078540682792703L150.2296875,28.43405741453174L150.35625000000002,28.62281489372256L150.4828125,28.62434464693072L150.609375,28.63450783491138L150.7359375,28.75442641973498L150.9890625,28.74821949005131L151.2421875,28.743858814239534L151.36874999999998,28.812662541866327L151.49531249999998,28.73355495929722L151.74843750000002,29.02485865354541L151.875,28.945276319980646L152.128125,29.077274680137673L152.25468750000002,29.131871044635812L152.38125,29.19241058826449L152.5078125,28.99422842264178L152.634375,28.798701345920602L152.76093749999998,28.782858729362513L153.39375,28.662201642990144L153.646875,28.842061936855355L153.9,28.95176458358767L154.0265625,29.0859960317612L154.153125,29.24106377363209L154.5328125,29.37948006391529L154.7859375,29.514872014522577L155.2921875,29.71975344419482L155.5453125,29.751755177974715L155.671875,29.748660504817988L155.925,29.7975774407387L156.43124999999998,29.990818679332747L156.55781249999998,29.979793906211867L156.68437500000002,30.015980482101455L156.81093750000002,30.02756792306902L156.9375,30.08174228668215L157.44375,30.19747602939608L157.696875,30.24183887243273L157.82343749999998,30.262886166572592L158.203125,30.324023544788382L158.58281250000002,30.371990978717818L158.709375,30.28975355625154L159.0890625,30.372149229049697L159.3421875,30.47175902128222L159.46875,30.591783106327078L159.5953125,30.540087997913382L159.8484375,30.530294060707106L160.228125,25.935425341129342L160.3546875,25.710481286048914L160.48125000000002,24.150519847869912L160.734375,24.435528695583383L160.8609375,23.910577178001436L160.98749999999998,24.014776229858423L161.1140625,24.73391848802569L161.240625,24.47679686546329L161.3671875,24.416292488575014L161.74687500000002,25.06436276435856L161.87343750000002,25.213575243949915L162.1265625,25.713224291801478L162.253125,25.5802764296532L162.3796875,25.629421949386636L162.759375,25.90463685989383L162.88593749999998,26.037549555301705L163.0125,26.247231245040933L163.51875,26.52146148681643L163.64531250000002,26.665293455123933L163.771875,26.888901174068483L164.4046875,27.1186630725861L164.65781249999998,26.99709165096286L164.91093750000002,27.161460995674165L165.03750000000002,27.042913913726846L165.1640625,27.11162972450259L165.54375000000002,27.234977066516915L165.6703125,27.21313852071766L165.796875,27.22205328941349L165.9234375,27.090723097324403L166.04999999999998,27.130162596702615L166.1765625,27.24121916294101L166.303125,27.380567371845284L166.4296875,27.310638308525117L166.6828125,27.58710163831714L167.0625,27.865692555904413L167.1890625,27.825918972492243L167.315625,27.907066226005593L167.4421875,27.878651499748262L167.821875,28.05993604660038L167.94843749999998,27.94851022958758L168.20156250000002,27.889289438724557L168.328125,27.827659726142908L168.4546875,27.859837293624903L168.58125,27.81783062219623L168.70781250000002,27.75305348634723L168.9609375,27.83683824539187L169.0875,27.881113171577493L169.2140625,27.84116375446322L169.340625,27.86041754484179L169.59375,27.7258168458939L169.97343750000002,27.728981852531472L170.353125,27.717042744159723L170.4796875,27.836890995502497L170.7328125,27.9310323596001L170.859375,27.94877398014071L170.9859375,27.92681235075L171.11249999999998,27.90796297788624L171.2390625,27.85676020383838L171.365625,27.862228631973306L171.61875,27.93061035871509L172.125,27.949389398098024L172.2515625,28.00421434640887L172.5046875,21.93643945455555L172.7578125,24.916117370128656L173.01093749999998,25.256812751293214L173.1375,25.952692210674318L173.77031250000002,25.169704735279122L173.896875,24.797288954258004L174.0234375,24.928408145904566L174.27656249999998,23.95284759998324L174.403125,23.99295526742939L174.5296875,24.63545161485676L175.03593750000002,24.66100025177005L175.2890625,24.469570100307497L175.5421875,24.285964548587824L175.7953125,24.1867240071297L175.921875,24.454694569110902L176.0484375,24.545037925243417L176.428125,24.579729914665247L176.55468749999997,24.60992056131367L176.68125,24.668385267257722L176.8078125,24.830292940139795L176.93437500000002,24.844078302383462L177.0609375,24.73720657825474L177.440625,24.650784313678766L177.5671875,24.42501384019854L177.94687499999998,24.558946371078516L178.07343749999998,24.46772384643558L178.20000000000002,24.466598510742227L178.453125,24.456611156463648L178.5796875,24.444812715053597L178.959375,24.448206305503877L179.0859375,24.441682875156427L179.2125,24.444970965385476L179.465625,24.541556417942086L179.5921875,24.609727144241365L179.971875,24.66006833314898L180.09843750000002,24.67024910449984L180.225,24.687867641449L180.478125,24.713943779468575L180.8578125,24.70821160078052L180.984375,24.772971153259316L181.3640625,24.843920052051583L181.49062500000002,24.9115632772446L181.6171875,24.95872187614444L182.1234375,25.256056666374246L182.3765625,25.277860045433076L182.50312499999998,25.30256468057635L182.6296875,25.32748031616215L182.75625,25.29774683713916L182.8828125,25.34513401985171L183.00937499999998,25.426562607288393L183.13593749999998,25.45682358741764L183.515625,25.635892629623438L183.6421875,25.70552277565005L183.76875,25.70824819803241L183.8953125,25.729119658470193L184.1484375,25.789536118507417L184.40156249999998,25.90099710226062L184.528125,25.907889783382455L184.9078125,18.800076127052346L185.034375,18.377424657344864L185.4140625,19.76215022802356L185.540625,19.359139382839235L185.79375,19.68548673391346L185.9203125,20.604710161685983L186.29999999999998,22.064376056194337L186.9328125,22.132968783378626L187.05937500000002,22.19582933187488L187.1859375,21.98164629936222L187.4390625,21.9483961462975L187.6921875,21.867952227592514L187.81875,22.04072642326359L188.07187499999998,21.992723822593728L188.1984375,22.023740887641946L188.4515625,22.020769298076676L188.7046875,22.23822283744816L188.9578125,22.362326264381434L189.084375,22.400007426738778L189.46406249999998,22.414970874786402L189.7171875,22.29079711437228L189.84375,22.314341247081796L190.096875,22.34379339218143L190.22343750000002,22.287456274032625L190.4765625,22.25213128328326L190.7296875,22.45302128791813L191.23593749999998,22.50823307037356L191.61562500000002,22.567647278308907L191.7421875,22.66910332441333L191.86875,22.592879414558443L192.5015625,22.82257097959521L192.7546875,22.669068157672907L192.88125,22.770137369632746L193.0078125,22.755771756172212L193.134375,22.864401817321802L193.2609375,22.93102520704272L193.5140625,22.979889392852822L194.4,23.074470341205636L195.159375,23.398971438407923L195.5390625,23.41191279888157L195.665625,23.48316061496737L195.91875,23.570620298385645L196.0453125,23.63780635595325L196.425,23.726373791694673L196.55156250000002,23.80520004034045L196.8046875,24.555394530296358L196.93125,24.588363349437746L197.0578125,22.616669714450868L197.184375,23.511821508407632L197.3109375,23.26969850063328L197.5640625,22.352655410766634L198.07031249999997,20.986638545990022L198.196875,20.986550629138993L198.3234375,21.10474604368213L198.45000000000002,21.427664637565652L198.5765625,21.725913763046304L199.0828125,21.593739569187196L199.209375,21.626356720924424L199.46249999999998,21.573096692562142L199.58906249999998,21.770030438900026L200.0953125,21.326595425605813L200.221875,21.386818468570755L200.728125,21.527942597866097L200.85468749999998,21.59224498271946L200.98125,21.51194173097615L201.36093749999998,21.78109037876133L201.4875,21.689182102680252L201.740625,21.55213731527333L202.1203125,21.644801676273378L202.246875,21.482964336872133L202.5,21.48454684019092L202.6265625,21.42842072248462L203.00625000000002,21.195405900478402L203.259375,21.048707842826882L204.271875,21.44690084457402L204.65156249999998,21.493637442588852L204.77812500000002,21.471781313419374L205.03125,21.527766764164017L205.284375,21.561403751373323L205.4109375,21.6599233746529L206.55,21.851617276668588L206.67656250000002,21.903382718563112L206.803125,21.92251342535023L206.9296875,21.991334736347245L207.1828125,21.97264361381534L207.4359375,21.964537680149125L207.5625,22.00054842233661L207.68906249999998,22.0196263790131L207.81562499999998,21.95720541477208L208.1953125,21.944879472255746L208.4484375,21.944703638553666L208.57500000000002,21.97424370050435L208.7015625,21.987431228160904L208.828125,22.000917673110994L208.9546875,21.994499742984818L209.08124999999998,13.69291591644291L209.2078125,12.944391846656838L209.4609375,15.157223820686372L209.58749999999998,14.104472279548684L209.7140625,15.284509837627443L209.84062500000002,16.993367254734085L209.96718750000002,16.726398944854783L210.09375,15.838790416717568L210.2203125,15.414925694465683L210.346875,16.032682240009354L210.4734375,15.56253808736805L210.6,15.539328038692513L210.7265625,15.755902409553574L211.4859375,16.09531420469288L211.865625,16.516875505447434L211.9921875,17.132012128829995L212.2453125,17.204174280166665L212.371875,17.097320139408144L212.87812499999998,17.287888705730477L213.00468750000002,17.35973435640339L213.13125000000002,17.40170586109166L213.2578125,17.470263421535524L213.6375,17.72944229841237L213.7640625,17.861194491386446L213.890625,18.0634735822678L214.0171875,18.179242491722153L214.14374999999998,18.25808632373813L214.396875,18.47399252653125L214.5234375,18.54256767034534L215.0296875,18.621921420097397L215.15625,18.767740309238473L215.2828125,18.73369890451436L215.5359375,18.57252973318103L215.915625,18.54647117853168L216.421875,18.936523079872178L216.5484375,19.062912344932602L216.675,18.976806581020387L216.80156250000002,18.943310260772737L216.928125,18.979074835777315L217.18125,19.10674768686299L217.30781249999998,19.12564980983738L218.19375000000002,19.362708806991616L218.5734375,19.381681263446854L218.8265625,19.439952552318605L219.0796875,19.268848776817368L219.459375,19.408056318759964L219.58593750000003,19.497256755828904L219.96562500000002,19.49899750947957L220.0921875,19.551044285297426L220.3453125,19.489959657192262L220.471875,19.46917611360553L220.97812499999998,19.627531945705446L221.23125,19.615047752857254L221.35781250000002,19.782353520393404L221.7375,17.199989438056992L221.86406250000002,16.62369447946553L221.990625,15.698492705822023L222.24375,16.35512608289722L222.496875,16.298894464969667L222.75,16.54922890663151L222.87656249999998,16.886020779609726L223.12968750000002,17.682916700840043L223.3828125,17.487547874450723L223.509375,17.505201578140305L223.6359375,17.69545364379886L223.8890625,17.828735589981118L224.1421875,17.596107602119485L224.26874999999998,17.67509210109714L224.3953125,17.506362080574082L224.521875,17.421997070312532L224.6484375,17.460346400737794L224.9015625,17.79965269565587L225.1546875,17.756362438201943L225.28125,17.704069495201157L225.4078125,17.6854487061501L225.534375,17.705581665039094L225.6609375,17.807600378990205L226.04062499999998,18.012974143028305L226.6734375,18.011374056339296L227.30625,18.041300952434586L227.43281249999998,17.960505366325417L227.559375,17.9759611487389L228.065625,17.901952743530313L228.19218750000002,18.035428106784853L228.31875,18.169606804847756L229.2046875,18.24229645729069L229.33124999999998,18.220985412597695L229.58437500000002,18.502336919307755L229.7109375,18.57530790567402L229.8375,18.566305220127138L229.9640625,18.507084429264115L230.09062500000002,18.49296498298649L230.4703125,18.400511622428926L230.7234375,18.49245506525043L230.9765625,18.47168910503392L231.2296875,18.38145124912266L231.35625000000002,18.431722104549447L231.7359375,18.485720634460495L231.8625,18.528940558433572L232.36875,18.48863947391514L232.49531249999998,18.43766528368001L232.621875,18.40436238050464L232.7484375,18.446210801601456L233.0015625,18.391315519809762L233.128125,18.28300195932393L233.7609375,16.531962037086533L233.8875,16.6342972517014L234.140625,16.11235249042515L234.39374999999998,14.971455514431046L234.52031250000002,15.57933020591739L234.64687500000002,15.21393018960956L234.7734375,15.93699353933339L235.0265625,15.167668342590364L235.2796875,15.139956951141397L235.40625,15.16796725988392L235.5328125,15.535705864429506L235.7859375,15.939842045307206L236.0390625,16.109433650970505L236.2921875,16.057703375816384L236.671875,16.02663356065754L236.7984375,15.89994537830356L237.3046875,16.32461893558506L237.684375,16.155308663845094L237.9375,16.232394158840226L238.0640625,16.224077224731484L238.190625,16.198229670524636L238.31718750000002,16.19571524858478L238.696875,16.306754231452974L238.8234375,16.373694121837648L238.95,16.225343227386514L239.0765625,16.196189999580415L239.203125,16.30882906913762L239.32968749999998,16.37615579366688L239.70937500000002,16.218134045600923L239.8359375,16.304046392440835L239.9625,16.354141414165543L240.215625,16.52524518966678L240.3421875,16.535883128643075L240.46875,16.494157791137734L240.5953125,16.564139604568528L240.72187499999998,16.667494654655496L240.8484375,16.688366115093277L241.10156250000003,16.891278207302125L241.48125000000002,16.758629262447403L241.734375,16.643563687801393L241.8609375,16.6481881141663L241.9875,16.5952973365784L242.1140625,16.63582700490956L242.62031249999998,16.684814274311098L242.87343750000002,16.74547690153125L243,16.723708689212845L243.37968750000002,16.64973545074466L243.50625,16.684972524642976L243.6328125,16.663749396801034L243.759375,16.72094810009006L244.39218749999998,16.727031946182297L245.4046875,16.858713805675546L245.53125,16.829771578311952L245.6578125,16.806702196598092L246.0375,16.316319584846543L246.290625,16.7389358878136L246.4171875,16.429468572139786L246.54375000000002,16.00279051065449L246.6703125,15.498868703842202L246.796875,15.924650013446854L246.9234375,15.484678924083749L247.05,15.068568468093918L247.303125,14.926477253437081L247.4296875,14.927075088024171L247.80937500000002,14.741324365139047L248.315625,15.40455150604252" style="fill: none;" fill="none"></path></g></g></g></g></g></g><g transform="translate(51, 177)" clip-path="url(#clip_1)"><clipPath id="clip_1"><rect width="278" height="23"></rect></clipPath><g><g><line x1="0" y1="0" x2="0" y2="5" style="visibility: inherit;" fill="rgb(0, 0, 0)" stroke="rgb(204, 204, 204)" stroke-width="1px"></line><line x1="25.3125" y1="0" x2="25.3125" y2="5" style="visibility: inherit;" fill="rgb(0, 0, 0)" stroke="rgb(204, 204, 204)" stroke-width="1px"></line><line x1="50.625" y1="0" x2="50.625" y2="5" style="visibility: inherit;" fill="rgb(0, 0, 0)" stroke="rgb(204, 204, 204)" stroke-width="1px"></line><line x1="75.9375" y1="0" x2="75.9375" y2="5" style="visibility: inherit;" fill="rgb(0, 0, 0)" stroke="rgb(204, 204, 204)" stroke-width="1px"></line><line x1="101.25" y1="0" x2="101.25" y2="5" style="visibility: inherit;" fill="rgb(0, 0, 0)" stroke="rgb(204, 204, 204)" stroke-width="1px"></line><line x1="126.5625" y1="0" x2="126.5625" y2="5" style="visibility: inherit;" fill="rgb(0, 0, 0)" stroke="rgb(204, 204, 204)" stroke-width="1px"></line><line x1="151.875" y1="0" x2="151.875" y2="5" style="visibility: inherit;" fill="rgb(0, 0, 0)" stroke="rgb(204, 204, 204)" stroke-width="1px"></line><line x1="177.1875" y1="0" x2="177.1875" y2="5" style="visibility: inherit;" fill="rgb(0, 0, 0)" stroke="rgb(204, 204, 204)" stroke-width="1px"></line><line x1="202.5" y1="0" x2="202.5" y2="5" style="visibility: inherit;" fill="rgb(0, 0, 0)" stroke="rgb(204, 204, 204)" stroke-width="1px"></line><line x1="227.8125" y1="0" x2="227.8125" y2="5" style="visibility: inherit;" fill="rgb(0, 0, 0)" stroke="rgb(204, 204, 204)" stroke-width="1px"></line><line x1="253.125" y1="0" x2="253.125" y2="5" style="visibility: inherit;" fill="rgb(0, 0, 0)" stroke="rgb(204, 204, 204)" stroke-width="1px"></line><line x1="278.4375" y1="0" x2="278.4375" y2="5" style="visibility: inherit;" fill="rgb(0, 0, 0)" stroke="rgb(204, 204, 204)" stroke-width="1px"></line></g><g transform="translate(0, 8)"><text x="0" y="0" dx="0em" dy="0.95em" style="text-anchor: middle; visibility: hidden; font-family: Roboto, sans-serif; font-size: 12px; font-weight: 200;" fill="rgb(33, 33, 33)" stroke="none" stroke-width="1px">-20k</text><text x="25.3125" y="0" dx="0em" dy="0.95em" style="text-anchor: middle; visibility: inherit; font-family: Roboto, sans-serif; font-size: 12px; font-weight: 200;" fill="rgb(33, 33, 33)" stroke="none" stroke-width="1px">0</text><text x="50.625" y="0" dx="0em" dy="0.95em" style="text-anchor: middle; visibility: hidden; font-family: Roboto, sans-serif; font-size: 12px; font-weight: 200;" fill="rgb(33, 33, 33)" stroke="none" stroke-width="1px">20k</text><text x="75.9375" y="0" dx="0em" dy="0.95em" style="text-anchor: middle; visibility: inherit; font-family: Roboto, sans-serif; font-size: 12px; font-weight: 200;" fill="rgb(33, 33, 33)" stroke="none" stroke-width="1px">40k</text><text x="101.25" y="0" dx="0em" dy="0.95em" style="text-anchor: middle; visibility: hidden; font-family: Roboto, sans-serif; font-size: 12px; font-weight: 200;" fill="rgb(33, 33, 33)" stroke="none" stroke-width="1px">60k</text><text x="126.5625" y="0" dx="0em" dy="0.95em" style="text-anchor: middle; visibility: inherit; font-family: Roboto, sans-serif; font-size: 12px; font-weight: 200;" fill="rgb(33, 33, 33)" stroke="none" stroke-width="1px">80k</text><text x="151.875" y="0" dx="0em" dy="0.95em" style="text-anchor: middle; visibility: hidden; font-family: Roboto, sans-serif; font-size: 12px; font-weight: 200;" fill="rgb(33, 33, 33)" stroke="none" stroke-width="1px">100k</text><text x="177.1875" y="0" dx="0em" dy="0.95em" style="text-anchor: middle; visibility: inherit; font-family: Roboto, sans-serif; font-size: 12px; font-weight: 200;" fill="rgb(33, 33, 33)" stroke="none" stroke-width="1px">120k</text><text x="202.5" y="0" dx="0em" dy="0.95em" style="text-anchor: middle; visibility: hidden; font-family: Roboto, sans-serif; font-size: 12px; font-weight: 200;" fill="rgb(33, 33, 33)" stroke="none" stroke-width="1px">140k</text><text x="227.8125" y="0" dx="0em" dy="0.95em" style="text-anchor: middle; visibility: inherit; font-family: Roboto, sans-serif; font-size: 12px; font-weight: 200;" fill="rgb(33, 33, 33)" stroke="none" stroke-width="1px">160k</text><text x="253.125" y="0" dx="0em" dy="0.95em" style="text-anchor: middle; visibility: hidden; font-family: Roboto, sans-serif; font-size: 12px; font-weight: 200;" fill="rgb(33, 33, 33)" stroke="none" stroke-width="1px">180k</text><text x="278.4375" y="0" dx="0em" dy="0.95em" style="text-anchor: middle; visibility: hidden; font-family: Roboto, sans-serif; font-size: 12px; font-weight: 200;" fill="rgb(33, 33, 33)" stroke="none" stroke-width="1px">200k</text></g><line x1="0" y1="0" x2="278.4375" y2="0" fill="rgb(0, 0, 0)" stroke="rgb(204, 204, 204)" stroke-width="1px"></line></g></g></g></g></svg>