<svg width="200" height="200" viewBox="0 0 330 200" xmlns="http://www.w3.org/2000/svg"><g><g><g><g><g><line x1="51.5625" y1="177" x2="46.5625" y2="177" style="visibility: inherit;" fill="rgb(0, 0, 0)" stroke="rgb(204, 204, 204)" stroke-width="1px"></line><line x1="51.5625" y1="160.90909090909093" x2="46.5625" y2="160.90909090909093" style="visibility: inherit;" fill="rgb(0, 0, 0)" stroke="rgb(204, 204, 204)" stroke-width="1px"></line><line x1="51.5625" y1="144.8181818181818" x2="46.5625" y2="144.8181818181818" style="visibility: inherit;" fill="rgb(0, 0, 0)" stroke="rgb(204, 204, 204)" stroke-width="1px"></line><line x1="51.5625" y1="128.72727272727272" x2="46.5625" y2="128.72727272727272" style="visibility: inherit;" fill="rgb(0, 0, 0)" stroke="rgb(204, 204, 204)" stroke-width="1px"></line><line x1="51.5625" y1="112.63636363636364" x2="46.5625" y2="112.63636363636364" style="visibility: inherit;" fill="rgb(0, 0, 0)" stroke="rgb(204, 204, 204)" stroke-width="1px"></line><line x1="51.5625" y1="96.54545454545453" x2="46.5625" y2="96.54545454545453" style="visibility: inherit;" fill="rgb(0, 0, 0)" stroke="rgb(204, 204, 204)" stroke-width="1px"></line><line x1="51.5625" y1="80.45454545454547" x2="46.5625" y2="80.45454545454547" style="visibility: inherit;" fill="rgb(0, 0, 0)" stroke="rgb(204, 204, 204)" stroke-width="1px"></line><line x1="51.5625" y1="64.36363636363636" x2="46.5625" y2="64.36363636363636" style="visibility: inherit;" fill="rgb(0, 0, 0)" stroke="rgb(204, 204, 204)" stroke-width="1px"></line><line x1="51.5625" y1="48.27272727272729" x2="46.5625" y2="48.27272727272729" style="visibility: inherit;" fill="rgb(0, 0, 0)" stroke="rgb(204, 204, 204)" stroke-width="1px"></line><line x1="51.5625" y1="32.181818181818194" x2="46.5625" y2="32.181818181818194" style="visibility: inherit;" fill="rgb(0, 0, 0)" stroke="rgb(204, 204, 204)" stroke-width="1px"></line><line x1="51.5625" y1="16.090909090909097" x2="46.5625" y2="16.090909090909097" style="visibility: inherit;" fill="rgb(0, 0, 0)" stroke="rgb(204, 204, 204)" stroke-width="1px"></line><line x1="51.5625" y1="0" x2="46.5625" y2="0" style="visibility: inherit;" fill="rgb(0, 0, 0)" stroke="rgb(204, 204, 204)" stroke-width="1px"></line></g><g transform="translate(41.5625, 0)"><text x="0" y="177" dx="0em" dy="0.3em" style="text-anchor: end; visibility: hidden; font-family: Roboto, sans-serif; font-size: 12px; font-weight: 200;" fill="rgb(33, 33, 33)" stroke="none" stroke-width="1px">0.3</text><text x="0" y="160.90909090909093" dx="0em" dy="0.3em" style="text-anchor: end; visibility: inherit; font-family: Roboto, sans-serif; font-size: 12px; font-weight: 200;" fill="rgb(33, 33, 33)" stroke="none" stroke-width="1px">0.35</text><text x="0" y="144.8181818181818" dx="0em" dy="0.3em" style="text-anchor: end; visibility: hidden; font-family: Roboto, sans-serif; font-size: 12px; font-weight: 200;" fill="rgb(33, 33, 33)" stroke="none" stroke-width="1px">0.4</text><text x="0" y="128.72727272727272" dx="0em" dy="0.3em" style="text-anchor: end; visibility: inherit; font-family: Roboto, sans-serif; font-size: 12px; font-weight: 200;" fill="rgb(33, 33, 33)" stroke="none" stroke-width="1px">0.45</text><text x="0" y="112.63636363636364" dx="0em" dy="0.3em" style="text-anchor: end; visibility: hidden; font-family: Roboto, sans-serif; font-size: 12px; font-weight: 200;" fill="rgb(33, 33, 33)" stroke="none" stroke-width="1px">0.5</text><text x="0" y="96.54545454545453" dx="0em" dy="0.3em" style="text-anchor: end; visibility: inherit; font-family: Roboto, sans-serif; font-size: 12px; font-weight: 200;" fill="rgb(33, 33, 33)" stroke="none" stroke-width="1px">0.55</text><text x="0" y="80.45454545454547" dx="0em" dy="0.3em" style="text-anchor: end; visibility: hidden; font-family: Roboto, sans-serif; font-size: 12px; font-weight: 200;" fill="rgb(33, 33, 33)" stroke="none" stroke-width="1px">0.6</text><text x="0" y="64.36363636363636" dx="0em" dy="0.3em" style="text-anchor: end; visibility: inherit; font-family: Roboto, sans-serif; font-size: 12px; font-weight: 200;" fill="rgb(33, 33, 33)" stroke="none" stroke-width="1px">0.65</text><text x="0" y="48.27272727272729" dx="0em" dy="0.3em" style="text-anchor: end; visibility: hidden; font-family: Roboto, sans-serif; font-size: 12px; font-weight: 200;" fill="rgb(33, 33, 33)" stroke="none" stroke-width="1px">0.7</text><text x="0" y="32.181818181818194" dx="0em" dy="0.3em" style="text-anchor: end; visibility: inherit; font-family: Roboto, sans-serif; font-size: 12px; font-weight: 200;" fill="rgb(33, 33, 33)" stroke="none" stroke-width="1px">0.75</text><text x="0" y="16.090909090909097" dx="0em" dy="0.3em" style="text-anchor: end; visibility: hidden; font-family: Roboto, sans-serif; font-size: 12px; font-weight: 200;" fill="rgb(33, 33, 33)" stroke="none" stroke-width="1px">0.8</text><text x="0" y="0" dx="0em" dy="0.3em" style="text-anchor: end; visibility: hidden; font-family: Roboto, sans-serif; font-size: 12px; font-weight: 200;" fill="rgb(33, 33, 33)" stroke="none" stroke-width="1px">0.85</text></g><line x1="51.5625" y1="0" x2="51.5625" y2="177" fill="rgb(0, 0, 0)" stroke="rgb(204, 204, 204)" stroke-width="1px"></line></g></g><g transform="translate(51, 0)" clip-path="url(#clip_0)"><clipPath id="clip_0"><rect width="278" height="177"></rect></clipPath><g><g><g><line x1="0" y1="0" x2="0" y2="177" fill="rgb(0, 0, 0)" stroke="rgb(66, 66, 66)" stroke-width="1px" opacity="0.25"></line><line x1="25.3125" y1="0" x2="25.3125" y2="177" fill="rgb(0, 0, 0)" stroke="rgb(66, 66, 66)" stroke-width="1px" opacity="0.25"></line><line x1="50.625" y1="0" x2="50.625" y2="177" fill="rgb(0, 0, 0)" stroke="rgb(66, 66, 66)" stroke-width="1px" opacity="0.25"></line><line x1="75.9375" y1="0" x2="75.9375" y2="177" fill="rgb(0, 0, 0)" stroke="rgb(66, 66, 66)" stroke-width="1px" opacity="0.25"></line><line x1="101.25" y1="0" x2="101.25" y2="177" fill="rgb(0, 0, 0)" stroke="rgb(66, 66, 66)" stroke-width="1px" opacity="0.25"></line><line x1="126.5625" y1="0" x2="126.5625" y2="177" fill="rgb(0, 0, 0)" stroke="rgb(66, 66, 66)" stroke-width="1px" opacity="0.25"></line><line x1="151.875" y1="0" x2="151.875" y2="177" fill="rgb(0, 0, 0)" stroke="rgb(66, 66, 66)" stroke-width="1px" opacity="0.25"></line><line x1="177.1875" y1="0" x2="177.1875" y2="177" fill="rgb(0, 0, 0)" stroke="rgb(66, 66, 66)" stroke-width="1px" opacity="0.25"></line><line x1="202.5" y1="0" x2="202.5" y2="177" fill="rgb(0, 0, 0)" stroke="rgb(66, 66, 66)" stroke-width="1px" opacity="0.25"></line><line x1="227.8125" y1="0" x2="227.8125" y2="177" fill="rgb(0, 0, 0)" stroke="rgb(66, 66, 66)" stroke-width="1px" opacity="0.25"></line><line x1="253.125" y1="0" x2="253.125" y2="177" fill="rgb(0, 0, 0)" stroke="rgb(66, 66, 66)" stroke-width="1px" opacity="0.25"></line><line x1="278.4375" y1="0" x2="278.4375" y2="177" fill="rgb(0, 0, 0)" stroke="rgb(66, 66, 66)" stroke-width="1px" opacity="0.25"></line></g><g><line x1="0" y1="177" x2="278.4375" y2="177" fill="rgb(0, 0, 0)" stroke="rgb(66, 66, 66)" stroke-width="1px" opacity="0.25"></line><line x1="0" y1="160.90909090909093" x2="278.4375" y2="160.90909090909093" fill="rgb(0, 0, 0)" stroke="rgb(66, 66, 66)" stroke-width="1px" opacity="0.25"></line><line x1="0" y1="144.8181818181818" x2="278.4375" y2="144.8181818181818" fill="rgb(0, 0, 0)" stroke="rgb(66, 66, 66)" stroke-width="1px" opacity="0.25"></line><line x1="0" y1="128.72727272727272" x2="278.4375" y2="128.72727272727272" fill="rgb(0, 0, 0)" stroke="rgb(66, 66, 66)" stroke-width="1px" opacity="0.25"></line><line x1="0" y1="112.63636363636364" x2="278.4375" y2="112.63636363636364" fill="rgb(0, 0, 0)" stroke="rgb(66, 66, 66)" stroke-width="1px" opacity="0.25"></line><line x1="0" y1="96.54545454545453" x2="278.4375" y2="96.54545454545453" fill="rgb(0, 0, 0)" stroke="rgb(66, 66, 66)" stroke-width="1px" opacity="0.25"></line><line x1="0" y1="80.45454545454547" x2="278.4375" y2="80.45454545454547" fill="rgb(0, 0, 0)" stroke="rgb(66, 66, 66)" stroke-width="1px" opacity="0.25"></line><line x1="0" y1="64.36363636363636" x2="278.4375" y2="64.36363636363636" fill="rgb(0, 0, 0)" stroke="rgb(66, 66, 66)" stroke-width="1px" opacity="0.25"></line><line x1="0" y1="48.27272727272729" x2="278.4375" y2="48.27272727272729" fill="rgb(0, 0, 0)" stroke="rgb(66, 66, 66)" stroke-width="1px" opacity="0.25"></line><line x1="0" y1="32.181818181818194" x2="278.4375" y2="32.181818181818194" fill="rgb(0, 0, 0)" stroke="rgb(66, 66, 66)" stroke-width="1px" opacity="0.25"></line><line x1="0" y1="16.090909090909097" x2="278.4375" y2="16.090909090909097" fill="rgb(0, 0, 0)" stroke="rgb(66, 66, 66)" stroke-width="1px" opacity="0.25"></line><line x1="0" y1="0" x2="278.4375" y2="0" fill="rgb(0, 0, 0)" stroke="rgb(66, 66, 66)" stroke-width="1px" opacity="0.25"></line></g></g></g><g><g><line x1="0" y1="273.54545454545456" x2="278.4375" y2="273.54545454545456" fill="rgb(0, 0, 0)" stroke="rgb(153, 153, 153)" stroke-width="1.5px"></line></g></g><g><g><line x1="25.3125" y1="0" x2="25.3125" y2="177" fill="rgb(0, 0, 0)" stroke="rgb(153, 153, 153)" stroke-width="1.5px"></line></g></g><g><g><g><g><g><path style="fill: none;" stroke="rgb(0, 153, 136)" stroke-width="2px" d="M33.792187500000004,177.1117575721673L33.918749999999996,176.39502427115895L34.0453125,175.71586949580268L34.2984375,174.88105853457097L34.425000000000004,174.2111721127089L34.678125,173.3740499287879L34.93125,172.44678719993396L35.184375,171.6048193636909L35.43749999999999,170.7015959181075L35.5640625,169.9670184467678L35.817187499999996,169.25571952384777L35.94375,168.65060643246701L36.196875,167.93957199334764L36.323437500000004,167.34311515551974L36.703125,166.54486778382892L36.8296875,165.91732901283154L37.4625,164.73534033375824L37.96875,147.03422394581486L38.0953125,136.16611964868517L38.475,128.55693213345526L38.854687500000004,123.13245216836727L38.98125,120.28089779839293L39.234375,118.70690062722244L39.3609375,117.30768895251504L39.4875,116.42173034122446L39.8671875,116.16096081510427L40.120312500000004,115.99989928978555L40.753125,115.44531852329676L41.259375000000006,114.64102243812192L41.385937500000004,114.1904669814459L41.639062499999994,113.97821253833266L41.765625,113.82885444449727L41.8921875,113.58689726870752L42.01875,113.38024510703114L42.1453125,113.17151986868699L42.3984375,112.82277003874927L42.6515625,112.56822026396668L42.778124999999996,112.32618733908569L43.5375,112.15044541105584L43.6640625,111.90442025032614L43.9171875,111.65901603971649L44.043749999999996,111.49715693724264L44.4234375,111.21401581290269L45.309374999999996,110.99194113793804L45.5625,110.79973897295167L45.6890625,110.69013386776592L45.9421875,110.5332493044658L46.06875,110.33096357602945L46.19531250000001,110.18243830020307L46.4484375,110.10319795541649L46.9546875,109.9502379274691L47.081250000000004,109.84402180768997L47.2078125,109.72400489050554L47.5875,109.61963110868633L47.7140625,109.49460441781687L47.840624999999996,109.3884447379815L47.9671875,109.3080530405206L48.2203125,109.19133111477865L48.346875000000004,109.1326229285385L48.6,109.07131068935743L48.7265625,108.9909191453122L48.853125,108.91808540366071L48.9796875,108.8093202949447L49.359375,108.6107473137688L49.4859375,108.45702247072255L49.612500000000004,108.30727268063966L49.7390625,108.20959660835881L50.11875,96.11333899265314L50.4984375,91.19956915715804L50.625,88.44090841712419L50.751562500000006,87.05389737189927L51.0046875,86.06067055253133L51.131249999999994,85.49191899064854L51.2578125,85.0327072970436L51.384375,85.03265478587167L51.6375,84.8461142334809L51.890625,84.8667211981696L52.143750000000004,85.0875001049741L52.396874999999994,85.33258797615085L52.65,85.54353930559073L52.7765625,85.57794510996855L53.0296875,85.58766260604517L53.15625,85.58256711714108L53.282812500000006,85.52250901334885L53.409375,85.52958729603478L53.535937499999996,85.59040540246771L53.7890625,85.72414061572047L53.915625,85.88072554014208L54.421875,86.0616623863106L54.801562499999996,86.24019991348968L55.18125,86.44909369777477L55.3078125,86.59412590056071L55.434375,86.6927157192249L55.5609375,86.79479093680064L55.6875,86.81744216822607L55.940625,86.83832968602033L56.067187499999996,86.88031018572721L56.3203125,86.92032222573023L56.446875,86.98045272548885L56.573437500000004,87.01518829525534L56.7,87.07018869057094L57.332812499999996,87.11062381607988L57.459375,87.07713982482916L57.5859375,87.06139987556598L57.965625,87.07418384353308L58.0921875,87.07078245563935L58.21874999999999,87.07253195812483L58.3453125,87.0939604659904L58.598437499999996,87.13885127425368L59.3578125,87.13443492982707L59.6109375,87.1812743178677L59.7375,87.22189219511851L60.1171875,87.26617369049806L60.24375,87.2866964659551L60.370312500000004,87.3278136098171L60.623437499999994,87.27438304143402L60.8765625,87.16964080251876L61.1296875,87.14887278377675L61.25625,87.13896699607172L61.509375,87.1797351850476L61.7625,87.2267846548962L61.889062499999994,87.29881802866936L62.1421875,81.10972181903821L62.26875,76.58213231315533L62.775000000000006,73.78174621563258L62.901562500000004,71.95791916506515L63.028124999999996,70.8410727419784L63.154687499999994,70.07953647820317L63.28125,69.51684595266785L63.9140625,69.68791917688083L64.1671875,69.81228464787155L64.29375,69.75038280779366L64.4203125,69.7118682826848L64.546875,69.72838161435021L64.9265625,69.87166491124265L65.05312500000001,69.89496392158243L65.30625,69.90472331893623L65.4328125,69.95391461186733L65.6859375,69.91523404460843L65.8125,69.96434131045702L66.1921875,70.06607523970992L66.4453125,70.14979622664508L67.078125,70.45755677706927L67.2046875,70.71221921777521L67.33125,70.92781041388824L67.4578125,71.04539514323594L67.58437500000001,71.12681825819111L68.090625,71.24496467248281L68.2171875,71.34048202725567L68.4703125,71.62508211678563L68.85000000000001,71.75586717757815L68.9765625,71.8641621675088L69.10312499999999,71.9174382278374L69.2296875,71.9466340036802L69.4828125,71.97808517113457L69.609375,71.9941323020493L69.73593749999999,72.0328556234337L69.98906249999999,72.14228521521346L70.11562500000001,72.20858748072386L70.2421875,72.3111779172063L70.36875,72.36503641750184L70.621875,72.45872579184629L70.7484375,72.54662784654553L71.0015625,72.58721545387684L71.2546875,72.64878082359007L71.38125,72.67955115975352L71.5078125,72.71786274853379L71.63437499999999,72.72190569843666L71.76093750000001,72.74994308572681L71.8875,72.7710085451811L72.0140625,72.7898320520049L72.7734375,72.83133374672254L72.9,72.88589758939759L73.153125,72.8658244024295L73.2796875,72.83008705874119L73.7859375,72.83355037748714L74.0390625,72.85919136360502L74.16562499999999,72.8540360212908L74.29218750000001,72.85744930227476L74.671875,67.44304685707452L74.79843749999999,64.29843244448098L74.925,62.83315828087258L75.0515625,62.0428288053738L75.17812500000001,61.236493405341776L75.3046875,60.64664717929127L75.43125,60.300665387555775L75.5578125,60.066965966847455L75.68437499999999,59.89067674786916L75.8109375,60.02487593792883L75.9375,59.83495426662028L76.190625,59.46142468309398L76.3171875,59.364451963259945L76.5703125,59.38329500198886L76.8234375,59.58539893445416L77.0765625,59.96541689113458L77.203125,60.08472023716434L77.5828125,60.27783082692165L77.70937500000001,60.426191248921775L77.8359375,60.41282241467511L77.9625,60.43190891643149L78.34218750000001,60.5598484072347L78.46875,60.67071744596882L78.721875,60.87794163701487L78.8484375,61.00627365093507L79.228125,61.11470041610537L79.3546875,61.20262125043169L79.86093749999999,61.321758326611246L79.98750000000001,61.36500487674013L80.3671875,61.34017459123574L80.49374999999999,61.30754471001931L80.6203125,61.27094863650855L80.74687499999999,61.20735101416663L80.87343750000001,61.14156289190843L81,61.133264374840664L81.1265625,61.19114037823638L81.253125,61.23662316646987L81.50625,61.295593596759105L81.63281249999999,61.326548682011754L81.759375,61.37634979865407L81.8859375,61.41493135961401L82.39218749999999,61.42988580627743L82.51875000000001,61.454319052153565L82.6453125,61.44979714126976L82.77187500000001,61.474161106070305L82.8984375,61.53874438973582L83.1515625,61.663943159415226L83.40468750000001,61.720018672193866L83.6578125,61.87279099332764L83.784375,61.91424395343514L83.9109375,62.00043629446324L84.1640625,62.03585479217532L84.290625,61.98300253539487L84.4171875,61.961588002920834L84.6703125,61.95679566396844L84.92343749999999,61.93858244661268L85.05000000000001,61.93541933248344L85.4296875,61.91914274294211L85.55624999999999,61.95124694975366L85.93593750000001,61.95936097773296L86.0625,61.98838319062983L86.1890625,61.974606816594L86.315625,61.92394141234411L86.44218749999999,61.88390520412922L86.56875,51.07579664489964L86.6953125,50.374330874526905L86.9484375,51.474818311967006L87.075,52.40405577481948L87.2015625,53.126101870251134L87.328125,52.99007335186205L87.58125000000001,52.30748861685785L87.9609375,51.25640435772014L88.08749999999999,50.85754737925834L88.46718750000001,50.58833251129249L88.846875,50.35359794607883L88.97343749999999,50.126231680036895L89.10000000000001,49.959788475629104L89.4796875,50.00783769955206L89.7328125,49.94079630557496L89.859375,50.061192678766766L89.9859375,50.25851156499878L90.1125,50.33876936221982L90.2390625,50.60532100766005L90.365625,50.73967106854926L90.4921875,50.76535193534119L90.74531250000001,50.753660325855385L90.871875,50.835587801237196L90.99843750000001,50.97320334470774L91.125,51.09036907061749L91.25156249999999,51.223730783870515L91.378125,51.266488970047654L91.63125000000001,51.263279021219304L92.5171875,51.469683379736544L92.896875,51.63154443821458L93.0234375,51.67847365895867L93.14999999999999,51.72933483901867L93.27656250000001,51.83922607715335L93.403125,51.97268863437905L93.52968750000001,52.03031572163199L93.65625,52.137806054170014L93.78281249999999,52.23042853086461L93.909375,52.29655971174999L94.03593749999999,52.35460696789415L94.16250000000001,52.38578309573947L94.2890625,52.44043557510615L94.5421875,52.477991836355095L94.66875,52.52913725310811L95.0484375,52.65013269255201L95.3015625,52.744443819937956L95.5546875,52.80343973778576L95.68124999999999,52.8734490338086L95.80781250000001,52.88531607548925L96.5671875,52.98176237873914L96.69375000000001,53.063584465470925L96.8203125,53.104322099986796L97.3265625,53.14265234618484L97.453125,53.18760221266752L97.70625,53.19126233821784L97.959375,53.2140136930197L98.33906250000001,53.29658108679461L98.84531249999999,45.69756264632834L99.3515625,44.4058348713164L99.478125,43.763268120485456L99.6046875,43.241690330146504L99.85781250000001,43.48372085619117L99.984375,44.006376763370696L100.1109375,44.31465309652729L100.2375,44.29727330843072L100.3640625,44.28616256141343L100.6171875,44.625291311123405L100.8703125,44.78559403404122L100.996875,45.104630498793874L101.1234375,45.3370785364118L101.25,45.546545796690616L101.50312500000001,45.882896667398136L101.6296875,46.09683779708084L101.75625000000001,46.18811243346979L102.009375,46.196487808925525L102.38906250000001,46.300115459167365L102.6421875,46.23005999018045L103.021875,46.14472174524297L103.14843750000001,46.101045759520396L103.4015625,46.04884491357025L103.528125,46.02924835786006L103.6546875,45.91540457397839L103.90781249999999,45.90515027994002L104.1609375,45.89842224776471L104.28750000000001,45.972010573071245L104.6671875,45.93752562151941L104.79374999999999,45.98453126528725L104.92031250000001,46.04105474730379L105.046875,46.085841113860255L105.553125,46.27270497841637L105.67968749999999,46.427061749367816L105.80625,46.53424635158658L106.059375,46.54764078795556L106.43906249999999,46.50961029862061L106.56562500000001,46.53273639228216L106.6921875,46.57044358936711L106.81875,46.64407630550071L106.9453125,46.62770264455367L107.07187499999999,46.6305614927658L107.578125,46.607424785937674L107.83125,46.641904063262935L107.9578125,46.64019489177912L108.084375,46.64589071207555L108.2109375,46.59959649999921L108.3375,46.60241120054494L108.7171875,46.60703100883739L108.84375,46.603971608856355L108.97031249999999,46.60445313736358L109.85625,46.76130438280657L110.2359375,46.820726657324535L110.86875,46.91869804363624L110.9953125,46.967467945333475L111.121875,40.26184896212695L111.5015625,37.252699153748765L111.7546875,36.37165208016766L111.88125,36.39975042175396L112.0078125,36.93273952730273L112.13437499999999,37.349761994538284L112.3875,37.16314317694761L112.51406250000001,37.19410742251767L113.02031249999999,37.53942974600772L113.14687500000001,37.59544707760453L113.2734375,37.60468884363915L113.4,37.67495349353367L113.5265625,37.69317332417528L113.653125,37.76056126823122L113.90625,37.97721393150147L114.2859375,38.159710112302186L114.4125,38.23570862325622L114.66562499999999,38.51940830189455L115.171875,38.60451436694274L115.29843749999999,38.7547558866923L115.55156249999999,38.88196014898925L115.93125,39.07750946549775L116.184375,39.164163427434296L116.43749999999999,39.17703248618416L116.5640625,39.26062200781548L116.690625,39.40488959089479L116.94375,39.460421566579136L117.0703125,39.55018145217394L117.19687499999999,39.552231020338326L117.32343750000001,39.60428501327886L117.45,39.68115488657117L117.57656250000001,39.72126137974931L117.703125,39.75483180468395L117.95625,39.8076829646047L118.08281249999999,39.83315572020235L118.20937500000001,39.879383547547214L118.8421875,39.93705161581638L118.96875,39.952393870934735L119.0953125,39.988476844009156L119.3484375,40.00256897564047L119.475,39.988090424704794L119.6015625,39.98333173874569L119.72812499999999,40.010077971067794L120.6140625,40.23272967101848L120.99375,40.43278199400625L121.1203125,40.58059639151927L121.3734375,40.78194392083794L122.00625,40.86253191771606L122.1328125,40.90559819566525L122.259375,40.94079870933861L122.5125,40.95515165789577L122.6390625,40.98156419163411L122.765625,40.974876864617585L122.89218749999999,40.988335305047066L123.01875,41.037329109663986L123.1453125,41.10173612040323L123.27187500000001,41.134694824014204L123.525,38.8652993908435L123.6515625,37.38172689340336L123.90468750000001,35.833691687952445L124.03125,34.841340249629496L124.1578125,33.68343289789114L124.284375,33.34959898919522L124.4109375,33.464962978708336L124.5375,33.81838745935526L124.9171875,34.29163000459099L125.1703125,34.629583972270275L125.296875,34.82884990916062L125.55000000000001,34.708068458166736L125.80312500000001,34.74380061448687L126.05624999999999,34.883093246347165L126.1828125,34.87342964810626L126.30937499999999,34.96445383766969L126.5625,35.05946534521822L126.6890625,35.281290449945445L127.19531250000001,35.429370380571314L127.321875,35.5453798504547L127.4484375,35.59149926494813L127.575,35.66839156232308L127.95468749999999,35.70202804180834L128.08125,35.773763092160976L128.334375,35.766747144667015L128.9671875,35.80047929210472L129.09375,35.879967504822716L129.346875,35.857094211736516L129.47343750000002,35.80696306862348L129.6,35.816191847008504L129.853125,35.80888494164848L129.97968749999998,35.78626268745671L130.10625000000002,35.83582066733908L130.2328125,35.88531276943032L130.4859375,35.994888961845746L130.7390625,36.11047681818632L130.865625,36.16854292650248L131.11875,36.215728035564545L131.2453125,36.2460800507366L131.371875,36.29903344179117L131.625,36.35313315961262L131.7515625,36.4131074480081L132.00468750000002,36.45730952918805L132.13125,36.55342256020583L132.384375,36.6526382841315L133.0171875,36.717569329815056L133.14375,36.728583825894184L133.5234375,36.76299854549214L133.7765625,36.902068498328006L133.903125,37.002298432509576L134.2828125,37.11048311196269L134.409375,37.168695614677944L134.5359375,37.22967975277062L134.915625,37.267451838104236L135.04218749999998,37.30088762098721L135.5484375,42.14936045310492L135.67499999999998,38.46310741170838L136.940625,34.9767057500701L137.19375,33.083136114351475L137.3203125,32.070740337891884L137.446875,31.527915043882828L137.57343749999998,31.238757471375884L137.70000000000002,31.069252754420873L137.8265625,31.051228863373627L138.0796875,31.190784953189294L138.3328125,31.31743993345589L138.7125,31.20106957274166L138.965625,31.319935461116025L139.0921875,31.464053983176548L139.47187499999998,31.657935830762852L139.5984375,31.67682877133759L139.8515625,31.694632658338136L140.1046875,31.742289940808636L140.23125000000002,31.818263500562495L140.35781250000002,31.94255463784082L140.6109375,31.965975140201277L140.7375,31.989626043565664L140.990625,31.898385419022162L141.1171875,31.869360080051557L141.37031249999998,32.02577855031974L141.496875,32.12921288894208L141.6234375,32.24398523902488L141.74999999999997,32.307654201817265L141.8765625,32.356942693653394L142.003125,32.438130333363446L142.25625,32.5781639087056L142.7625,32.72131021427246L142.8890625,32.75490057884477L143.015625,32.776282436526394L143.14218749999998,32.80101197609265L143.26874999999998,32.82735881487812L143.39531250000002,32.84912096699972L143.52187500000002,32.85263336552809L143.6484375,32.92084148872435L143.775,32.99616327114209L144.28125,33.03385239758294L144.53437499999998,33.100576475046005L144.6609375,33.134956109664714L145.04062499999998,33.094508853259995L145.546875,33.105911083315526L145.6734375,33.07791049373379L145.9265625,33.064547529011705L146.1796875,33.12104984912475L146.30625,33.20688036827892L146.43281249999998,33.25862420755904L146.8125,33.29218717095046L146.9390625,33.33932533288259L147.065625,33.3834140813713L147.19218750000002,33.39387733329431L147.31875,33.365482157187046L147.4453125,33.333329747095966L147.571875,33.29924525183592L147.825,24.270456753526894L147.9515625,21.617519633656315L148.33124999999998,23.41089500641506L148.9640625,24.87762399489906L149.2171875,25.67758096550133L149.34375,26.44779201108569L149.59687499999998,27.076048877749628L149.7234375,27.75115813212242L149.85,28.131509778371203L150.2296875,27.950786563059324L150.35625000000002,27.946916780434258L150.4828125,27.94113450360214L150.609375,27.90565445218903L150.7359375,27.93796820648077L150.9890625,27.994615300830475L151.2421875,27.960208723095267L151.36874999999998,27.988585933805552L151.49531249999998,27.96892120146596L151.74843750000002,28.106679475709686L151.875,28.147571698126672L152.128125,28.22723569264587L152.25468750000002,28.291146850421423L152.38125,28.362440305090956L152.5078125,28.319926162660515L152.634375,28.209380662501108L152.76093749999998,28.144227292140137L153.39375,28.052101267792835L153.646875,28.119221255324053L153.9,28.195133140767638L154.0265625,28.321059931513158L154.153125,28.4610056682696L154.5328125,28.627040773342813L154.7859375,28.786117924712894L155.2921875,29.00202628634683L155.5453125,29.1268448934151L155.671875,29.202065985620678L155.925,29.275357609089223L156.43124999999998,29.354220547245642L156.55781249999998,29.396282480935312L156.68437500000002,29.453031598144257L156.81093750000002,29.47933927041553L156.9375,29.518763596082227L157.44375,29.607567455384412L157.696875,29.677568678755446L157.82343749999998,29.72558484357528L158.203125,29.777428118045385L158.58281250000002,29.837491016182437L158.709375,29.820579153111016L159.0890625,29.851511903238006L159.3421875,29.916522341638746L159.46875,30.015483421324024L159.5953125,30.0593611275403L159.8484375,30.089447395518334L160.228125,27.455806722514396L160.3546875,25.339381957758476L160.48125000000002,23.609193188049534L160.734375,22.9064018294529L160.8609375,22.27966527515367L160.98749999999998,22.094927852864064L161.1140625,22.24372336217845L161.240625,22.267989513245464L161.3671875,22.336864554158115L161.74687500000002,22.802162358759965L161.87343750000002,23.23174215693853L162.1265625,23.75518179304781L162.253125,24.07838381205971L162.3796875,24.306510113382746L162.759375,24.59420133773568L162.88593749999998,24.779591190048198L163.0125,24.998258854015816L163.51875,25.264875700024326L163.64531250000002,25.47109710462654L163.771875,25.703330211295548L164.4046875,25.913474151058224L164.65781249999998,25.971718118093015L164.91093750000002,26.07950185106653L165.03750000000002,26.12287255527269L165.1640625,26.20407734806896L165.54375000000002,26.288547535078752L165.6703125,26.322372630114323L165.796875,26.344225254038488L165.9234375,26.28966323192413L166.04999999999998,26.28011304910099L166.1765625,26.33640939676016L166.303125,26.436203489257938L166.4296875,26.476690922276216L166.6828125,26.590010223337572L167.0625,26.798343952841883L167.1890625,26.89091150434561L167.315625,26.98506895259794L167.4421875,27.02937910508758L167.821875,27.139467662609746L167.94843749999998,27.151796248089642L168.20156250000002,27.124075253001383L168.328125,27.077181356121542L168.4546875,27.06564883463298L168.58125,27.041480994657967L168.70781250000002,26.979708518808486L168.9609375,26.97988852958676L169.0875,27.00009145092354L169.2140625,26.998471320361055L169.340625,27.014762914592133L169.59375,26.957577839794745L169.97343750000002,26.912202698985702L170.353125,26.870775366533877L170.4796875,26.909011935743425L170.7328125,26.973693601168282L170.859375,27.032643551753218L170.9859375,27.052361125641987L171.11249999999998,27.054408922186376L171.2390625,27.024256079755023L171.365625,27.00425386119864L171.61875,27.007881908296884L172.125,27.01745526115856L172.2515625,27.04953980084351L172.5046875,23.891192915221254L172.7578125,23.35589465357948L173.01093749999998,23.170830163868438L173.1375,23.395182427960854L173.77031250000002,22.941839135190587L173.896875,22.47638795383998L174.0234375,22.230585751582574L174.27656249999998,21.708482735489902L174.403125,21.45265908265579L174.5296875,21.62193418604089L175.03593750000002,21.808367462419103L175.2890625,21.846983420095068L175.5421875,21.745808515746692L175.7953125,21.68881718092572L175.921875,21.784959271554275L176.0484375,21.89394448806184L176.428125,22.006016588591827L176.55468749999997,22.07744149404309L176.68125,22.152015558379844L176.8078125,22.294196164959008L176.93437500000002,22.405983166255012L177.0609375,22.412908731803675L177.440625,22.380649231128228L177.5671875,22.251419845753166L177.94687499999998,22.27634402940847L178.07343749999998,22.261520622606678L178.20000000000002,22.268854430740095L178.453125,22.23771456835896L178.5796875,22.228199579250035L178.959375,22.27231738118926L179.0859375,22.300192174388364L179.2125,22.35059272093162L179.465625,22.424782522845494L179.5921875,22.51380598824732L179.971875,22.596629692801923L180.09843750000002,22.64767431836674L180.225,22.671917371226883L180.478125,22.711560746486033L180.8578125,22.723906711286073L180.984375,22.75580568698337L181.3640625,22.839833463029557L181.49062500000002,22.90774398352677L181.6171875,22.961142649632023L182.1234375,23.189535024718513L182.3765625,23.322542259504417L182.50312499999998,23.421328967458017L182.6296875,23.49912299471042L182.75625,23.530814543272363L182.8828125,23.56978627789877L183.00937499999998,23.629737613546578L183.13593749999998,23.684537327150053L183.515625,23.814868668775944L183.6421875,23.93844407800503L183.76875,24.00732582159496L183.8953125,24.064552791998732L184.1484375,24.127945653359774L184.40156249999998,24.234146022220504L184.528125,24.311776927255536L184.9078125,20.356114422330688L185.034375,18.069311500979722L185.4140625,17.66008231289418L185.540625,17.165326422842817L185.79375,17.035147892904128L185.9203125,17.383668324199064L186.29999999999998,18.368686755641736L186.9328125,19.06412385168879L187.05937500000002,19.505662669320202L187.1859375,19.646893664130946L187.4390625,19.69850902791585L187.6921875,19.70165687874958L187.81875,19.77791749067525L188.07187499999998,19.784005774639738L188.1984375,19.808735771038826L188.4515625,19.85644380144885L188.7046875,20.011507757587175L188.9578125,20.138352238531137L189.084375,20.22995786869242L189.46406249999998,20.301870336879823L189.7171875,20.26858194840201L189.84375,20.247603785934647L190.096875,20.269736052175464L190.22343750000002,20.25987441793469L190.4765625,20.251716996328007L190.7296875,20.349875159483364L191.23593749999998,20.391115074896444L191.61562500000002,20.434450081314814L191.7421875,20.494449011010886L191.86875,20.499450485638768L192.5015625,20.62790839715717L192.7546875,20.634386232377782L192.88125,20.705770056881637L193.0078125,20.744426379194014L193.134375,20.808531240197297L193.2609375,20.884391107954478L193.5140625,20.958472652152295L194.4,21.073825400096005L195.159375,21.29840242923607L195.5390625,21.436202398578892L195.665625,21.54668072939171L195.91875,21.645246959210976L196.0453125,21.7305967884333L196.425,21.826300924733438L196.55156250000002,21.931808489174575L196.8046875,20.911974865399714L196.93125,21.463132148451816L197.0578125,20.96681987481438L197.184375,21.005328852267905L197.3109375,21.24347821699763L197.5640625,20.85880534762634L198.07031249999997,20.082101281154912L198.196875,19.558349120202745L198.3234375,19.274827160803525L198.45000000000002,19.289020953506128L198.5765625,19.433291077463682L199.0828125,19.410455176956955L199.209375,19.412106796123886L199.46249999999998,19.416703957005048L199.58906249999998,19.526021313370393L200.0953125,19.42722320061991L200.221875,19.386121061998463L200.728125,19.453440626271036L200.85468749999998,19.53073826041448L200.98125,19.553676609924118L201.36093749999998,19.664822078403393L201.4875,19.678337247979762L201.740625,19.6169619858229L202.1203125,19.627354891189686L202.246875,19.5672137315694L202.5,19.52103937827381L202.6265625,19.488616029127698L203.00625000000002,19.331935004578234L203.259375,19.17213261550386L204.271875,19.281366630404015L204.65156249999998,19.37531920802037L204.77812500000002,19.41510228343763L205.03125,19.461614394354573L205.284375,19.496450148162268L205.4109375,19.565482719568067L206.55,19.675557970030972L206.67656250000002,19.767682775002317L206.803125,19.832126586304863L206.9296875,19.905818946542237L207.1828125,19.95097811011837L207.4359375,19.956052834809928L207.5625,19.978678510689313L207.68906249999998,20.00392415887331L207.81562499999998,19.97696353220308L208.1953125,19.94709130929654L208.4484375,19.936242244934046L208.57500000000002,19.942646033397885L208.7015625,19.948874529662334L208.828125,19.960031170253774L208.9546875,19.958929647351027L209.08124999999998,17.33899364053076L209.2078125,14.17643397340317L209.4609375,13.309815644231973L209.58749999999998,12.361168474992997L209.7140625,12.258736170500534L209.84062500000002,12.79371749319111L209.96718750000002,12.881477906775558L210.09375,12.565681345852596L210.2203125,12.256002211761302L210.346875,12.388744017541974L210.4734375,12.309709095503298L210.6,12.335877423882462L210.7265625,12.402272236314687L211.4859375,12.529233124670125L211.865625,12.842950119483708L211.9921875,13.339302344375922L212.2453125,13.700206647991859L212.371875,13.804796231740017L212.87812499999998,13.910732181640466L213.00468750000002,14.005115161673176L213.13125000000002,14.075793742791946L213.2578125,14.184324593772528L213.6375,14.390729000662152L213.7640625,14.550909757366972L213.890625,14.714945008389668L214.0171875,14.85337184290227L214.14374999999998,14.974454059720857L214.396875,15.170857067526924L214.5234375,15.32779149964925L215.0296875,15.463484718750985L215.15625,15.601533168980302L215.2828125,15.670374827965658L215.5359375,15.647811907596509L215.915625,15.624100097674583L216.421875,15.797057258825053L216.5484375,15.947075179769046L216.675,15.99130267268352L216.80156250000002,15.99710741586321L216.928125,16.01401756265768L217.18125,16.079729658175097L217.30781249999998,16.12108277406985L218.19375000000002,16.27114450627762L218.5734375,16.390990153570698L218.8265625,16.499488855048586L219.0796875,16.485927110969484L219.459375,16.550404907717162L219.58593750000003,16.636555176214344L219.96562500000002,16.70679803076634L220.0921875,16.773243321730753L220.3453125,16.771938555419162L220.471875,16.759255270674927L220.97812499999998,16.841163196654L221.23125,16.883064882505984L221.35781250000002,17.32342407389338L221.7375,15.833481655403968L221.86406250000002,14.705566586404181L221.990625,13.820586962853833L222.24375,13.622465814075927L222.496875,13.5160613327754L222.75,13.63951030950575L222.87656249999998,13.924656865482476L223.12968750000002,14.497397568677492L223.3828125,14.702625700311302L223.509375,14.832000519646366L223.6359375,14.992728894620864L223.8890625,15.122319843680602L224.1421875,15.078392376109703L224.26874999999998,15.04307413131822L224.3953125,14.935403693989786L224.521875,14.866251494778043L224.6484375,14.814524735603644L224.9015625,14.927859019232532L225.1546875,14.958815584449308L225.28125,14.955537550479315L225.4078125,14.957683320540252L225.534375,14.991503214439431L225.6609375,15.061008126714402L226.04062499999998,15.213329015155523L226.6734375,15.278588184323029L227.30625,15.293712653608107L227.43281249999998,15.252960539774522L227.559375,15.242220463865474L228.065625,15.204602062032858L228.19218750000002,15.247786431561238L228.31875,15.354421986208896L229.2046875,15.4698260450218L229.33124999999998,15.521674371103765L229.58437500000002,15.673912966237465L229.7109375,15.80258401978265L229.8375,15.858955153676972L229.9640625,15.858488343920717L230.09062500000002,15.848003509393108L230.4703125,15.777345964597503L230.7234375,15.78900591471822L230.9765625,15.78008094231074L231.2296875,15.728942699214338L231.35625000000002,15.718638559730783L231.7359375,15.745326108611271L231.8625,15.782032026791741L232.36875,15.775651081767156L232.49531249999998,15.744254347846237L232.621875,15.716408506784596L232.7484375,15.722834323389508L233.0015625,15.693321052463252L233.128125,15.624251745830081L233.7609375,14.496679629498782L233.8875,14.216471918157788L234.140625,13.37354485799252L234.39374999999998,12.46717167263855L234.52031250000002,12.256720787840525L234.64687500000002,11.955565417470298L234.7734375,12.073679512808535L235.0265625,11.835044848201942L235.2796875,11.691158157048518L235.40625,11.60993618943672L235.5328125,11.727494375793603L235.7859375,12.003029644802103L236.0390625,12.283664466222016L236.2921875,12.421469476769085L236.671875,12.49654879442388L236.7984375,12.508404097224817L237.3046875,12.66855014529672L237.684375,12.694869518732682L237.9375,12.750712863153305L238.0640625,12.753274695819425L238.190625,12.760428243561455L238.31718750000002,12.744564075389892L238.696875,12.79850683484907L238.8234375,12.846164268048703L238.95,12.791839390435712L239.0765625,12.73873522085644L239.203125,12.780438982481156L239.32968749999998,12.833758316981685L239.70937500000002,12.841711212723194L239.8359375,12.885322377075708L239.9625,12.948809299408884L240.215625,13.063383358659193L240.3421875,13.141373449962858L240.46875,13.167773352883998L240.5953125,13.2071225803034L240.72187499999998,13.312792107031047L240.8484375,13.385953552626422L241.10156250000003,13.5155319451273L241.48125000000002,13.52615782168125L241.734375,13.484617065306535L241.8609375,13.478329705112431L241.9875,13.454163137134998L242.1140625,13.457778543430432L242.62031249999998,13.507219559072176L242.87343750000002,13.553165729875257L243,13.568142460497102L243.37968750000002,13.533025570014955L243.50625,13.52926514475444L243.6328125,13.523747973668543L243.759375,13.547092781462851L244.39218749999998,13.54833222118208L245.4046875,13.647647619008543L245.53125,13.698252075225373L245.6578125,13.714788465413887L246.0375,13.206531576451818L246.290625,13.334197404899832L246.4171875,13.266065943897013L246.54375000000002,13.022772424614603L246.6703125,12.52825427300052L246.796875,12.462830557990861L246.9234375,12.128919965584538L247.05,11.66029613842499L247.303125,11.293271516631544L247.4296875,11.174636192948991L247.80937500000002,11.083421465816578L248.315625,11.389442004273542" fill="none"></path></g></g></g></g><g opacity="0.2"><g><g><g><path style="fill: none;" stroke="rgb(0, 153, 136)" stroke-width="2px" d="M33.4125,177.6976883086291L33.665625,176.51849315383217L33.792187500000004,175.97931029579857L33.918749999999996,175.3199243220416L34.0453125,174.69713733413002L34.2984375,173.6288420937278L34.425000000000004,173.2063424803994L34.678125,172.118366653269L34.93125,171.05589310689405L35.184375,170.34186760945752L35.43749999999999,169.3467607498169L35.5640625,168.8651522397995L35.817187499999996,168.18877113949168L35.94375,167.74293679540807L36.196875,166.87302033467725L36.323437500000004,166.44842989878222L36.703125,165.34749672629616L36.8296875,164.9760208563371L37.4625,162.96235731515017L37.96875,120.48254936391658L38.0953125,119.8639632029967L38.475,117.14315086061305L38.854687500000004,114.99573222073643L38.98125,116.00356624343179L39.234375,116.34590487046674L39.3609375,115.20887144045398L39.4875,115.09279242428867L39.8671875,115.76980652592398L40.120312500000004,115.75830700180747L40.753125,114.61344737356359L41.259375000000006,113.43457831035961L41.385937500000004,113.5146337964318L41.639062499999994,113.65983087366277L41.765625,113.60481730374424L41.8921875,113.22396150502293L42.01875,113.07026686451651L42.1453125,112.85843201117083L42.3984375,112.29964529384266L42.6515625,112.18639560179278L42.778124999999996,111.9631379517642L43.5375,111.88683251901105L43.6640625,111.53538250923157L43.9171875,111.29090972380206L44.043749999999996,111.25436828353189L44.4234375,110.78930412639271L45.309374999999996,110.65882912549107L45.5625,110.5114357254722L45.6890625,110.5257262099873L45.9421875,110.29792245951566L46.06875,110.02753498337485L46.19531250000001,109.95965038646351L46.4484375,109.98433743823658L46.9546875,109.72079788554798L47.081250000000004,109.68469762802124L47.2078125,109.54397951472889L47.5875,109.46307043595746L47.7140625,109.30706438151273L47.840624999999996,109.22920521822843L47.9671875,109.18746549432927L48.2203125,109.01624822616577L48.346875000000004,109.04456064917825L48.6,108.97934233058582L48.7265625,108.87033182924444L48.853125,108.80883479118347L48.9796875,108.64617263187061L49.359375,108.31288784200495L49.4859375,108.22643520615317L49.612500000000004,108.08264799551532L49.7390625,108.06308249993756L50.11875,77.96895256909457L50.4984375,83.8289144039154L50.625,84.30291730707343L50.751562500000006,84.97338080406189L51.0046875,84.5708303234794L51.131249999999994,84.63879164782438L51.2578125,84.3438897566362L51.384375,85.03257601911372L51.6375,84.56630340489474L51.890625,84.89763164520264L52.143750000000004,85.41866846518084L52.396874999999994,85.70021978291598L52.65,85.85996629975058L52.7765625,85.62955381653525L53.0296875,85.60223885016009L53.15625,85.5749238837849L53.282812500000006,85.43242185766047L53.409375,85.54020472006366L53.535937499999996,85.68163256211716L53.7890625,85.92474343559958L53.915625,86.11560292677447L54.421875,86.33306765556335L54.801562499999996,86.50800620425831L55.18125,86.76243437420239L55.3078125,86.81167420473966L55.434375,86.84060044722125L55.5609375,86.94790376316418L55.6875,86.85141901536423L55.940625,86.86966096271168L56.067187499999996,86.94328093528748L56.3203125,86.98034028573471L56.446875,87.0706484751268L56.573437500000004,87.06729164990512L56.7,87.15268928354438L57.332812499999996,87.17127650434321L57.459375,87.02691383795306L57.5859375,87.03778995167126L57.965625,87.09335979548368L58.0921875,87.06568037379871L58.21874999999999,87.07515621185303L58.3453125,87.12610322778876L58.598437499999996,87.20618748664856L59.3578125,87.1278104131872L59.6109375,87.2515333999287L59.7375,87.28281901099466L60.1171875,87.33259593356739L60.24375,87.31748062914069L60.370312500000004,87.38948932561007L60.623437499999994,87.19423718885943L60.8765625,87.0125274441459L61.1296875,87.11772075566378L61.25625,87.12410831451416L61.509375,87.24088746851142L61.7625,87.29735885966907L61.889062499999994,87.40686808932911L62.1421875,71.82607750459152L62.26875,69.790748054331L62.775000000000006,69.58116706934842L62.901562500000004,69.22217858921398L63.028124999999996,69.16580310734837L63.154687499999994,68.93723208254035L63.28125,68.6728101643649L63.9140625,69.94452901320025L64.1671875,69.99883285435764L64.29375,69.65753004767679L64.4203125,69.65409649502148L64.546875,69.75315161184832L64.9265625,70.08658985658127L65.05312500000001,69.92991243709217L65.30625,69.91936241496693L65.4328125,70.02770155126399L65.6859375,69.85721319372004L65.8125,70.03800220922992L66.1921875,70.21867613358933L66.4453125,70.27537770704791L67.078125,70.91919760270554L67.2046875,71.09421287883411L67.33125,71.25119720805775L67.4578125,71.22177223725754L67.58437500000001,71.24895293062384L68.090625,71.42218429392035L68.2171875,71.48375805941495L68.4703125,72.0519822510806L68.85000000000001,71.95204476876694L68.9765625,72.02660465240479L69.10312499999999,71.99735231833026L69.2296875,71.99042766744441L69.4828125,72.02526192231613L69.609375,72.01820299842142L69.73593749999999,72.09094060551037L69.98906249999999,72.30642960288309L70.11562500000001,72.30804087898947L70.2421875,72.46506357192993L70.36875,72.44582416794516L70.621875,72.59925985336304L70.7484375,72.67848092859442L71.0015625,72.64809686487372L71.2546875,72.74112887815997L71.38125,72.7257066639987L71.5078125,72.77533013170417L71.63437499999999,72.72797012329102L71.76093750000001,72.79199916666205L71.8875,72.80260673436253L72.0140625,72.8180673122406L72.7734375,72.89358628879894L72.9,72.96774335341021L73.153125,72.83571462197739L73.2796875,72.77648104320873L73.7859375,72.83874535560608L74.0390625,72.89765284278177L74.16562499999999,72.84630300781943L74.29218750000001,72.86256922375073L74.671875,59.321443189274184L74.79843749999999,59.58151082559067L74.925,60.635247035460054L75.0515625,60.85733459212564L75.17812500000001,60.02699030529369L75.3046875,59.76187784021552L75.43125,59.781692699952565L75.5578125,59.71641683578491L75.68437499999999,59.626242919401705L75.8109375,60.226174723018296L75.9375,59.55007175965744L76.190625,58.90113030780446L76.3171875,59.21899288350887L76.5703125,59.41155956008218L76.8234375,59.88855483315207L77.0765625,60.535443826155245L77.203125,60.263675256208955L77.5828125,60.567496711557574L77.70937500000001,60.648731881921954L77.8359375,60.39276916330512L77.9625,60.46053866906601L78.34218750000001,60.75175764343955L78.46875,60.83702100406993L78.721875,61.188777923583984L78.8484375,61.19877167181536L79.228125,61.27734056386082L79.3546875,61.334502501921236L79.86093749999999,61.50046394088052L79.98750000000001,61.42987470193344L80.3671875,61.302929162979126L80.49374999999999,61.25859988819469L80.6203125,61.216054526242345L80.74687499999999,61.111954580653794L80.87343750000001,61.042880708521075L81,61.120816599239L81.1265625,61.27795438332993L81.253125,61.30484734882008L81.50625,61.38404924219306L81.63281249999999,61.37298130989075L81.759375,61.451051473617554L81.8859375,61.47280370105397L82.39218749999999,61.45231747627258L82.51875000000001,61.4909689209678L82.6453125,61.443014274943955L82.77187500000001,61.51070705327122L82.8984375,61.63561931523411L83.1515625,61.851741313934326L83.40468750000001,61.80413194136187L83.6578125,62.10194947502829L83.784375,61.9764233935963L83.9109375,62.129724806005314L84.1640625,62.08898253874346L84.290625,61.90372415022417L84.4171875,61.92946620420977L84.6703125,61.949607155539766L84.92343749999999,61.911262620579116L85.05000000000001,61.930674661289565L85.4296875,61.894727858630105L85.55624999999999,61.99940325997092L85.93593750000001,61.97153201970188L86.0625,62.03191650997508L86.1890625,61.95394225554033L86.315625,61.84794330596924L86.44218749999999,61.823850891806856L86.56875,34.863633806055255L86.6953125,49.32213221896779L86.9484375,53.125549468127176L87.075,53.79791196909818L87.2015625,54.20917101339861L87.328125,52.78603057427841L87.58125000000001,51.28361151435159L87.9609375,49.679777969013564L88.08749999999999,50.259261911565616L88.46718750000001,50.18451020934366L88.846875,50.00149609825829L88.97343749999999,49.78518228097397L89.10000000000001,49.71012366901744L89.4796875,50.079911535436466L89.7328125,49.84023421460933L89.859375,50.24178723855454L89.9859375,50.55448989434677L90.1125,50.459156058051384L90.2390625,51.00514847582038L90.365625,50.941196159882985L90.4921875,50.80387323552913L90.74531250000001,50.73612291162665L90.871875,50.95847901430997L90.99843750000001,51.1796266599135L91.125,51.26611765948209L91.25156249999999,51.423773353750065L91.378125,51.330626249313354L91.63125000000001,51.258464097976685L92.5171875,51.77928991751238L92.896875,51.87433602593163L93.0234375,51.74886749007486L93.14999999999999,51.80562660910867L93.27656250000001,52.00406293435532L93.403125,52.17288247021763L93.52968750000001,52.11675635251133L93.65625,52.299041552977144L93.78281249999999,52.36936224590648L93.909375,52.395756483078L94.03593749999999,52.441677852110445L94.16250000000001,52.4325472875075L94.2890625,52.522414294156164L94.5421875,52.534326228228494L94.66875,52.60585537823765L95.0484375,52.831625851717874L95.3015625,52.885910511016846L95.5546875,52.89193361455745L95.68124999999999,52.97846297784287L95.80781250000001,52.90311663801021L96.5671875,53.126431833614L96.69375000000001,53.18631759556858L96.8203125,53.1654285517606L97.3265625,53.20014771548185L97.453125,53.25502701239153L97.70625,53.196752526543364L97.959375,53.24814072522251L98.33906250000001,53.420432177456945L98.84531249999999,34.29903498562901L99.3515625,42.4682432087985L99.478125,42.79941799423913L99.6046875,42.45932364463806L99.85781250000001,43.846766645258135L99.984375,44.79036062413997L100.1109375,44.777067596262164L100.2375,44.2712036262859L100.3640625,44.26949644088745L100.6171875,45.13398443568837L100.8703125,45.026048118417926L100.996875,45.58318519592285L101.1234375,45.68575059283864L101.25,45.86074668710883L101.50312500000001,46.38742297345943L101.6296875,46.417749491604894L101.75625000000001,46.325024388053215L102.009375,46.20905087210916L102.38906250000001,46.455556934530094L102.6421875,46.124976786700174L103.021875,46.01671437783676L103.14843750000001,46.035531780936516L103.4015625,45.97054364464501L103.528125,45.99985352429478L103.6546875,45.74463889815591L103.90781249999999,45.889768838882446L104.1609375,45.88833019950174L104.28750000000001,46.08239306103099L104.6671875,45.88579819419168L104.79374999999999,46.055039730939L104.92031250000001,46.125839970328606L105.046875,46.15302066369492L105.553125,46.553000775250524L105.67968749999999,46.65859690579502L105.80625,46.69502325491472L106.059375,46.56773244250905L106.43906249999999,46.4525645646182L106.56562500000001,46.56742553277451L106.6921875,46.62700438499451L106.81875,46.7545253797011L106.9453125,46.60314215313304L107.07187499999999,46.63484976508401L107.578125,46.572719725695535L107.83125,46.69362297925083L107.9578125,46.637631134553395L108.084375,46.65443444252014L108.2109375,46.530155181884766L108.3375,46.60663325136359L108.7171875,46.61396072127603L108.84375,46.59938250888478L108.97031249999999,46.60517543012447L109.85625,46.996581250971026L110.2359375,46.90986006910152L110.86875,47.065655123103745L110.9953125,47.04062279787931L111.121875,30.203420487317178L111.5015625,32.73897444118153L111.7546875,35.05008146979593L111.88125,36.441897934133365L112.0078125,37.732223185625955L112.13437499999999,37.97529569539158L112.3875,36.88321495056152L112.51406250000001,37.24055379087276L113.02031249999999,38.05741323124278L113.14687500000001,37.679473074999734L113.2734375,37.61855149269104L113.4,37.78035046837548L113.5265625,37.720503070137724L113.653125,37.86164318431508L113.90625,38.30219292640686L114.2859375,38.43345438350331L114.4125,38.349706389687285L114.66562499999999,38.944957819851965L115.171875,38.73217346451501L115.29843749999999,38.980118166316636L115.55156249999999,39.07276654243469L115.93125,39.37083344026047L116.184375,39.29414437033914L116.43749999999999,39.19633607430893L116.5640625,39.38600629026241L116.690625,39.621290965513765L116.94375,39.54371953010559L117.0703125,39.68482128056614L117.19687499999999,39.55530537258495L117.32343750000001,39.68236600268971L117.45,39.796459696509636L117.57656250000001,39.78142111951656L117.703125,39.805187442085966L117.95625,39.88695970448582L118.08281249999999,39.87136485359887L118.20937500000001,39.94872528856452L118.8421875,40.02355371822011L118.96875,39.97540725361217L119.0953125,40.04260130362078L119.3484375,40.023707173087395L119.475,39.966372598301284L119.6015625,39.97619370980698L119.72812499999999,40.05019731955095L120.6140625,40.566707220944494L120.99375,40.73286047848789L121.1203125,40.802317987788804L121.3734375,41.08396521481602L122.00625,40.98341391303323L122.1328125,40.97019761258907L122.259375,40.9935994798487L122.5125,40.97668108073148L122.6390625,41.021182992241606L122.765625,40.9648458740928L122.89218749999999,41.00852296569131L123.01875,41.110819816589355L123.1453125,41.19834663651208L123.27187500000001,41.18413287943061L123.525,35.461206241087496L123.6515625,35.15636814724315L123.90468750000001,33.511638879776L124.03125,33.352813092145055L124.1578125,31.94657187028366L124.284375,32.84884812615136L124.4109375,33.63800896297801L124.5375,34.3485241803256L124.9171875,35.001493822444566L125.1703125,35.1365149237893L125.296875,35.12774881449613L125.55000000000001,34.526896281675874L125.80312500000001,34.797398848967134L126.05624999999999,35.09203219413757L126.1828125,34.85893425074491L126.30937499999999,35.100990122014835L126.5625,35.20198260654103L126.6890625,35.61402810703624L127.19531250000001,35.651490276510074L127.321875,35.71939405527982L127.4484375,35.66067838668823L127.575,35.783730008385405L127.95468749999999,35.75248276103627L128.08125,35.88136566768993L128.334375,35.75622322342614L128.9671875,35.85107751326128L129.09375,35.99919982389971L129.346875,35.822784272107214L129.47343750000002,35.731766353953965L129.6,35.83003501458603L129.853125,35.79792458360846L129.97968749999998,35.752329306168996L130.10625000000002,35.91015763716265L130.2328125,35.9595509225672L130.4859375,36.15925325046886L130.7390625,36.28385860269721L130.865625,36.255642088976785L131.11875,36.286505699157715L131.2453125,36.29160807349466L131.371875,36.37846352837304L131.625,36.43428273634478L131.7515625,36.50306888060137L132.00468750000002,36.523612650957986L132.13125,36.69759210673246L132.384375,36.8014618700201L133.0171875,36.81496589834041L133.14375,36.74510557001288L133.5234375,36.814620624889024L133.7765625,37.11067342758179L133.903125,37.152643333781846L134.2828125,37.27276013114236L134.409375,37.25601436875085L134.5359375,37.321155959909625L134.915625,37.32410996610469L135.04218749999998,37.351041295311674L135.5484375,49.42206970128147L135.67499999999998,32.93372784961354L136.940625,29.74710325761276L137.19375,30.242781660773552L137.3203125,30.552146673202515L137.446875,30.71367710286922L137.57343749999998,30.80502111261542L137.70000000000002,30.814995678988385L137.8265625,31.02419302680276L138.0796875,31.400119087912834L138.3328125,31.507422403855763L138.7125,31.026514031670313L138.965625,31.498234293677605L139.0921875,31.680231766267262L139.47187499999998,31.948758602142334L139.5984375,31.705168182199664L139.8515625,31.721338488838892L140.1046875,31.813775864514444L140.23125000000002,31.932223840193327L140.35781250000002,32.12899134375833L140.6109375,32.00110589374196L140.7375,32.0251023986123L140.990625,31.761524482206877L141.1171875,31.82582207159563L141.37031249999998,32.260406255722046L141.496875,32.28436439687557L141.6234375,32.41614376414906L141.74999999999997,32.403157646005816L141.8765625,32.4308754314076L142.003125,32.55991179292853L142.25625,32.788214271718815L142.7625,32.93602967262268L142.8890625,32.8052861257033L143.015625,32.808355223048835L143.14218749999998,32.838106285442024L143.26874999999998,32.86687907305631L143.39531250000002,32.88176419518212L143.52187500000002,32.85790196332066L143.6484375,33.023153673518806L143.775,33.10914594476874L144.28125,33.09038608724422L144.53437499999998,33.20066259124063L144.6609375,33.1865255615928L145.04062499999998,33.03383796865291L145.546875,33.12301442839883L145.6734375,33.035909609361134L145.9265625,33.0445030819286L146.1796875,33.20580332929439L146.30625,33.335626147010124L146.43281249999998,33.336239966479226L146.8125,33.342531616037554L146.9390625,33.410032575780704L147.065625,33.44954720410435L147.19218750000002,33.40957221117887L147.31875,33.32288939302619L147.4453125,33.2851011319594L147.571875,33.248118508945815L147.825,10.727274006063316L147.9515625,17.63811395385049L148.33124999999998,26.10095806555315L148.9640625,27.07771747762508L149.2171875,26.877516421404767L149.34375,27.603108579462237L149.59687499999998,28.01843417774549L149.7234375,28.763822013681597L149.85,28.70203724774449L150.2296875,27.67970174009151L150.35625000000002,27.941112106496647L150.4828125,27.932461088353946L150.609375,27.85243437506936L150.7359375,27.986438837918374L150.9890625,28.079585942355084L151.2421875,27.908598856492482L151.36874999999998,28.031151749870997L151.49531249999998,27.939424102956607L151.74843750000002,28.31331688707526L151.875,28.208910031752165L152.128125,28.346731684424675L152.25468750000002,28.3870135870847L152.38125,28.46938048709523L152.5078125,28.25615494901485L152.634375,28.043562412261963L152.76093749999998,28.04649723659864L153.39375,27.91391223127193L153.646875,28.21990123662083L153.9,28.309000968933105L154.0265625,28.509950117631398L154.153125,28.670924273404214L154.5328125,28.876093430952604L154.7859375,29.02473365176808L155.2921875,29.32588882879778L155.5453125,29.314072804017506L155.671875,29.314897623929117L155.925,29.38529504429212L156.43124999999998,29.472514954480264L156.55781249999998,29.459375381469727L156.68437500000002,29.538155273957692L156.81093750000002,29.518800778822477L156.9375,29.577900084582257L157.44375,29.740773244337614L157.696875,29.782570513811994L157.82343749999998,29.797609090805054L158.203125,29.855193029750495L158.58281250000002,29.92758536338806L158.709375,29.795211358503874L159.0890625,29.897911028428517L159.3421875,30.01403799923985L159.46875,30.163925040851943L159.5953125,30.12517768686469L159.8484375,30.13457679748535L160.228125,23.505345713008552L160.3546875,22.164744810624562L160.48125000000002,21.01391003348611L160.734375,21.85221479155801L160.8609375,21.33956044370479L160.98749999999998,21.817821719429713L161.1140625,22.466916626149967L161.240625,22.304388739845972L161.3671875,22.44017711552708L161.74687500000002,23.500109065662734L161.87343750000002,23.876111854206435L162.1265625,24.540341247211806L162.253125,24.563186840577565L162.3796875,24.648699565367277L162.759375,25.025738174265094L162.88593749999998,25.057675968516975L163.0125,25.326260349967278L163.51875,25.66480096903715L163.64531250000002,25.780429211529825L163.771875,26.051679871299065L164.4046875,26.228690060702252L164.65781249999998,26.05908406864515L164.91093750000002,26.241177450526862L165.03750000000002,26.187928611581988L165.1640625,26.325884537263356L165.54375000000002,26.41525281559339L165.6703125,26.373110272667628L165.796875,26.377004189924772L165.9234375,26.207820198752678L166.04999999999998,26.26578777486629L166.1765625,26.420853918248966L166.303125,26.585894628004606L166.4296875,26.537422071803718L166.6828125,26.759989174929547L167.0625,27.110844547098345L167.1890625,27.029762831601236L167.315625,27.126305124976433L167.4421875,27.095844333822086L167.821875,27.30460049889306L167.94843749999998,27.170289126309488L168.20156250000002,27.082493760369044L168.328125,27.006840510801847L168.4546875,27.048350052400075L168.58125,27.005229234695435L168.70781250000002,26.88704980503431L168.9609375,26.980158545754175L169.0875,27.03039583292875L169.2140625,26.996041124517276L169.340625,27.03920030593872L169.59375,26.871800227598722L169.97343750000002,26.844139987772174L170.353125,26.80863436785612L170.4796875,26.966366789557732L170.7328125,27.070716099305592L170.859375,27.121068477630615L170.9859375,27.081937486475177L171.11249999999998,27.05748061700302L171.2390625,26.979026816108025L171.365625,26.97425053336404L171.61875,27.013323978944264L172.125,27.03181529045105L172.2515625,27.097666610370986L172.5046875,19.15367258678785L172.7578125,22.552947261116724L173.01093749999998,22.893233429301887L173.1375,23.73171082409947L173.77031250000002,22.26182419603522L173.896875,21.77821118181403L174.0234375,21.86188244819641L174.27656249999998,20.92532821135088L174.403125,21.06892360340467L174.5296875,21.875846841118555L175.03593750000002,22.088017376986432L175.2890625,21.904907356609016L175.5421875,21.59404615922409L175.7953125,21.603330178694303L175.921875,21.929172407497077L176.0484375,22.057422312823224L176.428125,22.174124739386833L176.55468749999997,22.18457885222002L176.68125,22.263876654885035L176.8078125,22.507467074827726L176.93437500000002,22.573663668199025L177.0609375,22.42329708012669L177.440625,22.33225998011503L177.5671875,22.057575767690494L177.94687499999998,22.313730304891422L178.07343749999998,22.23928551240402L178.20000000000002,22.279855142940193L178.453125,22.191004774787224L178.5796875,22.213927095586612L178.959375,22.338494084098137L179.0859375,22.342004364187076L179.2125,22.426193540746524L179.465625,22.536067225716334L179.5921875,22.647341186350054L179.971875,22.72086524963379L180.09843750000002,22.724241256713867L180.225,22.70828195051714L180.478125,22.771025809374738L180.8578125,22.74242565848611L180.984375,22.803654150529347L181.3640625,22.96587512709878L181.49062500000002,23.009609764272525L181.6171875,23.041240648789845L182.1234375,23.53212358734826L182.3765625,23.522053111683242L182.50312499999998,23.569509029388428L182.6296875,23.615814035589054L182.75625,23.57835186611524L182.8828125,23.62824387983843L183.00937499999998,23.719664617018278L183.13593749999998,23.76673689755528L183.515625,24.010365681214772L183.6421875,24.123807191848755L183.76875,24.110648436979826L183.8953125,24.15039324760437L184.1484375,24.223034945401285L184.40156249999998,24.393446575511604L184.528125,24.428223284808087L184.9078125,14.422620664943366L185.034375,14.639107118953376L185.4140625,17.046238530765883L185.540625,16.423192587765786L185.79375,16.839880097996108L185.9203125,17.906448971141486L186.29999999999998,19.84621440280568L186.9328125,20.10727949575945L187.05937500000002,20.167970895767212L187.1859375,19.85874015634711L187.4390625,19.77593207359314L187.6921875,19.706378655000172L187.81875,19.8923084085638L188.07187499999998,19.793138200586505L188.1984375,19.84583076563749L188.4515625,19.928005847063947L188.7046875,20.24410369179467L188.9578125,20.32861895994707L189.084375,20.367366313934326L189.46406249999998,20.409739039161003L189.7171875,20.218649365685206L189.84375,20.21613654223356L190.096875,20.30293445153671L190.22343750000002,20.24508196657355L190.4765625,20.239480863917976L190.7296875,20.497112404216438L191.23593749999998,20.452974948016095L191.61562500000002,20.499452590942383L191.7421875,20.584447405555046L191.86875,20.506952697580523L192.5015625,20.820595264434814L192.7546875,20.644102985208697L192.88125,20.81284579363737L193.0078125,20.80241086266259L193.134375,20.904688531702227L193.2609375,20.9981809095903L193.5140625,21.06959496844899L194.4,21.2468545220115L195.159375,21.635267972946167L195.5390625,21.642902352593165L195.665625,21.71239822561092L195.91875,21.79309630393982L196.0453125,21.858621532266802L196.425,21.969857129183698L196.55156250000002,22.090069835836246L196.8046875,19.38222442973744L196.93125,22.289868073029957L197.0578125,20.22235146435826L197.184375,21.06309231844816L197.3109375,21.600702264092188L197.5640625,20.2817960435694L198.07031249999997,18.91704518144782L198.196875,18.77272087877448L198.3234375,18.84954422170467L198.45000000000002,19.310311642560098L198.5765625,19.649696263400006L199.0828125,19.376201326196856L199.209375,19.414584224874332L199.46249999999998,19.423599698326807L199.58906249999998,19.68999734791844L200.0953125,19.27902603149414L200.221875,19.324467854066334L200.728125,19.554419972679835L200.85468749999998,19.646684711629703L200.98125,19.58808413418858L201.36093749999998,19.831540281122393L201.4875,19.698610002344317L201.740625,19.524899092587564L202.1203125,19.64294424923985L202.246875,19.477001992138955L202.5,19.451777848330426L202.6265625,19.439981005408562L203.00625000000002,19.096913467754035L203.259375,18.932429031892262L204.271875,19.445217652754362L204.65156249999998,19.516248074444864L204.77812500000002,19.47477689656346L205.03125,19.53138256072998L205.284375,19.548703778873794L205.4109375,19.669031576676808L206.55,19.840670845725334L206.67656250000002,19.905869982459343L206.803125,19.92879230325873L206.9296875,20.016357486898258L207.1828125,20.018716855482634L207.4359375,19.963664921847272L207.5625,20.012617024508405L207.68906249999998,20.041792631149292L207.81562499999998,19.93652259219777L208.1953125,19.90228297493676L208.4484375,19.91996864839035L208.57500000000002,19.952251716093595L208.7015625,19.958217274058967L208.828125,19.976766131140984L208.9546875,19.95727736299689L209.08124999999998,13.409089630300377L209.2078125,9.432594472711767L209.4609375,12.009888150475264L209.58749999999998,10.938197721134554L209.7140625,12.10508771376179L209.84062500000002,13.596189477226973L209.96718750000002,13.013118527152358L210.09375,12.091986504468077L210.2203125,11.7914835106243L210.346875,12.587856726212962L210.4734375,12.191156712445371L210.6,12.375129916451217L210.7265625,12.501864454963027L211.4859375,12.71967445720328L211.865625,13.313525611704076L211.9921875,14.08383068171417L212.2453125,14.241563103415785L212.371875,13.961680607362254L212.87812499999998,14.069636106491108L213.00468750000002,14.146689631722213L213.13125000000002,14.18181161447008L213.2578125,14.34712087024344L213.6375,14.700335610996614L213.7640625,14.791180892424181L213.890625,14.96099788492379L214.0171875,15.061012094671105L214.14374999999998,15.15607738494875L214.396875,15.465461579236143L214.5234375,15.563193147832726L215.0296875,15.667024547403539L215.15625,15.808605844324315L215.2828125,15.77363731644374L215.5359375,15.613967527042757L215.915625,15.588532382791723L216.421875,16.05649300055073L216.5484375,16.172102061184976L216.675,16.057643912055312L216.80156250000002,16.005814530632737L216.928125,16.039382782849422L217.18125,16.17829780145126L217.30781249999998,16.183112447912052L218.19375000000002,16.496237104589298L218.5734375,16.570758624510344L218.8265625,16.662236907265406L219.0796875,16.465584494850855L219.459375,16.647121602838702L219.58593750000003,16.76578057896009L219.96562500000002,16.812162312594342L220.0921875,16.872911258177336L220.3453125,16.769981405951775L220.471875,16.740230343558586L220.97812499999998,16.964025085622623L221.23125,16.945917411284025L221.35781250000002,17.983962860974405L221.7375,13.598568027669762L221.86406250000002,13.013693982904638L221.990625,12.49311752752827L222.24375,13.325284090909117L222.496875,13.356454610824605L222.75,13.82468377460135L222.87656249999998,14.352376699447651L223.12968750000002,15.356508623469978L223.3828125,15.01046789776197L223.509375,15.02606274864894L223.6359375,15.233821457082604L223.8890625,15.3167062672702L224.1421875,15.012501174753393L224.26874999999998,14.990096764131053L224.3953125,14.773898037997194L224.521875,14.762523195960341L224.6484375,14.736934596842016L224.9015625,15.097860444675813L225.1546875,15.00525043227458L225.28125,14.950620499524229L225.4078125,14.960901975631733L225.534375,15.04223305528817L225.6609375,15.165265495126928L226.04062499999998,15.441810347817183L226.6734375,15.376476938074315L227.30625,15.316399357535659L227.43281249999998,15.191832369024132L227.559375,15.22611035000196L228.065625,15.148174459284032L228.19218750000002,15.312562985853747L228.31875,15.514375318180452L229.2046875,15.64293213324116L229.33124999999998,15.599446860226744L229.58437500000002,15.902270858938072L229.7109375,15.995590600100465L229.8375,15.943511854518562L229.9640625,15.857788129286364L230.09062500000002,15.832276257601686L230.4703125,15.671359647404085L230.7234375,15.806495839899267L230.9765625,15.76669348369947L231.2296875,15.652235334569786L231.35625000000002,15.7031823505055L231.7359375,15.785357431931956L231.8625,15.837090904062475L232.36875,15.766079664230366L232.49531249999998,15.697159246964915L232.621875,15.674639745192126L232.7484375,15.732473048296876L233.0015625,15.649051146073802L233.128125,15.520647785880385L233.7609375,12.80532145500185L233.8875,13.79616035114637L234.140625,12.109154267744616L234.39374999999998,11.107611894607563L234.52031250000002,11.94104446064344L234.64687500000002,11.503832361914931L234.7734375,12.25085065581584L235.0265625,11.477092851292024L235.2796875,11.47532812031836L235.40625,11.488103238019102L235.5328125,11.903831655328954L235.7859375,12.416332548314903L236.0390625,12.704616698351808L236.2921875,12.628176992589806L236.671875,12.609167770905955L236.7984375,12.526187051426302L237.3046875,12.908769217404478L237.684375,12.734348578886584L237.9375,12.834477879784346L238.0640625,12.7571174448187L238.190625,12.77115856517447L238.31718750000002,12.720767823132627L238.696875,12.879420974037886L238.8234375,12.917650417848094L238.95,12.710352074016242L239.0765625,12.659078966487556L239.203125,12.842994624918187L239.32968749999998,12.913737318732558L239.70937500000002,12.853640556335469L239.8359375,12.950739123604537L239.9625,13.044039682908519L240.215625,13.235244447534765L240.3421875,13.258358586918245L240.46875,13.207373207265709L240.5953125,13.266146421432515L240.72187499999998,13.471296397122495L240.8484375,13.495695721019416L241.10156250000003,13.709899533878694L241.48125000000002,13.542096636512099L241.734375,13.422305930744539L241.8609375,13.468898664821296L241.9875,13.41791328516876L242.1140625,13.463201652873664L242.62031249999998,13.58138108253481L242.87343750000002,13.622084986079841L243,13.590607556429811L243.37968750000002,13.480350234291793L243.50625,13.523624506863706L243.6328125,13.51547221703966L243.759375,13.582109993154381L244.39218749999998,13.550191380760909L245.4046875,13.796620715748201L245.53125,13.774158759550646L245.6578125,13.73959305069667L246.0375,12.444146243008726L246.290625,13.525696147571932L246.4171875,13.163868752392881L246.54375000000002,12.657832145690938L246.6703125,11.786477045579417L246.796875,12.364694985476442L246.9234375,11.628054076975072L247.05,10.957360397685695L247.303125,10.742734583941408L247.4296875,10.99668320742523L247.80937500000002,10.946599375117946L248.315625,11.848472811959029" fill="none"></path></g></g></g></g></g></g><g transform="translate(51, 177)" clip-path="url(#clip_1)"><clipPath id="clip_1"><rect width="278" height="23"></rect></clipPath><g><g><line x1="0" y1="0" x2="0" y2="5" style="visibility: inherit;" fill="rgb(0, 0, 0)" stroke="rgb(204, 204, 204)" stroke-width="1px"></line><line x1="25.3125" y1="0" x2="25.3125" y2="5" style="visibility: inherit;" fill="rgb(0, 0, 0)" stroke="rgb(204, 204, 204)" stroke-width="1px"></line><line x1="50.625" y1="0" x2="50.625" y2="5" style="visibility: inherit;" fill="rgb(0, 0, 0)" stroke="rgb(204, 204, 204)" stroke-width="1px"></line><line x1="75.9375" y1="0" x2="75.9375" y2="5" style="visibility: inherit;" fill="rgb(0, 0, 0)" stroke="rgb(204, 204, 204)" stroke-width="1px"></line><line x1="101.25" y1="0" x2="101.25" y2="5" style="visibility: inherit;" fill="rgb(0, 0, 0)" stroke="rgb(204, 204, 204)" stroke-width="1px"></line><line x1="126.5625" y1="0" x2="126.5625" y2="5" style="visibility: inherit;" fill="rgb(0, 0, 0)" stroke="rgb(204, 204, 204)" stroke-width="1px"></line><line x1="151.875" y1="0" x2="151.875" y2="5" style="visibility: inherit;" fill="rgb(0, 0, 0)" stroke="rgb(204, 204, 204)" stroke-width="1px"></line><line x1="177.1875" y1="0" x2="177.1875" y2="5" style="visibility: inherit;" fill="rgb(0, 0, 0)" stroke="rgb(204, 204, 204)" stroke-width="1px"></line><line x1="202.5" y1="0" x2="202.5" y2="5" style="visibility: inherit;" fill="rgb(0, 0, 0)" stroke="rgb(204, 204, 204)" stroke-width="1px"></line><line x1="227.8125" y1="0" x2="227.8125" y2="5" style="visibility: inherit;" fill="rgb(0, 0, 0)" stroke="rgb(204, 204, 204)" stroke-width="1px"></line><line x1="253.125" y1="0" x2="253.125" y2="5" style="visibility: inherit;" fill="rgb(0, 0, 0)" stroke="rgb(204, 204, 204)" stroke-width="1px"></line><line x1="278.4375" y1="0" x2="278.4375" y2="5" style="visibility: inherit;" fill="rgb(0, 0, 0)" stroke="rgb(204, 204, 204)" stroke-width="1px"></line></g><g transform="translate(0, 8)"><text x="0" y="0" dx="0em" dy="0.95em" style="text-anchor: middle; visibility: hidden; font-family: Roboto, sans-serif; font-size: 12px; font-weight: 200;" fill="rgb(33, 33, 33)" stroke="none" stroke-width="1px">-20k</text><text x="25.3125" y="0" dx="0em" dy="0.95em" style="text-anchor: middle; visibility: inherit; font-family: Roboto, sans-serif; font-size: 12px; font-weight: 200;" fill="rgb(33, 33, 33)" stroke="none" stroke-width="1px">0</text><text x="50.625" y="0" dx="0em" dy="0.95em" style="text-anchor: middle; visibility: hidden; font-family: Roboto, sans-serif; font-size: 12px; font-weight: 200;" fill="rgb(33, 33, 33)" stroke="none" stroke-width="1px">20k</text><text x="75.9375" y="0" dx="0em" dy="0.95em" style="text-anchor: middle; visibility: inherit; font-family: Roboto, sans-serif; font-size: 12px; font-weight: 200;" fill="rgb(33, 33, 33)" stroke="none" stroke-width="1px">40k</text><text x="101.25" y="0" dx="0em" dy="0.95em" style="text-anchor: middle; visibility: hidden; font-family: Roboto, sans-serif; font-size: 12px; font-weight: 200;" fill="rgb(33, 33, 33)" stroke="none" stroke-width="1px">60k</text><text x="126.5625" y="0" dx="0em" dy="0.95em" style="text-anchor: middle; visibility: inherit; font-family: Roboto, sans-serif; font-size: 12px; font-weight: 200;" fill="rgb(33, 33, 33)" stroke="none" stroke-width="1px">80k</text><text x="151.875" y="0" dx="0em" dy="0.95em" style="text-anchor: middle; visibility: hidden; font-family: Roboto, sans-serif; font-size: 12px; font-weight: 200;" fill="rgb(33, 33, 33)" stroke="none" stroke-width="1px">100k</text><text x="177.1875" y="0" dx="0em" dy="0.95em" style="text-anchor: middle; visibility: inherit; font-family: Roboto, sans-serif; font-size: 12px; font-weight: 200;" fill="rgb(33, 33, 33)" stroke="none" stroke-width="1px">120k</text><text x="202.5" y="0" dx="0em" dy="0.95em" style="text-anchor: middle; visibility: hidden; font-family: Roboto, sans-serif; font-size: 12px; font-weight: 200;" fill="rgb(33, 33, 33)" stroke="none" stroke-width="1px">140k</text><text x="227.8125" y="0" dx="0em" dy="0.95em" style="text-anchor: middle; visibility: inherit; font-family: Roboto, sans-serif; font-size: 12px; font-weight: 200;" fill="rgb(33, 33, 33)" stroke="none" stroke-width="1px">160k</text><text x="253.125" y="0" dx="0em" dy="0.95em" style="text-anchor: middle; visibility: hidden; font-family: Roboto, sans-serif; font-size: 12px; font-weight: 200;" fill="rgb(33, 33, 33)" stroke="none" stroke-width="1px">180k</text><text x="278.4375" y="0" dx="0em" dy="0.95em" style="text-anchor: middle; visibility: hidden; font-family: Roboto, sans-serif; font-size: 12px; font-weight: 200;" fill="rgb(33, 33, 33)" stroke="none" stroke-width="1px">200k</text></g><line x1="0" y1="0" x2="278.4375" y2="0" fill="rgb(0, 0, 0)" stroke="rgb(204, 204, 204)" stroke-width="1px"></line></g></g></g></g></svg>