<svg width="200" height="200" viewBox="0 0 330 200" xmlns="http://www.w3.org/2000/svg"><g><g><g><g><g><line x1="51.5625" y1="177" x2="46.5625" y2="177" style="visibility: inherit;" fill="rgb(0, 0, 0)" stroke="rgb(204, 204, 204)" stroke-width="1px"></line><line x1="51.5625" y1="159.29999999999998" x2="46.5625" y2="159.29999999999998" style="visibility: inherit;" fill="rgb(0, 0, 0)" stroke="rgb(204, 204, 204)" stroke-width="1px"></line><line x1="51.5625" y1="141.6" x2="46.5625" y2="141.6" style="visibility: inherit;" fill="rgb(0, 0, 0)" stroke="rgb(204, 204, 204)" stroke-width="1px"></line><line x1="51.5625" y1="123.89999999999999" x2="46.5625" y2="123.89999999999999" style="visibility: inherit;" fill="rgb(0, 0, 0)" stroke="rgb(204, 204, 204)" stroke-width="1px"></line><line x1="51.5625" y1="106.19999999999997" x2="46.5625" y2="106.19999999999997" style="visibility: inherit;" fill="rgb(0, 0, 0)" stroke="rgb(204, 204, 204)" stroke-width="1px"></line><line x1="51.5625" y1="88.5" x2="46.5625" y2="88.5" style="visibility: inherit;" fill="rgb(0, 0, 0)" stroke="rgb(204, 204, 204)" stroke-width="1px"></line><line x1="51.5625" y1="70.79999999999998" x2="46.5625" y2="70.79999999999998" style="visibility: inherit;" fill="rgb(0, 0, 0)" stroke="rgb(204, 204, 204)" stroke-width="1px"></line><line x1="51.5625" y1="53.10000000000001" x2="46.5625" y2="53.10000000000001" style="visibility: inherit;" fill="rgb(0, 0, 0)" stroke="rgb(204, 204, 204)" stroke-width="1px"></line><line x1="51.5625" y1="35.39999999999999" x2="46.5625" y2="35.39999999999999" style="visibility: inherit;" fill="rgb(0, 0, 0)" stroke="rgb(204, 204, 204)" stroke-width="1px"></line><line x1="51.5625" y1="17.699999999999978" x2="46.5625" y2="17.699999999999978" style="visibility: inherit;" fill="rgb(0, 0, 0)" stroke="rgb(204, 204, 204)" stroke-width="1px"></line><line x1="51.5625" y1="0" x2="46.5625" y2="0" style="visibility: inherit;" fill="rgb(0, 0, 0)" stroke="rgb(204, 204, 204)" stroke-width="1px"></line></g><g transform="translate(41.5625, 0)"><text x="0" y="177" dx="0em" dy="0.3em" style="text-anchor: end; visibility: hidden; font-family: Roboto, sans-serif; font-size: 12px; font-weight: 200;" fill="rgb(33, 33, 33)" stroke="none" stroke-width="1px">0.35</text><text x="0" y="159.29999999999998" dx="0em" dy="0.3em" style="text-anchor: end; visibility: inherit; font-family: Roboto, sans-serif; font-size: 12px; font-weight: 200;" fill="rgb(33, 33, 33)" stroke="none" stroke-width="1px">0.4</text><text x="0" y="141.6" dx="0em" dy="0.3em" style="text-anchor: end; visibility: hidden; font-family: Roboto, sans-serif; font-size: 12px; font-weight: 200;" fill="rgb(33, 33, 33)" stroke="none" stroke-width="1px">0.45</text><text x="0" y="123.89999999999999" dx="0em" dy="0.3em" style="text-anchor: end; visibility: inherit; font-family: Roboto, sans-serif; font-size: 12px; font-weight: 200;" fill="rgb(33, 33, 33)" stroke="none" stroke-width="1px">0.5</text><text x="0" y="106.19999999999997" dx="0em" dy="0.3em" style="text-anchor: end; visibility: hidden; font-family: Roboto, sans-serif; font-size: 12px; font-weight: 200;" fill="rgb(33, 33, 33)" stroke="none" stroke-width="1px">0.55</text><text x="0" y="88.5" dx="0em" dy="0.3em" style="text-anchor: end; visibility: inherit; font-family: Roboto, sans-serif; font-size: 12px; font-weight: 200;" fill="rgb(33, 33, 33)" stroke="none" stroke-width="1px">0.6</text><text x="0" y="70.79999999999998" dx="0em" dy="0.3em" style="text-anchor: end; visibility: hidden; font-family: Roboto, sans-serif; font-size: 12px; font-weight: 200;" fill="rgb(33, 33, 33)" stroke="none" stroke-width="1px">0.65</text><text x="0" y="53.10000000000001" dx="0em" dy="0.3em" style="text-anchor: end; visibility: inherit; font-family: Roboto, sans-serif; font-size: 12px; font-weight: 200;" fill="rgb(33, 33, 33)" stroke="none" stroke-width="1px">0.7</text><text x="0" y="35.39999999999999" dx="0em" dy="0.3em" style="text-anchor: end; visibility: hidden; font-family: Roboto, sans-serif; font-size: 12px; font-weight: 200;" fill="rgb(33, 33, 33)" stroke="none" stroke-width="1px">0.75</text><text x="0" y="17.699999999999978" dx="0em" dy="0.3em" style="text-anchor: end; visibility: inherit; font-family: Roboto, sans-serif; font-size: 12px; font-weight: 200;" fill="rgb(33, 33, 33)" stroke="none" stroke-width="1px">0.8</text><text x="0" y="0" dx="0em" dy="0.3em" style="text-anchor: end; visibility: hidden; font-family: Roboto, sans-serif; font-size: 12px; font-weight: 200;" fill="rgb(33, 33, 33)" stroke="none" stroke-width="1px">0.85</text></g><line x1="51.5625" y1="0" x2="51.5625" y2="177" fill="rgb(0, 0, 0)" stroke="rgb(204, 204, 204)" stroke-width="1px"></line></g></g><g transform="translate(51, 0)" clip-path="url(#clip_0)"><clipPath id="clip_0"><rect width="278" height="177"></rect></clipPath><g><g><g><line x1="0" y1="0" x2="0" y2="177" fill="rgb(0, 0, 0)" stroke="rgb(66, 66, 66)" stroke-width="1px" opacity="0.25"></line><line x1="25.3125" y1="0" x2="25.3125" y2="177" fill="rgb(0, 0, 0)" stroke="rgb(66, 66, 66)" stroke-width="1px" opacity="0.25"></line><line x1="50.625" y1="0" x2="50.625" y2="177" fill="rgb(0, 0, 0)" stroke="rgb(66, 66, 66)" stroke-width="1px" opacity="0.25"></line><line x1="75.9375" y1="0" x2="75.9375" y2="177" fill="rgb(0, 0, 0)" stroke="rgb(66, 66, 66)" stroke-width="1px" opacity="0.25"></line><line x1="101.25" y1="0" x2="101.25" y2="177" fill="rgb(0, 0, 0)" stroke="rgb(66, 66, 66)" stroke-width="1px" opacity="0.25"></line><line x1="126.5625" y1="0" x2="126.5625" y2="177" fill="rgb(0, 0, 0)" stroke="rgb(66, 66, 66)" stroke-width="1px" opacity="0.25"></line><line x1="151.875" y1="0" x2="151.875" y2="177" fill="rgb(0, 0, 0)" stroke="rgb(66, 66, 66)" stroke-width="1px" opacity="0.25"></line><line x1="177.1875" y1="0" x2="177.1875" y2="177" fill="rgb(0, 0, 0)" stroke="rgb(66, 66, 66)" stroke-width="1px" opacity="0.25"></line><line x1="202.5" y1="0" x2="202.5" y2="177" fill="rgb(0, 0, 0)" stroke="rgb(66, 66, 66)" stroke-width="1px" opacity="0.25"></line><line x1="227.8125" y1="0" x2="227.8125" y2="177" fill="rgb(0, 0, 0)" stroke="rgb(66, 66, 66)" stroke-width="1px" opacity="0.25"></line><line x1="253.125" y1="0" x2="253.125" y2="177" fill="rgb(0, 0, 0)" stroke="rgb(66, 66, 66)" stroke-width="1px" opacity="0.25"></line><line x1="278.4375" y1="0" x2="278.4375" y2="177" fill="rgb(0, 0, 0)" stroke="rgb(66, 66, 66)" stroke-width="1px" opacity="0.25"></line></g><g><line x1="0" y1="177" x2="278.4375" y2="177" fill="rgb(0, 0, 0)" stroke="rgb(66, 66, 66)" stroke-width="1px" opacity="0.25"></line><line x1="0" y1="159.29999999999998" x2="278.4375" y2="159.29999999999998" fill="rgb(0, 0, 0)" stroke="rgb(66, 66, 66)" stroke-width="1px" opacity="0.25"></line><line x1="0" y1="141.6" x2="278.4375" y2="141.6" fill="rgb(0, 0, 0)" stroke="rgb(66, 66, 66)" stroke-width="1px" opacity="0.25"></line><line x1="0" y1="123.89999999999999" x2="278.4375" y2="123.89999999999999" fill="rgb(0, 0, 0)" stroke="rgb(66, 66, 66)" stroke-width="1px" opacity="0.25"></line><line x1="0" y1="106.19999999999997" x2="278.4375" y2="106.19999999999997" fill="rgb(0, 0, 0)" stroke="rgb(66, 66, 66)" stroke-width="1px" opacity="0.25"></line><line x1="0" y1="88.5" x2="278.4375" y2="88.5" fill="rgb(0, 0, 0)" stroke="rgb(66, 66, 66)" stroke-width="1px" opacity="0.25"></line><line x1="0" y1="70.79999999999998" x2="278.4375" y2="70.79999999999998" fill="rgb(0, 0, 0)" stroke="rgb(66, 66, 66)" stroke-width="1px" opacity="0.25"></line><line x1="0" y1="53.10000000000001" x2="278.4375" y2="53.10000000000001" fill="rgb(0, 0, 0)" stroke="rgb(66, 66, 66)" stroke-width="1px" opacity="0.25"></line><line x1="0" y1="35.39999999999999" x2="278.4375" y2="35.39999999999999" fill="rgb(0, 0, 0)" stroke="rgb(66, 66, 66)" stroke-width="1px" opacity="0.25"></line><line x1="0" y1="17.699999999999978" x2="278.4375" y2="17.699999999999978" fill="rgb(0, 0, 0)" stroke="rgb(66, 66, 66)" stroke-width="1px" opacity="0.25"></line><line x1="0" y1="0" x2="278.4375" y2="0" fill="rgb(0, 0, 0)" stroke="rgb(66, 66, 66)" stroke-width="1px" opacity="0.25"></line></g></g></g><g><g><line x1="0" y1="300.9" x2="278.4375" y2="300.9" fill="rgb(0, 0, 0)" stroke="rgb(153, 153, 153)" stroke-width="1.5px"></line></g></g><g><g><line x1="25.3125" y1="0" x2="25.3125" y2="177" fill="rgb(0, 0, 0)" stroke="rgb(153, 153, 153)" stroke-width="1.5px"></line></g></g><g><g><g><g><g><path stroke="rgb(255, 112, 67)" stroke-width="2px" d="M37.4625,187.6804356956865L37.96875,172.76305361621178L38.0953125,163.31645682818439L38.475,157.05352392767819L38.854687500000004,152.43968053204532L38.98125,149.69018729413375L39.234375,147.4493525116692L39.3609375,145.89721876675026L39.8671875,144.99643230375077L40.120312500000004,144.34848524055707L40.753125,143.56387595249294L41.259375000000006,142.68440674253142L41.385937500000004,142.12417206828493L41.639062499999994,141.80543458023487L41.8921875,141.5229386160303L42.01875,141.3170772212463L42.1453125,141.18221278057797L42.3984375,140.95212946335255L42.6515625,140.80465619325508L42.778124999999996,140.68039921617427L43.5375,140.43063026246975L43.6640625,140.1797714184377L43.9171875,139.99898598853667L44.043749999999996,139.8565225593085L44.4234375,139.66196149300544L45.309374999999996,139.27290346211797L45.5625,138.9214096759951L45.6890625,138.71559429497697L45.9421875,138.48238061625466L46.19531250000001,138.19918310856048L46.4484375,137.86784082541L46.9546875,137.49897331886964L47.081250000000004,137.24263940151616L47.2078125,137.0366544216638L47.5875,136.859275200949L47.7140625,136.6943752258932L47.840624999999996,136.5622575312802L47.9671875,136.39043790042095L48.2203125,136.18509530746755L48.346875000000004,136.0909698326815L48.7265625,135.90796180244857L48.853125,135.7974311427866L48.9796875,135.6877732560989L49.359375,135.5298599508975L49.4859375,135.36255313560807L49.612500000000004,135.23253192428018L49.7390625,135.13139776899376L50.11875,126.96788672276712L50.4984375,121.46031797688232L50.625,118.37395962691917L50.751562500000006,116.17005239854224L51.0046875,114.39359290915706L51.131249999999994,113.04471498202072L51.2578125,112.16903280657998L51.384375,111.98880334521813L51.6375,111.48171447173051L51.890625,111.33043646845397L52.143750000000004,111.3508668996881L52.396874999999994,111.25750677692832L52.65,110.94839145247902L52.7765625,110.7519586748169L53.0296875,110.56749038852965L53.15625,110.44399746988843L53.282812500000006,110.32399646243233L53.409375,110.30508356929288L53.535937499999996,110.40835971379558L53.7890625,110.54419243540931L53.915625,110.74751528386219L54.421875,110.79700924088922L54.801562499999996,110.69595286089401L55.18125,110.5894137766255L55.434375,110.39077920355162L55.5609375,110.2639011635647L55.6875,110.20394541348612L55.940625,110.24500400498864L56.067187499999996,110.29003868267152L56.3203125,110.25713536360988L56.446875,110.25552253019289L56.573437500000004,110.21145165974781L56.7,110.18768462309174L57.332812499999996,110.11571156006417L57.459375,110.10366294754364L57.5859375,110.08678683979998L57.965625,110.09738985862545L58.0921875,110.08054162124523L58.21874999999999,110.13461057340936L58.3453125,110.15001154897114L58.598437499999996,110.21715909574925L59.6109375,110.19748973807393L59.7375,110.14234019256055L60.1171875,110.17926041207562L60.24375,110.19781709624439L60.370312500000004,110.20967694826787L60.623437499999994,110.18548883383193L60.8765625,110.14303106656502L61.1296875,110.1659599077155L61.25625,110.18572650500832L61.509375,110.27257602065025L61.7625,110.32927709966432L61.889062499999994,110.40395331233462L62.1421875,107.07806917100977L62.775000000000006,102.11021765273709L62.901562500000004,99.3108152020091L63.028124999999996,97.62998368907652L63.154687499999994,96.76681344609666L63.28125,96.0137133270574L63.9140625,94.91281589448882L64.1671875,94.42216655123494L64.29375,93.99910043542539L64.4203125,93.63196196833228L64.546875,93.33227520155295L64.9265625,93.31578592400182L65.05312500000001,93.28282578909653L65.4328125,93.1479869468466L65.6859375,93.11006021162603L65.8125,93.12206016338311L66.1921875,93.09505274269843L66.4453125,93.00177404864947L67.078125,93.06725868692588L67.2046875,93.23668610281103L67.33125,93.36899669662924L67.4578125,93.43792587098963L68.090625,93.5722839306443L68.2171875,93.7004160660892L68.4703125,93.87990908255512L68.85000000000001,93.93165601510007L68.9765625,93.97672304402707L69.10312499999999,94.0697473197634L69.2296875,94.13482058462233L69.4828125,94.17740091095406L69.73593749999999,94.19959841972613L69.98906249999999,94.30108134988559L70.11562500000001,94.36849524166352L70.2421875,94.37156273833614L70.36875,94.39445264048396L70.7484375,94.42806282345667L71.0015625,94.43590650739797L71.2546875,94.47024561990816L71.38125,94.47598621624421L71.5078125,94.4593686519725L71.63437499999999,94.35394151322025L71.76093750000001,94.31200471467959L71.8875,94.26712675420754L72.0140625,94.2654862709541L72.7734375,94.35977290080181L73.153125,94.39867148164623L73.2796875,94.3964795766098L73.7859375,94.38333996879L74.16562499999999,94.39576288668476L74.29218750000001,94.40357111816502L74.79843749999999,88.99341078117428L74.925,85.4697392768558L75.0515625,84.03462019842243L75.17812500000001,82.8110077910505L75.3046875,81.8442840989162L75.43125,81.48606198881446L75.5578125,81.0456874099635L75.68437499999999,80.87026008887665L75.8109375,81.08852645470843L75.9375,81.06534623094886L76.190625,81.13045354240234L76.3171875,81.29908064099008L76.5703125,81.32413638050468L77.0765625,81.71640485534138L77.203125,81.72765815025012L77.5828125,81.81231993058586L77.70937500000001,81.78728343975105L77.8359375,81.61355545241567L77.9625,81.52334596943219L78.34218750000001,81.70093252558326L78.721875,81.98878447949181L78.8484375,82.226044907208L79.228125,82.40024535062058L79.3546875,82.42661949278201L79.86093749999999,82.37099922824672L79.98750000000001,82.35236334043005L80.3671875,82.15878458522117L80.49374999999999,82.07467563928574L80.6203125,81.97207628239042L80.74687499999999,81.94260561554935L80.87343750000001,81.905688415106L81,81.89510091908922L81.1265625,81.87805491905301L81.253125,81.82549219024713L81.50625,81.72809709484892L81.63281249999999,81.69494633063982L81.759375,81.69578455558606L81.8859375,81.73059616250507L82.39218749999999,81.71681997396178L82.51875000000001,81.66333264599814L82.6453125,81.66868016773805L82.77187500000001,81.66781215223278L82.8984375,81.71204031677608L83.1515625,81.76052970154025L83.40468750000001,81.7569182638105L83.6578125,81.80425210498427L83.784375,81.75790761293565L84.1640625,81.74054965961929L84.290625,81.71083256714913L84.4171875,81.7347381991945L84.6703125,81.69591790692819L84.92343749999999,81.616221093278L85.4296875,81.53414497324279L85.55624999999999,81.50743414848121L85.93593750000001,81.50126559429805L86.0625,81.51369333561328L86.1890625,81.45635596451801L86.315625,81.37302675925278L86.44218749999999,81.32697072435967L86.56875,77.80057840591401L86.6953125,76.24857839730815L86.9484375,76.76067205898428L87.075,76.42832683463376L87.2015625,75.71741242730309L87.328125,74.80381568147949L87.58125000000001,73.48917742654211L87.9609375,71.99410003235654L88.46718750000001,70.80962879306504L88.846875,69.94388604430213L88.97343749999999,69.36186610381513L89.10000000000001,68.96155827236596L89.4796875,68.73815232868446L89.7328125,68.50610327694093L89.859375,68.47449251158997L89.9859375,68.51493533697108L90.1125,68.51057249216068L90.2390625,68.58584770862954L90.365625,68.57400051894604L90.4921875,68.57826090897808L90.871875,68.61595293668321L90.99843750000001,68.72189644806035L91.125,68.86555832286149L91.25156249999999,68.9758348182408L91.63125000000001,68.84148277494718L92.5171875,68.94939622434025L92.896875,69.11003977508571L93.0234375,69.18764686615009L93.27656250000001,69.33295932788099L93.403125,69.4417616902497L93.52968750000001,69.47488664023321L93.65625,69.51216492672113L93.78281249999999,69.55328561794369L94.03593749999999,69.60883161742454L94.16250000000001,69.65305527996398L94.2890625,69.72202588648423L94.5421875,69.73618075329557L94.66875,69.74797372030311L95.0484375,69.8992640829509L95.3015625,69.96842341520941L95.5546875,70.00196007787319L95.68124999999999,70.04430464207607L95.80781250000001,70.09159634649443L96.5671875,70.22521838986687L96.69375000000001,70.342392653488L96.8203125,70.44322475568225L97.3265625,70.48817750439507L97.70625,70.62122329607881L97.959375,70.7433858998732L98.33906250000001,70.88368876267175L98.84531249999999,65.40513077431144L99.3515625,60.99549050720464L99.478125,58.93976486439662L99.6046875,58.09365877100922L99.85781250000001,57.87569872253593L99.984375,57.96713991948042L100.1109375,57.90163310520694L100.2375,57.80324045272376L100.3640625,57.87694945962253L100.6171875,58.41032452959435L100.8703125,58.81778815495144L100.996875,59.26908052389127L101.1234375,59.53666561856449L101.25,59.56850640544044L101.50312500000001,59.85367399554696L101.6296875,60.053487489826956L101.75625000000001,60.240364006881414L102.009375,60.43729521496565L102.38906250000001,60.79340335883777L102.6421875,61.053927223432545L103.021875,61.10931581053046L103.14843750000001,61.17581951256338L103.4015625,61.153772003863715L103.6546875,61.112269439348225L103.90781249999999,61.06986330392874L104.1609375,61.01282863642523L104.28750000000001,61.00550617233365L104.6671875,61.01808556947377L104.79374999999999,61.01372434278287L104.92031250000001,61.06591708171343L105.046875,61.13530564491733L105.553125,61.2471428500699L105.80625,61.346232840245186L106.059375,61.42893908311441L106.43906249999999,61.39431457215258L106.56562500000001,61.380502880178156L106.6921875,61.424974415637415L106.81875,61.495325988493754L106.9453125,61.50363338110592L107.07187499999999,61.5038238866195L107.578125,61.43934673446802L107.83125,61.46021320806973L107.9578125,61.456848978919L108.084375,61.458392128898026L108.2109375,61.44866671654779L108.3375,61.46788144167185L108.7171875,61.53079310450503L108.84375,61.581031328401224L108.97031249999999,61.59447146771029L109.85625,61.831563871608225L110.2359375,61.9479168996251L110.86875,62.126436144413745L110.9953125,62.23005352395904L111.121875,57.321619007457066L111.5015625,55.616793578546506L111.7546875,53.72287161450462L111.88125,52.592468648558096L112.0078125,51.89349818551854L112.3875,50.77759500696847L113.02031249999999,50.93812040063494L113.2734375,51.03105118973702L113.4,51.17745545329837L113.5265625,51.407351949347174L113.653125,51.599187800009936L113.90625,51.60674660487167L114.2859375,51.75176598240846L114.4125,51.820656890928205L114.66562499999999,52.02411573604313L115.171875,52.25922820017081L115.29843749999999,52.42343820718133L115.55156249999999,52.50960802547458L115.93125,52.6700342244644L116.184375,52.73105286996001L116.43749999999999,52.80315433168666L116.5640625,52.96548697843701L116.690625,53.134516996708804L116.94375,53.21731632862526L117.19687499999999,53.26371276088974L117.32343750000001,53.31660903280033L117.45,53.408473482042844L117.57656250000001,53.41512956995384L117.703125,53.417055418363894L117.95625,53.411062232417876L118.08281249999999,53.39390321240606L118.20937500000001,53.41351078311075L118.8421875,53.401212835070304L118.96875,53.41286630615998L119.0953125,53.446942405613704L119.3484375,53.51731921000032L119.475,53.506212820784704L119.6015625,53.52489436040907L119.72812499999999,53.524506699863636L120.6140625,53.59825929869627L120.99375,53.67763821166405L121.1203125,53.72905512739208L121.3734375,53.8067051749765L122.00625,53.846281548818276L122.1328125,53.900799677658284L122.259375,53.945664180450564L122.6390625,54.01777917691047L122.765625,54.05545244305121L123.01875,54.16479446464051L123.1453125,54.25789725526137L123.27187500000001,54.32321174945808L123.525,52.475642929115175L123.6515625,51.10496312715906L123.90468750000001,49.58442230187832L124.03125,47.88678791977752L124.1578125,46.97860272203556L124.284375,46.169367129055665L124.4109375,45.7674325886059L124.5375,45.536762806337364L125.1703125,44.78291484627797L125.296875,44.30190157004403L125.55000000000001,44.13470325892095L125.80312500000001,43.96804573312356L126.05624999999999,43.947995065301384L126.1828125,43.91349733749018L126.5625,43.90288452195517L126.6890625,43.952305349632454L127.19531250000001,44.14226754243635L127.321875,44.33712554773964L127.4484375,44.49113422871395L127.575,44.551070689205915L127.95468749999999,44.65833383503233L128.334375,44.910845037118634L128.9671875,45.29186115969183L129.09375,45.527703928404804L129.346875,45.69084135499822L129.47343750000002,45.74255691413419L129.6,45.84920036819179L129.853125,45.98730667606952L129.97968749999998,46.01204405889485L130.10625000000002,46.08535049119932L130.2328125,46.139445491786844L130.7390625,46.417599847409754L130.865625,46.57801052718976L131.11875,46.70004962914958L131.2453125,46.79779978176221L131.371875,46.882546408058815L131.625,47.045815419603336L131.7515625,47.09806569066581L132.13125,47.23489075450266L132.384375,47.40433153598406L133.0171875,47.46918064766464L133.14375,47.55045900352797L133.5234375,47.6185536575794L133.903125,47.78152062609671L134.2828125,47.862606452196104L134.409375,47.90807606118276L134.5359375,47.9278293307862L134.915625,47.943276740088535L135.04218749999998,47.953456707581545L135.5484375,52.61650481449646L135.67499999999998,48.61814446584633L136.940625,45.194425707675485L137.19375,43.32779916621297L137.3203125,42.18985444365174L137.446875,41.5596267202987L137.57343749999998,41.194116352766386L137.8265625,41.11282130168056L138.0796875,41.1373373847376L138.3328125,41.21437656528773L138.7125,41.25500434188261L138.965625,41.34301030128133L139.0921875,41.450235111051356L139.47187499999998,41.66571383388848L139.5984375,41.69047144837385L139.8515625,41.53144477240566L140.1046875,41.44076361675456L140.23125000000002,41.346036958810046L140.35781250000002,41.33501338011998L140.6109375,41.38471947101938L140.7375,41.42051865809074L140.990625,41.38818461747712L141.1171875,41.403557066033756L141.37031249999998,41.491162979549415L141.6234375,41.602030169931815L141.74999999999997,41.77124017951948L142.003125,41.985811782348506L142.25625,42.19016042260429L142.7625,42.33354049031796L142.8890625,42.439335052400004L143.015625,42.52763388170549L143.14218749999998,42.57611464985458L143.26874999999998,42.576363570262465L143.39531250000002,42.59422007964223L143.52187500000002,42.598654612101136L143.775,42.613511157153226L144.28125,42.60741029269587L144.53437499999998,42.58493697456774L144.6609375,42.58331120855959L145.04062499999998,42.54168018369285L145.546875,42.46731058519128L145.9265625,42.34753890848782L146.1796875,42.32902525434865L146.30625,42.34409799677119L146.43281249999998,42.39391536773434L146.9390625,42.44668667829749L147.065625,42.48035818884798L147.19218750000002,42.48427186101692L147.31875,42.413740511477116L147.4453125,42.37619875177154L147.571875,42.37933134975673L147.825,34.38969574894092L147.9515625,31.603735519204044L148.33124999999998,32.56037245318502L148.9640625,33.157995103151855L149.2171875,33.34586089512779L149.34375,33.567439718610466L149.59687499999998,33.92022415373706L149.7234375,34.28827990277997L150.2296875,34.34466804733508L150.4828125,34.56046771568434L150.609375,34.67324472166524L150.7359375,34.92915708003895L150.9890625,35.0312288271097L151.2421875,34.91356038014339L151.36874999999998,34.844765475751416L151.49531249999998,34.840261690236005L151.74843750000002,34.908818488369505L151.875,34.86012545886645L152.128125,34.88049474515327L152.25468750000002,34.835130076156915L152.38125,34.87662145885636L152.5078125,34.928760665612245L152.634375,34.934707256529805L152.76093749999998,34.94165965817814L153.39375,35.05459760726954L153.646875,35.29460425794998L153.9,35.48518026602792L154.0265625,35.69474615056829L154.153125,35.83974580168435L154.7859375,35.98420523285695L155.2921875,36.2438506143083L155.5453125,36.45570488076151L155.671875,36.591274338369004L156.43124999999998,36.78269916379716L156.55781249999998,36.88686899664562L156.68437500000002,36.92229531957247L156.81093750000002,36.99538970204318L156.9375,37.05451432354523L157.44375,37.13126078300042L157.696875,37.232253173901796L157.82343749999998,37.28547203297265L158.58281250000002,37.37382486674102L158.709375,37.40107763298102L159.0890625,37.44534887127725L159.3421875,37.553577225522076L159.46875,37.67415927476635L159.5953125,37.74222941533894L159.8484375,37.78767974934679L160.228125,36.045939119825945L160.3546875,34.06444101820598L160.48125000000002,33.07335929209119L160.734375,32.029490314329415L160.8609375,31.294081698897337L160.98749999999998,30.661307207967536L161.1140625,30.555419807568587L161.240625,30.28771489914382L161.3671875,30.014654038286956L161.74687500000002,30.09947732325599L161.87343750000002,30.088742284990555L162.1265625,30.364434173713445L162.253125,30.624107424622945L162.3796875,30.75787448895347L162.759375,30.98571687705738L162.88593749999998,31.172024293943785L163.0125,31.304064786556093L163.51875,31.348347408844663L163.64531250000002,31.423345803781526L163.771875,31.54519964192163L164.4046875,31.640720191799726L164.65781249999998,31.686419057371076L164.91093750000002,31.761499156666915L165.03750000000002,31.720973876782136L165.1640625,31.754920151035716L165.54375000000002,31.768037940383405L165.6703125,31.826844120812705L165.796875,31.88150610970988L165.9234375,31.906226206109118L166.04999999999998,31.947061958482998L166.1765625,32.04539668474861L166.303125,32.15570438810748L166.4296875,32.226750460318094L166.6828125,32.33201991501534L167.0625,32.442133406299845L167.315625,32.52633065909057L167.4421875,32.612710645973145L167.821875,32.80623809527125L167.94843749999998,32.90422540683009L168.20156250000002,32.98563704120193L168.328125,33.00966192976877L168.4546875,33.05374352512504L168.58125,33.05602871166317L168.70781250000002,33.04363415471702L168.9609375,32.996934458208L169.0875,32.9853135946941L169.2140625,32.97147934219547L169.340625,32.9288869987804L169.59375,32.86505611246098L169.97343750000002,32.90070057574072L170.353125,32.93440123953319L170.4796875,32.989850271689285L170.7328125,33.05303955373013L170.859375,33.09467517076042L170.9859375,33.09962837897599L171.11249999999998,33.12241746546542L171.2390625,33.15237171150275L171.365625,33.135242225510034L171.61875,33.21908761130698L172.125,33.31659986178233L172.2515625,33.38181702613919L172.5046875,28.088620101929237L172.7578125,26.78306050987274L173.01093749999998,26.51529167587296L173.1375,26.84337492045604L173.896875,26.54208658252263L174.0234375,26.42047810384098L174.27656249999998,26.252275856903005L174.403125,26.016305785519364L174.5296875,26.042916415418656L175.03593750000002,26.20020244973031L175.2890625,26.300566482884424L175.5421875,26.41841334363386L175.7953125,26.473406147125722L175.921875,26.51161776015957L176.0484375,26.510558197675923L176.428125,26.647520068752033L176.55468749999997,26.77114611832336L176.68125,26.92466635446568L176.93437500000002,27.150080135707952L177.0609375,27.26503016188436L177.440625,27.479750843254852L177.5671875,27.61287078106889L177.94687499999998,27.829285350111057L178.07343749999998,27.945925463835568L178.20000000000002,27.983474544048423L178.453125,27.929106990909627L178.959375,27.980658755550426L179.0859375,28.000111390262617L179.2125,28.04412511891709L179.465625,28.088459953704994L179.5921875,28.2030480391023L180.09843750000002,28.22767647780401L180.225,28.27083732055081L180.478125,28.214300173321092L180.8578125,28.172545548557494L180.984375,28.20084212558223L181.3640625,28.3045918937728L181.49062500000002,28.419861945879763L182.1234375,28.541419607026757L182.3765625,28.664893029703737L182.50312499999998,28.748818143948323L182.6296875,28.811487198319675L182.75625,28.85036307361518L182.8828125,28.893699880759666L183.00937499999998,28.93554387826961L183.13593749999998,28.98227360212352L183.515625,29.11272261121004L183.6421875,29.24832505689936L183.76875,29.35180781070518L183.8953125,29.444121166373087L184.1484375,29.53372501153036L184.40156249999998,29.62248807202745L184.528125,29.698694316452553L184.9078125,24.85600201124297L185.034375,22.12890144249406L185.4140625,22.079735789660255L185.79375,21.893555909373518L186.29999999999998,22.62214458345063L186.9328125,23.005087554208526L187.05937500000002,23.30075299486642L187.1859375,23.538278945357366L187.6921875,23.549510040325377L188.07187499999998,23.771815189386874L188.4515625,24.034701910415567L188.7046875,24.293866075753716L189.084375,24.689466198491786L189.46406249999998,24.937587294702368L189.7171875,25.075952130391997L189.84375,25.169976814886798L190.096875,25.21979153174211L190.22343750000002,25.239957461464705L190.7296875,25.337174597804715L191.23593749999998,25.48373682464657L191.7421875,25.625749354156866L191.86875,25.669220984335556L192.5015625,25.72988271496044L192.7546875,25.685086783059543L192.88125,25.71387958066943L193.134375,25.806009776218414L193.2609375,25.893613161339566L193.5140625,25.95011668067823L194.4,26.081636037001914L195.5390625,26.27478329036827L195.665625,26.407965238655756L195.91875,26.51961731419873L196.0453125,26.601505190765312L196.425,26.69206996359553L196.55156250000002,26.773037083137776L196.8046875,22.757639111989L197.3109375,21.838949655242683L197.5640625,21.52424215718979L198.07031249999997,20.60988841679616L198.196875,20.21371977226093L198.3234375,19.979090751982678L198.45000000000002,20.0788454042536L198.5765625,20.256149481932038L199.0828125,20.957257775783383L199.209375,21.420671441745675L199.46249999999998,21.61198157941814L199.58906249999998,21.938510826084116L200.0953125,22.125912396224198L200.221875,22.25871910101881L200.728125,22.485808033029517L200.85468749999998,22.71180410044208L201.36093749999998,22.96947815690526L201.740625,22.964701296532695L202.1203125,23.012964807536957L202.246875,22.92332378541632L202.5,22.894116503686952L202.6265625,22.942078231985136L203.00625000000002,22.88355172587319L203.259375,22.813215628343116L204.271875,22.86631864969571L204.65156249999998,22.95923555055047L204.77812500000002,23.034051691048038L205.03125,23.108945638270797L205.284375,23.124325064618365L205.4109375,23.172385241865484L206.55,23.266251684593744L206.67656250000002,23.363741956572266L206.9296875,23.46958461905748L207.1828125,23.446993595988936L207.4359375,23.468026174683178L207.5625,23.492014425741942L207.68906249999998,23.52521173581322L207.81562499999998,23.528942167907026L208.1953125,23.521119926064618L208.4484375,23.529525488429936L208.57500000000002,23.50974673379282L208.7015625,23.525419258766274L208.828125,23.535135054405252L208.9546875,23.54579222191316L209.08124999999998,23.732676300936582L209.2078125,20.40652921768046L209.4609375,18.387099197936156L209.58749999999998,17.033159367699678L209.7140625,16.486993627821967L209.84062500000002,16.689546735927813L209.96718750000002,16.8019718216928L210.09375,16.97517185491751L210.2203125,16.943502990498736L210.346875,17.286924471911536L210.4734375,17.309162215266685L210.6,17.359151418134015L210.7265625,17.551024479344157L211.4859375,17.608342634841584L211.865625,17.658018400195086L211.9921875,17.762973777009762L212.2453125,17.767483000489285L212.371875,17.66487399371398L212.87812499999998,17.833721072864112L213.00468750000002,17.852612547511782L213.13125000000002,17.852274887821064L213.2578125,17.806867557204345L213.6375,17.82515705432685L213.7640625,17.93082775119658L213.890625,17.976463932059506L214.0171875,18.0231817211284L214.14374999999998,18.04369233879888L214.396875,18.114403631886486L214.5234375,18.225565911889426L215.0296875,18.312975083327515L215.15625,18.39084191950334L215.2828125,18.42383855242829L215.5359375,18.37780439412175L215.915625,18.44224761221157L216.421875,18.680925082524677L216.5484375,18.81591942749025L216.675,18.882838084945703L216.928125,18.917376667648327L217.18125,18.99798174285278L217.30781249999998,19.050978357692873L218.19375000000002,19.29012224143762L218.5734375,19.46227087179435L218.8265625,19.624403853414144L219.0796875,19.68185519885877L219.459375,19.748094232749114L219.58593750000003,19.86204228870342L219.96562500000002,19.91838409705321L220.0921875,19.9911229837141L220.3453125,20.06549642015703L220.471875,20.086328072125962L220.97812499999998,20.161578594908264L221.23125,20.196026966133807L221.35781250000002,17.93519040415234L221.7375,17.019603431639382L221.86406250000002,16.374617407570653L221.990625,16.34230065694474L222.24375,16.217942106431856L222.496875,16.055221631351802L223.12968750000002,16.49767451895696L223.3828125,16.77518171676053L223.509375,16.977319790172903L223.6359375,17.2222404535105L223.8890625,17.38330456110773L224.1421875,17.35311487968528L224.26874999999998,17.371453507278922L224.3953125,17.248344802579037L224.521875,17.240286397767512L224.9015625,17.505515041251478L225.1546875,17.623870061814475L225.28125,17.57816606937627L225.4078125,17.536285923592892L225.534375,17.510330714388243L225.6609375,17.57205971098156L226.04062499999998,17.70553275117998L226.6734375,17.867881427822837L227.30625,17.876535407673305L227.43281249999998,17.84925904749095L227.559375,17.90459962176239L228.065625,17.963554460328556L228.19218750000002,18.0573069659005L228.31875,18.17298463387074L229.2046875,18.331239300982865L229.33124999999998,18.426183661232432L229.58437500000002,18.53368910337091L229.7109375,18.61739340892194L229.9640625,18.737752539341184L230.4703125,18.745908283248276L230.7234375,18.752599453362645L230.9765625,18.742434925694965L231.2296875,18.7072012679933L231.35625000000002,18.684246469566716L231.7359375,18.670363870280667L231.8625,18.663291873346385L232.36875,18.63928215373194L232.49531249999998,18.59980946939368L232.621875,18.591478250987414L232.7484375,18.607739924530435L233.0015625,18.57908640810265L233.128125,18.532210755994424L233.7609375,18.638585486799776L233.8875,18.235778626674595L234.140625,17.29940509371412L234.39374999999998,15.69041109783917L234.52031250000002,14.711046471020394L234.64687500000002,14.2212559400921L234.7734375,14.312491189177328L235.0265625,14.156079975804985L235.2796875,13.989682855630717L235.7859375,14.008992313399757L236.0390625,14.311648878487834L236.2921875,14.381859903951218L236.671875,14.391382730853378L236.7984375,14.28004182151069L237.3046875,14.368904962367454L237.684375,14.315676063434255L237.9375,14.29214498170374L238.0640625,14.39194125156498L238.190625,14.471366094475378L238.31718750000002,14.502993406608923L238.696875,14.668868301960979L238.8234375,14.768004998357997L238.95,14.846544576163232L239.0765625,14.926044230744338L239.203125,15.021548283746894L239.32968749999998,15.152835910708353L239.70937500000002,15.15280404161849L239.8359375,15.181497860380636L239.9625,15.213155021922928L240.215625,15.249164394531928L240.3421875,15.250632135864661L240.46875,15.225340285775996L240.5953125,15.263598927782748L240.8484375,15.322010627345321L241.10156250000003,15.501365069720773L241.48125000000002,15.602647721870945L241.734375,15.701355192723408L241.8609375,15.729436009921136L241.9875,15.730856147883847L242.1140625,15.740713729547581L242.62031249999998,15.775349658779572L242.87343750000002,15.742283903391519L243,15.703150569696025L243.37968750000002,15.657397362767922L243.50625,15.640157860028312L243.6328125,15.624859867994507L243.759375,15.620863243642152L244.39218749999998,15.64506820482177L245.4046875,15.715573818934898L245.53125,15.761919955881183L245.6578125,15.788461635393958L246.0375,14.808717755009573L246.290625,14.529565074163592L246.54375000000002,13.88706082947132L246.6703125,13.50167644290372L246.796875,13.320334755589023L246.9234375,13.182521402364666L247.05,12.811927506640979L247.303125,12.519957903215573L247.4296875,12.133100497239415L247.80937500000002,12.080024149127931L248.4421875,12.164076663320124L248.56875,12.12293397978832L248.821875,12.20453351256783L248.94843749999998,12.239719123348815L249.2015625,12.16574525040699L250.0875,12.467806773199522L250.2140625,12.602505429276132L250.340625,12.762821149640246L250.7203125,12.897691182978724L250.84687499999998,12.974798314981307L251.2265625,13.01298549724377L251.353125,13.050507477240318L251.4796875,13.049371735642275L251.60625000000002,13.07022921585438L251.859375,13.105886232515562L251.9859375,13.138843266761539L252.2390625,13.238130894062627L252.4921875,13.318094553206967L252.74531249999998,13.43500237325108L252.87187500000002,13.490841235275735L253.2515625,13.457482732269579L253.378125,13.424402483065936L253.5046875,13.403026690340063L253.63125,13.363547638807306L253.7578125,13.351423032136928L254.2640625,13.308565153510662L254.5171875,13.35504633774238L255.0234375,13.435634518801447L255.2765625,13.510286522590686L255.5296875,13.552739839961262L255.65625,13.56251339746125L256.1625,13.518750227884064L256.5421875,13.511929686901302L256.66875,13.535756940863939L256.921875,13.568916732801457L257.04843750000003,13.616968507011787L257.3015625,13.649099618458795L257.428125,13.662107352175752L257.5546875,13.66349757895378L257.8078125,13.675556938561833L257.934375,13.677568183370258L258.06093749999997,11.411676455752758L258.8203125,10.827424565086767L258.94687500000003,10.648391470390543L259.0734375,10.177299690889091L259.2,9.659227209476706L259.3265625,9.45399366211181L259.5796875,9.428462338395622L259.70625,9.67353497025236L259.95937499999997,10.01815092371022L260.3390625,10.096725066936708L260.8453125,9.94713274028104L261.3515625,10.151241880573064L261.478125,10.206305383394463L261.6046875,10.282936176508834L261.73125,10.333632622271868L262.2375,10.37917500144846L262.3640625,10.37832764987114L262.490625,10.52053149821735L262.6171875,10.681501685871952L262.74375,10.872265955981208L262.8703125,11.046150682673789L262.996875,11.177894696179596L263.25,11.279644751896605L263.3765625,11.342424988955358L263.75625,11.38740218651898L263.8828125,11.454748669699455L264.1359375,11.507234224936704L264.3890625,11.539299479282713L264.6421875,11.532880978081726L264.76875,11.529055197414209L265.27500000000003,11.537140950784941L265.78125,11.582918048635603L266.034375,11.570378623447105L266.1609375,11.597712241435806L266.6671875,11.591282164349991L266.9203125,11.614795095500225L267.046875,11.668241776691033L267.17343750000003,11.748856767217001L267.553125,11.798584604382338L267.9328125,11.844212579798597L268.18593749999997,11.926052799267698L268.9453125,11.989201120402265L269.071875,12.047759716430809L269.1984375,12.089798808526703L269.4515625,12.120491395253959L269.578125,12.143481436883809L269.9578125,12.21757094831194L270.08437499999997,12.248461546724595L270.2109375,12.271553515330286" style="fill: none;" fill="none"></path></g></g></g></g><g opacity="0.2"><g><g><g><path stroke="rgb(255, 112, 67)" stroke-width="2px" d="M37.4625,186.24507089853287L37.96875,150.38698049783707L38.0953125,149.1465616464615L38.475,147.65912457704545L38.854687500000004,145.51891543865204L38.98125,145.56594743728638L39.234375,144.08810033798218L39.3609375,143.56901814937592L39.8671875,143.64525260925294L40.120312500000004,143.37656464576722L40.753125,142.3869620203972L41.259375000000006,141.36520292758942L41.385937500000004,141.2838200569153L41.639062499999994,141.3273283481598L41.8921875,141.09919466972352L42.01875,141.0082851290703L42.1453125,140.9799161195755L42.3984375,140.6070044875145L42.6515625,140.58344628810883L42.778124999999996,140.49401375055314L43.5375,140.055976831913L43.6640625,139.80348315238953L43.9171875,139.72780784368516L44.043749999999996,139.64282741546631L44.4234375,139.37011989355088L45.309374999999996,138.68931641578675L45.5625,138.39416899681092L45.6890625,138.4068712234497L45.9421875,138.13256009817124L46.19531250000001,137.7743868470192L46.4484375,137.37082740068436L46.9546875,136.94567205905915L47.081250000000004,136.858138525486L47.2078125,136.72767695188523L47.5875,136.59320636987687L47.7140625,136.44702526330948L47.840624999999996,136.36408098936082L47.9671875,136.13270845413209L48.2203125,135.87708141803742L48.346875000000004,135.94978162050248L48.7265625,135.63344975709916L48.853125,135.63163515329362L48.9796875,135.52328642606736L49.359375,135.2929899930954L49.4859375,135.11159291267396L49.612500000000004,135.03750010728837L49.7390625,134.97969653606415L50.11875,114.72262015342712L50.4984375,113.1989648580551L50.625,113.74442210197448L50.751562500000006,112.86419155597686L51.0046875,111.72890367507934L51.131249999999994,111.02139809131621L51.2578125,110.85550954341888L51.384375,111.71845915317535L51.6375,110.72108116149901L51.890625,111.10351946353912L52.143750000000004,111.3815125465393L52.396874999999994,111.11746659278869L52.65,110.48471846580505L52.7765625,110.45730950832366L53.0296875,110.29078795909881L53.15625,110.25875809192657L53.282812500000006,110.14399495124816L53.409375,110.27671422958373L53.535937499999996,110.56327393054961L53.7890625,110.74794151782989L53.915625,111.05249955654143L54.421875,110.87125017642974L54.801562499999996,110.54436829090118L55.18125,110.42960515022277L55.434375,110.09282734394073L55.5609375,110.07358410358428L55.6875,110.11401178836822L55.940625,110.30659189224242L56.067187499999996,110.35759069919585L56.3203125,110.20778038501739L56.446875,110.25310328006744L56.573437500000004,110.14534535408019L56.7,110.1520340681076L57.332812499999996,110.00775196552276L57.459375,110.08559002876281L57.5859375,110.0614726781845L57.965625,110.1132943868637L58.0921875,110.05526926517486L58.21874999999999,110.21571400165557L58.3453125,110.17311301231383L58.598437499999996,110.31788041591643L59.6109375,110.16798570156097L59.7375,110.05961587429046L60.1171875,110.23464074134826L60.24375,110.22565212249755L60.370312500000004,110.22746672630309L60.623437499999994,110.14920666217803L60.8765625,110.07934441566466L61.1296875,110.20035316944121L61.25625,110.21537640094756L61.509375,110.40285029411315L61.7625,110.41432871818542L61.889062499999994,110.51596763134002L62.1421875,102.08924295902251L62.775000000000006,94.65844037532806L62.901562500000004,95.11171152591704L63.028124999999996,95.10873641967773L63.154687499999994,95.47205808162688L63.28125,94.88406314849853L63.9140625,93.26146974563598L64.1671875,93.68619253635406L64.29375,93.36450126171111L64.4203125,93.08125426769256L64.546875,92.88274505138396L64.9265625,93.29105200767516L65.05312500000001,93.23338558673858L65.4328125,92.94572868347167L65.6859375,93.05317010879516L65.8125,93.14006009101867L66.1921875,93.05454161167144L66.4453125,92.86185600757598L67.078125,93.1654856443405L67.2046875,93.49082722663879L67.33125,93.56746258735656L67.4578125,93.5413196325302L68.090625,93.77382102012633L68.2171875,93.89261426925658L68.4703125,94.14914860725402L68.85000000000001,94.00927641391753L68.9765625,94.0443235874176L69.10312499999999,94.20928373336791L69.2296875,94.2324304819107L69.4828125,94.24127140045165L69.73593749999999,94.23289468288421L69.98906249999999,94.45330574512481L70.11562500000001,94.46961607933044L70.2421875,94.37616398334502L70.36875,94.42878749370574L70.7484375,94.47847809791564L71.0015625,94.44767203330993L71.2546875,94.52175428867339L71.38125,94.48459711074828L71.5078125,94.43444230556487L71.63437499999999,94.19580080509185L71.76093750000001,94.24909951686858L71.8875,94.19980981349944L72.0140625,94.2630255460739L72.7734375,94.50120284557342L73.153125,94.4570193529129L73.2796875,94.39319171905517L73.7859375,94.36363055706023L74.16562499999999,94.41439726352691L74.29218750000001,94.41528346538543L74.79843749999999,80.87817027568816L74.925,80.1842320203781L75.0515625,81.88194158077239L75.17812500000001,80.97558917999267L75.3046875,80.39419856071471L75.43125,80.9487288236618L75.5578125,80.385125541687L75.68437499999999,80.60711910724639L75.8109375,81.41592600345611L75.9375,81.03057589530944L76.190625,81.22811450958251L76.3171875,81.55202128887176L76.5703125,81.3617199897766L77.0765625,82.30480756759643L77.203125,81.74453809261321L77.5828125,81.93931260108947L77.70937500000001,81.74972870349883L77.8359375,81.35296347141265L77.9625,81.38803174495696L78.34218750000001,81.96731235980987L78.721875,82.4205624103546L78.8484375,82.58193554878234L79.228125,82.66154601573943L79.3546875,82.46618070602416L79.86093749999999,82.28756883144378L79.98750000000001,82.32440950870513L80.3671875,81.86841645240783L80.49374999999999,81.94851222038268L80.6203125,81.81817724704742L80.74687499999999,81.89839961528777L80.87343750000001,81.85031261444091L81,81.87921967506408L81.1265625,81.85248591899871L81.253125,81.74664809703826L81.50625,81.5820044517517L81.63281249999999,81.64522018432616L81.759375,81.69704189300536L81.8859375,81.7828135728836L82.39218749999999,81.69615569114684L82.51875000000001,81.58310165405273L82.6453125,81.67670145034789L82.77187500000001,81.6665101289749L82.8984375,81.778382563591L83.1515625,81.83326377868651L83.40468750000001,81.75150110721587L83.6578125,81.87525286674499L83.784375,81.68839087486266L84.1640625,81.71451272964477L84.290625,81.6662569284439L84.4171875,81.77059664726256L84.6703125,81.63768746852874L84.92343749999999,81.49667587280273L85.4296875,81.41103079319L85.55624999999999,81.4673679113388L85.93593750000001,81.49201276302337L86.0625,81.53233494758605L86.1890625,81.37034990787505L86.315625,81.24803295135497L86.44218749999999,81.25788667201995L86.56875,72.51098992824554L86.6953125,73.9205783843994L86.9484375,77.5288125514984L87.075,75.9298089981079L87.2015625,74.65104081630706L87.328125,73.43342056274413L87.58125000000001,71.51722004413604L87.9609375,69.75148394107818L88.46718750000001,69.0329219341278L88.846875,68.64527192115783L88.97343749999999,68.48883619308471L89.10000000000001,68.36109652519225L89.4796875,68.40304341316222L89.7328125,68.15802969932555L89.859375,68.42707636356353L89.9859375,68.57559957504272L90.1125,68.50402822494506L90.2390625,68.69876053333282L90.365625,68.55622973442077L90.4921875,68.58465149402618L90.871875,68.67249097824096L90.99843750000001,68.88081171512603L91.125,69.08105113506316L91.25156249999999,69.1412495613098L91.63125000000001,68.6399547100067L92.5171875,69.11126639842986L92.896875,69.35100510120391L93.0234375,69.30405750274657L93.27656250000001,69.55092802047729L93.403125,69.60496523380279L93.52968750000001,69.52457406520843L93.65625,69.56808235645293L93.78281249999999,69.61496665477752L94.03593749999999,69.6921506166458L94.16250000000001,69.71939077377318L94.2890625,69.82548179626464L94.5421875,69.75741305351256L94.66875,69.7656631708145L95.0484375,70.1261996269226L95.3015625,70.0721624135971L95.5546875,70.05226507186889L95.68124999999999,70.10782148838042L95.80781250000001,70.16253390312194L96.5671875,70.42565145492553L96.69375000000001,70.51815404891967L96.8203125,70.59447290897369L97.3265625,70.55560662746429L97.70625,70.82079198360442L97.959375,70.92662980556487L98.33906250000001,71.0941430568695L98.84531249999999,57.18729379177093L99.3515625,54.381030106544486L99.478125,55.85617640018462L99.6046875,56.82449963092803L99.85781250000001,57.54875864982604L99.984375,58.10430171489715L100.1109375,57.80337288379668L100.2375,57.655651473999015L100.3640625,57.987512969970695L100.6171875,59.21038713455199L100.8703125,59.42898359298705L100.996875,59.94601907730102L101.1234375,59.93804326057433L101.25,59.616267585754386L101.50312500000001,60.28142538070678L101.6296875,60.35320773124694L101.75625000000001,60.520678782463065L102.009375,60.73269202709197L102.38906250000001,61.32756557464599L102.6421875,61.4447130203247L103.021875,61.19239869117736L103.14843750000001,61.275575065612784L103.4015625,61.1207007408142L103.6546875,61.050015592575065L103.90781249999999,61.00625410079955L104.1609375,60.927276635169974L104.28750000000001,60.99452247619628L104.6671875,61.03695466518401L104.79374999999999,61.00718250274657L104.92031250000001,61.144206190109244L105.046875,61.2393884897232L105.553125,61.41489865779876L105.80625,61.49486782550811L106.059375,61.552998447418204L106.43906249999999,61.34237780570983L106.56562500000001,61.35978534221648L106.6921875,61.491681718826285L106.81875,61.60085334777831L106.9453125,61.5160944700241L107.07187499999999,61.50410964488982L107.578125,61.342631006240836L107.83125,61.49151291847228L107.9578125,61.45180263519286L108.084375,61.46070685386657L108.2109375,61.43407859802245L108.3375,61.4967035293579L108.7171875,61.625160598754874L108.84375,61.6563886642456L108.97031249999999,61.61463167667388L109.85625,62.18720247745513L110.2359375,62.12244644165038L110.86875,62.39421501159667L110.9953125,62.38547959327697L111.121875,49.958967232704154L111.5015625,53.059555435180656L111.7546875,50.881988668441764L111.88125,50.89686419963836L112.0078125,50.84504249095916L112.3875,49.10374023914336L113.02031249999999,51.178908491134635L113.2734375,51.17044737339019L113.4,51.39706184864043L113.5265625,51.7521966934204L113.653125,51.88694157600402L113.90625,51.6180848121643L114.2859375,51.969295048713676L114.4125,51.92399325370788L114.66562499999999,52.32930400371551L115.171875,52.611896896362296L115.29843749999999,52.669753217697135L115.55156249999999,52.63886275291442L115.93125,52.91067352294921L116.184375,52.82258083820342L116.43749999999999,52.911306524276725L116.5640625,53.20898594856261L116.690625,53.38806202411651L116.94375,53.34151532649993L117.19687499999999,53.33330740928649L117.32343750000001,53.39595344066619L117.45,53.54627015590667L117.57656250000001,53.425113701820365L117.703125,53.419944190978995L117.95625,53.40207245349883L118.08281249999999,53.3681646823883L118.20937500000001,53.44292213916778L118.8421875,53.382765913009635L118.96875,53.430346512794486L119.0953125,53.4980565547943L119.3484375,53.62288441658019L119.475,53.489553236961356L119.6015625,53.55291666984557L119.72812499999999,53.5239252090454L120.6140625,53.70888819694518L120.99375,53.796706581115714L121.1203125,53.80618050098418L121.3734375,53.92318024635314L122.00625,53.905646109580985L122.1328125,53.982576870918265L122.259375,54.01296093463897L122.6390625,54.12595167160033L122.765625,54.11196234226226L123.01875,54.32880749702453L123.1453125,54.39755144119262L123.27187500000001,54.421183490753165L123.525,49.70428969860076L123.6515625,49.048943424224845L123.90468750000001,47.303611063957206L124.03125,45.34033634662627L124.1578125,45.61632492542266L124.284375,44.95551373958587L124.4109375,45.164530777931205L124.5375,45.19075813293456L125.1703125,43.652142906188956L125.296875,43.580381655693046L125.55000000000001,43.88390579223632L125.80312500000001,43.71805944442748L126.05624999999999,43.91791906356811L126.1828125,43.86175074577331L126.5625,43.88696529865264L126.6890625,44.02643659114837L127.19531250000001,44.42721083164214L127.321875,44.62941255569457L127.4484375,44.72214725017547L127.575,44.64097537994384L127.95468749999999,44.819228553771964L128.334375,45.2896118402481L128.9671875,45.86338534355163L129.09375,45.881468081474296L129.346875,45.9355474948883L129.47343750000002,45.820130252838126L129.6,46.00916554927825L129.853125,46.19446613788604L129.97968749999998,46.049150133132926L130.10625000000002,46.19531013965606L130.2328125,46.22058799266814L130.7390625,46.83483138084411L130.865625,46.81862654685973L131.11875,46.883108282089225L131.2453125,46.944425010681144L131.371875,47.009666347503654L131.625,47.29071893692016L131.7515625,47.17644109725951L132.13125,47.440128350257865L132.384375,47.65849270820617L133.0171875,47.56645431518554L133.14375,47.67237653732299L133.5234375,47.72069563865661L133.903125,48.02597107887267L134.2828125,47.984235191345206L134.409375,47.97628047466277L134.5359375,47.95745923519134L134.915625,47.966447854042045L135.04218749999998,47.9687266588211L135.5484375,59.611076974868766L135.67499999999998,42.620603942871085L136.940625,40.0588475704193L137.19375,40.52785935401916L137.3203125,40.48293735980987L137.446875,40.61428513526916L137.57343749999998,40.64585080146789L137.8265625,40.99087872505187L138.0796875,41.17411150932311L138.3328125,41.32993533611297L138.7125,41.315946006774894L138.965625,41.475019240379325L139.0921875,41.61107232570647L139.47187499999998,41.98893191814422L139.5984375,41.72760787010192L139.8515625,41.29290475845336L140.1046875,41.304741883277885L140.23125000000002,41.2039469718933L140.35781250000002,41.31847801208495L140.6109375,41.45927860736846L140.7375,41.474217438697806L140.990625,41.33968355655669L141.1171875,41.426615738868705L141.37031249999998,41.62257184982299L141.6234375,41.76833095550536L141.74999999999997,42.02505519390105L142.003125,42.30766918659209L142.25625,42.49668338298797L142.7625,42.54861059188842L142.8890625,42.59802689552306L143.015625,42.66008212566375L143.14218749999998,42.64883580207824L143.26874999999998,42.57673695087432L143.39531250000002,42.621004843711845L143.52187500000002,42.60530641078948L143.775,42.63579597473144L144.28125,42.59825899600982L144.53437499999998,42.55122699737548L144.6609375,42.580872559547416L145.04062499999998,42.479233646392814L145.546875,42.355756187438956L145.9265625,42.16788139343261L146.1796875,42.301254773139945L146.30625,42.36670711040496L146.43281249999998,42.46864142417907L146.9390625,42.52584364414214L147.065625,42.53086545467376L147.19218750000002,42.490142369270316L147.31875,42.30794348716735L147.4453125,42.319886112213126L147.571875,42.38403024673461L147.825,22.405242347717277L147.9515625,27.424795174598685L148.33124999999998,33.995327854156486L148.9640625,34.0544290781021L149.2171875,33.62765958309173L149.34375,33.899807953834525L149.59687499999998,34.44940080642699L149.7234375,34.84036352634429L150.2296875,34.42925026416778L150.4828125,34.884167218208304L150.609375,34.84241023063659L150.7359375,35.31302561759948L150.9890625,35.18433644771575L151.2421875,34.7370577096939L151.36874999999998,34.741573119163505L151.49531249999998,34.83350601196288L151.74843750000002,35.011653685569755L151.875,34.78708591461181L152.128125,34.91104867458343L152.25468750000002,34.767083072662345L152.38125,34.93885853290557L152.5078125,35.006969475746146L152.634375,34.94362714290618L152.76093749999998,34.952088260650626L153.39375,35.22400453090667L153.646875,35.654614233970634L153.9,35.77104427814483L154.0265625,36.00909497737884L154.153125,36.05724527835845L154.7859375,36.200894379615775L155.2921875,36.63331868648528L155.5453125,36.773486280441276L155.671875,36.794628524780265L156.43124999999998,37.069836401939384L156.55781249999998,37.043123745918265L156.68437500000002,36.9754348039627L156.81093750000002,37.1050312757492L156.9375,37.14320125579833L157.44375,37.24638047218322L157.696875,37.3837417602539L157.82343749999998,37.36530032157897L158.58281250000002,37.506354117393485L158.709375,37.441956782340995L159.0890625,37.51175572872161L159.3421875,37.715919756889335L159.46875,37.855032348632804L159.5953125,37.844334626197806L159.8484375,37.85585525035857L160.228125,33.43332817554473L160.3546875,31.092193865776053L160.48125000000002,31.586736702918998L160.734375,30.46368684768676L160.8609375,30.190968775749198L160.98749999999998,29.712145471572867L161.1140625,30.396588706970206L161.240625,29.886157536506644L161.3671875,29.60506274700164L161.74687500000002,30.226712250709525L161.87343750000002,30.07263972759246L162.1265625,30.777972006797782L162.253125,31.013617300987235L162.3796875,30.95852508544921L162.759375,31.32748045921325L162.88593749999998,31.451485419273368L163.0125,31.50212552547454L163.51875,31.41477134227752L163.64531250000002,31.53584339618682L163.771875,31.727980399131766L164.4046875,31.784001016616813L164.65781249999998,31.75496735572814L164.91093750000002,31.874119305610648L165.03750000000002,31.660185956954948L165.1640625,31.805839562416068L165.54375000000002,31.7877146244049L165.6703125,31.915053391456595L165.796875,31.963499093055717L165.9234375,31.943306350708L166.04999999999998,32.008315587043754L166.1765625,32.192898774147025L166.303125,32.32116594314574L166.4296875,32.333319568634025L166.6828125,32.48992409706115L167.0625,32.607303643226615L167.315625,32.652626538276664L167.4421875,32.74228062629699L167.821875,33.096529269218436L167.94843749999998,33.05120637416839L168.20156250000002,33.107754492759696L168.328125,33.04569926261901L168.4546875,33.119865918159476L168.58125,33.05945649147033L168.70781250000002,33.02504231929778L168.9609375,32.92688491344451L169.0875,32.96788229942321L169.2140625,32.95072796344756L169.340625,32.86499848365783L169.59375,32.769309782981864L169.97343750000002,32.95416727066039L170.353125,32.984952235221854L170.4796875,33.07302381992339L170.7328125,33.14782347679137L170.859375,33.15712859630584L170.9859375,33.10705819129943L171.11249999999998,33.156601095199576L171.2390625,33.19730308055877L171.365625,33.10954799652099L171.61875,33.34485569000243L172.125,33.462868237495414L172.2515625,33.47964277267455L172.5046875,20.14882471561431L172.7578125,24.824721121788016L173.01093749999998,26.113638424873344L173.1375,27.33549978733062L173.896875,26.09015407562255L174.0234375,26.238065385818473L174.27656249999998,25.999972486495963L174.403125,25.6623506784439L174.5296875,26.08283236026763L175.03593750000002,26.436131501197806L175.2890625,26.451112532615653L175.5421875,26.595183634757987L175.7953125,26.555895352363578L175.921875,26.56893517971038L176.0484375,26.508968853950492L176.428125,26.852962875366202L176.55468749999997,26.95658519268035L176.68125,27.15494670867919L176.93437500000002,27.488200807571403L177.0609375,27.43745520114898L177.440625,27.80183186531066L177.5671875,27.81255068778991L177.94687499999998,28.153907203674308L178.07343749999998,28.120885634422294L178.20000000000002,28.039798164367667L178.453125,27.84755566120147L178.959375,28.057986402511588L179.0859375,28.029290342330924L179.2125,28.110145711898795L179.465625,28.154962205886832L179.5921875,28.374930167198173L180.09843750000002,28.26461913585662L180.225,28.335578584671012L180.478125,28.129494452476493L180.8578125,28.10991361141204L180.984375,28.243286991119376L181.3640625,28.460216546058646L181.49062500000002,28.592767024040214L182.1234375,28.723756098747245L182.3765625,28.85010316371917L182.50312499999998,28.874705815315238L182.6296875,28.9054907798767L182.75625,28.908676886558524L182.8828125,28.958705091476432L183.00937499999998,28.9983098745346L183.13593749999998,29.05236818790435L183.515625,29.308396124839774L183.6421875,29.45172872543334L183.76875,29.50703194141387L183.8953125,29.58259119987487L184.1484375,29.66813077926635L184.40156249999998,29.755632662773124L184.528125,29.8130036830902L184.9078125,17.59196355342864L185.034375,18.03825058937072L185.4140625,22.005987310409537L185.79375,21.614286088943473L186.29999999999998,23.715027594566337L186.9328125,23.57950201034545L187.05937500000002,23.744251155853263L187.1859375,23.89456787109374L187.6921875,23.566356682777396L188.07187499999998,24.105272912979117L188.4515625,24.42903199195861L188.7046875,24.682612323760978L189.084375,25.28286638259887L189.46406249999998,25.30976893901824L189.7171875,25.283499383926383L189.84375,25.31101384162902L190.096875,25.294513607025138L190.22343750000002,25.270206356048575L190.7296875,25.48300030231475L191.23593749999998,25.703580164909354L191.7421875,25.838768148422233L191.86875,25.734428429603568L192.5015625,25.82087531089782L192.7546875,25.61789288520812L192.88125,25.757068777084342L193.134375,25.944205069541923L193.2609375,26.025018239021293L193.5140625,26.03487195968627L194.4,26.27891507148742L195.5390625,26.564504170417777L195.665625,26.607738161087028L195.91875,26.687095427513114L196.0453125,26.724337005615226L196.425,26.827917122840873L196.55156250000002,26.894487762451163L196.8046875,16.7345421552658L197.3109375,20.460915470123282L197.5640625,21.052180910110465L198.07031249999997,19.23835780620574L198.196875,19.61946680545806L198.3234375,19.627147221565238L198.45000000000002,20.228477382659904L198.5765625,20.5221055984497L199.0828125,22.008920216560355L199.209375,22.11579194068908L199.46249999999998,21.89894678592681L199.58906249999998,22.42830469608306L200.0953125,22.407014751434318L200.221875,22.457929158210746L200.728125,22.826441431045524L200.85468749999998,23.050798201560966L201.36093749999998,23.355989241600028L201.740625,22.957536005973807L202.1203125,23.085360074043265L202.246875,22.788862252235404L202.5,22.850305581092826L202.6265625,23.014020824432365L203.00625000000002,22.795761966705314L203.259375,22.707711482048026L204.271875,22.94597318172454L204.65156249999998,23.098610901832572L204.77812500000002,23.146275901794425L205.03125,23.22128655910491L205.284375,23.1473942041397L205.4109375,23.244475507736198L206.55,23.40705134868621L206.67656250000002,23.50997736454009L206.9296875,23.62834861278533L207.1828125,23.4131070613861L207.4359375,23.4995750427246L207.5625,23.52799680233001L207.68906249999998,23.575007700920096L207.81562499999998,23.53453781604766L208.1953125,23.509386563301078L208.4484375,23.542133831977836L208.57500000000002,23.48007860183715L208.7015625,23.548928046226493L208.828125,23.54970874786376L208.9546875,23.56177797317504L209.08124999999998,24.013002419471732L209.2078125,15.417308592796317L209.4609375,15.357954168319694L209.58749999999998,15.002249622344962L209.7140625,15.667745018005363L209.84062500000002,16.99337639808654L209.96718750000002,16.970609450340262L210.09375,17.23497190475463L210.2203125,16.895999693870536L210.346875,17.802056694030753L210.4734375,17.34251883029937L210.6,17.43413522243499L210.7265625,17.838834071159354L211.4859375,17.69431986808776L211.865625,17.732532048225394L211.9921875,17.920406842231742L212.2453125,17.77424683570861L212.371875,17.510960483551017L212.87812499999998,18.086991691589347L213.00468750000002,17.88094975948333L213.13125000000002,17.851768398284904L213.2578125,17.73875656127929L213.6375,17.852591300010673L213.7640625,18.08933379650115L213.890625,18.044918203353873L214.0171875,18.093258404731742L214.14374999999998,18.074458265304557L214.396875,18.220470571517936L214.5234375,18.392309331893912L215.0296875,18.44408884048461L215.15625,18.50764217376708L215.2828125,18.473333501815787L215.5359375,18.30875315666198L215.915625,18.538912439346305L216.421875,19.038941287994376L216.5484375,19.01841094493865L216.675,18.983216071128837L216.928125,18.969184541702262L217.18125,19.118889355659476L217.30781249999998,19.130473279952994L218.19375000000002,19.64883806705474L218.5734375,19.720493817329398L218.8265625,19.867603325843803L219.0796875,19.76803221702575L219.459375,19.847452783584586L219.58593750000003,20.03296437263488L219.96562500000002,20.002896809577933L220.0921875,20.100231313705436L220.3453125,20.177056574821464L220.471875,20.117575550079337L220.97812499999998,20.274454379081718L221.23125,20.2476995229721L221.35781250000002,14.543935561180106L221.7375,15.646222972869865L221.86406250000002,15.407138371467582L221.990625,16.29382553100585L222.24375,16.031404280662528L222.496875,15.811140918731681L223.12968750000002,17.161353850364677L223.3828125,17.191442513465873L223.509375,17.280526900291434L223.6359375,17.589621448516837L223.8890625,17.624900722503654L224.1421875,17.307830357551566L224.26874999999998,17.398961448669425L224.3953125,17.063681745529166L224.521875,17.228198790550223L224.9015625,17.903358006477347L225.1546875,17.801402592658988L225.28125,17.509610080718986L225.4078125,17.4734657049179L225.534375,17.47139790058135L225.6609375,17.664653205871574L226.04062499999998,17.905742311477653L226.6734375,18.111404442787162L227.30625,17.889516377449027L227.43281249999998,17.8083445072174L227.559375,17.987610483169547L228.065625,18.051986718177787L228.19218750000002,18.197935724258414L228.31875,18.346501135826102L229.2046875,18.568621301650992L229.33124999999998,18.568600201606742L229.58437500000002,18.694947266578666L229.7109375,18.742949867248527L229.9640625,18.918291234970084L230.4703125,18.758141899108878L230.7234375,18.762636208534232L230.9765625,18.727188134193412L231.2296875,18.654350781440726L231.35625000000002,18.64981427192687L231.7359375,18.649539971351615L231.8625,18.652683877944938L232.36875,18.603267574310294L232.49531249999998,18.540600442886344L232.621875,18.578981423377982L232.7484375,18.632132434844962L233.0015625,18.53610613346099L233.128125,18.461897277832023L233.7609375,18.798147583007804L233.8875,17.631568336486808L234.140625,15.894844794273368L234.39374999999998,13.276920104026786L234.52031250000002,13.241999530792228L234.64687500000002,13.486570143699637L234.7734375,14.449344062805167L235.0265625,13.921463155746451L235.2796875,13.740087175369254L235.7859375,14.037956500053397L236.0390625,14.765633726119987L236.2921875,14.487176442146293L236.671875,14.405666971206657L236.7984375,14.113030457496635L237.3046875,14.50219967365264L237.684375,14.235832715034476L237.9375,14.256848359107963L238.0640625,14.541635656356803L238.190625,14.590503358840934L238.31718750000002,14.550434374809257L238.696875,14.917680644989005L238.8234375,14.916710042953483L238.95,14.964353942871085L239.0765625,15.045293712615958L239.203125,15.164804363250724L239.32968749999998,15.349767351150504L239.70937500000002,15.152756237983695L239.8359375,15.224538588523856L239.9625,15.260640764236442L240.215625,15.303178453445426L240.3421875,15.252833747863761L240.46875,15.187402510642997L240.5953125,15.320986890792838L240.8484375,15.40962817668914L241.10156250000003,15.770396733283988L241.48125000000002,15.754571700096122L241.734375,15.849416399002067L241.8609375,15.771557235717765L241.9875,15.732986354827872L242.1140625,15.755500102043143L242.62031249999998,15.827303552627555L242.87343750000002,15.69268527030944L243,15.644450569152824L243.37968750000002,15.588767552375785L243.50625,15.614298605918876L243.6328125,15.60191287994384L243.759375,15.614868307113639L244.39218749999998,15.681375646591178L245.4046875,15.821332240104667L245.53125,15.83143916130065L245.6578125,15.828274154663077L246.0375,13.339101934432975L246.290625,14.110836052894584L246.54375000000002,12.923304462432853L246.6703125,12.92359986305236L246.796875,13.048322224616996L246.9234375,12.975801372528068L247.05,12.256036663055411L247.303125,12.082003498077384L247.4296875,11.552814388275138L247.80937500000002,12.000409626960746L248.4421875,12.290155434608451L248.56875,12.061219954490653L248.821875,12.326932811737052L248.94843749999998,12.292497539520255L249.2015625,12.054784440994254L250.0875,12.920899057388297L250.2140625,12.804553413391105L250.340625,13.003294730186454L250.7203125,13.099996232986442L250.84687499999998,13.090459012985221L251.2265625,13.070266270637504L251.353125,13.106790447235099L251.4796875,13.04766812324523L251.60625000000002,13.101515436172477L251.859375,13.159371757507316L251.9859375,13.188278818130485L252.2390625,13.387062335014335L252.4921875,13.438040041923514L252.74531249999998,13.610364103317252L252.87187500000002,13.574599528312675L253.2515625,13.407444977760306L253.378125,13.37478210926055L253.5046875,13.370963001251212L253.63125,13.30432906150817L253.7578125,13.33323612213134L254.2640625,13.24427833557128L254.5171875,13.424768114089957L255.0234375,13.556516790390006L255.2765625,13.622264528274528L255.5296875,13.616419816017142L255.65625,13.577173733711234L256.1625,13.453105473518363L256.5421875,13.501698875427238L256.66875,13.571497821807853L256.921875,13.618656420707694L257.04843750000003,13.689046168327323L257.3015625,13.697296285629264L257.428125,13.681618952751151L257.5546875,13.66558291912078L257.8078125,13.69364597797393L257.934375,13.680585050582877L258.06093749999997,8.012838864326469L258.8203125,9.951046729087821L258.94687500000003,10.379841828346244L259.0734375,9.470662021636954L259.2,8.882118487358085L259.3265625,9.146143341064445L259.5796875,9.390165352821342L259.70625,10.041143918037406L259.95937499999997,10.535074853897086L260.3390625,10.21458628177642L260.8453125,9.722744250297538L261.3515625,10.457405591011039L261.478125,10.28890063762664L261.6046875,10.397882366180411L261.73125,10.409677290916434L262.2375,10.44748857021331L262.3640625,10.37705662250518L262.490625,10.733837270736686L262.6171875,10.922956967353812L262.74375,11.158412361145011L262.8703125,11.306977772712699L262.996875,11.375510716438285L263.25,11.432269835472098L263.3765625,11.436595344543449L263.75625,11.454867982864371L263.8828125,11.555768394470206L264.1359375,11.585962557792655L264.3890625,11.587397360801688L264.6421875,11.523253226280204L264.76875,11.523316526412955L265.27500000000003,11.549269580841056L265.78125,11.651583695411674L266.034375,11.55156948566436L266.1609375,11.638712668418876L266.6671875,11.581637048721305L266.9203125,11.650064492225638L267.046875,11.748411798477164L267.17343750000003,11.869779253005973L267.553125,11.873176360130302L267.9328125,11.912654542922965L268.18593749999997,12.048813128471366L268.9453125,12.083923602104178L269.071875,12.135597610473624L269.1984375,12.152857446670524L269.4515625,12.16653027534484L269.578125,12.177966499328605L269.9578125,12.328705215454093L270.08437499999997,12.294797444343558L270.2109375,12.306191468238822" style="fill: none;" fill="none"></path></g></g></g></g></g></g><g transform="translate(51, 177)" clip-path="url(#clip_1)"><clipPath id="clip_1"><rect width="278" height="23"></rect></clipPath><g><g><line x1="0" y1="0" x2="0" y2="5" style="visibility: inherit;" fill="rgb(0, 0, 0)" stroke="rgb(204, 204, 204)" stroke-width="1px"></line><line x1="25.3125" y1="0" x2="25.3125" y2="5" style="visibility: inherit;" fill="rgb(0, 0, 0)" stroke="rgb(204, 204, 204)" stroke-width="1px"></line><line x1="50.625" y1="0" x2="50.625" y2="5" style="visibility: inherit;" fill="rgb(0, 0, 0)" stroke="rgb(204, 204, 204)" stroke-width="1px"></line><line x1="75.9375" y1="0" x2="75.9375" y2="5" style="visibility: inherit;" fill="rgb(0, 0, 0)" stroke="rgb(204, 204, 204)" stroke-width="1px"></line><line x1="101.25" y1="0" x2="101.25" y2="5" style="visibility: inherit;" fill="rgb(0, 0, 0)" stroke="rgb(204, 204, 204)" stroke-width="1px"></line><line x1="126.5625" y1="0" x2="126.5625" y2="5" style="visibility: inherit;" fill="rgb(0, 0, 0)" stroke="rgb(204, 204, 204)" stroke-width="1px"></line><line x1="151.875" y1="0" x2="151.875" y2="5" style="visibility: inherit;" fill="rgb(0, 0, 0)" stroke="rgb(204, 204, 204)" stroke-width="1px"></line><line x1="177.1875" y1="0" x2="177.1875" y2="5" style="visibility: inherit;" fill="rgb(0, 0, 0)" stroke="rgb(204, 204, 204)" stroke-width="1px"></line><line x1="202.5" y1="0" x2="202.5" y2="5" style="visibility: inherit;" fill="rgb(0, 0, 0)" stroke="rgb(204, 204, 204)" stroke-width="1px"></line><line x1="227.8125" y1="0" x2="227.8125" y2="5" style="visibility: inherit;" fill="rgb(0, 0, 0)" stroke="rgb(204, 204, 204)" stroke-width="1px"></line><line x1="253.125" y1="0" x2="253.125" y2="5" style="visibility: inherit;" fill="rgb(0, 0, 0)" stroke="rgb(204, 204, 204)" stroke-width="1px"></line><line x1="278.4375" y1="0" x2="278.4375" y2="5" style="visibility: inherit;" fill="rgb(0, 0, 0)" stroke="rgb(204, 204, 204)" stroke-width="1px"></line></g><g transform="translate(0, 8)"><text x="0" y="0" dx="0em" dy="0.95em" style="text-anchor: middle; visibility: hidden; font-family: Roboto, sans-serif; font-size: 12px; font-weight: 200;" fill="rgb(33, 33, 33)" stroke="none" stroke-width="1px">-20k</text><text x="25.3125" y="0" dx="0em" dy="0.95em" style="text-anchor: middle; visibility: inherit; font-family: Roboto, sans-serif; font-size: 12px; font-weight: 200;" fill="rgb(33, 33, 33)" stroke="none" stroke-width="1px">0</text><text x="50.625" y="0" dx="0em" dy="0.95em" style="text-anchor: middle; visibility: hidden; font-family: Roboto, sans-serif; font-size: 12px; font-weight: 200;" fill="rgb(33, 33, 33)" stroke="none" stroke-width="1px">20k</text><text x="75.9375" y="0" dx="0em" dy="0.95em" style="text-anchor: middle; visibility: inherit; font-family: Roboto, sans-serif; font-size: 12px; font-weight: 200;" fill="rgb(33, 33, 33)" stroke="none" stroke-width="1px">40k</text><text x="101.25" y="0" dx="0em" dy="0.95em" style="text-anchor: middle; visibility: hidden; font-family: Roboto, sans-serif; font-size: 12px; font-weight: 200;" fill="rgb(33, 33, 33)" stroke="none" stroke-width="1px">60k</text><text x="126.5625" y="0" dx="0em" dy="0.95em" style="text-anchor: middle; visibility: inherit; font-family: Roboto, sans-serif; font-size: 12px; font-weight: 200;" fill="rgb(33, 33, 33)" stroke="none" stroke-width="1px">80k</text><text x="151.875" y="0" dx="0em" dy="0.95em" style="text-anchor: middle; visibility: hidden; font-family: Roboto, sans-serif; font-size: 12px; font-weight: 200;" fill="rgb(33, 33, 33)" stroke="none" stroke-width="1px">100k</text><text x="177.1875" y="0" dx="0em" dy="0.95em" style="text-anchor: middle; visibility: inherit; font-family: Roboto, sans-serif; font-size: 12px; font-weight: 200;" fill="rgb(33, 33, 33)" stroke="none" stroke-width="1px">120k</text><text x="202.5" y="0" dx="0em" dy="0.95em" style="text-anchor: middle; visibility: hidden; font-family: Roboto, sans-serif; font-size: 12px; font-weight: 200;" fill="rgb(33, 33, 33)" stroke="none" stroke-width="1px">140k</text><text x="227.8125" y="0" dx="0em" dy="0.95em" style="text-anchor: middle; visibility: inherit; font-family: Roboto, sans-serif; font-size: 12px; font-weight: 200;" fill="rgb(33, 33, 33)" stroke="none" stroke-width="1px">160k</text><text x="253.125" y="0" dx="0em" dy="0.95em" style="text-anchor: middle; visibility: hidden; font-family: Roboto, sans-serif; font-size: 12px; font-weight: 200;" fill="rgb(33, 33, 33)" stroke="none" stroke-width="1px">180k</text><text x="278.4375" y="0" dx="0em" dy="0.95em" style="text-anchor: middle; visibility: hidden; font-family: Roboto, sans-serif; font-size: 12px; font-weight: 200;" fill="rgb(33, 33, 33)" stroke="none" stroke-width="1px">200k</text></g><line x1="0" y1="0" x2="278.4375" y2="0" fill="rgb(0, 0, 0)" stroke="rgb(204, 204, 204)" stroke-width="1px"></line></g></g></g></g></svg>