<svg width="200" height="200" viewBox="0 0 330 200" xmlns="http://www.w3.org/2000/svg"><g><g><g><g><g><line x1="51.5625" y1="177" x2="46.5625" y2="177" style="visibility: inherit;" fill="rgb(0, 0, 0)" stroke="rgb(204, 204, 204)" stroke-width="1px"></line><line x1="51.5625" y1="160.90909090909093" x2="46.5625" y2="160.90909090909093" style="visibility: inherit;" fill="rgb(0, 0, 0)" stroke="rgb(204, 204, 204)" stroke-width="1px"></line><line x1="51.5625" y1="144.8181818181818" x2="46.5625" y2="144.8181818181818" style="visibility: inherit;" fill="rgb(0, 0, 0)" stroke="rgb(204, 204, 204)" stroke-width="1px"></line><line x1="51.5625" y1="128.72727272727272" x2="46.5625" y2="128.72727272727272" style="visibility: inherit;" fill="rgb(0, 0, 0)" stroke="rgb(204, 204, 204)" stroke-width="1px"></line><line x1="51.5625" y1="112.63636363636364" x2="46.5625" y2="112.63636363636364" style="visibility: inherit;" fill="rgb(0, 0, 0)" stroke="rgb(204, 204, 204)" stroke-width="1px"></line><line x1="51.5625" y1="96.54545454545453" x2="46.5625" y2="96.54545454545453" style="visibility: inherit;" fill="rgb(0, 0, 0)" stroke="rgb(204, 204, 204)" stroke-width="1px"></line><line x1="51.5625" y1="80.45454545454547" x2="46.5625" y2="80.45454545454547" style="visibility: inherit;" fill="rgb(0, 0, 0)" stroke="rgb(204, 204, 204)" stroke-width="1px"></line><line x1="51.5625" y1="64.36363636363636" x2="46.5625" y2="64.36363636363636" style="visibility: inherit;" fill="rgb(0, 0, 0)" stroke="rgb(204, 204, 204)" stroke-width="1px"></line><line x1="51.5625" y1="48.27272727272729" x2="46.5625" y2="48.27272727272729" style="visibility: inherit;" fill="rgb(0, 0, 0)" stroke="rgb(204, 204, 204)" stroke-width="1px"></line><line x1="51.5625" y1="32.181818181818194" x2="46.5625" y2="32.181818181818194" style="visibility: inherit;" fill="rgb(0, 0, 0)" stroke="rgb(204, 204, 204)" stroke-width="1px"></line><line x1="51.5625" y1="16.090909090909097" x2="46.5625" y2="16.090909090909097" style="visibility: inherit;" fill="rgb(0, 0, 0)" stroke="rgb(204, 204, 204)" stroke-width="1px"></line><line x1="51.5625" y1="0" x2="46.5625" y2="0" style="visibility: inherit;" fill="rgb(0, 0, 0)" stroke="rgb(204, 204, 204)" stroke-width="1px"></line></g><g transform="translate(41.5625, 0)"><text x="0" y="177" dx="0em" dy="0.3em" style="text-anchor: end; visibility: hidden; font-family: Roboto, sans-serif; font-size: 12px; font-weight: 200;" fill="rgb(33, 33, 33)" stroke="none" stroke-width="1px">0.3</text><text x="0" y="160.90909090909093" dx="0em" dy="0.3em" style="text-anchor: end; visibility: inherit; font-family: Roboto, sans-serif; font-size: 12px; font-weight: 200;" fill="rgb(33, 33, 33)" stroke="none" stroke-width="1px">0.35</text><text x="0" y="144.8181818181818" dx="0em" dy="0.3em" style="text-anchor: end; visibility: hidden; font-family: Roboto, sans-serif; font-size: 12px; font-weight: 200;" fill="rgb(33, 33, 33)" stroke="none" stroke-width="1px">0.4</text><text x="0" y="128.72727272727272" dx="0em" dy="0.3em" style="text-anchor: end; visibility: inherit; font-family: Roboto, sans-serif; font-size: 12px; font-weight: 200;" fill="rgb(33, 33, 33)" stroke="none" stroke-width="1px">0.45</text><text x="0" y="112.63636363636364" dx="0em" dy="0.3em" style="text-anchor: end; visibility: hidden; font-family: Roboto, sans-serif; font-size: 12px; font-weight: 200;" fill="rgb(33, 33, 33)" stroke="none" stroke-width="1px">0.5</text><text x="0" y="96.54545454545453" dx="0em" dy="0.3em" style="text-anchor: end; visibility: inherit; font-family: Roboto, sans-serif; font-size: 12px; font-weight: 200;" fill="rgb(33, 33, 33)" stroke="none" stroke-width="1px">0.55</text><text x="0" y="80.45454545454547" dx="0em" dy="0.3em" style="text-anchor: end; visibility: hidden; font-family: Roboto, sans-serif; font-size: 12px; font-weight: 200;" fill="rgb(33, 33, 33)" stroke="none" stroke-width="1px">0.6</text><text x="0" y="64.36363636363636" dx="0em" dy="0.3em" style="text-anchor: end; visibility: inherit; font-family: Roboto, sans-serif; font-size: 12px; font-weight: 200;" fill="rgb(33, 33, 33)" stroke="none" stroke-width="1px">0.65</text><text x="0" y="48.27272727272729" dx="0em" dy="0.3em" style="text-anchor: end; visibility: hidden; font-family: Roboto, sans-serif; font-size: 12px; font-weight: 200;" fill="rgb(33, 33, 33)" stroke="none" stroke-width="1px">0.7</text><text x="0" y="32.181818181818194" dx="0em" dy="0.3em" style="text-anchor: end; visibility: inherit; font-family: Roboto, sans-serif; font-size: 12px; font-weight: 200;" fill="rgb(33, 33, 33)" stroke="none" stroke-width="1px">0.75</text><text x="0" y="16.090909090909097" dx="0em" dy="0.3em" style="text-anchor: end; visibility: hidden; font-family: Roboto, sans-serif; font-size: 12px; font-weight: 200;" fill="rgb(33, 33, 33)" stroke="none" stroke-width="1px">0.8</text><text x="0" y="0" dx="0em" dy="0.3em" style="text-anchor: end; visibility: hidden; font-family: Roboto, sans-serif; font-size: 12px; font-weight: 200;" fill="rgb(33, 33, 33)" stroke="none" stroke-width="1px">0.85</text></g><line x1="51.5625" y1="0" x2="51.5625" y2="177" fill="rgb(0, 0, 0)" stroke="rgb(204, 204, 204)" stroke-width="1px"></line></g></g><g transform="translate(51, 0)" clip-path="url(#clip_0)"><clipPath id="clip_0"><rect width="278" height="177"></rect></clipPath><g><g><g><line x1="0" y1="0" x2="0" y2="177" fill="rgb(0, 0, 0)" stroke="rgb(66, 66, 66)" stroke-width="1px" opacity="0.25"></line><line x1="25.3125" y1="0" x2="25.3125" y2="177" fill="rgb(0, 0, 0)" stroke="rgb(66, 66, 66)" stroke-width="1px" opacity="0.25"></line><line x1="50.625" y1="0" x2="50.625" y2="177" fill="rgb(0, 0, 0)" stroke="rgb(66, 66, 66)" stroke-width="1px" opacity="0.25"></line><line x1="75.9375" y1="0" x2="75.9375" y2="177" fill="rgb(0, 0, 0)" stroke="rgb(66, 66, 66)" stroke-width="1px" opacity="0.25"></line><line x1="101.25" y1="0" x2="101.25" y2="177" fill="rgb(0, 0, 0)" stroke="rgb(66, 66, 66)" stroke-width="1px" opacity="0.25"></line><line x1="126.5625" y1="0" x2="126.5625" y2="177" fill="rgb(0, 0, 0)" stroke="rgb(66, 66, 66)" stroke-width="1px" opacity="0.25"></line><line x1="151.875" y1="0" x2="151.875" y2="177" fill="rgb(0, 0, 0)" stroke="rgb(66, 66, 66)" stroke-width="1px" opacity="0.25"></line><line x1="177.1875" y1="0" x2="177.1875" y2="177" fill="rgb(0, 0, 0)" stroke="rgb(66, 66, 66)" stroke-width="1px" opacity="0.25"></line><line x1="202.5" y1="0" x2="202.5" y2="177" fill="rgb(0, 0, 0)" stroke="rgb(66, 66, 66)" stroke-width="1px" opacity="0.25"></line><line x1="227.8125" y1="0" x2="227.8125" y2="177" fill="rgb(0, 0, 0)" stroke="rgb(66, 66, 66)" stroke-width="1px" opacity="0.25"></line><line x1="253.125" y1="0" x2="253.125" y2="177" fill="rgb(0, 0, 0)" stroke="rgb(66, 66, 66)" stroke-width="1px" opacity="0.25"></line><line x1="278.4375" y1="0" x2="278.4375" y2="177" fill="rgb(0, 0, 0)" stroke="rgb(66, 66, 66)" stroke-width="1px" opacity="0.25"></line></g><g><line x1="0" y1="177" x2="278.4375" y2="177" fill="rgb(0, 0, 0)" stroke="rgb(66, 66, 66)" stroke-width="1px" opacity="0.25"></line><line x1="0" y1="160.90909090909093" x2="278.4375" y2="160.90909090909093" fill="rgb(0, 0, 0)" stroke="rgb(66, 66, 66)" stroke-width="1px" opacity="0.25"></line><line x1="0" y1="144.8181818181818" x2="278.4375" y2="144.8181818181818" fill="rgb(0, 0, 0)" stroke="rgb(66, 66, 66)" stroke-width="1px" opacity="0.25"></line><line x1="0" y1="128.72727272727272" x2="278.4375" y2="128.72727272727272" fill="rgb(0, 0, 0)" stroke="rgb(66, 66, 66)" stroke-width="1px" opacity="0.25"></line><line x1="0" y1="112.63636363636364" x2="278.4375" y2="112.63636363636364" fill="rgb(0, 0, 0)" stroke="rgb(66, 66, 66)" stroke-width="1px" opacity="0.25"></line><line x1="0" y1="96.54545454545453" x2="278.4375" y2="96.54545454545453" fill="rgb(0, 0, 0)" stroke="rgb(66, 66, 66)" stroke-width="1px" opacity="0.25"></line><line x1="0" y1="80.45454545454547" x2="278.4375" y2="80.45454545454547" fill="rgb(0, 0, 0)" stroke="rgb(66, 66, 66)" stroke-width="1px" opacity="0.25"></line><line x1="0" y1="64.36363636363636" x2="278.4375" y2="64.36363636363636" fill="rgb(0, 0, 0)" stroke="rgb(66, 66, 66)" stroke-width="1px" opacity="0.25"></line><line x1="0" y1="48.27272727272729" x2="278.4375" y2="48.27272727272729" fill="rgb(0, 0, 0)" stroke="rgb(66, 66, 66)" stroke-width="1px" opacity="0.25"></line><line x1="0" y1="32.181818181818194" x2="278.4375" y2="32.181818181818194" fill="rgb(0, 0, 0)" stroke="rgb(66, 66, 66)" stroke-width="1px" opacity="0.25"></line><line x1="0" y1="16.090909090909097" x2="278.4375" y2="16.090909090909097" fill="rgb(0, 0, 0)" stroke="rgb(66, 66, 66)" stroke-width="1px" opacity="0.25"></line><line x1="0" y1="0" x2="278.4375" y2="0" fill="rgb(0, 0, 0)" stroke="rgb(66, 66, 66)" stroke-width="1px" opacity="0.25"></line></g></g></g><g><g><line x1="0" y1="273.54545454545456" x2="278.4375" y2="273.54545454545456" fill="rgb(0, 0, 0)" stroke="rgb(153, 153, 153)" stroke-width="1.5px"></line></g></g><g><g><line x1="25.3125" y1="0" x2="25.3125" y2="177" fill="rgb(0, 0, 0)" stroke="rgb(153, 153, 153)" stroke-width="1.5px"></line></g></g><g><g><g><g><g><path stroke="rgb(255, 112, 67)" stroke-width="2px" d="M37.4625,185.85346239001623L37.96875,173.30515371917693L38.0953125,165.05246769002565L38.475,159.68730671440812L38.854687500000004,155.63659216683104L38.98125,153.29515958857448L39.234375,151.38331968748835L39.3609375,150.04182295734466L39.8671875,149.27282568545868L40.120312500000004,148.72065493196175L40.753125,147.90968325573144L41.259375000000006,147.0231968658713L41.385937500000004,146.46375604690755L41.639062499999994,146.16299102871963L41.8921875,145.81592223203336L42.01875,145.55658815596198L42.1453125,145.35715716385334L42.3984375,145.08095925847962L42.6515625,144.92625090198246L42.778124999999996,144.81121329604593L43.5375,144.49920262289538L43.6640625,144.191741312264L43.9171875,143.95731496658678L44.043749999999996,143.7884349727166L44.4234375,143.50186393336193L45.309374999999996,143.11544127812883L45.5625,142.76231997612382L45.6890625,142.5465110775752L45.9421875,142.32446559887669L46.19531250000001,142.04279374579784L46.4484375,141.74066853658837L46.9546875,141.40138477059998L47.081250000000004,141.15452105657664L47.2078125,140.95369108125323L47.5875,140.78661570746914L47.7140625,140.62749752336816L47.840624999999996,140.5023330960896L47.9671875,140.3356487385603L48.2203125,140.14495013385414L48.346875000000004,140.05946872262703L48.7265625,139.88315252277746L48.853125,139.76640996171585L48.9796875,139.65890225560508L49.359375,139.51272511520247L49.4859375,139.35625954130612L49.612500000000004,139.2457533620989L49.7390625,139.15146715952673L50.11875,131.42347562239976L50.4984375,126.29574405236166L50.625,123.34775399831986L50.751562500000006,121.37114371188588L51.0046875,119.7652751503257L51.131249999999994,118.4366541931659L51.2578125,117.67508314807813L51.384375,117.5192189706215L51.6375,117.13510681835812L51.890625,117.00726630586279L52.143750000000004,117.03709803997214L52.396874999999994,117.02273703096459L52.65,116.76551586782917L52.7765625,116.64338183747411L53.0296875,116.48155028809931L53.15625,116.3421553606814L53.282812500000006,116.19586278192178L53.409375,116.16291282237212L53.535937499999996,116.23248043399889L53.7890625,116.37448073850992L53.915625,116.55970664007889L54.421875,116.6321178452631L54.801562499999996,116.55482627880065L55.18125,116.50709709971947L55.434375,116.35218925473248L55.5609375,116.27107208163561L55.6875,116.20947320520945L55.940625,116.23126791166216L56.067187499999996,116.28007286500738L56.3203125,116.23281254921712L56.446875,116.2205154116034L56.573437500000004,116.17441662964971L56.7,116.13900788968003L57.332812499999996,116.08562536011887L57.459375,116.07654885415504L57.5859375,116.06451206402723L57.965625,116.05371449154299L58.0921875,116.02153609415537L58.21874999999999,116.06688726404964L58.3453125,116.0614274247431L58.598437499999996,116.11377891054683L59.6109375,116.12500281423885L59.7375,116.08515209512069L60.1171875,116.12588836286159L60.24375,116.14676613421365L60.370312500000004,116.16352431499003L60.623437499999994,116.14785635132866L60.8765625,116.09735268693188L61.1296875,116.10333105528963L61.25625,116.12712424595287L61.509375,116.18920135150739L61.7625,116.22622894165423L61.889062499999994,116.27868377733913L62.1421875,112.02333741581198L62.775000000000006,107.71558035566225L62.901562500000004,105.2823477098573L63.028124999999996,103.74611803510791L63.154687499999994,103.09894935153241L63.28125,102.49680111109421L63.9140625,101.72206639067218L64.1671875,101.38295113117842L64.29375,101.07250858750388L64.4203125,100.7907097336763L64.546875,100.5439745857946L64.9265625,100.59408209443608L65.05312500000001,100.61564519997384L65.4328125,100.64910765179472L65.6859375,100.67675044784397L65.8125,100.71841065078647L66.1921875,100.73067769131136L66.4453125,100.66892951614847L67.078125,100.7449845209767L67.2046875,100.89848095008213L67.33125,101.04309873587071L67.4578125,101.1120763154832L68.090625,101.20729483069117L68.2171875,101.31418368053028L68.4703125,101.48781471097874L68.85000000000001,101.47870527348114L68.9765625,101.48727305859494L69.10312499999999,101.54928410347581L69.2296875,101.57891005996093L69.4828125,101.61794680571312L69.73593749999999,101.64266554679291L69.98906249999999,101.74341617162877L70.11562500000001,101.81321962069077L70.2421875,101.82188638410602L70.36875,101.83897152162574L70.7484375,101.85702578413853L71.0015625,101.8575154835918L71.2546875,101.85689624680347L71.38125,101.84079558083468L71.5078125,101.81583573098594L71.63437499999999,101.72218351062412L71.76093750000001,101.69217925150775L71.8875,101.65619178559318L72.0140625,101.66819824923454L72.7734375,101.74061277326841L73.153125,101.7665369418458L73.2796875,101.75291967272302L73.7859375,101.72638843637972L74.16562499999999,101.73680254979836L74.29218750000001,101.7464730613898L74.79843749999999,96.53819356077464L74.925,93.0678142996534L75.0515625,91.51792935030538L75.17812500000001,90.29215274207465L75.3046875,89.27460604010894L75.43125,88.76993885912005L75.5578125,88.34079148555482L75.68437499999999,88.18639404125189L75.8109375,88.42253262780956L75.9375,88.41864849264587L76.190625,88.53962667014751L76.3171875,88.7582642465787L76.5703125,88.8542979550878L77.0765625,89.17651273509433L77.203125,89.11090186005632L77.5828125,89.2340517122224L77.70937500000001,89.28830707325407L77.8359375,89.1873775735728L77.9625,89.16391758792808L78.34218750000001,89.33792355461843L78.721875,89.63035538350626L78.8484375,89.82865623783303L79.228125,90.03393209504189L79.3546875,90.09027568741178L79.86093749999999,90.14001045805698L79.98750000000001,90.17607391531214L80.3671875,90.04021358663626L80.49374999999999,89.99382320855025L80.6203125,89.91267108806349L80.74687499999999,89.89176281949182L80.87343750000001,89.87183667923281L81,89.86797573932624L81.1265625,89.86749296104624L81.253125,89.82209523584238L81.50625,89.73199381434033L81.63281249999999,89.70647556675249L81.759375,89.72147195448686L81.8859375,89.75975664854718L82.39218749999999,89.73465772780904L82.51875000000001,89.67752105075903L82.6453125,89.6707841932051L82.77187500000001,89.657404349999L82.8984375,89.6995331674446L83.1515625,89.75869329260652L83.40468750000001,89.7411630383164L83.6578125,89.76756612680899L83.784375,89.69052174874221L84.1640625,89.67316765518012L84.290625,89.64266795691645L84.4171875,89.67928196221308L84.6703125,89.65776892874831L84.92343749999999,89.59386805627351L85.4296875,89.54102604783108L85.55624999999999,89.52851804666184L85.93593750000001,89.54459158631734L86.0625,89.55829459135006L86.1890625,89.50537997524683L86.315625,89.43074057018116L86.44218749999999,89.39932284608156L86.56875,82.60323007128532L86.6953125,83.003042160078L86.9484375,83.9758528776952L87.075,84.00193802978706L87.2015625,83.48906753991258L87.328125,82.82470078895109L87.58125000000001,81.71869216394738L87.9609375,80.40488337080883L88.46718750000001,79.29891582869038L88.846875,78.5643240635872L88.97343749999999,78.0180150740693L89.10000000000001,77.64306532690117L89.4796875,77.41921569913141L89.7328125,77.18740837254558L89.859375,77.1774562474071L89.9859375,77.2259077410035L90.1125,77.19693433361411L90.2390625,77.25797339910203L90.365625,77.21837580581867L90.4921875,77.1904432774587L90.871875,77.20033119814528L90.99843750000001,77.28432644154064L91.125,77.4084663240475L91.25156249999999,77.53973622718719L91.63125000000001,77.43521934833957L92.5171875,77.56794933999407L92.896875,77.77606742261382L93.0234375,77.86595823519008L93.27656250000001,77.99921354363092L93.403125,78.09582425453823L93.52968750000001,78.12316876231768L93.65625,78.17595194327319L93.78281249999999,78.24272465273593L94.03593749999999,78.30046627912381L94.16250000000001,78.35688650062303L94.2890625,78.42495139618184L94.5421875,78.43160826183131L94.66875,78.43561005396435L95.0484375,78.59619240643258L95.3015625,78.69264156357725L95.5546875,78.73251080193255L95.68124999999999,78.75895667751239L95.80781250000001,78.78387804002962L96.5671875,78.89917499525188L96.69375000000001,78.99734079281376L96.8203125,79.09244027454136L97.3265625,79.12895235684962L97.70625,79.22656656500533L97.959375,79.32507939185075L98.33906250000001,79.46420612849921L98.84531249999999,72.40771108762755L99.3515625,68.36716719587268L99.478125,66.42479656247433L99.6046875,65.8172286614448L99.85781250000001,65.78495607219705L99.984375,66.03297995213394L100.1109375,66.18063569584812L100.2375,66.15515846648681L100.3640625,66.40816494607253L100.6171875,67.14125587106649L100.8703125,67.63733628943287L100.996875,68.13878027693897L101.1234375,68.40240317315465L101.25,68.44414303033821L101.50312500000001,68.68294190202086L101.6296875,68.83608837299626L101.75625000000001,68.96452920496675L102.009375,69.13141851070921L102.38906250000001,69.4842922605587L102.6421875,69.69023893471547L103.021875,69.73655008627931L103.14843750000001,69.8414248297938L103.4015625,69.85562008279891L103.6546875,69.80372205335533L103.90781249999999,69.77394131126458L104.1609375,69.77628287203041L104.28750000000001,69.80193367751959L104.6671875,69.8594935583406L104.79374999999999,69.89105246240803L104.92031250000001,69.93707258892276L105.046875,70.01347563988212L105.553125,70.16687398693166L105.80625,70.30540981994609L106.059375,70.37851071692162L106.43906249999999,70.34595840394668L106.56562500000001,70.337567839526L106.6921875,70.3639533849484L106.81875,70.42290552990647L106.9453125,70.41258563014982L107.07187499999999,70.40147546179958L107.578125,70.31624814148738L107.83125,70.31931200842202L107.9578125,70.30821408327145L108.084375,70.30871399773952L108.2109375,70.29650737473736L108.3375,70.31970557403731L108.7171875,70.38766362512861L108.84375,70.42391920994211L108.97031249999999,70.44727616419323L109.85625,70.69428853447286L110.2359375,70.80693279114934L110.86875,70.98723961791305L110.9953125,71.09184821556372L111.121875,65.28789568880146L111.5015625,63.9019248238089L111.7546875,62.42875517747462L111.88125,61.64960935482018L112.0078125,61.21704818901958L112.3875,60.340339031584165L113.02031249999999,60.49827722605997L113.2734375,60.57513195973436L113.4,60.726138874465654L113.5265625,60.902723785439356L113.653125,61.04728397663027L113.90625,61.08000397806356L114.2859375,61.23862772495902L114.4125,61.3227839136259L114.66562499999999,61.53351519923591L115.171875,61.778367418935616L115.29843749999999,61.961248571645L115.55156249999999,62.06004360397723L115.93125,62.23215598728477L116.184375,62.308929434434056L116.43749999999999,62.38385836325829L116.5640625,62.51973772941406L116.690625,62.662862132832174L116.94375,62.72591036337574L117.19687499999999,62.77258597480035L117.32343750000001,62.81934352643629L117.45,62.90355486609761L117.57656250000001,62.889592261921536L117.703125,62.880347679415785L117.95625,62.87022030212413L118.08281249999999,62.857629716633255L118.20937500000001,62.860847897021515L118.8421875,62.84089614118086L118.96875,62.83626790307568L119.0953125,62.8684403062347L119.3484375,62.92009970689534L119.475,62.87716846498138L119.6015625,62.87486529629616L119.72812499999999,62.870452661456355L120.6140625,62.9467576097661L120.99375,63.02060747397678L121.1203125,63.06909136489312L121.3734375,63.145645289891476L122.00625,63.17246484117122L122.1328125,63.20666424627769L122.259375,63.237626493059665L122.6390625,63.30722758449822L122.765625,63.34441528431655L123.01875,63.43440150067639L123.1453125,63.51359819244243L123.27187500000001,63.565804253697316L123.525,61.94353660439792L123.6515625,60.74723678363926L123.90468750000001,59.36126836260301L124.03125,57.80238029378195L124.1578125,56.82289848717396L124.284375,55.976553551671586L124.4109375,55.50524583055188L124.5375,55.28424212744549L125.1703125,54.46822865416673L125.296875,53.98513472931535L125.55000000000001,53.7422048728176L125.80312500000001,53.52035636297998L126.05624999999999,53.50928991302225L126.1828125,53.43941129224307L126.5625,53.47377420704194L126.6890625,53.577978822126646L127.19531250000001,53.75368222853714L127.321875,53.91328151327525L127.4484375,54.020718999517925L127.575,54.07239102807603L127.95468749999999,54.09103345565176L128.334375,54.245200484781925L128.9671875,54.58491649344205L129.09375,54.806447117578465L129.346875,54.97590309595875L129.47343750000002,55.05025404386846L129.6,55.165484542534806L129.853125,55.29319656457394L129.97968749999998,55.28782516946835L130.10625000000002,55.35209178303309L130.2328125,55.41459838321038L130.7390625,55.6764917229915L130.865625,55.821842393053416L131.11875,55.946480437219215L131.2453125,56.035243002127544L131.371875,56.13984653966319L131.625,56.30551549618007L131.7515625,56.36739715504113L132.13125,56.51728478683239L132.384375,56.67192928343752L133.0171875,56.72853132369688L133.14375,56.79095075298886L133.5234375,56.85582479534634L133.903125,57.02000675617508L134.2828125,57.14247791019752L134.409375,57.21319841499999L134.5359375,57.247505282659226L134.915625,57.253518863606864L135.04218749999998,57.25306045819263L135.5484375,61.01677243595685L135.67499999999998,57.30267429760316L136.940625,54.24595811395398L137.19375,52.696295618314124L137.3203125,51.741132031369474L137.446875,51.21010353106642L137.57343749999998,50.88826387867179L137.8265625,50.78773173591946L138.0796875,50.857664941612164L138.3328125,50.940651023794096L138.7125,50.92096598194394L138.965625,50.93875640073142L139.0921875,50.98558461873418L139.47187499999998,51.144417423711886L139.5984375,51.12065147517883L139.8515625,50.93644831329389L140.1046875,50.853279746254884L140.23125000000002,50.77253417770899L140.35781250000002,50.7793996434912L140.6109375,50.789488317297554L140.7375,50.80614525291015L140.990625,50.768622114625614L141.1171875,50.77508051059668L141.37031249999998,50.88552228075931L141.6234375,51.029397141981875L141.74999999999997,51.18986377783996L142.003125,51.406820666980884L142.25625,51.59096487728648L142.7625,51.724738179579006L142.8890625,51.80754951175131L143.015625,51.884213676721885L143.14218749999998,51.93754731836002L143.26874999999998,51.94501774280877L143.39531250000002,51.956865831107294L143.52187500000002,51.955810885147315L143.775,51.96926507438727L144.28125,51.982094688816815L144.53437499999998,51.99083595057205L144.6609375,51.997699656474964L145.04062499999998,51.94639765469986L145.546875,51.87946248690451L145.9265625,51.766471706217956L146.1796875,51.74742984913971L146.30625,51.7746523432163L146.43281249999998,51.8268712603748L146.9390625,51.89728756536518L147.065625,51.93552450358017L147.19218750000002,51.930069843319636L147.31875,51.86270662184538L147.4453125,51.81942675568614L147.571875,51.809272360063396L147.825,42.34920131422303L147.9515625,39.39623065202315L148.33124999999998,40.92611412432935L148.9640625,42.134557289697135L149.2171875,42.73866238978728L149.34375,43.225462256051976L149.59687499999998,43.60152035192777L149.7234375,44.018666883814035L150.2296875,44.0611769126537L150.4828125,44.29535085847978L150.609375,44.392657680837154L150.7359375,44.58420990807391L150.9890625,44.660409235915466L151.2421875,44.46087726373947L151.36874999999998,44.359465246099894L151.49531249999998,44.3321555967594L151.74843750000002,44.432955616550636L151.875,44.38966177442976L152.128125,44.361943756413694L152.25468750000002,44.276143164179274L152.38125,44.27455098619008L152.5078125,44.29924566046184L152.634375,44.275345802011074L152.76093749999998,44.25701606039141L153.39375,44.330487447111885L153.646875,44.56937356040801L153.9,44.74478496838982L154.0265625,44.94506641248308L154.153125,45.07011514371844L154.7859375,45.23091030778036L155.2921875,45.508771059338066L155.5453125,45.72450099488073L155.671875,45.850140948241254L156.43124999999998,46.02052115584494L156.55781249999998,46.120340038990925L156.68437500000002,46.166451121797095L156.81093750000002,46.232627270423805L156.9375,46.28751731871682L157.44375,46.35613727707771L157.696875,46.44872430537514L157.82343749999998,46.5046601595218L158.58281250000002,46.61013062281544L158.709375,46.64495469565528L159.0890625,46.6978368064429L159.3421875,46.80788176442996L159.46875,46.93357966436256L159.5953125,47.00876054927781L159.8484375,47.06860074748548L160.228125,44.79481729531802L160.3546875,42.420837215569726L160.48125000000002,41.47047892548055L160.734375,40.83935004186169L160.8609375,40.35795769627903L160.98749999999998,39.97232295865153L161.1140625,39.91207498406154L161.240625,39.74098566176817L161.3671875,39.57487080803004L161.74687500000002,39.78112184644576L161.87343750000002,39.88648857639553L162.1265625,40.25058757263398L162.253125,40.584560121719264L162.3796875,40.809834030642676L162.759375,41.08053738751847L162.88593749999998,41.25630997509699L163.0125,41.36031570640499L163.51875,41.40625343793101L163.64531250000002,41.48963528481838L163.771875,41.65164808234568L164.4046875,41.70819789377722L164.65781249999998,41.71664659992489L164.91093750000002,41.757348043795055L165.03750000000002,41.72903414497765L165.1640625,41.76910799808389L165.54375000000002,41.78225701437102L165.6703125,41.826591955121415L165.796875,41.85976078789108L165.9234375,41.85137268277048L166.04999999999998,41.870017905718875L166.1765625,41.947006486575994L166.303125,42.046601928902376L166.4296875,42.116249360494194L166.6828125,42.19200505432085L167.0625,42.302661443722556L167.315625,42.36585574338087L167.4421875,42.42974455946237L167.821875,42.567086929477924L167.94843749999998,42.63321079006925L168.20156250000002,42.681724106779114L168.328125,42.688036376271214L168.4546875,42.71808753850077L168.58125,42.71156545707428L168.70781250000002,42.667385651045095L168.9609375,42.595700654501464L169.0875,42.55803755869988L169.2140625,42.51624249732267L169.340625,42.46373540297068L169.59375,42.39659892617793L169.97343750000002,42.421005939402626L170.353125,42.446246205922854L170.4796875,42.50894602920388L170.7328125,42.56976062636132L170.859375,42.63061801757928L170.9859375,42.63514478522629L171.11249999999998,42.66359522705673L171.2390625,42.689450783306555L171.365625,42.663239738644066L171.61875,42.71095135397855L172.125,42.77931546106045L172.2515625,42.829334053275325L172.5046875,37.564645886510625L172.7578125,36.053439532680414L173.01093749999998,35.81776618223812L173.1375,36.148619526015466L173.896875,35.58334062138766L174.0234375,35.22841346374171L174.27656249999998,34.9899299519827L174.403125,34.75955471642056L174.5296875,34.80662632731937L175.03593750000002,35.03598724291092L175.2890625,35.208138810146444L175.5421875,35.32811029456067L175.7953125,35.40277097264319L175.921875,35.468352841265244L176.0484375,35.489241341905135L176.428125,35.65944931841546L176.55468749999997,35.80313735512343L176.68125,35.97480919273438L176.93437500000002,36.25229815213743L177.0609375,36.39257376370512L177.440625,36.618968774380726L177.5671875,36.75143744644939L177.94687499999998,37.005051560332376L178.07343749999998,37.14338607237722L178.20000000000002,37.21313595181481L178.453125,37.17072381185591L178.959375,37.28564169497824L179.0859375,37.36622430379112L179.2125,37.469848312271786L179.465625,37.54034764390994L179.5921875,37.67852584396703L180.09843750000002,37.704846281693165L180.225,37.73646741388837L180.478125,37.66883783885815L180.8578125,37.615999049944655L180.984375,37.63505097394818L181.3640625,37.758864800400055L181.49062500000002,37.8700283008777L182.1234375,38.02824688400786L182.3765625,38.1610123314129L182.50312499999998,38.25987647649553L182.6296875,38.33400335823729L182.75625,38.38125702038007L182.8828125,38.425768015189895L183.00937499999998,38.45687109402327L183.13593749999998,38.49107791937839L183.515625,38.61595899708266L183.6421875,38.75459443185504L183.76875,38.84867098829505L183.8953125,38.931557195790745L184.1484375,39.013591169849825L184.40156249999998,39.11560770137167L184.528125,39.210715800466104L184.9078125,33.81599726294177L185.034375,31.145921001738675L185.4140625,31.33008222736933L185.79375,31.36474156733977L186.29999999999998,32.16313902027117L186.9328125,32.5942765552097L187.05937500000002,32.89616429405443L187.1859375,33.13171203329747L187.6921875,33.086577667615884L188.07187499999998,33.22482164946701L188.4515625,33.451463176295206L188.7046875,33.71425552196589L189.084375,34.1117118322308L189.46406249999998,34.37148515396771L189.7171875,34.51626970559252L189.84375,34.597992025770296L190.096875,34.64474661309792L190.22343750000002,34.6610063589443L190.7296875,34.77293245708464L191.23593749999998,34.91468252695188L191.7421875,35.01868424498083L191.86875,35.05766806305186L192.5015625,35.113061366464926L192.7546875,35.064628668148316L192.88125,35.10875167536244L193.134375,35.20177118288528L193.2609375,35.29290819784597L193.5140625,35.3631277121341L194.4,35.512148408508274L195.5390625,35.73380055820811L195.665625,35.88387904749922L195.91875,36.00159405364381L196.0453125,36.08472195627021L196.425,36.185890987233144L196.55156250000002,36.28838583891359L196.8046875,30.9887374702976L197.3109375,30.741493981007814L197.5640625,30.74849024957774L198.07031249999997,30.203956423569814L198.196875,29.962526343197194L198.3234375,29.849502507190074L198.45000000000002,29.954754604899954L198.5765625,30.08742859114544L199.0828125,30.69556990950906L199.209375,31.089143087964516L199.46249999999998,31.306312300699084L199.58906249999998,31.649271583411306L200.0953125,31.856152028082974L200.221875,31.974594792053455L200.728125,32.21210527222693L200.85468749999998,32.469672019814766L201.36093749999998,32.69216188359743L201.740625,32.68085578910512L202.1203125,32.70609816321028L202.246875,32.619242137394814L202.5,32.586609617306266L202.6265625,32.64401841216566L203.00625000000002,32.56374850304893L203.259375,32.48637642359281L204.271875,32.5819219463798L204.65156249999998,32.69342650094389L204.77812500000002,32.76876157863918L205.03125,32.84238246667592L205.284375,32.85343943913973L205.4109375,32.89849872138401L206.55,32.95773679462847L206.67656250000002,33.03411397875743L206.9296875,33.116431856673046L207.1828125,33.09094428093499L207.4359375,33.10559078009774L207.5625,33.13259377234111L207.68906249999998,33.168460808928565L207.81562499999998,33.16860476786946L208.1953125,33.15734315579891L208.4484375,33.16669894962059L208.57500000000002,33.150767362548024L208.7015625,33.16964359721077L208.828125,33.18007929977819L208.9546875,33.18881901742517L209.08124999999998,34.2163254646044L209.2078125,30.295314689676278L209.4609375,28.111577633413617L209.58749999999998,26.59381070989489L209.7140625,25.935599157939876L209.84062500000002,25.96432275159986L209.96718750000002,25.94589399664083L210.09375,26.059948496955794L210.2203125,26.0397226475759L210.346875,26.4178305381749L210.4734375,26.54517979110561L210.6,26.706081592786383L210.7265625,26.934363677351513L211.4859375,27.039560097821063L211.865625,27.132586303734918L211.9921875,27.292735991544376L212.2453125,27.364250007235764L212.371875,27.253296893976007L212.87812499999998,27.380461795956485L213.00468750000002,27.387491210056265L213.13125000000002,27.37133772488522L213.2578125,27.34730527643559L213.6375,27.40494054029539L213.7640625,27.502507248884815L213.890625,27.524509670140024L214.0171875,27.53565482767162L214.14374999999998,27.52049762183382L214.396875,27.573138191436374L214.5234375,27.679754290552655L215.0296875,27.788410007373272L215.15625,27.868595977998535L215.2828125,27.90506800869079L215.5359375,27.854996239840293L215.915625,27.930829364207238L216.421875,28.19694362876715L216.5484375,28.34284728590844L216.675,28.398447849569635L216.928125,28.407055917674704L217.18125,28.483884181555712L217.30781249999998,28.537124463956065L218.19375000000002,28.784572976255703L218.5734375,28.98543924806702L218.8265625,29.14209763239737L219.0796875,29.197498763875593L219.459375,29.269057123121392L219.58593750000003,29.38714665991741L219.96562500000002,29.458967147658903L220.0921875,29.541620105087567L220.3453125,29.610117519193242L220.471875,29.630115923406187L220.97812499999998,29.718903781518943L221.23125,29.76814063337725L221.35781250000002,27.65740934687315L221.7375,26.40640046187533L221.86406250000002,25.553394697943208L221.990625,25.54183108867447L222.24375,25.51601030169491L222.496875,25.32320840311276L223.12968750000002,25.918276499983676L223.3828125,26.291744701648152L223.509375,26.554496249200476L223.6359375,26.83282408535791L223.8890625,27.027197135374465L224.1421875,27.024471442360277L224.26874999999998,27.048869644785206L224.3953125,26.950512074721278L224.521875,27.00660402862681L224.9015625,27.26449512577763L225.1546875,27.364292941583198L225.28125,27.325653606275186L225.4078125,27.28383291145962L225.534375,27.27944155616588L225.6609375,27.365902638930244L226.04062499999998,27.507235803467577L226.6734375,27.623961987326794L227.30625,27.597727786656527L227.43281249999998,27.530733340584103L227.559375,27.561179621091313L228.065625,27.604905551876733L228.19218750000002,27.687681556195976L228.31875,27.806309776141465L229.2046875,28.003388753965595L229.33124999999998,28.1232781077399L229.58437500000002,28.24000519576244L229.7109375,28.33022843636615L229.9640625,28.432332372238974L230.4703125,28.41336085640725L230.7234375,28.399561032748597L230.9765625,28.37010436686927L231.2296875,28.32618958503743L231.35625000000002,28.3033701778857L231.7359375,28.303650599260198L231.8625,28.3069723496074L232.36875,28.280484176449253L232.49531249999998,28.23156778511647L232.621875,28.214778231203393L232.7484375,28.22763832877L233.0015625,28.206819454739897L233.128125,28.159900530848425L233.7609375,27.66253022884284L233.8875,27.534910987661377L234.140625,26.575306427441244L234.39374999999998,25.23180131758258L234.52031250000002,24.51289897999713L234.64687500000002,24.113061861697652L234.7734375,24.190580983678984L235.0265625,24.063511983748185L235.2796875,23.93301661546421L235.7859375,23.908344197863485L236.0390625,24.138562133883138L236.2921875,24.1538369287535L236.671875,24.141679251867703L236.7984375,24.060058780770948L237.3046875,24.091657976176286L237.684375,24.017623843850068L237.9375,23.964640582860323L238.0640625,24.02526114734025L238.190625,24.096728614174314L238.31718750000002,24.10070061267685L238.696875,24.24555131055764L238.8234375,24.329346595480448L238.95,24.38790265652367L239.0765625,24.44926172996714L239.203125,24.54696039262502L239.32968749999998,24.663815712351155L239.70937500000002,24.736422545780055L239.8359375,24.809772235575732L239.9625,24.888716049988545L240.215625,24.953322992974755L240.3421875,24.97337333770212L240.46875,24.958571960995297L240.5953125,24.998650910375734L240.8484375,25.079415198949313L241.10156250000003,25.253330798835137L241.48125000000002,25.34418380318969L241.734375,25.429233124390407L241.8609375,25.45699128648839L241.9875,25.46069459294904L242.1140625,25.47167117700356L242.62031249999998,25.519782014521258L242.87343750000002,25.493704001803568L243,25.460279447799003L243.37968750000002,25.40202212618784L243.50625,25.377402918532194L243.6328125,25.36667492969153L243.759375,25.364181926476146L244.39218749999998,25.392249204727694L245.4046875,25.483085508679263L245.53125,25.53812438308565L245.6578125,25.568308792684853L246.0375,24.378959815281018L246.290625,24.196411688021723L246.54375000000002,23.61681218948205L246.6703125,23.234179871769737L246.796875,23.116676243457597L246.9234375,22.869647259898983L247.05,22.341690455201977L247.303125,21.970040911845782L247.4296875,21.560565158374573L247.80937500000002,21.502209735519344L248.4421875,21.663795185017232L248.56875,21.69202169240628L248.821875,21.841880202874435L248.94843749999998,21.907127439240668L249.2015625,21.86680917804136L250.0875,22.15625695180441L250.2140625,22.278840490745957L250.340625,22.437696174829778L250.7203125,22.598342995022954L250.84687499999998,22.687610781297217L251.2265625,22.759094981559663L251.353125,22.828080501897443L251.4796875,22.851625013035886L251.60625000000002,22.880076731579194L251.859375,22.903945813325542L251.9859375,22.934556496534693L252.2390625,23.015049109476976L252.4921875,23.0723524779515L252.74531249999998,23.193881518162424L252.87187500000002,23.260752820518277L253.2515625,23.237698233074113L253.378125,23.21669913830582L253.5046875,23.20769052533911L253.63125,23.187630417734223L253.7578125,23.189443654942952L254.2640625,23.13633901088955L254.5171875,23.20541116340853L255.0234375,23.282548057048356L255.2765625,23.345257536774206L255.5296875,23.37550971823703L255.65625,23.389088072069956L256.1625,23.348704982593578L256.5421875,23.340211925546924L256.66875,23.36876107096926L256.921875,23.38698776052367L257.04843750000003,23.415609447709883L257.3015625,23.433434643207534L257.428125,23.43134697006202L257.5546875,23.417587794491748L257.8078125,23.420626567381127L257.934375,23.413687558193242L258.06093749999997,23.441826402242175L258.8203125,22.491982408547827L258.94687500000003,21.979483478179258L259.0734375,21.311963655841225L259.2,20.611102223461913L259.3265625,20.16539574757092L259.5796875,20.002904300279827L259.70625,20.060437211571028L259.95937499999997,20.313085379435655L260.3390625,20.339293980846296L260.8453125,20.098695804137765L261.3515625,20.2273254342538L261.478125,20.241226097802024L261.6046875,20.287178283900374L261.73125,20.344320348483542L262.2375,20.339321141210718L262.3640625,20.305692025338658L262.490625,20.402201636892286L262.6171875,20.539397533746147L262.74375,20.709683074524598L262.8703125,20.87427216625632L262.996875,20.999573313334135L263.25,21.100657183177052L263.3765625,21.16954803145553L263.75625,21.208596062900202L263.8828125,21.270657144603817L264.1359375,21.310502526369664L264.3890625,21.31445294993987L264.6421875,21.28917063699884L264.76875,21.25341527878911L265.27500000000003,21.25495727572462L265.78125,21.32570443849662L266.034375,21.33627248748318L266.1609375,21.369912937763562L266.6671875,21.35952132562701L266.9203125,21.38960145268601L267.046875,21.449849617422398L267.17343750000003,21.515914542639692L267.553125,21.567937305559298L267.9328125,21.62085715428726L268.18593749999997,21.696880792733275L268.9453125,21.771720455273652L269.071875,21.834302253508096L269.1984375,21.878204363954023L269.4515625,21.91860976880745L269.578125,21.947011638622694L269.9578125,22.025450052909047L270.08437499999997,22.055571684133604L270.2109375,22.06706144906214" style="fill: none;" fill="none"></path></g></g></g></g><g opacity="0.2"><g><g><g><path stroke="rgb(255, 112, 67)" stroke-width="2px" d="M37.4625,184.58870380575007L37.96875,154.48269071362236L38.0953125,152.6734386465766L38.475,151.63956525109032L38.854687500000004,149.56052034551448L38.98125,149.78301072120667L39.234375,148.51555983586744L39.3609375,148.02957786213267L39.8671875,148.1193297776309L40.120312500000004,147.8923988017169L40.753125,146.6932257413864L41.259375000000006,145.69346728108147L41.385937500000004,145.62459481846201L41.639062499999994,145.71184350143778L41.8921875,145.29531903700396L42.01875,145.16758704185486L42.1453125,145.05801067569038L42.3984375,144.66666240041906L42.6515625,144.69418836723673L42.778124999999996,144.63865688714114L43.5375,144.03118661316958L43.6640625,143.73054934631693L43.9171875,143.60567544807088L44.043749999999996,143.5351149819114L44.4234375,143.07200737433L45.309374999999996,142.53580729527906L45.5625,142.23263802311638L45.6890625,142.22279772975227L45.9421875,141.99139738082886L46.19531250000001,141.62028596617958L46.4484375,141.28748072277415L46.9546875,140.8924591216174L47.081250000000004,140.7842254855416L47.2078125,140.6524461182681L47.5875,140.536002646793L47.7140625,140.38882024721667L47.840624999999996,140.31458645517176L47.9671875,140.08562220226634L48.2203125,139.85890222679484L48.346875000000004,139.9312466057864L48.7265625,139.61867822300303L48.853125,139.59129612012342L48.9796875,139.49764069643888L49.359375,139.2934594045986L49.4859375,139.12156118046153L49.612500000000004,139.07999409328806L49.7390625,139.01003785566851L50.11875,119.83148831670934L50.4984375,118.60414669730447L50.625,118.92576891725713L50.751562500000006,118.40622828223489L51.0046875,117.35647230798548L51.131249999999994,116.44372275742619L51.2578125,116.53272658044642L51.384375,117.28542270443656L51.6375,116.55893858996305L51.890625,116.81550553711979L52.143750000000004,117.08184564113617L52.396874999999994,117.00119551745328L52.65,116.37968412312595L52.7765625,116.46018079194157L53.0296875,116.23880296403712L53.15625,116.13306296955456L53.282812500000006,115.9764239137823L53.409375,116.11348788304761L53.535937499999996,116.33683185143903L53.7890625,116.58748119527644L53.915625,116.83754549243234L54.421875,116.74073465303942L54.801562499999996,116.43888892910697L55.18125,116.43550333109769L55.434375,116.11982748725198L55.5609375,116.14939632199027L55.6875,116.1170748905702L55.940625,116.26395997134122L56.067187499999996,116.35328029502521L56.3203125,116.1619220755317L56.446875,116.20206970518285L56.573437500000004,116.10526845671914L56.7,116.08589477972552L57.332812499999996,116.00555156577717L57.459375,116.0629340952093L57.5859375,116.0464568788355L57.965625,116.03751813281666L58.0921875,115.97326849807392L58.21874999999999,116.13491401889108L58.3453125,116.05323766578327L58.598437499999996,116.19230613925241L59.6109375,116.14183866977692L59.7375,116.02537601644343L60.1171875,116.18699276447296L60.24375,116.17808279124174L60.370312500000004,116.1886615861546L60.623437499999994,116.12435440583661L60.8765625,116.02159719033673L61.1296875,116.11229860782623L61.25625,116.16281403194775L61.509375,116.28231700983915L61.7625,116.28177032687448L61.889062499999994,116.35736603086644L62.1421875,105.6403178735213L62.775000000000006,101.25394476543774L62.901562500000004,101.6324987411499L63.028124999999996,101.4417735229839L63.154687499999994,102.1281963261691L63.28125,101.59357875043696L63.9140625,100.55996431003918L64.1671875,100.87427824193782L64.29375,100.60684477199207L64.4203125,100.36801145293497L64.546875,100.17387186397205L64.9265625,100.66924335739829L65.05312500000001,100.64798985828052L65.4328125,100.69930132952604L65.6859375,100.71821464191784L65.8125,100.7809009552002L66.1921875,100.74907825209878L66.4453125,100.57630725340411L67.078125,100.85906702821904L67.2046875,101.12872559374028L67.33125,101.26002541455357L67.4578125,101.21554268490185L68.090625,101.35012260350315L68.2171875,101.47451695528898L68.4703125,101.74826125665143L68.85000000000001,101.46504111723468L68.9765625,101.50012473626569L69.10312499999999,101.64230067079717L69.2296875,101.62334899468854L69.4828125,101.67650192434138L69.73593749999999,101.67974365841259L69.98906249999999,101.89454210888256L70.11562500000001,101.91792479428379L70.2421875,101.83488652922891L70.36875,101.86459922790527L70.7484375,101.88410717790777L71.0015625,101.85825003277172L71.2546875,101.85596739162098L71.38125,101.81664458188145L71.5078125,101.77839595621282L71.63437499999999,101.58170518008146L71.76093750000001,101.6471728628332L71.8875,101.60221058672124L72.0140625,101.6862079446966L72.7734375,101.84923455931924L73.153125,101.80542319471186L73.2796875,101.73249376903881L73.7859375,101.6865915818648L74.16562499999999,101.75242371992633L74.29218750000001,101.76097882877697L74.79843749999999,88.7257743098519L74.925,87.86224540797147L75.0515625,89.19310192628339L75.17812500000001,88.45348782972857L75.3046875,87.74828598716043L75.43125,88.01293808763678L75.5578125,87.69707042520697L75.68437499999999,87.95479787479748L75.8109375,88.77674050764605L75.9375,88.41282228990036L76.190625,88.72109393639997L76.3171875,89.08622061122547L76.5703125,88.99834851785138L77.0765625,89.65983490510419L77.203125,89.01248554749921L77.5828125,89.41877649047159L77.70937500000001,89.36969011480159L77.8359375,89.0359833240509L77.9625,89.12872760946101L78.34218750000001,89.59893250465393L78.721875,90.06900312683798L78.8484375,90.12610751932317L79.228125,90.34184588085523L79.3546875,90.17479107596658L79.86093749999999,90.21461261402479L79.98750000000001,90.23016910119489L80.3671875,89.83642309362239L80.49374999999999,89.92423764142124L80.6203125,89.79094290733337L80.74687499999999,89.8604004166343L80.87343750000001,89.84194746884434L81,89.86218432946637L81.1265625,89.86676879362628L81.253125,89.75399864803663L81.50625,89.59684168208729L81.63281249999999,89.66819819537076L81.759375,89.74396653608844L81.8859375,89.81718368963763L82.39218749999999,89.69700934670188L82.51875000000001,89.591816035184L82.6453125,89.66067890687421L82.77187500000001,89.63733458518982L82.8984375,89.76272639361295L83.1515625,89.84743348034947L83.40468750000001,89.71486765688115L83.6578125,89.80717075954786L83.784375,89.57495518164203L84.1640625,89.64713651483709L84.290625,89.59691840952092L84.4171875,89.73420297015797L84.6703125,89.62549937855115L84.92343749999999,89.49801674756138L85.4296875,89.46176303516737L85.55624999999999,89.50975604490802L85.93593750000001,89.56870189580052L86.0625,89.57884909889914L86.1890625,89.42600805109197L86.315625,89.31878146258268L86.44218749999999,89.35219625993207L86.56875,72.40909090909092L86.6953125,83.602760293267L86.9484375,85.43506895412098L87.075,84.04106575792487L87.2015625,82.71976180510089L87.328125,81.82815066250888L87.58125000000001,80.05967922644183L87.9609375,78.43417018110102L88.46718750000001,77.63996451551264L88.846875,77.4624364159324L88.97343749999999,77.19855158979243L89.10000000000001,77.08064070614903L89.4796875,77.0834412574768L89.7328125,76.83969738266684L89.859375,77.16252805969931L89.9859375,77.29858498139816L90.1125,77.15347422253002L90.2390625,77.34953199733387L90.365625,77.15897941589355L90.4921875,77.14854448491877L90.871875,77.21516307917508L90.99843750000001,77.4103193066337L91.125,77.59467614780773L91.25156249999999,77.73664108189669L91.63125000000001,77.27844403006814L92.5171875,77.7670443274758L92.896875,78.08824454654346L93.0234375,78.00079445405441L93.27656250000001,78.19909650629218L93.403125,78.24074032089926L93.52968750000001,78.16418552398682L93.65625,78.25512671470642L93.78281249999999,78.34288371693005L94.03593749999999,78.38707871870562L94.16250000000001,78.44151683287188L94.2890625,78.52704873951998L94.5421875,78.4415935603055L94.66875,78.44161274216391L95.0484375,78.83706593513489L95.3015625,78.83731529929422L95.5546875,78.79231465946545L95.68124999999999,78.79862549088217L95.80781250000001,78.82126008380543L96.5671875,79.07212042808533L96.69375000000001,79.14458948915656L96.8203125,79.23508949713275L97.3265625,79.183720480312L97.70625,79.37298787723888L97.959375,79.47284863211893L98.33906250000001,79.67289623347196L98.84531249999999,61.82296852632004L99.3515625,62.30635135824031L99.478125,63.51124061237682L99.6046875,64.90587680990046L99.85781250000001,65.73654718832537L99.984375,66.40501577203925L100.1109375,66.40211931141941L100.2375,66.11694262244485L100.3640625,66.78767466545105L100.6171875,68.24089225855741L100.8703125,68.38145691698249L100.996875,68.89094625819813L101.1234375,68.79783751747824L101.25,68.50675281611356L101.50312500000001,69.04114020954479L101.6296875,69.06580807945944L101.75625000000001,69.15719045292248L102.009375,69.3817524693229L102.38906250000001,70.01360288533299L102.6421875,69.9991589459506L103.021875,69.80601681362499L103.14843750000001,69.99873694506559L103.4015625,69.87691296230663L103.6546875,69.72587500918995L103.90781249999999,69.72927019812845L104.1609375,69.77979521317917L104.28750000000001,69.84040988575329L104.6671875,69.9458333795721L104.79374999999999,69.93839081850919L104.92031250000001,70.00610277869485L105.046875,70.12808021632108L105.553125,70.39697150750595L105.80625,70.51321356946772L106.059375,70.48816206238486L106.43906249999999,70.29712993448432L106.56562500000001,70.32498199289496L106.6921875,70.40353170308201L106.81875,70.5113337473436L106.9453125,70.3971057805148L107.07187499999999,70.38481020927429L107.578125,70.18840716101907L107.83125,70.32390780882403L107.9578125,70.29156719554554L108.084375,70.30946386944164L108.2109375,70.27819744023411L108.3375,70.35450287298724L108.7171875,70.4896007017656L108.84375,70.47830258716236L108.97031249999999,70.48231159556995L109.85625,71.06480708989231L110.2359375,70.97589917616412L110.86875,71.25769985805859L110.9953125,71.24876111203974L111.121875,56.58196689865805L111.5015625,61.82296852632004L111.7546875,60.21900070797313L111.88125,60.480890620838515L112.0078125,60.56820644031871L112.3875,59.02527529543097L113.02031249999999,60.73518451777372L113.2734375,60.690414060245864L113.4,60.95264924656261L113.5265625,61.16760115189987L113.653125,61.26412426341664L113.90625,61.129083980213515L114.2859375,61.47656334530223L114.4125,61.44901819662615L114.66562499999999,61.849612127650865L115.171875,62.145645748485215L115.29843749999999,62.23557030070912L115.55156249999999,62.20823615247554L115.93125,62.49032456224616L116.184375,62.42408960515804L116.43749999999999,62.49625175649471L116.5640625,62.723556778647676L116.690625,62.877548737959444L116.94375,62.82048270919107L117.19687499999999,62.842599391937256L117.32343750000001,62.889479853890165L117.45,63.029871875589556L117.57656250000001,62.86864835565741L117.703125,62.86648080565713L117.95625,62.85502923618663L118.08281249999999,62.83874383839695L118.20937500000001,62.86567516760393L118.8421875,62.810968507419936L118.96875,62.82932554591786L119.0953125,62.916698910973295L119.3484375,62.99758880788631L119.475,62.812771602110445L119.6015625,62.87141054326839L119.72812499999999,62.863833709196626L120.6140625,63.06121503223073L120.99375,63.13138227029282L121.1203125,63.14181720126759L121.3734375,63.26047617738898L122.00625,63.21269416809082L122.1328125,63.257963353937335L122.259375,63.2840698632327L122.6390625,63.4116292216561L122.765625,63.40019683404404L123.01875,63.56938082521613L123.1453125,63.632393230091445L123.27187500000001,63.64411334557968L123.525,59.51013513044878L123.6515625,58.95278705250133L123.90468750000001,57.282315731048584L124.03125,55.464048190550386L124.1578125,55.35367577726192L124.284375,54.70703614841808L124.4109375,54.79828424887224L124.5375,54.95273657278582L125.1703125,53.24420844424855L125.296875,53.260493842038244L125.55000000000001,53.37781008807096L125.80312500000001,53.18758359822361L126.05624999999999,53.49269023808567L126.1828125,53.33459336107428L126.5625,53.525318579240285L126.6890625,53.73428574475376L127.19531250000001,54.01723733815281L127.321875,54.15268044038254L127.4484375,54.181875228881836L127.575,54.14989907091315L127.95468749999999,54.11899709701538L128.334375,54.476451028477065L128.9671875,55.09449050643228L129.09375,55.13874305378307L129.346875,55.23008706352929L129.47343750000002,55.161780465732924L129.6,55.33833029053427L129.853125,55.48476459763266L129.97968749999998,55.27976807680997L130.10625000000002,55.448491703380235L130.2328125,55.50835828347641L130.7390625,56.069331732663244L130.865625,56.03986839814621L131.11875,56.13343750346791L131.2453125,56.16838684949009L131.371875,56.29675184596669L131.625,56.55401893095537L131.7515625,56.460219643332735L132.13125,56.74211623451926L132.384375,56.903896028345294L133.0171875,56.81343438408591L133.14375,56.88457989692688L133.5234375,56.953135858882554L133.903125,57.26627969741821L134.2828125,57.32618464123119L134.409375,57.319279172203764L134.5359375,57.29896558414806L134.915625,57.262539235028356L135.04218749999998,57.2523728500713L135.5484375,66.66234040260315L135.67499999999998,51.73152709007263L136.940625,49.66088383848018L137.19375,50.37180187485436L137.3203125,50.30838665095243L137.446875,50.41356078061192L137.57343749999998,50.40550440007991L137.8265625,50.636933521790944L138.0796875,50.962564750151216L138.3328125,51.065130147066995L138.7125,50.89143841916866L138.965625,50.96544202891263L139.0921875,51.055826945738374L139.47187499999998,51.38266663117844L139.5984375,51.08500255237926L139.8515625,50.66014357046648L140.1046875,50.728526895696476L140.23125000000002,50.65141582489014L140.35781250000002,50.78969784216448L140.6109375,50.804621328007094L140.7375,50.83113065632908L140.990625,50.71233740719883L141.1171875,50.78476810455322L141.37031249999998,51.05118493600327L141.6234375,51.2452094338157L141.74999999999997,51.430563731627046L142.003125,51.7322560006922L142.25625,51.86718119274486L142.7625,51.925398133017815L142.8890625,51.931766510009766L143.015625,51.999209924177705L143.14218749999998,52.01754778081722L143.26874999999998,51.95622337948192L143.39531250000002,51.97463796355508L143.52187500000002,51.95422846620734L143.775,51.98944635824724L144.28125,52.00133911046116L144.53437499999998,52.00394784320485L144.6609375,52.00799521532926L145.04062499999998,51.8694446520372L145.546875,51.77905973521146L145.9265625,51.59698553518816L146.1796875,51.71886706352234L146.30625,51.81548608433116L146.43281249999998,51.90519963611256L146.9390625,52.00291202285074L147.065625,51.99287991090256L147.19218750000002,51.92188785292886L147.31875,51.761661789634026L147.4453125,51.75450695644725L147.571875,51.79404076662931L147.825,28.159094745462603L147.9515625,34.96677465872332L148.33124999999998,43.22093933278865L148.9640625,43.94722203774887L149.2171875,43.64482003992255L149.34375,43.95566205544907L149.59687499999998,44.165607495741426L149.7234375,44.64438668164341L150.2296875,44.124941955913194L150.4828125,44.64661177721891L150.609375,44.53861791437323L150.7359375,44.87153824892911L150.9890625,44.774708227677785L151.2421875,44.16157930547542L151.36874999999998,44.20734721964057L151.49531249999998,44.29119112274865L151.74843750000002,44.58415564623746L151.875,44.32472101124851L152.128125,44.32036672938954L152.25468750000002,44.14744227582759L152.38125,44.27216271920639L152.5078125,44.336287671869464L152.634375,44.239496014334954L152.76093749999998,44.22952144796199L153.39375,44.440694527192555L153.646875,44.92770273035224L153.9,45.007902080362506L154.0265625,45.245488578623004L154.153125,45.25768824057146L154.7859375,45.47210305387325L155.2921875,45.925562186674654L155.5453125,46.04809589819475L155.671875,46.03860087828203L156.43124999999998,46.276091467250474L156.55781249999998,46.27006836370989L156.68437500000002,46.23561774600636L156.81093750000002,46.33189149336382L156.9375,46.369852391156286L157.44375,46.45906721461903L157.696875,46.587604847821325L157.82343749999998,46.588563940741814L158.58281250000002,46.768336317755974L158.709375,46.69719080491501L159.0890625,46.77715997262436L159.3421875,46.97294920141048L159.46875,47.12212651426143L159.5953125,47.121531876650735L159.8484375,47.15836104479703L160.228125,41.38414211706682L160.3546875,38.859867095947266L160.48125000000002,40.044941490346744L160.734375,39.89265671643345L160.8609375,39.63586917790501L160.98749999999998,39.39387085221032L161.1140625,39.82170302217658L161.240625,39.484351678328096L161.3671875,39.32569852742283L161.74687500000002,40.090498404069386L161.87343750000002,40.04453867132015L162.1265625,40.79673606699164L162.253125,41.08551894534718L162.3796875,41.14774489402771L162.759375,41.48659242283214L162.88593749999998,41.519968856464736L163.0125,41.516324303366936L163.51875,41.47516003522007L163.64531250000002,41.61470805514943L163.771875,41.89466727863658L164.4046875,41.79302261092447L164.65781249999998,41.7293196591464L164.91093750000002,41.818400209600284L165.03750000000002,41.68656329675156L165.1640625,41.829218777743264L165.54375000000002,41.80198053880173L165.6703125,41.89309436624701L165.796875,41.90951403704557L165.9234375,41.838790525089614L166.04999999999998,41.89798574014145L166.1765625,42.06248935786161L166.303125,42.19599509239197L166.4296875,42.220720507881865L166.6828125,42.305638595060884L167.0625,42.4686460278251L167.315625,42.46064719286832L167.4421875,42.525577783584595L167.821875,42.773100484501235L167.94843749999998,42.732396580956205L168.20156250000002,42.75449408184398L168.328125,42.69750478050927L168.4546875,42.76316428184509L168.58125,42.701782334934585L168.70781250000002,42.60111594200134L168.9609375,42.48817315968601L169.0875,42.50154291499745L169.2140625,42.45354990525681L169.340625,42.38497476144272L169.59375,42.295894210988834L169.97343750000002,42.45761645923961L170.353125,42.48410660570319L170.4796875,42.602995764125474L170.7328125,42.66098252209751L170.859375,42.72190410440619L170.9859375,42.64193493669684L171.11249999999998,42.70627088980242L171.2390625,42.72823411768134L171.365625,42.62392317165028L171.61875,42.782518776980325L172.125,42.881861621683306L172.2515625,42.904361941597685L172.5046875,29.667613636363654L172.7578125,33.786630001935094L173.01093749999998,35.4642561565746L173.1375,36.644899541681475L173.896875,34.73542226444591L174.0234375,34.696022727272734L174.27656249999998,34.63220468434422L174.403125,34.41399186307735L174.5296875,34.8772337436676L175.03593750000002,35.380028616298326L175.2890625,35.46636616099965L175.5421875,35.508067521181985L175.7953125,35.51476198976691L175.921875,35.56672564419834L176.0484375,35.52057409286499L176.428125,35.91476128318094L176.55468749999997,36.018669410185396L176.68125,36.232316949150785L176.93437500000002,36.66853159124202L177.0609375,36.602987181056626L177.440625,36.95856129039418L177.5671875,36.9501404545524L177.94687499999998,37.38547273115679L178.07343749999998,37.3508878404444L178.20000000000002,37.317760770971134L178.453125,37.10710560191762L178.959375,37.45801851966165L179.0859375,37.4870982170105L179.2125,37.62528432499278L179.465625,37.646096641367144L179.5921875,37.88579314405269L180.09843750000002,37.74432693828236L180.225,37.783899112181246L180.478125,37.56739347631282L180.8578125,37.53674086657438L180.984375,37.66362885995346L181.3640625,37.94458554007791L181.49062500000002,38.03677355159413L182.1234375,38.26557475870307L182.3765625,38.360160502520486L182.50312499999998,38.40817269411954L182.6296875,38.445193680849954L182.75625,38.45213751359421L182.8828125,38.49253450740468L183.00937499999998,38.503525712273344L183.13593749999998,38.54238815741106L183.515625,38.80328061363915L183.6421875,38.96254758401352L183.76875,38.98978582295506L183.8953125,39.0558865070343L184.1484375,39.136642130938455L184.40156249999998,39.268632498654455L184.528125,39.353377949107774L184.9078125,25.723919456655338L185.034375,27.14080660993404L185.4140625,31.606324065815322L185.79375,31.41673057729549L186.29999999999998,33.360735199668206L186.9328125,33.24098285761747L187.05937500000002,33.34899590232156L187.1859375,33.48503364216197L187.6921875,33.01887611909348L188.07187499999998,33.43218762224372L188.4515625,33.791425466537476L188.7046875,34.108444040471866L189.084375,34.70789629762824L189.46406249999998,34.76114513657311L189.7171875,34.73344653302974L189.84375,34.720575506036944L190.096875,34.71487849408931L190.22343750000002,34.68539597771386L190.7296875,34.940821604295216L191.23593749999998,35.127307631752714L191.7421875,35.17468682202427L191.86875,35.11614379015836L192.5015625,35.19615132158454L192.7546875,34.991979620673455L192.88125,35.17493618618358L193.134375,35.341300444169484L193.2609375,35.42961372028697L193.5140625,35.468456983566284L194.4,35.73567945306952L195.5390625,36.06627878275785L195.665625,36.10899678143589L195.91875,36.178166562860675L196.0453125,36.20941381020981L196.425,36.33764453367754L196.55156250000002,36.44212811643428L196.8046875,23.039264917373657L197.3109375,30.370628747073102L197.5640625,30.758984652432535L198.07031249999997,29.387155684557843L198.196875,29.600381222638223L198.3234375,29.679966753179386L198.45000000000002,30.112632751464844L198.5765625,30.286439570513654L199.0828125,31.607781887054443L199.209375,31.679502855647712L199.46249999999998,31.632066119800918L199.58906249999998,32.16371050747959L200.0953125,32.16647269509057L200.221875,32.1522589380091L200.728125,32.56837099248714L200.85468749999998,32.856022141196526L201.36093749999998,33.02589667927137L201.740625,32.66389664736661L202.1203125,32.74396172436802L202.246875,32.48895809867166L202.5,32.53766083717346L202.6265625,32.73013160445474L203.00625000000002,32.44334363937378L203.259375,32.3703183044087L204.271875,32.7252402305603L204.65156249999998,32.860683332790046L204.77812500000002,32.88176419518212L205.03125,32.952813798731036L205.284375,32.87002489783548L205.4109375,32.96608764475043L206.55,33.04659390449524L206.67656250000002,33.1486797549508L206.9296875,33.23990867354654L207.1828125,33.05271291732788L207.4359375,33.1275605288419L207.5625,33.17309826070613L207.68906249999998,33.22226136380977L207.81562499999998,33.1688207062808L208.1953125,33.14045073769311L208.4484375,33.18073264035313L208.57500000000002,33.12686998193915L208.7015625,33.197957949204884L208.828125,33.19573285362939L208.9546875,33.20192859389566L209.08124999999998,35.757585135373205L209.2078125,24.413798527284108L209.4609375,24.835972049019556L209.58749999999998,24.31716032461687L209.7140625,24.94828183000739L209.84062500000002,26.007408142089844L209.96718750000002,25.918250864202335L210.09375,26.231030247428215L210.2203125,26.00938387350603L210.346875,26.98499237407338L210.4734375,26.73620367050171L210.6,26.94743429530751L210.7265625,27.27678680419922L211.4859375,27.197354728525347L211.865625,27.27212561260572L211.9921875,27.53296052325856L212.2453125,27.471521030772834L212.371875,27.086867224086433L212.87812499999998,27.571209148927174L213.00468750000002,27.3980353312059L213.13125000000002,27.34710749712858L213.2578125,27.31125660376116L213.6375,27.491393436085097L213.7640625,27.64885731176897L213.890625,27.55751330202277L214.0171875,27.55237256396901L214.14374999999998,27.497761813077066L214.396875,27.652099045840192L214.5234375,27.839678439227033L215.0296875,27.95139358260415L215.15625,27.988874933936394L215.2828125,27.959776054729133L215.5359375,27.779888586564503L215.915625,28.044579050757683L216.421875,28.596115025607038L216.5484375,28.56170277162033L216.675,28.481848695061426L216.928125,28.419968019832282L217.18125,28.59912657737732L217.30781249999998,28.616984887556608L218.19375000000002,29.1557457447052L218.5734375,29.286738655783928L218.8265625,29.377085208892822L219.0796875,29.280600461092877L219.459375,29.376394661990094L219.58593750000003,29.564280965111475L219.96562500000002,29.566697879271086L220.0921875,29.66559954123064L220.3453125,29.712863640351735L220.471875,29.660113529725514L220.97812499999998,29.852085568688135L221.23125,29.841995911164723L221.35781250000002,24.491312417117047L221.7375,24.52988713437862L221.86406250000002,24.27388605204496L221.990625,25.5244856747714L222.24375,25.477279121225543L222.496875,25.034005555239606L223.12968750000002,26.810878645290046L223.3828125,26.851947004144854L223.509375,26.948623570528913L223.6359375,27.250315839594073L223.8890625,27.3187567103993L224.1421875,27.020382902838982L224.26874999999998,27.085466948422525L224.3953125,26.80297571962531L224.521875,27.090741959485147L224.9015625,27.6513317715038L225.1546875,27.51398966529153L225.28125,27.267694603313117L225.4078125,27.221101869236342L225.534375,27.27285452322527L225.6609375,27.495594263076782L226.04062499999998,27.719235550273567L226.6734375,27.799051263115626L227.30625,27.558376485651202L227.43281249999998,27.430241671475503L227.559375,27.60684904185209L228.065625,27.67049444805494L228.19218750000002,27.811845562674797L228.31875,27.9842521060597L229.2046875,28.29900722070175L229.33124999999998,28.30311213840138L229.58437500000002,28.415095827796257L229.7109375,28.46556329727173L229.9640625,28.585488276048146L230.4703125,28.38490358265965L230.7234375,28.378861297260634L230.9765625,28.325919368050318L231.2296875,28.260317412289712L231.35625000000002,28.269141067158095L231.7359375,28.304071231321867L231.8625,28.311954975128174L232.36875,28.240751916711993L232.49531249999998,28.15819319811735L232.621875,28.189593900333755L232.7484375,28.246928475119866L233.0015625,28.175591143694806L233.128125,28.089522145011223L233.7609375,26.916474775834523L233.8875,27.343482125889174L234.140625,25.13589958711105L234.39374999999998,23.21654365279458L234.52031250000002,23.434545473618947L234.64687500000002,23.513306184248503L234.7734375,24.306859666650958L235.0265625,23.872908483852058L235.2796875,23.737273563038222L235.7859375,23.871335571462467L236.0390625,24.483889037912554L236.2921875,24.17674912105909L236.671875,24.12344273653898L236.7984375,23.937628074125822L237.3046875,24.13905676928434L237.684375,23.906572645360782L237.9375,23.885165691375732L238.0640625,24.116191994060188L238.190625,24.203929814425397L238.31718750000002,24.106658610430646L238.696875,24.462827357378888L238.8234375,24.455039522864617L238.95,24.475736748088508L239.0765625,24.541300340132292L239.203125,24.69350838661194L239.32968749999998,24.839098691940308L239.70937500000002,24.84533279592342L239.8359375,24.91979677026923L239.9625,25.00713177160784L240.215625,25.05023340745407L240.3421875,25.00344885479322L240.46875,24.93636989593506L240.5953125,25.058769334446303L240.8484375,25.200561631809585L241.10156250000003,25.514204198663897L241.48125000000002,25.480463309721525L241.734375,25.55680710619147L241.8609375,25.498628529635358L241.9875,25.466249552640054L242.1140625,25.488136053085327L242.62031249999998,25.59194827079773L242.87343750000002,25.45458698272705L243,25.410142616792164L243.37968750000002,25.3146361437711L243.50625,25.34047410704873L243.6328125,25.350582946430556L243.759375,25.36044242165307L244.39218749999998,25.434350122104995L245.4046875,25.61933996460656L245.53125,25.620682694695216L245.6578125,25.613585407083697L246.0375,22.594936349175196L246.290625,23.92258949713274L246.54375000000002,22.7474129416726L246.6703125,22.66023139520126L246.796875,22.940420800989337L246.9234375,22.499103784561157L247.05,21.549755248156476L247.303125,21.41256659681148L247.4296875,20.946351528167725L247.80937500000002,21.41467660123653L248.4421875,21.906173359264045L248.56875,21.734361453489836L248.821875,22.066667968576617L248.94843749999998,22.004998293789956L249.2015625,21.806331786242414L250.0875,22.590428612448967L250.2140625,22.462715799158282L250.340625,22.675979700955484L250.7203125,22.839313225312672L250.84687499999998,22.821512460708618L251.2265625,22.866321281953297L251.353125,22.93155878240413L251.4796875,22.886941779743545L251.60625000000002,22.922754309394158L251.859375,22.939749435944996L251.9859375,22.98047252134844L252.2390625,23.135788028890445L252.4921875,23.158307530663233L252.74531249999998,23.37617507847874L252.87187500000002,23.361059774052016L253.2515625,23.203116351907916L253.378125,23.18520049615341L253.5046875,23.194177605889063L253.63125,23.15754025632686L253.7578125,23.19216351075607L254.2640625,23.056682044809527L254.5171875,23.309019392186954L255.0234375,23.398253397508107L255.2765625,23.439321756362915L255.5296875,23.420887990431364L255.65625,23.40945560281928L256.1625,23.28813034837897L256.5421875,23.327472339976936L256.66875,23.41158478910274L256.921875,23.414327794855303L257.04843750000003,23.458541978489272L257.3015625,23.460172436454094L257.428125,23.4282154603438L257.5546875,23.396949031136256L257.8078125,23.425184726715088L257.934375,23.403279044411402L258.06093749999997,23.48403466831556L258.8203125,21.06721641800622L258.94687500000003,21.210735082626343L259.0734375,20.310683922334157L259.2,19.559810074892926L259.3265625,19.496836033734414L259.5796875,19.75916712934322L259.70625,20.146736578507863L259.95937499999997,20.692057631232537L260.3390625,20.37860688296232L260.8453125,19.73779853907499L261.3515625,20.42026987942784L261.478125,20.26207709312439L261.6046875,20.35610656304794L261.73125,20.430033445358276L262.2375,20.33182233030147L262.3640625,20.255248351530607L262.490625,20.546966054222803L262.6171875,20.745191379026945L262.74375,20.965111385692268L262.8703125,21.121155803853824L262.996875,21.187525033950806L263.25,21.252282987941413L263.3765625,21.272884303873248L263.75625,21.267168110067203L263.8828125,21.363748767159205L264.1359375,21.370270599018447L264.3890625,21.320378585295256L264.6421875,21.25124716758728L264.76875,21.1997822414745L265.27500000000003,21.257270271127886L265.78125,21.431825182654656L266.034375,21.352124560963027L266.1609375,21.42037361318416L266.6671875,21.34393390742216L266.9203125,21.434721643274493L267.046875,21.540221864526934L267.17343750000003,21.6150119304657L267.553125,21.645971449938703L267.9328125,21.70023692737928L268.18593749999997,21.810916250402286L268.9453125,21.88397994908421L269.071875,21.928174950859766L269.1984375,21.944057529622867L269.4515625,21.97921787608754L269.578125,21.98961444334551L269.9578125,22.143107674338616L270.08437499999997,22.10075413097035L270.2109375,22.08429609645497" style="fill: none;" fill="none"></path></g></g></g></g></g></g><g transform="translate(51, 177)" clip-path="url(#clip_1)"><clipPath id="clip_1"><rect width="278" height="23"></rect></clipPath><g><g><line x1="0" y1="0" x2="0" y2="5" style="visibility: inherit;" fill="rgb(0, 0, 0)" stroke="rgb(204, 204, 204)" stroke-width="1px"></line><line x1="25.3125" y1="0" x2="25.3125" y2="5" style="visibility: inherit;" fill="rgb(0, 0, 0)" stroke="rgb(204, 204, 204)" stroke-width="1px"></line><line x1="50.625" y1="0" x2="50.625" y2="5" style="visibility: inherit;" fill="rgb(0, 0, 0)" stroke="rgb(204, 204, 204)" stroke-width="1px"></line><line x1="75.9375" y1="0" x2="75.9375" y2="5" style="visibility: inherit;" fill="rgb(0, 0, 0)" stroke="rgb(204, 204, 204)" stroke-width="1px"></line><line x1="101.25" y1="0" x2="101.25" y2="5" style="visibility: inherit;" fill="rgb(0, 0, 0)" stroke="rgb(204, 204, 204)" stroke-width="1px"></line><line x1="126.5625" y1="0" x2="126.5625" y2="5" style="visibility: inherit;" fill="rgb(0, 0, 0)" stroke="rgb(204, 204, 204)" stroke-width="1px"></line><line x1="151.875" y1="0" x2="151.875" y2="5" style="visibility: inherit;" fill="rgb(0, 0, 0)" stroke="rgb(204, 204, 204)" stroke-width="1px"></line><line x1="177.1875" y1="0" x2="177.1875" y2="5" style="visibility: inherit;" fill="rgb(0, 0, 0)" stroke="rgb(204, 204, 204)" stroke-width="1px"></line><line x1="202.5" y1="0" x2="202.5" y2="5" style="visibility: inherit;" fill="rgb(0, 0, 0)" stroke="rgb(204, 204, 204)" stroke-width="1px"></line><line x1="227.8125" y1="0" x2="227.8125" y2="5" style="visibility: inherit;" fill="rgb(0, 0, 0)" stroke="rgb(204, 204, 204)" stroke-width="1px"></line><line x1="253.125" y1="0" x2="253.125" y2="5" style="visibility: inherit;" fill="rgb(0, 0, 0)" stroke="rgb(204, 204, 204)" stroke-width="1px"></line><line x1="278.4375" y1="0" x2="278.4375" y2="5" style="visibility: inherit;" fill="rgb(0, 0, 0)" stroke="rgb(204, 204, 204)" stroke-width="1px"></line></g><g transform="translate(0, 8)"><text x="0" y="0" dx="0em" dy="0.95em" style="text-anchor: middle; visibility: hidden; font-family: Roboto, sans-serif; font-size: 12px; font-weight: 200;" fill="rgb(33, 33, 33)" stroke="none" stroke-width="1px">-20k</text><text x="25.3125" y="0" dx="0em" dy="0.95em" style="text-anchor: middle; visibility: inherit; font-family: Roboto, sans-serif; font-size: 12px; font-weight: 200;" fill="rgb(33, 33, 33)" stroke="none" stroke-width="1px">0</text><text x="50.625" y="0" dx="0em" dy="0.95em" style="text-anchor: middle; visibility: hidden; font-family: Roboto, sans-serif; font-size: 12px; font-weight: 200;" fill="rgb(33, 33, 33)" stroke="none" stroke-width="1px">20k</text><text x="75.9375" y="0" dx="0em" dy="0.95em" style="text-anchor: middle; visibility: inherit; font-family: Roboto, sans-serif; font-size: 12px; font-weight: 200;" fill="rgb(33, 33, 33)" stroke="none" stroke-width="1px">40k</text><text x="101.25" y="0" dx="0em" dy="0.95em" style="text-anchor: middle; visibility: hidden; font-family: Roboto, sans-serif; font-size: 12px; font-weight: 200;" fill="rgb(33, 33, 33)" stroke="none" stroke-width="1px">60k</text><text x="126.5625" y="0" dx="0em" dy="0.95em" style="text-anchor: middle; visibility: inherit; font-family: Roboto, sans-serif; font-size: 12px; font-weight: 200;" fill="rgb(33, 33, 33)" stroke="none" stroke-width="1px">80k</text><text x="151.875" y="0" dx="0em" dy="0.95em" style="text-anchor: middle; visibility: hidden; font-family: Roboto, sans-serif; font-size: 12px; font-weight: 200;" fill="rgb(33, 33, 33)" stroke="none" stroke-width="1px">100k</text><text x="177.1875" y="0" dx="0em" dy="0.95em" style="text-anchor: middle; visibility: inherit; font-family: Roboto, sans-serif; font-size: 12px; font-weight: 200;" fill="rgb(33, 33, 33)" stroke="none" stroke-width="1px">120k</text><text x="202.5" y="0" dx="0em" dy="0.95em" style="text-anchor: middle; visibility: hidden; font-family: Roboto, sans-serif; font-size: 12px; font-weight: 200;" fill="rgb(33, 33, 33)" stroke="none" stroke-width="1px">140k</text><text x="227.8125" y="0" dx="0em" dy="0.95em" style="text-anchor: middle; visibility: inherit; font-family: Roboto, sans-serif; font-size: 12px; font-weight: 200;" fill="rgb(33, 33, 33)" stroke="none" stroke-width="1px">160k</text><text x="253.125" y="0" dx="0em" dy="0.95em" style="text-anchor: middle; visibility: hidden; font-family: Roboto, sans-serif; font-size: 12px; font-weight: 200;" fill="rgb(33, 33, 33)" stroke="none" stroke-width="1px">180k</text><text x="278.4375" y="0" dx="0em" dy="0.95em" style="text-anchor: middle; visibility: hidden; font-family: Roboto, sans-serif; font-size: 12px; font-weight: 200;" fill="rgb(33, 33, 33)" stroke="none" stroke-width="1px">200k</text></g><line x1="0" y1="0" x2="278.4375" y2="0" fill="rgb(0, 0, 0)" stroke="rgb(204, 204, 204)" stroke-width="1px"></line></g></g></g></g></svg>