<svg width="200" height="200" viewBox="0 0 330 200" xmlns="http://www.w3.org/2000/svg"><g><g><g><g><g><line x1="51.5625" y1="177" x2="46.5625" y2="177" style="visibility: inherit;" fill="rgb(0, 0, 0)" stroke="rgb(204, 204, 204)" stroke-width="1px"></line><line x1="51.5625" y1="159.3" x2="46.5625" y2="159.3" style="visibility: inherit;" fill="rgb(0, 0, 0)" stroke="rgb(204, 204, 204)" stroke-width="1px"></line><line x1="51.5625" y1="141.6" x2="46.5625" y2="141.6" style="visibility: inherit;" fill="rgb(0, 0, 0)" stroke="rgb(204, 204, 204)" stroke-width="1px"></line><line x1="51.5625" y1="123.89999999999999" x2="46.5625" y2="123.89999999999999" style="visibility: inherit;" fill="rgb(0, 0, 0)" stroke="rgb(204, 204, 204)" stroke-width="1px"></line><line x1="51.5625" y1="106.20000000000002" x2="46.5625" y2="106.20000000000002" style="visibility: inherit;" fill="rgb(0, 0, 0)" stroke="rgb(204, 204, 204)" stroke-width="1px"></line><line x1="51.5625" y1="88.5" x2="46.5625" y2="88.5" style="visibility: inherit;" fill="rgb(0, 0, 0)" stroke="rgb(204, 204, 204)" stroke-width="1px"></line><line x1="51.5625" y1="70.80000000000003" x2="46.5625" y2="70.80000000000003" style="visibility: inherit;" fill="rgb(0, 0, 0)" stroke="rgb(204, 204, 204)" stroke-width="1px"></line><line x1="51.5625" y1="53.10000000000001" x2="46.5625" y2="53.10000000000001" style="visibility: inherit;" fill="rgb(0, 0, 0)" stroke="rgb(204, 204, 204)" stroke-width="1px"></line><line x1="51.5625" y1="35.39999999999999" x2="46.5625" y2="35.39999999999999" style="visibility: inherit;" fill="rgb(0, 0, 0)" stroke="rgb(204, 204, 204)" stroke-width="1px"></line><line x1="51.5625" y1="17.700000000000017" x2="46.5625" y2="17.700000000000017" style="visibility: inherit;" fill="rgb(0, 0, 0)" stroke="rgb(204, 204, 204)" stroke-width="1px"></line><line x1="51.5625" y1="0" x2="46.5625" y2="0" style="visibility: inherit;" fill="rgb(0, 0, 0)" stroke="rgb(204, 204, 204)" stroke-width="1px"></line></g><g transform="translate(41.5625, 0)"><text x="0" y="177" dx="0em" dy="0.3em" style="text-anchor: end; visibility: hidden; font-family: Roboto, sans-serif; font-size: 12px; font-weight: 200;" fill="rgb(33, 33, 33)" stroke="none" stroke-width="1px">0.4</text><text x="0" y="159.3" dx="0em" dy="0.3em" style="text-anchor: end; visibility: inherit; font-family: Roboto, sans-serif; font-size: 12px; font-weight: 200;" fill="rgb(33, 33, 33)" stroke="none" stroke-width="1px">0.45</text><text x="0" y="141.6" dx="0em" dy="0.3em" style="text-anchor: end; visibility: hidden; font-family: Roboto, sans-serif; font-size: 12px; font-weight: 200;" fill="rgb(33, 33, 33)" stroke="none" stroke-width="1px">0.5</text><text x="0" y="123.89999999999999" dx="0em" dy="0.3em" style="text-anchor: end; visibility: inherit; font-family: Roboto, sans-serif; font-size: 12px; font-weight: 200;" fill="rgb(33, 33, 33)" stroke="none" stroke-width="1px">0.55</text><text x="0" y="106.20000000000002" dx="0em" dy="0.3em" style="text-anchor: end; visibility: hidden; font-family: Roboto, sans-serif; font-size: 12px; font-weight: 200;" fill="rgb(33, 33, 33)" stroke="none" stroke-width="1px">0.6</text><text x="0" y="88.5" dx="0em" dy="0.3em" style="text-anchor: end; visibility: inherit; font-family: Roboto, sans-serif; font-size: 12px; font-weight: 200;" fill="rgb(33, 33, 33)" stroke="none" stroke-width="1px">0.65</text><text x="0" y="70.80000000000003" dx="0em" dy="0.3em" style="text-anchor: end; visibility: hidden; font-family: Roboto, sans-serif; font-size: 12px; font-weight: 200;" fill="rgb(33, 33, 33)" stroke="none" stroke-width="1px">0.7</text><text x="0" y="53.10000000000001" dx="0em" dy="0.3em" style="text-anchor: end; visibility: inherit; font-family: Roboto, sans-serif; font-size: 12px; font-weight: 200;" fill="rgb(33, 33, 33)" stroke="none" stroke-width="1px">0.75</text><text x="0" y="35.39999999999999" dx="0em" dy="0.3em" style="text-anchor: end; visibility: hidden; font-family: Roboto, sans-serif; font-size: 12px; font-weight: 200;" fill="rgb(33, 33, 33)" stroke="none" stroke-width="1px">0.8</text><text x="0" y="17.700000000000017" dx="0em" dy="0.3em" style="text-anchor: end; visibility: inherit; font-family: Roboto, sans-serif; font-size: 12px; font-weight: 200;" fill="rgb(33, 33, 33)" stroke="none" stroke-width="1px">0.85</text><text x="0" y="0" dx="0em" dy="0.3em" style="text-anchor: end; visibility: hidden; font-family: Roboto, sans-serif; font-size: 12px; font-weight: 200;" fill="rgb(33, 33, 33)" stroke="none" stroke-width="1px">0.9</text></g><line x1="51.5625" y1="0" x2="51.5625" y2="177" fill="rgb(0, 0, 0)" stroke="rgb(204, 204, 204)" stroke-width="1px"></line></g></g><g transform="translate(51, 0)" clip-path="url(#clip_0)"><clipPath id="clip_0"><rect width="278" height="177"></rect></clipPath><g><g><g><line x1="0" y1="0" x2="0" y2="177" fill="rgb(0, 0, 0)" stroke="rgb(66, 66, 66)" stroke-width="1px" opacity="0.25"></line><line x1="25.3125" y1="0" x2="25.3125" y2="177" fill="rgb(0, 0, 0)" stroke="rgb(66, 66, 66)" stroke-width="1px" opacity="0.25"></line><line x1="50.625" y1="0" x2="50.625" y2="177" fill="rgb(0, 0, 0)" stroke="rgb(66, 66, 66)" stroke-width="1px" opacity="0.25"></line><line x1="75.9375" y1="0" x2="75.9375" y2="177" fill="rgb(0, 0, 0)" stroke="rgb(66, 66, 66)" stroke-width="1px" opacity="0.25"></line><line x1="101.25" y1="0" x2="101.25" y2="177" fill="rgb(0, 0, 0)" stroke="rgb(66, 66, 66)" stroke-width="1px" opacity="0.25"></line><line x1="126.5625" y1="0" x2="126.5625" y2="177" fill="rgb(0, 0, 0)" stroke="rgb(66, 66, 66)" stroke-width="1px" opacity="0.25"></line><line x1="151.875" y1="0" x2="151.875" y2="177" fill="rgb(0, 0, 0)" stroke="rgb(66, 66, 66)" stroke-width="1px" opacity="0.25"></line><line x1="177.1875" y1="0" x2="177.1875" y2="177" fill="rgb(0, 0, 0)" stroke="rgb(66, 66, 66)" stroke-width="1px" opacity="0.25"></line><line x1="202.5" y1="0" x2="202.5" y2="177" fill="rgb(0, 0, 0)" stroke="rgb(66, 66, 66)" stroke-width="1px" opacity="0.25"></line><line x1="227.8125" y1="0" x2="227.8125" y2="177" fill="rgb(0, 0, 0)" stroke="rgb(66, 66, 66)" stroke-width="1px" opacity="0.25"></line><line x1="253.125" y1="0" x2="253.125" y2="177" fill="rgb(0, 0, 0)" stroke="rgb(66, 66, 66)" stroke-width="1px" opacity="0.25"></line><line x1="278.4375" y1="0" x2="278.4375" y2="177" fill="rgb(0, 0, 0)" stroke="rgb(66, 66, 66)" stroke-width="1px" opacity="0.25"></line></g><g><line x1="0" y1="177" x2="278.4375" y2="177" fill="rgb(0, 0, 0)" stroke="rgb(66, 66, 66)" stroke-width="1px" opacity="0.25"></line><line x1="0" y1="159.3" x2="278.4375" y2="159.3" fill="rgb(0, 0, 0)" stroke="rgb(66, 66, 66)" stroke-width="1px" opacity="0.25"></line><line x1="0" y1="141.6" x2="278.4375" y2="141.6" fill="rgb(0, 0, 0)" stroke="rgb(66, 66, 66)" stroke-width="1px" opacity="0.25"></line><line x1="0" y1="123.89999999999999" x2="278.4375" y2="123.89999999999999" fill="rgb(0, 0, 0)" stroke="rgb(66, 66, 66)" stroke-width="1px" opacity="0.25"></line><line x1="0" y1="106.20000000000002" x2="278.4375" y2="106.20000000000002" fill="rgb(0, 0, 0)" stroke="rgb(66, 66, 66)" stroke-width="1px" opacity="0.25"></line><line x1="0" y1="88.5" x2="278.4375" y2="88.5" fill="rgb(0, 0, 0)" stroke="rgb(66, 66, 66)" stroke-width="1px" opacity="0.25"></line><line x1="0" y1="70.80000000000003" x2="278.4375" y2="70.80000000000003" fill="rgb(0, 0, 0)" stroke="rgb(66, 66, 66)" stroke-width="1px" opacity="0.25"></line><line x1="0" y1="53.10000000000001" x2="278.4375" y2="53.10000000000001" fill="rgb(0, 0, 0)" stroke="rgb(66, 66, 66)" stroke-width="1px" opacity="0.25"></line><line x1="0" y1="35.39999999999999" x2="278.4375" y2="35.39999999999999" fill="rgb(0, 0, 0)" stroke="rgb(66, 66, 66)" stroke-width="1px" opacity="0.25"></line><line x1="0" y1="17.700000000000017" x2="278.4375" y2="17.700000000000017" fill="rgb(0, 0, 0)" stroke="rgb(66, 66, 66)" stroke-width="1px" opacity="0.25"></line><line x1="0" y1="0" x2="278.4375" y2="0" fill="rgb(0, 0, 0)" stroke="rgb(66, 66, 66)" stroke-width="1px" opacity="0.25"></line></g></g></g><g><g><line x1="0" y1="318.6" x2="278.4375" y2="318.6" fill="rgb(0, 0, 0)" stroke="rgb(153, 153, 153)" stroke-width="1.5px"></line></g></g><g><g><line x1="25.3125" y1="0" x2="25.3125" y2="177" fill="rgb(0, 0, 0)" stroke="rgb(153, 153, 153)" stroke-width="1.5px"></line></g></g><g><g><g><g><g><path stroke="rgb(255, 112, 67)" stroke-width="2px" d="M37.96875,179.52915216611814L38.0953125,169.7683360070284L38.475,163.68908470448682L38.854687500000004,159.18882627471191L38.98125,156.6917760228079L39.234375,155.0315017518349L39.3609375,153.71298337322025L39.8671875,153.4401780530305L40.120312500000004,153.177054572373L40.753125,152.44458407894916L41.259375000000006,151.64324024400787L41.385937500000004,151.16617709089323L41.639062499999994,151.0217779164851L41.8921875,150.75169884713532L42.01875,150.5685682413104L42.1453125,150.50296621067062L42.3984375,150.38251330222332L42.6515625,150.2629985580781L42.778124999999996,150.14749023973576L43.5375,149.86858584916374L43.6640625,149.644982056831L43.9171875,149.46809219182413L44.043749999999996,149.3243284539037L44.4234375,149.1361190173419L45.309374999999996,148.7194624384279L45.5625,148.38290344953745L45.6890625,148.16135345506794L45.9421875,147.87054870729523L46.19531250000001,147.56584060552643L46.4484375,147.23883492209274L46.9546875,146.95946357761477L47.081250000000004,146.73602271386773L47.2078125,146.5345519942569L47.5875,146.38083789363668L47.7140625,146.22169275292853L47.840624999999996,146.07938889032064L47.9671875,145.93606163123522L48.2203125,145.7307951656537L48.346875000000004,145.63278653905132L48.7265625,145.47565515688265L48.853125,145.37463697344782L48.9796875,145.2434928354664L49.359375,145.05807388884088L49.4859375,144.91023926414405L49.612500000000004,144.7444600276789L49.7390625,144.6184612901593L50.11875,134.65029620120436L50.4984375,128.73448656433527L50.625,125.92336729069774L50.751562500000006,124.2880954343094L51.0046875,122.99806987273774L51.131249999999994,122.08430472271493L51.2578125,121.64834850822004L51.384375,121.70009355660741L51.6375,121.37459203789511L51.890625,120.86358382457425L52.143750000000004,120.75237374635896L52.396874999999994,120.46012198646284L52.65,120.32266660999905L52.7765625,120.15185171885283L53.0296875,120.11664660527106L53.15625,120.099465025388L53.282812500000006,119.99264447505641L53.409375,119.97732700714685L53.535937499999996,120.08413612967261L53.7890625,120.26070171907863L53.915625,120.38428914973332L54.421875,120.3768519570183L54.801562499999996,120.39388636647172L55.18125,120.3753687518746L55.434375,120.24174288618032L55.5609375,120.186136258289L55.6875,120.1208521346121L55.940625,120.10529682993106L56.067187499999996,120.16420119022857L56.3203125,120.11748995432573L56.446875,120.04360015660117L56.573437500000004,119.9152543417787L56.7,119.82154405785651L57.332812499999996,119.72374236031209L57.459375,119.60431009437936L57.5859375,119.52664144221721L57.965625,119.47734788527356L58.0921875,119.39942732972067L58.21874999999999,119.37071975423193L58.3453125,119.34290298672495L58.598437499999996,119.35759291203009L59.6109375,119.32695822448245L59.7375,119.29018661338515L60.1171875,119.31266162013068L60.24375,119.30502125987441L60.370312500000004,119.28446853023193L60.623437499999994,119.23125344670667L60.8765625,119.19344170425448L61.1296875,119.19637855252097L61.25625,119.1826785490541L61.509375,119.22292112860846L61.7625,119.28075078698258L61.889062499999994,119.3690004943148L62.1421875,115.18905356158824L62.775000000000006,110.25177822726971L62.901562500000004,107.74739370714433L63.028124999999996,106.39788179618603L63.154687499999994,105.31294567240766L63.28125,104.43041523250037L63.9140625,103.3821059605604L64.1671875,102.79886529333146L64.29375,102.23243443898411L64.4203125,101.7836321779016L64.546875,101.58853013681907L64.9265625,101.35265034298622L65.05312500000001,101.13755083239391L65.4328125,100.9566947374124L65.6859375,100.75369508226983L65.8125,100.67557238078281L66.1921875,100.41936100087264L66.4453125,100.29729267931998L67.078125,100.46480319128645L67.2046875,100.55993320719129L67.33125,100.59991174087361L67.4578125,100.65367524352926L68.090625,100.66135601357972L68.2171875,100.67226072881434L68.4703125,100.77388035734779L68.85000000000001,100.87722946334056L68.9765625,100.98341397957904L69.10312499999999,101.05948087523524L69.2296875,101.08607189267958L69.4828125,101.09606785064986L69.73593749999999,101.12000046304493L69.98906249999999,101.29250064213056L70.11562500000001,101.4120789833008L70.2421875,101.46676027221315L70.36875,101.48173528816004L70.7484375,101.5137193459612L71.0015625,101.53334866156231L71.2546875,101.57315554970532L71.38125,101.57681740018145L71.5078125,101.58931133206138L71.63437499999999,101.54680058631568L71.76093750000001,101.53719513221544L71.8875,101.51744675042606L72.0140625,101.49126657129753L72.7734375,101.56987566162007L73.153125,101.59912295823611L73.2796875,101.57319680503198L73.7859375,101.50033339292519L74.16562499999999,101.4644392420692L74.29218750000001,101.43177880822678L74.79843749999999,95.58944809662738L74.925,91.83952547685765L75.0515625,90.12699003205577L75.17812500000001,88.88636675826241L75.3046875,88.30183828921038L75.43125,87.7447374549563L75.5578125,87.3060148553285L75.68437499999999,87.24272531486949L75.8109375,87.43321442972066L75.9375,87.68196582061319L76.190625,87.80287507571138L76.3171875,87.83568502543784L76.5703125,87.82593221353544L77.0765625,88.0195772247735L77.203125,87.96957184298178L77.5828125,87.9763333310088L77.70937500000001,88.08802576955561L77.8359375,88.04544760284662L77.9625,88.06214299141074L78.34218750000001,88.3010028644723L78.721875,88.74504505898491L78.8484375,89.09391246858796L79.228125,89.32709284438823L79.3546875,89.33912636169275L79.86093749999999,89.25451063947963L79.98750000000001,89.24657429598028L80.3671875,89.13392374361905L80.49374999999999,89.06570885089246L80.6203125,89.00429599229815L80.74687499999999,88.99355325188827L80.87343750000001,88.89492573432082L81,88.8974288731334L81.1265625,88.88979021725162L81.253125,88.88060721407594L81.50625,88.89737061888135L81.63281249999999,88.95719944614267L81.759375,89.02059432016667L81.8859375,89.1149599227122L82.39218749999999,89.13749005274843L82.51875000000001,89.10881648228687L82.6453125,89.09876103500201L82.77187500000001,89.09499813139244L82.8984375,89.11293735158327L83.1515625,89.2164229181521L83.40468750000001,89.23493000668961L83.6578125,89.29866621019052L83.784375,89.2610237331486L84.1640625,89.18681065865138L84.290625,89.1197226466404L84.4171875,89.05886775622767L84.6703125,89.06636107426884L84.92343749999999,89.07391235150098L85.4296875,89.08094136307953L85.55624999999999,89.12150992626141L85.93593750000001,89.12317273661013L86.0625,89.14616510894608L86.1890625,89.1460345031423L86.315625,89.10691261777895L86.44218749999999,89.07727827363979L86.56875,80.12616937240225L86.6953125,77.2268340544716L86.9484375,77.70836700182053L87.075,78.37881777036722L87.2015625,78.85601870863755L87.328125,78.89329122930239L87.58125000000001,77.92070325511376L87.9609375,76.999262801991L88.46718750000001,76.53093374740249L88.846875,76.19394523722626L88.97343749999999,75.82919739021477L89.10000000000001,75.57434356649884L89.4796875,75.55640403533084L89.7328125,75.4667008310801L89.859375,75.55629168929134L89.9859375,75.8292756639807L90.1125,75.97300412672095L90.2390625,76.21773629675704L90.365625,76.34289319330692L90.4921875,76.40678742774871L90.871875,76.38898941068976L90.99843750000001,76.4387833272763L91.125,76.47971610041544L91.25156249999999,76.50977865583948L91.63125000000001,76.3640207655862L92.5171875,76.57470965669364L92.896875,76.80106124094615L93.0234375,76.94199528224163L93.27656250000001,77.09297864631948L93.403125,77.2155900919207L93.52968750000001,77.24713411115218L93.65625,77.2506237303174L93.78281249999999,77.20821328848344L94.03593749999999,77.13762136870467L94.16250000000001,77.06241766794824L94.2890625,77.06112445941152L94.5421875,77.05129239529717L94.66875,77.06764948350401L95.0484375,77.10767899979479L95.3015625,77.17405715840655L95.5546875,77.22216371093748L95.68124999999999,77.24740687486266L95.80781250000001,77.25564039872133L96.5671875,77.36333772853637L96.69375000000001,77.44377271959556L96.8203125,77.4705960692726L97.3265625,77.46974252353685L97.70625,77.50618079358684L97.959375,77.57518969449013L98.33906250000001,77.66007800622353L98.84531249999999,69.58741799666625L99.3515625,67.84580701633774L99.478125,67.12489490773964L99.6046875,66.72256290594747L99.85781250000001,66.4295614366532L99.984375,66.4166022565842L100.1109375,66.44821631114958L100.2375,66.34194332123566L100.3640625,66.32585718727572L100.6171875,66.91036587295808L100.8703125,67.33160431228801L100.996875,67.70686267282201L101.1234375,67.83646824875852L101.25,68.0555006105863L101.50312500000001,68.34032578940173L101.6296875,68.51393014237273L101.75625000000001,68.66282484796636L102.009375,68.69644067446585L102.38906250000001,68.81783130264398L102.6421875,68.96632199821542L103.021875,68.96252558074995L103.14843750000001,69.02117621804834L103.4015625,69.09438044014907L103.6546875,69.04875438561045L103.90781249999999,69.04506988257171L104.1609375,69.11546865302326L104.28750000000001,69.26415341852906L104.6671875,69.25620279406786L104.79374999999999,69.21850791034271L104.92031250000001,69.24810092960101L105.046875,69.31886005231324L105.553125,69.35737403767459L105.80625,69.42675904594155L106.059375,69.44903709031519L106.43906249999999,69.40972976647245L106.56562500000001,69.4298477838184L106.6921875,69.49738639055167L106.81875,69.59707407866998L106.9453125,69.62310130068708L107.07187499999999,69.62921417396691L107.578125,69.53379609013456L107.83125,69.52435794010674L107.9578125,69.48422601780244L108.084375,69.43903838015164L108.2109375,69.38371925840713L108.3375,69.32763001733977L108.7171875,69.24796149619796L108.84375,69.23592073850858L108.97031249999999,69.26576484163421L109.85625,69.37529613566292L110.2359375,69.37086148495612L110.86875,69.42690101763687L110.9953125,69.43243635833907L111.121875,66.74413463795571L111.5015625,64.09936144187682L111.7546875,62.52720003506323L111.88125,61.52780239332188L112.0078125,60.940072673252075L112.3875,60.068010831887044L113.02031249999999,59.97220154345902L113.2734375,59.8935990461163L113.4,59.92674431612802L113.5265625,60.12715501672454L113.653125,60.26190982750906L113.90625,60.4290028148404L114.2859375,60.61539742788743L114.4125,60.6861481895511L114.66562499999999,60.84257264557267L115.171875,60.9569450022148L115.29843749999999,61.07010638960404L115.55156249999999,61.07924381880884L115.93125,61.14107183449818L116.184375,61.09512730975959L116.43749999999999,61.047439592719186L116.5640625,61.07946848967085L116.690625,61.170139017691675L116.94375,61.173124746674596L117.19687499999999,61.12365151655337L117.32343750000001,61.09855050809178L117.45,61.090478237670645L117.57656250000001,61.09452221405626L117.703125,61.101117968631485L117.95625,61.06369401459259L118.08281249999999,61.00043215658879L118.20937500000001,60.94946897451053L118.8421875,60.87479197278005L118.96875,60.838332949247224L119.0953125,60.84137246737857L119.3484375,60.841744495212915L119.475,60.80291575001471L119.6015625,60.79588241700407L119.72812499999999,60.79834691121622L120.6140625,60.91090468069579L120.99375,60.9679230803291L121.1203125,61.01907323563337L121.3734375,61.1311166594281L122.00625,61.247522696843966L122.1328125,61.31611719667387L122.259375,61.37792661988422L122.6390625,61.41962896349243L122.765625,61.4498072204722L123.01875,61.530564426048585L123.1453125,61.61627298752308L123.27187500000001,61.66260879373456L123.525,60.774246356105245L123.6515625,58.702352026233356L123.90468750000001,56.16628911681728L124.03125,54.611228901074846L124.1578125,53.51170498247534L124.284375,53.22081940481419L124.4109375,53.00870465939853L124.5375,52.86264833274849L125.1703125,52.67443484582524L125.296875,52.46473351072084L125.55000000000001,52.20361922592408L125.80312500000001,52.2673195171981L126.05624999999999,52.39827016643462L126.1828125,52.52024756700862L126.5625,52.68597880143563L126.6890625,52.87532905065203L127.19531250000001,53.20957814290038L127.321875,53.43152304311936L127.4484375,53.598804534794944L127.575,53.71818878967885L127.95468749999999,53.74044523906305L128.334375,53.77015586299654L128.9671875,53.884358799475194L129.09375,53.98813451529607L129.346875,54.049555943018596L129.47343750000002,54.0353298125305L129.6,54.104552017309594L129.853125,54.18262217680115L129.97968749999998,54.16745546245278L130.10625000000002,54.20056396236241L130.2328125,54.24537775462998L130.7390625,54.36560418573698L130.865625,54.41337371330068L131.11875,54.403996270064155L131.2453125,54.39734012196281L131.371875,54.39754112189903L131.625,54.38417457357584L131.7515625,54.38056033382141L132.13125,54.444451808508184L132.384375,54.47063306783197L133.0171875,54.43884140380951L133.14375,54.473343637756905L133.5234375,54.472041851980926L133.903125,54.55794820231406L134.2828125,54.60986337329271L134.409375,54.61186065474346L134.5359375,54.610003737206455L134.915625,54.650456673857676L135.04218749999998,54.67640799937073L135.5484375,54.32398558293241L135.67499999999998,53.68881792446646L136.940625,51.026296144847116L137.19375,49.51455897696261L137.3203125,48.60961824063926L137.446875,48.07798874261662L137.57343749999998,47.84648338724782L137.8265625,47.86268237930305L138.0796875,47.962541163574265L138.3328125,48.161953046685824L138.7125,48.049533449868186L138.965625,48.14227322772733L139.0921875,48.320111670706225L139.47187499999998,48.45989960587831L139.5984375,48.51481466625219L139.8515625,48.43851611336521L140.1046875,48.371518777134746L140.23125000000002,48.38972529788183L140.35781250000002,48.505693670626684L140.6109375,48.604645955870275L140.7375,48.62657740849836L140.990625,48.55241585694897L141.1171875,48.51734642579044L141.37031249999998,48.579405181371484L141.6234375,48.67504535720547L141.74999999999997,48.79778051975847L142.003125,48.9710729062765L142.25625,49.181232200873424L142.7625,49.36865294624124L142.8890625,49.45576846032591L143.015625,49.51720362799913L143.14218749999998,49.53396904645892L143.26874999999998,49.5705805932196L143.39531250000002,49.611858281774055L143.52187500000002,49.65698221759961L143.775,49.76910663745979L144.28125,49.76564550103057L144.53437499999998,49.77682808698005L144.6609375,49.79678002632135L145.04062499999998,49.75516551754756L145.546875,49.64236154807735L145.9265625,49.520578652937L146.1796875,49.498680743169054L146.30625,49.53076361214593L146.43281249999998,49.546552926274984L146.9390625,49.587617501004246L147.065625,49.647780280341934L147.19218750000002,49.70021782221211L147.31875,49.69247646511681L147.4453125,49.70906673539332L147.571875,49.73960610073001L147.825,40.33396631623025L147.9515625,39.04387605514953L148.33124999999998,38.80927406982675L148.9640625,39.5198912241226L149.2171875,39.984967437873216L149.34375,40.564224595719516L149.59687499999998,41.15117999249335L149.7234375,41.62671252926369L150.2296875,41.67905380272972L150.4828125,41.74082575049464L150.609375,41.71487574700396L150.7359375,41.6934399326079L150.9890625,41.79062783476309L151.2421875,41.680933583716104L151.36874999999998,41.642994411551655L151.49531249999998,41.59897050366624L151.74843750000002,41.721505591308016L151.875,41.77485500158965L152.128125,41.90483637322245L152.25468750000002,41.98242007535255L152.38125,42.10601921821568L152.5078125,42.168632759719664L152.634375,42.12556495551445L152.76093749999998,42.165286330486424L153.39375,42.24821615940636L153.646875,42.41467418149893L153.9,42.47697403595322L154.0265625,42.61368451693934L154.153125,42.765889552708174L154.7859375,42.95605362145648L155.2921875,43.18852331095067L155.5453125,43.33990554960447L155.671875,43.47707902998851L156.43124999999998,43.67561904198603L156.55781249999998,43.747656190435166L156.68437500000002,43.78226966145042L156.81093750000002,43.82885575820447L156.9375,43.88092898684406L157.44375,43.96859444235362L157.696875,44.10242888602374L157.82343749999998,44.157907460169554L158.58281250000002,44.2378257024506L158.709375,44.26035531450626L159.0890625,44.30419806533644L159.3421875,44.38148986276145L159.46875,44.49714904651734L159.5953125,44.564856553230825L159.8484375,44.604358534904826L160.228125,42.28192892366201L160.3546875,40.801741535029116L160.48125000000002,38.900278376675416L160.734375,37.999476785145255L160.8609375,37.41614586036326L160.98749999999998,36.94323532772616L161.1140625,36.77726101513238L161.240625,36.78800433895311L161.3671875,36.83322377456024L161.74687500000002,37.20759464414595L161.87343750000002,37.42157430357739L162.1265625,37.76671019379498L162.253125,38.011974368001205L162.3796875,38.217740355435126L162.759375,38.386615683140214L162.88593749999998,38.583616920412695L163.0125,38.744524152339174L163.51875,38.947125753915714L163.64531250000002,39.022258177492866L163.771875,39.18013846820227L164.4046875,39.44300023523349L164.65781249999998,39.6076718700372L164.91093750000002,39.77196094825522L165.03750000000002,39.861680816618566L165.1640625,39.95256441534042L165.54375000000002,39.94394636214067L165.6703125,39.92824238813098L165.796875,39.93779316351522L165.9234375,39.889971716438026L166.04999999999998,39.85865400268693L166.1765625,39.860769298279656L166.303125,39.91350570357104L166.4296875,39.99310372731839L166.6828125,40.02567050970645L167.0625,40.12561862776907L167.315625,40.24980759328743L167.4421875,40.33472751442279L167.821875,40.49136536874583L167.94843749999998,40.54156970952875L168.20156250000002,40.57059511169751L168.328125,40.55359196081734L168.4546875,40.54222534784663L168.58125,40.505122596555886L168.70781250000002,40.49383296879166L168.9609375,40.49582837052367L169.0875,40.54504931227699L169.2140625,40.594972960092655L169.340625,40.577696809731776L169.59375,40.45382976148298L169.97343750000002,40.42149018057447L170.353125,40.41599558119929L170.4796875,40.45018938019846L170.7328125,40.48783889552935L170.859375,40.52134154761425L170.9859375,40.51489928319808L171.11249999999998,40.5367253384278L171.2390625,40.544157719688755L171.365625,40.56583478455376L171.61875,40.613487296132035L172.125,40.659228919045795L172.2515625,40.702937806902334L172.5046875,35.2428984339583L172.7578125,34.32988564583948L173.01093749999998,34.45463766344365L173.1375,34.856345439481586L173.896875,34.66487827809325L174.0234375,34.60170996970935L174.27656249999998,34.14676239005924L174.403125,33.758621360732306L174.5296875,33.79428122632101L175.03593750000002,33.955671719267336L175.2890625,34.148266455861545L175.5421875,34.23229139169014L175.7953125,34.14242481899234L175.921875,34.21231149501782L176.0484375,34.28253443996419L176.428125,34.43841432547753L176.55468749999997,34.55052717576135L176.68125,34.702929344473525L176.93437500000002,34.901828951059734L177.0609375,34.97973666812117L177.440625,35.01656427756034L177.5671875,34.94305232271603L177.94687499999998,35.00106936398181L178.07343749999998,35.04556872906106L178.20000000000002,35.115042357813216L178.453125,35.10233906100446L178.959375,35.054331598223776L179.0859375,35.041968275035345L179.2125,35.040635533884135L179.465625,35.08939567312891L179.5921875,35.20720442238627L180.09843750000002,35.303522005696166L180.225,35.4209919208402L180.478125,35.45794167960376L180.8578125,35.41329191472944L180.984375,35.42730954138528L181.3640625,35.50333309917506L181.49062500000002,35.58876723735841L182.1234375,35.767539507683L182.3765625,35.88664421471113L182.50312499999998,35.985300775958045L182.6296875,36.087581003065694L182.75625,36.15283998749002L182.8828125,36.23017801822032L183.00937499999998,36.298170401935614L183.13593749999998,36.365037046840705L183.515625,36.504082481247735L183.6421875,36.64450518142137L183.76875,36.73216856867644L183.8953125,36.81291406005964L184.1484375,36.91238970190494L184.40156249999998,36.989891964377236L184.528125,37.05375443826991L184.9078125,33.50105539161489L185.034375,31.27869733332706L185.4140625,30.43655904864738L185.79375,29.34365672549884L186.29999999999998,29.724054104574194L186.9328125,30.02637056737402L187.05937500000002,30.24042331355372L187.1859375,30.329507598743167L187.6921875,30.462480016628135L188.07187499999998,30.8351911616798L188.4515625,31.138938936738747L188.7046875,31.38074036666665L189.084375,31.597038093977662L189.46406249999998,31.776629714830808L189.7171875,31.834892423548755L189.84375,31.922034678219834L190.096875,31.984414292191904L190.22343750000002,32.0529857258889L190.7296875,32.20420329695301L191.23593749999998,32.37232036188457L191.7421875,32.5583841395093L191.86875,32.63287788818555L192.5015625,32.77742798680234L192.7546875,32.77910798760754L192.88125,32.8309924147874L193.134375,32.86706892146765L193.2609375,32.900497090185276L193.5140625,32.9664508076695L194.4,33.141789162885395L195.5390625,33.3010167293139L195.665625,33.41718067243026L195.91875,33.50705068060355L196.0453125,33.56159724681735L196.425,33.644138171012145L196.55156250000002,33.73027552231251L196.8046875,28.436481162691706L197.3109375,28.813933079710363L197.5640625,28.90576062755035L198.07031249999997,28.504674199558778L198.196875,28.294186966024323L198.3234375,28.320591426135593L198.45000000000002,28.37564642443745L198.5765625,28.391723427858913L199.0828125,28.589970265440343L199.209375,28.6548347345663L199.46249999999998,28.646269876460625L199.58906249999998,28.740875090778143L200.0953125,28.66736654616614L200.221875,28.693651167018544L200.728125,28.678953475632294L200.85468749999998,28.738465244101288L201.36093749999998,28.88374061496662L201.740625,29.03016320175892L202.1203125,29.20390237395149L202.246875,29.232557078744072L202.5,29.26826730045383L202.6265625,29.30488546534005L203.00625000000002,29.348969210646285L203.259375,29.34819196072924L204.271875,29.587557153747717L204.65156249999998,29.837317932156463L204.77812500000002,29.979991944138867L205.03125,30.074964770975527L205.284375,30.123213048757798L205.4109375,30.21370662449699L206.55,30.290064976208793L206.67656250000002,30.360651439185972L206.9296875,30.41526666269068L207.1828125,30.428167995127243L207.4359375,30.442770528979416L207.5625,30.45650321971617L207.68906249999998,30.460463745184164L207.81562499999998,30.471119717828902L208.1953125,30.484155595345783L208.4484375,30.487200071837616L208.57500000000002,30.50636255408889L208.7015625,30.508567583951752L208.828125,30.511688325639586L208.9546875,30.519055222175137L209.08124999999998,26.606834506214614L209.2078125,22.387371110451827L209.4609375,20.44880687685764L209.58749999999998,19.43122488195872L209.7140625,19.269085385413042L209.84062500000002,19.46937139154137L209.96718750000002,19.73334401679434L210.09375,20.305845500423903L210.2203125,20.638112727042692L210.346875,21.209660963557145L210.4734375,21.54843741675733L210.6,21.706844594600916L210.7265625,21.91253753335663L211.4859375,22.45681477923028L211.865625,22.87645764195223L211.9921875,23.34909330274641L212.2453125,23.623027758991594L212.371875,23.760861457106987L212.87812499999998,24.023604133556823L213.00468750000002,24.1221442954722L213.13125000000002,24.21685150724549L213.2578125,24.286808501850974L213.6375,24.461113736135612L213.7640625,24.64193555659226L213.890625,24.748993845857214L214.0171875,24.866291210697323L214.14374999999998,24.95241870262996L214.396875,25.11249034511315L214.5234375,25.26233000342408L215.0296875,25.443689830209983L215.15625,25.5859872764982L215.2828125,25.661583763756575L215.5359375,25.714554552077157L215.915625,25.799441616439186L216.421875,25.971817269744488L216.5484375,26.096832227004768L216.675,26.13716960864856L216.928125,26.15092329572196L217.18125,26.24117871994113L217.30781249999998,26.274248810257543L218.19375000000002,26.435976002005344L218.5734375,26.578731892936L218.8265625,26.67606641199146L219.0796875,26.68813142625065L219.459375,26.756104802176786L219.58593750000003,26.840591239384107L219.96562500000002,26.916628474862126L220.0921875,26.984481822771315L220.3453125,27.013369366718806L220.471875,27.025173681493705L220.97812499999998,27.144837666461566L221.23125,27.233634253090457L221.35781250000002,28.649485542622728L221.7375,26.3061545003936L221.86406250000002,25.150697800486377L221.990625,24.241443727594042L222.24375,23.791964005339985L222.496875,23.33033328944971L223.12968750000002,23.48638684805947L223.3828125,23.66404779944851L223.509375,23.778552666866986L223.6359375,23.83764240715753L223.8890625,24.03518679126416L224.1421875,24.174610905553756L224.26874999999998,24.347704241696484L224.3953125,24.33996632935015L224.521875,24.398117313631822L224.9015625,24.639678617625524L225.1546875,24.679824140256088L225.28125,24.667374617210264L225.4078125,24.665686315507422L225.534375,24.69590983999416L225.6609375,24.736080840901423L226.04062499999998,24.769340860650484L226.6734375,24.841160781267597L227.30625,24.844052929331852L227.43281249999998,24.815741755157724L227.559375,24.81512868499161L228.065625,24.78600570258736L228.19218750000002,24.799819058759457L228.31875,24.80111029778924L229.2046875,24.87368427178268L229.33124999999998,24.92832727945453L229.58437500000002,25.074749482373036L229.7109375,25.209900663316024L229.9640625,25.30390459896312L230.4703125,25.29026325345744L230.7234375,25.33013590693894L230.9765625,25.306381839039474L231.2296875,25.28567278475913L231.35625000000002,25.286658540316523L231.7359375,25.306273793547202L231.8625,25.334146499257628L232.36875,25.393129291308732L232.49531249999998,25.412339452608148L232.621875,25.406512872996174L232.7484375,25.404696488751313L233.0015625,25.387790065034245L233.128125,25.354073241367328L233.7609375,25.16243482769392L233.8875,24.60315236771619L234.140625,22.959768389013494L234.39374999999998,21.607922314612313L234.52031250000002,20.965783824329534L234.64687500000002,20.58856938708126L234.7734375,20.604984073807596L235.0265625,20.45609303293811L235.2796875,20.505107178558028L235.7859375,21.03704275981734L236.0390625,21.56530554709523L236.2921875,21.78668001900728L236.671875,21.904599630895955L236.7984375,21.918431918659053L237.3046875,22.068818989299675L237.684375,22.012118963541333L237.9375,21.989940292919734L238.0640625,22.022673387101328L238.190625,22.029222776157287L238.31718750000002,22.038773461379204L238.696875,22.075250856994174L238.8234375,22.120406423162564L238.95,22.085988913864576L239.0765625,22.100541722113288L239.203125,22.150722333988167L239.32968749999998,22.189051278353148L239.70937500000002,22.19140436167742L239.8359375,22.24325375744832L239.9625,22.283394213850098L240.215625,22.336081707677128L240.3421875,22.379991309762513L240.46875,22.36115765626461L240.5953125,22.425648823113633L240.8484375,22.50528604908669L241.10156250000003,22.66595362141065L241.48125000000002,22.749331217493594L241.734375,22.765766504696575L241.8609375,22.742770688111545L241.9875,22.752925968393647L242.1140625,22.79358944906291L242.62031249999998,22.82676515587268L242.87343750000002,22.874598598528475L243,22.919993019132974L243.37968750000002,22.8856597423727L243.50625,22.884885377894317L243.6328125,22.87402265740064L243.759375,22.872104834751035L244.39218749999998,22.908064898989068L245.4046875,23.05251915522903L245.53125,23.13429649870687L245.6578125,23.163081542260024L246.0375,22.33099138713272L246.290625,21.242176737644616L246.54375000000002,20.038050192748525L246.6703125,19.46625390181248L246.796875,19.266833668525813L246.9234375,19.174974506840588L247.05,19.094859677401466L247.303125,19.023741091398776L247.4296875,19.040867465203025L247.80937500000002,19.138936353603018L248.4421875,19.31841929964961L248.56875,19.35539015896764L248.821875,19.56320242385653L248.94843749999998,19.655817715529132L249.2015625,19.636338253142533L250.0875,19.743021823955818L250.2140625,19.78356027721957L250.340625,19.93382529330014L250.7203125,20.072176804016586L250.84687499999998,20.110607536954014L251.2265625,20.135657820893716L251.353125,20.147447024460657L251.4796875,20.135775267288732L251.60625000000002,20.16845717621186L251.859375,20.215276938631177L251.9859375,20.232624653550413L252.2390625,20.278633277161365L252.4921875,20.314712229098976L252.74531249999998,20.353653196529212L252.87187500000002,20.375785534403118L253.2515625,20.389858298791264L253.378125,20.39310290652084L253.5046875,20.43208446882705L253.63125,20.435293323889617L253.7578125,20.482988852915355L254.2640625,20.53863954702451L254.5171875,20.584200469013666L255.0234375,20.720658011052993L255.2765625,20.81073623348116L255.5296875,20.86301076322102L255.65625,20.889649071152807L256.1625,20.876598395023215L256.5421875,20.83585192031469L256.66875,20.844016263883162L256.921875,20.87898665309003L257.04843750000003,20.91380207562476L257.3015625,20.90771703257578L257.428125,20.881784360017868L257.5546875,20.902044191602805L257.8078125,20.914554571297117L257.934375,20.8995259518542L258.06093749999997,21.44233401746262L258.8203125,19.66809181291287L258.94687500000003,18.572487225046302L259.0734375,17.626940067953214L259.2,17.395482278076614L259.3265625,17.13461558831204L259.5796875,17.064293475225387L259.70625,17.024286171957744L259.95937499999997,17.05320070097737L260.3390625,16.93980510419545L260.8453125,16.895264755403595L261.3515625,16.75341870469788L261.478125,16.6721259622749L261.6046875,16.589775926409736L261.73125,16.500216740690806L262.2375,16.56656580109786L262.3640625,16.57936718070146L262.490625,16.624926807902064L262.6171875,16.711030427468888L262.74375,16.731683974178463L262.8703125,16.774147885270036L262.996875,16.83926899506279L263.25,16.862373147449674L263.3765625,16.894263516689428L263.75625,17.002532765165018L263.8828125,17.112766569194207L264.1359375,17.213401203952422L264.3890625,17.332946508885748L264.6421875,17.440864487744197L264.76875,17.52120398775151L265.27500000000003,17.588465247722954L265.78125,17.78322368751314L266.034375,17.883671356978084L266.1609375,17.976948867882527L266.6671875,17.958179017689943L266.9203125,17.9820529012603L267.046875,18.03214602641596L267.17343750000003,18.08866135699948L267.553125,18.206455891271844L267.9328125,18.225344663226878L268.18593749999997,18.244822543480595L268.9453125,18.315926996242183L269.071875,18.34710280380919L269.1984375,18.379430476917474L269.4515625,18.441288809832113L269.578125,18.512915041957033L269.9578125,18.633690864392346L270.08437499999997,18.707118519871383L270.2109375,18.75065183206139" style="fill: none;" fill="none"></path></g></g></g></g><g opacity="0.2"><g><g><g><path stroke="rgb(255, 112, 67)" stroke-width="2px" d="M37.4625,195.96329340934753L37.96875,152.8255294919014L38.0953125,155.12711176872253L38.475,154.57020775079727L38.854687500000004,152.43843863010406L38.98125,152.94620064496993L39.234375,152.54109034538268L39.3609375,151.73520580530166L39.8671875,153.03097007274627L40.120312500000004,152.78236935138702L40.753125,151.34587833881378L41.259375000000006,150.44122449159622L41.385937500000004,150.4505823612213L41.639062499999994,150.8051791548729L41.8921875,150.34658024311065L42.01875,150.29387233257293L42.1453125,150.404563164711L42.3984375,150.2018339395523L42.6515625,150.0837264418602L42.778124999999996,149.97422776222228L43.5375,149.45022926330566L43.6640625,149.3095763683319L43.9171875,149.2027573943138L44.043749999999996,149.108682847023L44.4234375,148.85380486249923L45.309374999999996,148.0944775700569L45.5625,147.87806496620178L45.6890625,147.82902846336364L45.9421875,147.43434158563613L46.19531250000001,147.10877845287322L46.4484375,146.74832639694213L46.9546875,146.54040656089782L47.081250000000004,146.40086141824722L47.2078125,146.2323459148407L47.5875,146.1502667427063L47.7140625,145.9829750418663L47.840624999999996,145.86593309640884L47.9671875,145.7210707426071L48.2203125,145.42289546728134L48.346875000000004,145.4857735991478L48.7265625,145.2399580836296L48.853125,145.2231096982956L48.9796875,145.04677662849426L49.359375,144.77994546890258L49.4859375,144.68848732709884L49.612500000000004,144.49579117298126L49.7390625,144.42946318387985L50.11875,119.69804856777192L50.4984375,119.86077210903169L50.625,121.7066883802414L50.751562500000006,121.83518764972688L51.0046875,121.06303153038026L51.131249999999994,120.71365699768067L51.2578125,120.99441418647767L51.384375,121.77771112918855L51.6375,120.88633975982667L51.890625,120.0970715045929L52.143750000000004,120.58555862903596L52.396874999999994,120.02174434661866L52.65,120.11648354530335L52.7765625,119.89562938213349L53.0296875,120.06383893489838L53.15625,120.07369265556336L53.282812500000006,119.83241364955903L53.409375,119.9543508052826L53.535937499999996,120.24434981346131L53.7890625,120.52555010318757L53.915625,120.56967029571534L54.421875,120.36569616794587L54.801562499999996,120.41943798065186L55.18125,120.34759232997895L55.434375,120.04130408763886L55.5609375,120.10272631645203L55.6875,120.02292594909669L55.940625,120.08196387290955L56.067187499999996,120.25255773067475L56.3203125,120.0474231004715L56.446875,119.93276546001435L56.573437500000004,119.72273561954499L56.7,119.68097863197328L57.332812499999996,119.57703981399537L57.459375,119.42516169548036L57.5859375,119.41013846397401L57.965625,119.4034075498581L58.0921875,119.2825464963913L58.21874999999999,119.32765839099885L58.3453125,119.30117783546449L58.598437499999996,119.3796277999878L59.6109375,119.28100619316102L59.7375,119.2350291967392L60.1171875,119.34637413024903L60.24375,119.29356071949006L60.370312500000004,119.25363943576814L60.623437499999994,119.15143082141877L60.8765625,119.13672409057618L61.1296875,119.20078382492066L61.25625,119.16212854385377L61.509375,119.28328499794007L61.7625,119.36749527454377L61.889062499999994,119.50137505531312L62.1421875,108.91913316249848L62.775000000000006,102.84586522579194L62.901562500000004,103.99081692695619L63.028124999999996,104.37361392974854L63.154687499999994,103.68554148674012L63.28125,103.10661957263947L63.9140625,101.80964205265046L64.1671875,101.9240042924881L64.29375,101.38278815746308L64.4203125,101.11042878627778L64.546875,101.29587707519532L64.9265625,100.99883065223695L65.05312500000001,100.81490156650544L65.4328125,100.6854105949402L65.6859375,100.44919559955598L65.8125,100.55838832855225L66.1921875,100.0350439310074L66.4453125,100.11419019699098L67.078125,100.71606895923615L67.2046875,100.70262823104859L67.33125,100.6598795413971L67.4578125,100.73432049751283L68.090625,100.6728771686554L68.2171875,100.68861780166627L68.4703125,100.92630980014802L68.85000000000001,101.03225312232972L68.9765625,101.14269075393678L69.10312499999999,101.17358121871949L69.2296875,101.12595841884614L69.4828125,101.1110617876053L69.73593749999999,101.15589938163758L69.98906249999999,101.55125091075898L70.11562500000001,101.59144649505616L70.2421875,101.54878220558167L70.36875,101.50419781208039L70.7484375,101.56169543266297L71.0015625,101.562792634964L71.2546875,101.63286588191987L71.38125,101.5823101758957L71.5078125,101.6080522298813L71.63437499999999,101.48303446769715L71.76093750000001,101.52278695106507L71.8875,101.48782417774201L72.0140625,101.45199630260468L72.7734375,101.68778929710389L73.153125,101.6429939031601L73.2796875,101.53430757522584L73.7859375,101.39103827476502L74.16562499999999,101.41059801578523L74.29218750000001,101.38278815746308L74.79843749999999,86.82595202922822L74.925,86.21464154720307L75.0515625,87.55818686485291L75.17812500000001,87.02543184757234L75.3046875,87.42504558563233L75.43125,86.90908620357514L75.5578125,86.64793095588685L75.68437499999999,87.14779100418092L75.8109375,87.71894810199738L75.9375,88.05509290695191L76.190625,87.98423895835877L76.3171875,87.88489995002747L76.5703125,87.81130299568177L77.0765625,88.31004474163056L77.203125,87.8945637702942L77.5828125,87.98647556304932L77.70937500000001,88.2555644273758L77.8359375,87.98158035278321L77.9625,88.0871860742569L78.34218750000001,88.65929267406464L78.721875,89.41110835075379L78.8484375,89.61721358299256L79.228125,89.67686340808869L79.3546875,89.35717663764954L79.86093749999999,89.12758705615998L79.98750000000001,89.23466978073121L80.3671875,88.96494791507722L80.49374999999999,88.96338651180268L80.6203125,88.91217670440675L80.74687499999999,88.9774391412735L80.87343750000001,88.74698445796967L81,88.90118358135224L81.1265625,88.87833223342896L81.253125,88.86683270931245L81.50625,88.92251572608949L81.63281249999999,89.04694268703462L81.759375,89.1156866312027L81.8859375,89.25650832653047L82.39218749999999,89.17128524780274L82.51875000000001,89.06580612659455L82.6453125,89.08367786407472L82.77187500000001,89.0893537759781L82.8984375,89.13984618186952L83.1515625,89.37165126800538L83.40468750000001,89.26269063949586L83.6578125,89.3942705154419L83.784375,89.20456001758576L84.1640625,89.07549104690553L84.290625,89.01909062862397L84.4171875,88.96758542060853L84.6703125,89.07760105133057L84.92343749999999,89.08523926734925L85.4296875,89.0914848804474L85.55624999999999,89.18236277103425L85.93593750000001,89.12566695213319L86.0625,89.18065366744996L86.1890625,89.14583859443665L86.315625,89.0482297897339L86.44218749999999,89.03282675743104L86.56875,66.69950602054597L86.6953125,72.87783107757569L86.9484375,78.43066642284394L87.075,79.38449392318726L87.2015625,79.5718201160431L87.328125,78.94920001029969L87.58125000000001,76.46182129383088L87.9609375,75.61710212230683L88.46718750000001,75.82844016551972L88.846875,75.68846247196198L88.97343749999999,75.28207561969758L89.10000000000001,75.192062830925L89.4796875,75.5294947385788L89.7328125,75.33214602470399L89.859375,75.69067797660828L89.9859375,76.23875162601472L90.1125,76.18859682083131L90.2390625,76.58483455181123L90.365625,76.53062853813172L90.4921875,76.50262877941132L90.871875,76.36229238510133L90.99843750000001,76.51347420215608L91.125,76.54111526012422L91.25156249999999,76.55487248897553L91.63125000000001,76.14538393020631L92.5171875,76.8907429933548L92.896875,77.14058861732484L93.0234375,77.15339634418488L93.27656250000001,77.31945369243623L93.403125,77.39950726032258L93.52968750000001,77.2944501399994L93.65625,77.25585815906526L93.78281249999999,77.14459762573243L94.03593749999999,77.03173348903657L94.16250000000001,76.94961211681367L94.2890625,77.05918464660645L94.5421875,77.03654429912568L94.66875,77.09218511581422L95.0484375,77.16772327423097L95.3015625,77.27362439632417L95.5546875,77.2943235397339L95.68124999999999,77.28527162075044L95.80781250000001,77.26799068450929L96.5671875,77.52488372325898L96.69375000000001,77.5644252061844L96.8203125,77.51083109378816L97.3265625,77.46846220493318L97.70625,77.56083819866181L97.959375,77.67870304584504L98.33906250000001,77.78741047382356L98.84531249999999,57.47842798233033L99.3515625,65.23339054584504L99.478125,66.04352674484254L99.6046875,66.11906490325929L99.85781250000001,65.9900592327118L99.984375,66.39716348648072L100.1109375,66.49563739299775L100.2375,66.18253383636475L100.3640625,66.30172798633576L100.6171875,67.78712890148164L100.8703125,67.96346197128297L100.996875,68.26975021362306L101.1234375,68.03087661266328L101.25,68.38404915332795L101.50312500000001,68.76756355762483L101.6296875,68.77433667182923L101.75625000000001,68.88616690635682L102.009375,68.7468644142151L102.38906250000001,68.9999172449112L102.6421875,69.18905804157258L103.021875,68.9568309545517L103.14843750000001,69.10915217399598L103.4015625,69.20418677330018L103.6546875,68.9803153038025L103.90781249999999,69.03954312801362L104.1609375,69.22106680870057L104.28750000000001,69.48718056678773L104.6671875,69.24427685737611L104.79374999999999,69.16196558475495L104.92031250000001,69.29249045848847L105.046875,69.42499873638154L105.553125,69.41514501571656L105.80625,69.53083655834199L106.059375,69.48245415687562L106.43906249999999,69.35076878070832L106.56562500000001,69.46002480983735L106.6921875,69.59869430065156L106.81875,69.74660561084748L106.9453125,69.66214213371278L107.07187499999999,69.63838348388673L107.578125,69.390668964386L107.83125,69.51020071506501L107.9578125,69.42402813434602L108.084375,69.37125692367555L108.2109375,69.30074057579041L108.3375,69.24349615573884L108.7171875,69.12845871448518L108.84375,69.2178596019745L108.97031249999999,69.31053099632264L109.85625,69.53959307670594L110.2359375,69.36420950889588L110.86875,69.51096031665803L110.9953125,69.4407393693924L111.121875,62.711682057380685L111.5015625,60.13220164775849L111.7546875,60.16895792484284L111.88125,60.02870593070985L112.0078125,60.058478093147286L112.3875,58.759918069839486L113.02031249999999,59.828487610816964L113.2734375,59.77569530010224L113.4,59.97646222114564L113.5265625,60.42777106761933L113.653125,60.46404204368592L113.90625,60.67964229583741L114.2859375,60.894989347457894L114.4125,60.79227433204652L114.66562499999999,61.07720932960511L115.171875,61.12850353717805L115.29843749999999,61.239848470687875L115.55156249999999,61.092949962615975L115.93125,61.233813858032235L116.184375,61.02621052265168L116.43749999999999,60.97590801715852L116.5640625,61.127511835098275L116.690625,61.30614480972291L116.94375,61.177603340148934L117.19687499999999,61.04944167137147L117.32343750000001,61.060898995399484L117.45,61.07836983203889L117.57656250000001,61.10058817863465L117.703125,61.11101160049439L117.95625,61.00755808353425L118.08281249999999,60.90553936958314L118.20937500000001,60.873024201393136L118.8421875,60.762776470184335L118.96875,60.78364441394807L119.0953125,60.84593174457551L119.3484375,60.842302536964425L119.475,60.744672632217416L119.6015625,60.78533241748811L119.72812499999999,60.80204365253449L120.6140625,61.07974133491517L120.99375,61.05345067977906L121.1203125,61.09579846858979L121.3734375,61.29918179512025L122.00625,61.42213175296784L122.1328125,61.41900894641877L122.259375,61.470640754699716L122.6390625,61.48218247890473L122.765625,61.49507460594178L123.01875,61.651700234413155L123.1453125,61.74483582973481L123.27187500000001,61.732112503051766L123.525,59.44170269966126L123.6515625,55.594510531425485L123.90468750000001,52.362194752693185L124.03125,52.27863857746125L124.1578125,51.86241910457612L124.284375,52.78449103832246L124.4109375,52.69053254127503L124.5375,52.643563842773446L125.1703125,52.39211461544038L125.296875,52.15018150806428L125.55000000000001,51.81194779872895L125.80312500000001,52.3628699541092L126.05624999999999,52.594696140289315L126.1828125,52.703213667869576L126.5625,52.93457565307618L126.6890625,53.15935442447663L127.19531250000001,53.7109517812729L127.321875,53.764440393447885L127.4484375,53.84972677230836L127.575,53.89726517200471L127.95468749999999,53.77382991313935L128.334375,53.8147217988968L128.9671875,54.055663204193124L129.09375,54.14379808902741L129.346875,54.141688084602364L129.47343750000002,54.01399061679841L129.6,54.20838532447816L129.853125,54.29972741603852L129.97968749999998,54.144705390930184L130.10625000000002,54.250226712226876L130.2328125,54.31259844303132L130.7390625,54.54594383239747L130.865625,54.48502800464631L131.11875,54.38993010520936L131.2453125,54.3873558998108L131.371875,54.39784262180329L131.625,54.36412475109101L131.7515625,54.37513897418977L132.13125,54.54028902053834L132.384375,54.509904956817635L133.0171875,54.39115390777589L133.14375,54.52509698867799L133.5234375,54.470089173316964L133.903125,54.68680772781373L134.2828125,54.68773612976075L134.409375,54.614856576919564L134.5359375,54.60721836090089L134.915625,54.71113607883454L135.04218749999998,54.71533498764039L135.5484375,53.79535195827485L135.67499999999998,52.73606643676759L136.940625,47.0325134754181L137.19375,47.24695322513581L137.3203125,47.25220713615418L137.446875,47.28054449558259L137.57343749999998,47.49922535419465L137.8265625,47.88698086738587L138.0796875,48.11232933998109L138.3328125,48.46107087135316L138.7125,47.88090405464173L138.965625,48.281382894516L139.0921875,48.58686933517457L139.47187499999998,48.66958150863648L139.5984375,48.59718725681306L139.8515625,48.32406828403474L140.1046875,48.27102277278901L140.23125000000002,48.41703507900239L140.35781250000002,48.679646229743966L140.6109375,48.753074383735665L140.7375,48.6594745874405L140.990625,48.44117352962495L141.1171875,48.46474227905274L141.37031249999998,48.67249331474305L141.6234375,48.81850562095643L141.74999999999997,48.98188326358796L142.003125,49.231011486053475L142.25625,49.49647114276887L142.7625,49.649784064292916L142.8890625,49.58644173145295L143.015625,49.60935637950898L143.14218749999998,49.55911717414857L143.26874999999998,49.625497913360604L143.39531250000002,49.67377481460572L143.52187500000002,49.7246681213379L143.775,49.93729326725007L144.28125,49.76045379638673L144.53437499999998,49.793601965904244L144.6609375,49.82670793533326L145.04062499999998,49.69274375438691L145.546875,49.47315559387208L145.9265625,49.33790431022645L146.1796875,49.46583387851716L146.30625,49.578887915611276L146.43281249999998,49.570236897468575L146.9390625,49.64921436309815L147.065625,49.73802444934846L147.19218750000002,49.7788741350174L147.31875,49.680864429473885L147.4453125,49.733952140808114L147.571875,49.785415148735055L147.825,26.2255066394806L147.9515625,37.10874066352845L148.33124999999998,38.45737109184266L148.9640625,40.585816955566415L149.2171875,40.682581758499154L149.34375,41.43311033248902L149.59687499999998,42.03161308765412L149.7234375,42.34001133441926L150.2296875,41.75756571292878L150.4828125,41.83348367214204L150.609375,41.67595074176789L150.7359375,41.6612862110138L150.9890625,41.93640968799592L151.2421875,41.5163922071457L151.36874999999998,41.58608565330506L151.49531249999998,41.53293464183808L151.74843750000002,41.9053082227707L151.875,41.85487911701203L152.128125,42.0998084306717L152.25468750000002,42.09879562854768L152.38125,42.291417932510385L152.5078125,42.26255307197572L152.634375,42.06096324920655L152.76093749999998,42.224868392944344L153.39375,42.37261090278626L153.646875,42.664361214637765L153.9,42.57042381763459L154.0265625,42.81875023841859L154.153125,42.9941971063614L154.7859375,43.241299724578866L155.2921875,43.537227845191964L155.5453125,43.56697890758515L155.671875,43.682839250564584L156.43124999999998,43.97342905998231L156.55781249999998,43.855711913108834L156.68437500000002,43.834189867973336L156.81093750000002,43.89873490333558L156.9375,43.959038829803475L157.44375,44.10009262561799L157.696875,44.30318055152894L157.82343749999998,44.24112532138825L158.58281250000002,44.3577030658722L158.709375,44.29414973258973L159.0890625,44.369962191581735L159.3421875,44.497427558898934L159.46875,44.67063782215119L159.5953125,44.666417813301095L159.8484375,44.66361150741578L160.228125,38.7982845067978L160.3546875,38.58146045207978L160.48125000000002,36.048083639144906L160.734375,36.648274397850045L160.8609375,36.541149473190316L160.98749999999998,36.233869528770455L161.1140625,36.52829954624177L161.240625,36.80411932468415L161.3671875,36.901052927970895L161.74687500000002,37.769150948524484L161.87343750000002,37.74254379272462L162.1265625,38.28441402912141L162.253125,38.379870629310616L162.3796875,38.52638933658601L162.759375,38.639928674697885L162.88593749999998,38.87911877632142L163.0125,38.98588500022889L163.51875,39.251028156280526L163.64531250000002,39.13495681285859L163.771875,39.416958904266366L164.4046875,39.83729288578034L164.65781249999998,39.854679322242745L164.91093750000002,40.018394565582284L165.03750000000002,39.99626061916352L165.1640625,40.088889813423165L165.54375000000002,39.93101928234101L165.6703125,39.9046864271164L165.796875,39.9521193265915L165.9234375,39.81823954582215L166.04999999999998,39.81167743206025L166.1765625,39.86394224166871L166.303125,39.99261031150819L166.4296875,40.11250076293946L166.6828125,40.07452068328858L167.0625,40.275540804862985L167.315625,40.43609104156495L167.4421875,40.4621073961258L167.821875,40.726322150230416L167.94843749999998,40.61687622070313L168.20156250000002,40.61413321495057L168.328125,40.52808723449708L168.4546875,40.52517542839051L168.58125,40.44946846961976L168.70781250000002,40.476898527145394L168.9609375,40.49882147312165L169.0875,40.61888072490693L169.2140625,40.66985843181611L169.340625,40.55178258419038L169.59375,40.26802918910981L169.97343750000002,40.37298080921174L170.353125,40.407753682136544L170.4796875,40.50148007869721L170.7328125,40.544313168525704L170.859375,40.571595525741586L170.9859375,40.5052358865738L171.11249999999998,40.569464421272286L171.2390625,40.55530629158021L171.365625,40.598350381851205L171.61875,40.68496606349946L172.125,40.72784135341645L172.2515625,40.76850113868714L172.5046875,27.052839374542245L172.7578125,32.9603664636612L173.01093749999998,34.64176568984986L173.1375,35.45890710353852L173.896875,34.37767753601075L174.0234375,34.50695750713349L174.27656249999998,33.464341020584115L174.403125,33.17640981674195L174.5296875,33.84777102470399L175.03593750000002,34.19775745868684L175.2890625,34.43715856075288L175.5421875,34.35832879543305L175.7953125,34.00762495994569L175.921875,34.3171415090561L176.0484375,34.38786885738374L176.428125,34.67223415374757L176.55468749999997,34.71869645118714L176.68125,34.93153259754182L176.93437500000002,35.200178360939034L177.0609375,35.09659824371339L177.440625,35.071805691719064L177.5671875,34.83278439044953L177.94687499999998,35.08809492588044L178.07343749999998,35.11231777668L178.20000000000002,35.219252800941476L178.453125,35.08328411579133L178.959375,34.98232040405274L179.0859375,35.023423290252694L179.2125,35.038636422157296L179.465625,35.16253588199616L179.5921875,35.383917546272286L180.09843750000002,35.44799838066102L180.225,35.59719679355622L180.478125,35.51336631774903L180.8578125,35.346317267417916L180.984375,35.44833598136903L181.3640625,35.61736843585969L181.49062500000002,35.71691844463349L182.1234375,36.03569791316987L182.3765625,36.065301275253304L182.50312499999998,36.13328561782838L182.6296875,36.24100134372712L182.75625,36.250728464126595L182.8828125,36.346185064315804L183.00937499999998,36.40015897750855L183.13593749999998,36.46533701419831L183.515625,36.712650632858285L183.6421875,36.85513923168183L183.76875,36.86366364955903L183.8953125,36.93403229713441L184.1484375,37.06160316467286L184.40156249999998,37.10614535808564L184.528125,37.149548149108895L184.9078125,28.172006821632394L185.034375,27.945160245895394L185.4140625,29.173351621627816L185.79375,27.70430324077607L186.29999999999998,30.294650173187264L186.9328125,30.4798452615738L187.05937500000002,30.56150243282319L187.1859375,30.463134026527413L187.6921875,30.661938643455514L188.07187499999998,31.39425787925721L188.4515625,31.594560599327096L188.7046875,31.74344251155854L189.084375,31.92148468494416L189.46406249999998,32.04601714611054L189.7171875,31.92228648662568L189.84375,32.05274806022645L190.096875,32.07798371315003L190.22343750000002,32.155842876434335L190.7296875,32.4310296535492L191.23593749999998,32.62449595928193L191.7421875,32.83747980594636L191.86875,32.74461851119996L192.5015625,32.99425313472749L192.7546875,32.781627988815316L192.88125,32.90881905555726L193.134375,32.921183681488046L193.2609375,32.95063934326173L193.5140625,33.06538138389588L194.4,33.40479669570924L195.5390625,33.53985807895661L195.665625,33.591426587104806L195.91875,33.64185569286347L196.0453125,33.64341709613801L196.425,33.76794955730439L196.55156250000002,33.85948154926301L196.8046875,20.495789623260507L197.3109375,29.38011095523835L197.5640625,29.04350194931031L198.07031249999997,27.90304455757142L198.196875,27.978456115722665L198.3234375,28.3601981163025L198.45000000000002,28.458228921890267L198.5765625,28.415838932991036L199.0828125,28.887340521812447L199.209375,28.75213143825532L199.46249999999998,28.63342258930207L199.58906249999998,28.882782912254342L200.0953125,28.557103729248055L200.221875,28.733078098297128L200.728125,28.656906938552865L200.85468749999998,28.827732896804818L201.36093749999998,29.101653671264657L201.740625,29.249797081947335L202.1203125,29.464511132240304L202.246875,29.27553913593293L202.5,29.321832633018502L202.6265625,29.35981271266938L203.00625000000002,29.41509482860566L203.259375,29.347026085853585L204.271875,29.94660494327546L204.65156249999998,30.2119590997696L204.77812500000002,30.194002962112435L205.03125,30.217424011230477L205.284375,30.195585465431222L205.4109375,30.349446988105782L206.55,30.40460250377656L206.67656250000002,30.466531133651742L206.9296875,30.4971894979477L207.1828125,30.447519993782052L207.4359375,30.4646743297577L207.5625,30.477102255821237L207.68906249999998,30.46640453338624L207.81562499999998,30.487103676795968L208.1953125,30.503709411621102L208.4484375,30.491766786575326L208.57500000000002,30.53510627746583L208.7015625,30.51187512874604L208.828125,30.516369438171395L208.9546875,30.530105566978463L209.08124999999998,20.738503432273873L209.2078125,16.058176016807565L209.4609375,17.540960526466378L209.58749999999998,17.9048518896103L209.7140625,19.02587614059449L209.84062500000002,19.769800400733956L209.96718750000002,20.129302954673776L210.09375,21.164597725868234L210.2203125,21.136513566970834L210.346875,22.066983318328866L210.4734375,22.056602096557626L210.6,21.94445536136628L210.7265625,22.221076941490182L211.4859375,23.27323064804078L211.865625,23.505921936035165L211.9921875,24.05804679393769L212.2453125,24.033929443359384L212.371875,23.9676120042801L212.87812499999998,24.417718148231515L213.00468750000002,24.269954538345345L213.13125000000002,24.358912324905404L213.2578125,24.391743993759164L213.6375,24.72257158756257L213.7640625,24.91316828727723L213.890625,24.909581279754647L214.0171875,25.042237257957467L214.14374999999998,25.081609940528878L214.396875,25.3525978088379L214.5234375,25.48708949089051L215.0296875,25.715729570388802L215.15625,25.79943344593049L215.2828125,25.774978494644174L215.5359375,25.794010734558114L215.915625,25.926772212982186L216.421875,26.230380749702462L216.5484375,26.28435466289521L216.675,26.197675681114205L216.928125,26.1715538263321L217.18125,26.376561856269845L217.30781249999998,26.323853945732125L218.19375000000002,26.678566789627084L218.5734375,26.79286572933198L218.8265625,26.822068190574655L219.0796875,26.706228947639474L219.459375,26.858064866065988L219.58593750000003,26.967320895195016L219.96562500000002,27.030684328079232L220.0921875,27.08626184463502L220.3453125,27.056700682640084L220.471875,27.042880153656014L220.97812499999998,27.324333643913278L221.23125,27.36682913303376L221.35781250000002,30.77326247692109L221.7375,22.791157937049874L221.86406250000002,23.41751275062562L221.990625,22.877562618255624L222.24375,23.117744421958932L222.496875,22.637887215614327L223.12968750000002,23.72046718597413L223.3828125,23.93053922653199L223.509375,23.9503099679947L223.6359375,23.926277017593392L223.8890625,24.33150336742402L224.1421875,24.38374707698823L224.26874999999998,24.607344245910653L224.3953125,24.328359460830697L224.521875,24.48534379005433L224.9015625,25.002020573616036L225.1546875,24.740042424201974L225.28125,24.64870033264161L225.4078125,24.663153862953195L225.534375,24.74124512672425L225.6609375,24.796337342262277L226.04062499999998,24.819230890274056L226.6734375,24.948890662193307L227.30625,24.84839115142823L227.43281249999998,24.773274993896493L227.559375,24.81420907974244L228.065625,24.742321228981027L228.19218750000002,24.820539093017587L228.31875,24.803047156333932L229.2046875,24.982545232772836L229.33124999999998,25.010291790962228L229.58437500000002,25.294382786750802L229.7109375,25.41262743473054L229.9640625,25.444910502433785L230.4703125,25.269801235198983L230.7234375,25.389944887161263L230.9765625,25.270750737190255L231.2296875,25.25460920333863L231.35625000000002,25.288137173652657L231.7359375,25.335696673393258L231.8625,25.37595555782319L232.36875,25.481603479385385L232.49531249999998,25.4411546945572L232.621875,25.397773003578195L232.7484375,25.40197191238404L233.0015625,25.362430429458627L233.128125,25.303498005867013L233.7609375,24.874977207183846L233.8875,23.764228677749642L234.140625,20.49469242095948L234.39374999999998,19.580153203010568L234.52031250000002,20.002576088905343L234.64687500000002,20.02274773120881L234.7734375,20.629606103897103L235.0265625,20.23275647163392L235.2796875,20.578628396987924L235.7859375,21.834946131706246L236.0390625,22.357699728012093L236.2921875,22.118741726875314L236.671875,22.08147904872895L236.7984375,21.93918035030366L237.3046875,22.29439959526063L237.684375,21.927068924903878L237.9375,21.956672286987313L238.0640625,22.071773028373727L238.190625,22.03904685974122L238.31718750000002,22.053099489212045L238.696875,22.129966950416573L238.8234375,22.18813977241517L238.95,22.03436264991761L239.0765625,22.122370934486398L239.203125,22.225993251800546L239.32968749999998,22.24654469490052L239.70937500000002,22.194933986663827L239.8359375,22.321027851104745L239.9625,22.343604898452767L240.215625,22.415112948417672L240.3421875,22.445855712890634L240.46875,22.33290717601777L240.5953125,22.522385573387155L240.8484375,22.624741888046273L241.10156250000003,22.906954979896554L241.48125000000002,22.87439761161805L241.734375,22.790419435501107L241.8609375,22.708276963233956L241.9875,22.768158888816842L242.1140625,22.854584670066842L242.62031249999998,22.87652871608735L242.87343750000002,22.946348762512216L243,22.98808465003968L243.37968750000002,22.83415982723237L243.50625,22.883723831176766L243.6328125,22.857728576660165L243.759375,22.86922810077668L244.39218749999998,22.962004995346078L245.4046875,23.269200539588937L245.53125,23.256962513923654L245.6578125,23.20625910758973L246.0375,21.082856154441842L246.290625,19.608954763412484L246.54375000000002,18.231860375404366L246.6703125,18.608559465408334L246.796875,18.967703318595895L246.9234375,19.037185764312753L247.05,18.974687433242806L247.303125,18.917063212394723L247.4296875,19.066557025909432L247.80937500000002,19.28603968620301L248.4421875,19.58764371871949L248.56875,19.41084644794465L248.821875,19.87492082118989L248.94843749999998,19.794740653038033L249.2015625,19.60711905956269L250.0875,19.90304718017579L250.2140625,19.844367957115182L250.340625,20.159222817420968L250.7203125,20.279704070091256L250.84687499999998,20.168253636360177L251.2265625,20.173233246803292L251.353125,20.165130829811105L251.4796875,20.11826763153077L251.60625000000002,20.217480039596566L251.859375,20.28550658226014L251.9859375,20.25864622592927L252.2390625,20.34764621257783L252.4921875,20.36883065700532L252.74531249999998,20.41206464767457L252.87187500000002,20.408984041213998L253.2515625,20.410967445373544L253.378125,20.397969818115243L253.5046875,20.490556812286385L253.63125,20.440106606483468L253.7578125,20.554532146453866L254.2640625,20.62211558818818L254.5171875,20.652541851997384L255.0234375,20.925344324111947L255.2765625,20.94585356712342L255.5296875,20.94142255783082L255.65625,20.929606533050546L256.1625,20.857022380828866L256.5421875,20.77473220825196L256.66875,20.85626277923585L256.921875,20.931442236900338L257.04843750000003,20.96602520942689L257.3015625,20.898589468002328L257.428125,20.84288535118104L257.5546875,20.93243393898011L257.8078125,20.93332014083863L257.934375,20.876983022689828L258.06093749999997,22.256546115875253L258.8203125,17.006728506088265L258.94687500000003,16.92908034324647L259.0734375,16.208619332313546L259.2,17.048295593261727L259.3265625,16.74331555366517L259.5796875,16.958810305595406L259.70625,16.964275217056283L259.95937499999997,17.096572494506844L260.3390625,16.76971170902253L260.8453125,16.82845423221589L261.3515625,16.54064962863923L261.478125,16.55018684864045L261.6046875,16.466250872612008L261.73125,16.365877962112435L262.2375,16.666089391708383L262.3640625,16.59856925010682L262.490625,16.69326624870301L262.6171875,16.84018585681916L262.74375,16.762664294242867L262.8703125,16.837843751907357L262.996875,16.9369506597519L263.25,16.897029376029977L263.3765625,16.94209907054902L263.75625,17.164936637878426L263.8828125,17.278117275238046L264.1359375,17.36435315608979L264.3890625,17.512264466285714L264.6421875,17.602741456031808L264.76875,17.64171323776246L265.27500000000003,17.689357137680062L265.78125,18.075361347198495L266.034375,18.034342861175546L266.1609375,18.116865134239205L266.6671875,17.93002424240113L266.9203125,18.017863726615914L267.046875,18.107285714149484L267.17343750000003,18.173434352874764L267.553125,18.383147692680367L267.9328125,18.25367782115937L268.18593749999997,18.274039363861093L268.9453125,18.42258367538453L269.071875,18.393866515159615L269.1984375,18.427921986579904L269.4515625,18.53407630920411L269.578125,18.620354390144357L269.9578125,18.814854598045358L270.08437499999997,18.817260003089913L270.2109375,18.815951800346383" style="fill: none;" fill="none"></path></g></g></g></g></g></g><g transform="translate(51, 177)" clip-path="url(#clip_1)"><clipPath id="clip_1"><rect width="278" height="23"></rect></clipPath><g><g><line x1="0" y1="0" x2="0" y2="5" style="visibility: inherit;" fill="rgb(0, 0, 0)" stroke="rgb(204, 204, 204)" stroke-width="1px"></line><line x1="25.3125" y1="0" x2="25.3125" y2="5" style="visibility: inherit;" fill="rgb(0, 0, 0)" stroke="rgb(204, 204, 204)" stroke-width="1px"></line><line x1="50.625" y1="0" x2="50.625" y2="5" style="visibility: inherit;" fill="rgb(0, 0, 0)" stroke="rgb(204, 204, 204)" stroke-width="1px"></line><line x1="75.9375" y1="0" x2="75.9375" y2="5" style="visibility: inherit;" fill="rgb(0, 0, 0)" stroke="rgb(204, 204, 204)" stroke-width="1px"></line><line x1="101.25" y1="0" x2="101.25" y2="5" style="visibility: inherit;" fill="rgb(0, 0, 0)" stroke="rgb(204, 204, 204)" stroke-width="1px"></line><line x1="126.5625" y1="0" x2="126.5625" y2="5" style="visibility: inherit;" fill="rgb(0, 0, 0)" stroke="rgb(204, 204, 204)" stroke-width="1px"></line><line x1="151.875" y1="0" x2="151.875" y2="5" style="visibility: inherit;" fill="rgb(0, 0, 0)" stroke="rgb(204, 204, 204)" stroke-width="1px"></line><line x1="177.1875" y1="0" x2="177.1875" y2="5" style="visibility: inherit;" fill="rgb(0, 0, 0)" stroke="rgb(204, 204, 204)" stroke-width="1px"></line><line x1="202.5" y1="0" x2="202.5" y2="5" style="visibility: inherit;" fill="rgb(0, 0, 0)" stroke="rgb(204, 204, 204)" stroke-width="1px"></line><line x1="227.8125" y1="0" x2="227.8125" y2="5" style="visibility: inherit;" fill="rgb(0, 0, 0)" stroke="rgb(204, 204, 204)" stroke-width="1px"></line><line x1="253.125" y1="0" x2="253.125" y2="5" style="visibility: inherit;" fill="rgb(0, 0, 0)" stroke="rgb(204, 204, 204)" stroke-width="1px"></line><line x1="278.4375" y1="0" x2="278.4375" y2="5" style="visibility: inherit;" fill="rgb(0, 0, 0)" stroke="rgb(204, 204, 204)" stroke-width="1px"></line></g><g transform="translate(0, 8)"><text x="0" y="0" dx="0em" dy="0.95em" style="text-anchor: middle; visibility: hidden; font-family: Roboto, sans-serif; font-size: 12px; font-weight: 200;" fill="rgb(33, 33, 33)" stroke="none" stroke-width="1px">-20k</text><text x="25.3125" y="0" dx="0em" dy="0.95em" style="text-anchor: middle; visibility: inherit; font-family: Roboto, sans-serif; font-size: 12px; font-weight: 200;" fill="rgb(33, 33, 33)" stroke="none" stroke-width="1px">0</text><text x="50.625" y="0" dx="0em" dy="0.95em" style="text-anchor: middle; visibility: hidden; font-family: Roboto, sans-serif; font-size: 12px; font-weight: 200;" fill="rgb(33, 33, 33)" stroke="none" stroke-width="1px">20k</text><text x="75.9375" y="0" dx="0em" dy="0.95em" style="text-anchor: middle; visibility: inherit; font-family: Roboto, sans-serif; font-size: 12px; font-weight: 200;" fill="rgb(33, 33, 33)" stroke="none" stroke-width="1px">40k</text><text x="101.25" y="0" dx="0em" dy="0.95em" style="text-anchor: middle; visibility: hidden; font-family: Roboto, sans-serif; font-size: 12px; font-weight: 200;" fill="rgb(33, 33, 33)" stroke="none" stroke-width="1px">60k</text><text x="126.5625" y="0" dx="0em" dy="0.95em" style="text-anchor: middle; visibility: inherit; font-family: Roboto, sans-serif; font-size: 12px; font-weight: 200;" fill="rgb(33, 33, 33)" stroke="none" stroke-width="1px">80k</text><text x="151.875" y="0" dx="0em" dy="0.95em" style="text-anchor: middle; visibility: hidden; font-family: Roboto, sans-serif; font-size: 12px; font-weight: 200;" fill="rgb(33, 33, 33)" stroke="none" stroke-width="1px">100k</text><text x="177.1875" y="0" dx="0em" dy="0.95em" style="text-anchor: middle; visibility: inherit; font-family: Roboto, sans-serif; font-size: 12px; font-weight: 200;" fill="rgb(33, 33, 33)" stroke="none" stroke-width="1px">120k</text><text x="202.5" y="0" dx="0em" dy="0.95em" style="text-anchor: middle; visibility: hidden; font-family: Roboto, sans-serif; font-size: 12px; font-weight: 200;" fill="rgb(33, 33, 33)" stroke="none" stroke-width="1px">140k</text><text x="227.8125" y="0" dx="0em" dy="0.95em" style="text-anchor: middle; visibility: inherit; font-family: Roboto, sans-serif; font-size: 12px; font-weight: 200;" fill="rgb(33, 33, 33)" stroke="none" stroke-width="1px">160k</text><text x="253.125" y="0" dx="0em" dy="0.95em" style="text-anchor: middle; visibility: hidden; font-family: Roboto, sans-serif; font-size: 12px; font-weight: 200;" fill="rgb(33, 33, 33)" stroke="none" stroke-width="1px">180k</text><text x="278.4375" y="0" dx="0em" dy="0.95em" style="text-anchor: middle; visibility: hidden; font-family: Roboto, sans-serif; font-size: 12px; font-weight: 200;" fill="rgb(33, 33, 33)" stroke="none" stroke-width="1px">200k</text></g><line x1="0" y1="0" x2="278.4375" y2="0" fill="rgb(0, 0, 0)" stroke="rgb(204, 204, 204)" stroke-width="1px"></line></g></g></g></g></svg>