<svg width="200" height="200" viewBox="0 0 330 200" xmlns="http://www.w3.org/2000/svg"><g><g><g><g><g><line x1="51.5625" y1="177" x2="46.5625" y2="177" style="visibility: inherit;" fill="rgb(0, 0, 0)" stroke="rgb(204, 204, 204)" stroke-width="1px"></line><line x1="51.5625" y1="159.29999999999998" x2="46.5625" y2="159.29999999999998" style="visibility: inherit;" fill="rgb(0, 0, 0)" stroke="rgb(204, 204, 204)" stroke-width="1px"></line><line x1="51.5625" y1="141.6" x2="46.5625" y2="141.6" style="visibility: inherit;" fill="rgb(0, 0, 0)" stroke="rgb(204, 204, 204)" stroke-width="1px"></line><line x1="51.5625" y1="123.89999999999999" x2="46.5625" y2="123.89999999999999" style="visibility: inherit;" fill="rgb(0, 0, 0)" stroke="rgb(204, 204, 204)" stroke-width="1px"></line><line x1="51.5625" y1="106.19999999999997" x2="46.5625" y2="106.19999999999997" style="visibility: inherit;" fill="rgb(0, 0, 0)" stroke="rgb(204, 204, 204)" stroke-width="1px"></line><line x1="51.5625" y1="88.5" x2="46.5625" y2="88.5" style="visibility: inherit;" fill="rgb(0, 0, 0)" stroke="rgb(204, 204, 204)" stroke-width="1px"></line><line x1="51.5625" y1="70.79999999999998" x2="46.5625" y2="70.79999999999998" style="visibility: inherit;" fill="rgb(0, 0, 0)" stroke="rgb(204, 204, 204)" stroke-width="1px"></line><line x1="51.5625" y1="53.10000000000001" x2="46.5625" y2="53.10000000000001" style="visibility: inherit;" fill="rgb(0, 0, 0)" stroke="rgb(204, 204, 204)" stroke-width="1px"></line><line x1="51.5625" y1="35.39999999999999" x2="46.5625" y2="35.39999999999999" style="visibility: inherit;" fill="rgb(0, 0, 0)" stroke="rgb(204, 204, 204)" stroke-width="1px"></line><line x1="51.5625" y1="17.699999999999978" x2="46.5625" y2="17.699999999999978" style="visibility: inherit;" fill="rgb(0, 0, 0)" stroke="rgb(204, 204, 204)" stroke-width="1px"></line><line x1="51.5625" y1="0" x2="46.5625" y2="0" style="visibility: inherit;" fill="rgb(0, 0, 0)" stroke="rgb(204, 204, 204)" stroke-width="1px"></line></g><g transform="translate(41.5625, 0)"><text x="0" y="177" dx="0em" dy="0.3em" style="text-anchor: end; visibility: hidden; font-family: Roboto, sans-serif; font-size: 12px; font-weight: 200;" fill="rgb(33, 33, 33)" stroke="none" stroke-width="1px">0.35</text><text x="0" y="159.29999999999998" dx="0em" dy="0.3em" style="text-anchor: end; visibility: inherit; font-family: Roboto, sans-serif; font-size: 12px; font-weight: 200;" fill="rgb(33, 33, 33)" stroke="none" stroke-width="1px">0.4</text><text x="0" y="141.6" dx="0em" dy="0.3em" style="text-anchor: end; visibility: hidden; font-family: Roboto, sans-serif; font-size: 12px; font-weight: 200;" fill="rgb(33, 33, 33)" stroke="none" stroke-width="1px">0.45</text><text x="0" y="123.89999999999999" dx="0em" dy="0.3em" style="text-anchor: end; visibility: inherit; font-family: Roboto, sans-serif; font-size: 12px; font-weight: 200;" fill="rgb(33, 33, 33)" stroke="none" stroke-width="1px">0.5</text><text x="0" y="106.19999999999997" dx="0em" dy="0.3em" style="text-anchor: end; visibility: hidden; font-family: Roboto, sans-serif; font-size: 12px; font-weight: 200;" fill="rgb(33, 33, 33)" stroke="none" stroke-width="1px">0.55</text><text x="0" y="88.5" dx="0em" dy="0.3em" style="text-anchor: end; visibility: inherit; font-family: Roboto, sans-serif; font-size: 12px; font-weight: 200;" fill="rgb(33, 33, 33)" stroke="none" stroke-width="1px">0.6</text><text x="0" y="70.79999999999998" dx="0em" dy="0.3em" style="text-anchor: end; visibility: hidden; font-family: Roboto, sans-serif; font-size: 12px; font-weight: 200;" fill="rgb(33, 33, 33)" stroke="none" stroke-width="1px">0.65</text><text x="0" y="53.10000000000001" dx="0em" dy="0.3em" style="text-anchor: end; visibility: inherit; font-family: Roboto, sans-serif; font-size: 12px; font-weight: 200;" fill="rgb(33, 33, 33)" stroke="none" stroke-width="1px">0.7</text><text x="0" y="35.39999999999999" dx="0em" dy="0.3em" style="text-anchor: end; visibility: hidden; font-family: Roboto, sans-serif; font-size: 12px; font-weight: 200;" fill="rgb(33, 33, 33)" stroke="none" stroke-width="1px">0.75</text><text x="0" y="17.699999999999978" dx="0em" dy="0.3em" style="text-anchor: end; visibility: inherit; font-family: Roboto, sans-serif; font-size: 12px; font-weight: 200;" fill="rgb(33, 33, 33)" stroke="none" stroke-width="1px">0.8</text><text x="0" y="0" dx="0em" dy="0.3em" style="text-anchor: end; visibility: hidden; font-family: Roboto, sans-serif; font-size: 12px; font-weight: 200;" fill="rgb(33, 33, 33)" stroke="none" stroke-width="1px">0.85</text></g><line x1="51.5625" y1="0" x2="51.5625" y2="177" fill="rgb(0, 0, 0)" stroke="rgb(204, 204, 204)" stroke-width="1px"></line></g></g><g transform="translate(51, 0)" clip-path="url(#clip_0)"><clipPath id="clip_0"><rect width="278" height="177"></rect></clipPath><g><g><g><line x1="0" y1="0" x2="0" y2="177" fill="rgb(0, 0, 0)" stroke="rgb(66, 66, 66)" stroke-width="1px" opacity="0.25"></line><line x1="25.3125" y1="0" x2="25.3125" y2="177" fill="rgb(0, 0, 0)" stroke="rgb(66, 66, 66)" stroke-width="1px" opacity="0.25"></line><line x1="50.625" y1="0" x2="50.625" y2="177" fill="rgb(0, 0, 0)" stroke="rgb(66, 66, 66)" stroke-width="1px" opacity="0.25"></line><line x1="75.9375" y1="0" x2="75.9375" y2="177" fill="rgb(0, 0, 0)" stroke="rgb(66, 66, 66)" stroke-width="1px" opacity="0.25"></line><line x1="101.25" y1="0" x2="101.25" y2="177" fill="rgb(0, 0, 0)" stroke="rgb(66, 66, 66)" stroke-width="1px" opacity="0.25"></line><line x1="126.5625" y1="0" x2="126.5625" y2="177" fill="rgb(0, 0, 0)" stroke="rgb(66, 66, 66)" stroke-width="1px" opacity="0.25"></line><line x1="151.875" y1="0" x2="151.875" y2="177" fill="rgb(0, 0, 0)" stroke="rgb(66, 66, 66)" stroke-width="1px" opacity="0.25"></line><line x1="177.1875" y1="0" x2="177.1875" y2="177" fill="rgb(0, 0, 0)" stroke="rgb(66, 66, 66)" stroke-width="1px" opacity="0.25"></line><line x1="202.5" y1="0" x2="202.5" y2="177" fill="rgb(0, 0, 0)" stroke="rgb(66, 66, 66)" stroke-width="1px" opacity="0.25"></line><line x1="227.8125" y1="0" x2="227.8125" y2="177" fill="rgb(0, 0, 0)" stroke="rgb(66, 66, 66)" stroke-width="1px" opacity="0.25"></line><line x1="253.125" y1="0" x2="253.125" y2="177" fill="rgb(0, 0, 0)" stroke="rgb(66, 66, 66)" stroke-width="1px" opacity="0.25"></line><line x1="278.4375" y1="0" x2="278.4375" y2="177" fill="rgb(0, 0, 0)" stroke="rgb(66, 66, 66)" stroke-width="1px" opacity="0.25"></line></g><g><line x1="0" y1="177" x2="278.4375" y2="177" fill="rgb(0, 0, 0)" stroke="rgb(66, 66, 66)" stroke-width="1px" opacity="0.25"></line><line x1="0" y1="159.29999999999998" x2="278.4375" y2="159.29999999999998" fill="rgb(0, 0, 0)" stroke="rgb(66, 66, 66)" stroke-width="1px" opacity="0.25"></line><line x1="0" y1="141.6" x2="278.4375" y2="141.6" fill="rgb(0, 0, 0)" stroke="rgb(66, 66, 66)" stroke-width="1px" opacity="0.25"></line><line x1="0" y1="123.89999999999999" x2="278.4375" y2="123.89999999999999" fill="rgb(0, 0, 0)" stroke="rgb(66, 66, 66)" stroke-width="1px" opacity="0.25"></line><line x1="0" y1="106.19999999999997" x2="278.4375" y2="106.19999999999997" fill="rgb(0, 0, 0)" stroke="rgb(66, 66, 66)" stroke-width="1px" opacity="0.25"></line><line x1="0" y1="88.5" x2="278.4375" y2="88.5" fill="rgb(0, 0, 0)" stroke="rgb(66, 66, 66)" stroke-width="1px" opacity="0.25"></line><line x1="0" y1="70.79999999999998" x2="278.4375" y2="70.79999999999998" fill="rgb(0, 0, 0)" stroke="rgb(66, 66, 66)" stroke-width="1px" opacity="0.25"></line><line x1="0" y1="53.10000000000001" x2="278.4375" y2="53.10000000000001" fill="rgb(0, 0, 0)" stroke="rgb(66, 66, 66)" stroke-width="1px" opacity="0.25"></line><line x1="0" y1="35.39999999999999" x2="278.4375" y2="35.39999999999999" fill="rgb(0, 0, 0)" stroke="rgb(66, 66, 66)" stroke-width="1px" opacity="0.25"></line><line x1="0" y1="17.699999999999978" x2="278.4375" y2="17.699999999999978" fill="rgb(0, 0, 0)" stroke="rgb(66, 66, 66)" stroke-width="1px" opacity="0.25"></line><line x1="0" y1="0" x2="278.4375" y2="0" fill="rgb(0, 0, 0)" stroke="rgb(66, 66, 66)" stroke-width="1px" opacity="0.25"></line></g></g></g><g><g><line x1="0" y1="300.9" x2="278.4375" y2="300.9" fill="rgb(0, 0, 0)" stroke="rgb(153, 153, 153)" stroke-width="1.5px"></line></g></g><g><g><line x1="25.3125" y1="0" x2="25.3125" y2="177" fill="rgb(0, 0, 0)" stroke="rgb(153, 153, 153)" stroke-width="1.5px"></line></g></g><g><g><g><g><g><path stroke="rgb(255, 112, 67)" stroke-width="2px" d="M37.96875,179.1850516408529L38.0953125,170.00081738041462L38.475,164.58455604195163L38.854687500000004,160.3356615035302L38.98125,157.9764446192057L39.234375,156.38668298322108L39.3609375,155.08421107052516L39.8671875,154.81507919739914L40.120312500000004,154.5494418150855L40.753125,153.69680055181203L41.259375000000006,152.7868385183811L41.385937500000004,152.2221455590724L41.639062499999994,152.06905659298891L41.8921875,151.7275517097759L42.01875,151.49386409948156L42.1453125,151.3655392982357L42.3984375,151.19470408068855L42.6515625,151.05609233442996L42.778124999999996,150.9304255775455L43.5375,150.52913955997488L43.6640625,150.20462609381116L43.9171875,149.97929340988776L44.043749999999996,149.7916728495978L44.4234375,149.51385340687173L45.309374999999996,149.05924741742933L45.5625,148.67274192522717L45.6890625,148.4059138366625L45.9421875,148.09628518992932L46.19531250000001,147.75417777403754L46.4484375,147.41912695231773L46.9546875,147.11065503396236L47.081250000000004,146.85873538278128L47.2078125,146.63553116096605L47.5875,146.45052120073765L47.7140625,146.26155900111274L47.840624999999996,146.08522336930318L47.9671875,145.91368691235948L48.2203125,145.70499473637443L48.346875000000004,145.6139024223453L48.7265625,145.44231480870044L48.853125,145.32725925513145L48.9796875,145.1914653829815L49.359375,145.00942624879372L49.4859375,144.86247166915234L49.612500000000004,144.70761856152708L49.7390625,144.58436483331977L50.11875,134.29598667495523L50.4984375,128.28979360981626L50.625,125.38310507252122L50.751562500000006,123.86452482291642L51.0046875,122.86835193484177L51.131249999999994,122.01189413934438L51.2578125,121.62420616668157L51.384375,121.65378253294047L51.6375,121.35268136401781L51.890625,120.8338797935236L52.143750000000004,120.74673196127345L52.396874999999994,120.53736609250504L52.65,120.43237397450326L52.7765625,120.29538506852458L53.0296875,120.24253766648094L53.15625,120.18035232133937L53.282812500000006,120.03099143926663L53.409375,119.98024963155008L53.535937499999996,120.07014231928956L53.7890625,120.25742177157863L53.915625,120.38940404408733L54.421875,120.36637635322545L54.801562499999996,120.32650540406785L55.18125,120.30521612009571L55.434375,120.16262663746573L55.5609375,120.1001648363155L55.6875,120.00096590618382L55.940625,119.96443715632017L56.067187499999996,120.0392087491754L56.3203125,119.99444715693015L56.446875,119.91353188821327L56.573437500000004,119.78314831536204L56.7,119.67483794856778L57.332812499999996,119.6026439533753L57.459375,119.48600912249819L57.5859375,119.40557948205908L57.965625,119.33614569338584L58.0921875,119.23647717852847L58.21874999999999,119.19499090802346L58.3453125,119.15114286596582L58.598437499999996,119.1497067728937L59.6109375,119.1395188974917L59.7375,119.11715069815992L60.1171875,119.16164518001958L60.24375,119.16162921311425L60.370312500000004,119.13979374719837L60.623437499999994,119.08250053497065L60.8765625,119.02619744164888L61.1296875,119.01894256128753L61.25625,119.00883354099922L61.509375,119.05287651391227L61.7625,119.10479959113238L61.889062499999994,119.18352981724047L62.1421875,114.1440283651215L62.775000000000006,109.18086206645143L62.901562500000004,106.65506027537808L63.028124999999996,105.28996343611612L63.154687499999994,104.44410827636081L63.28125,103.6961221961937L63.9140625,102.94574339561234L64.1671875,102.54637566192491L64.29375,102.04271750797952L64.4203125,101.64678777903391L64.546875,101.45985316783232L64.9265625,101.27778373450066L65.05312500000001,101.07694256240144L65.4328125,101.03452490290414L65.6859375,100.84024863314872L65.8125,100.7759687809482L66.1921875,100.54479122569171L66.4453125,100.44755893951657L67.078125,100.64183773759603L67.2046875,100.74493474819423L67.33125,100.79396412764885L67.4578125,100.8360249018365L68.090625,100.76809201095664L68.2171875,100.73280984791617L68.4703125,100.82669487138092L68.85000000000001,100.8681039341658L68.9765625,100.94120095302877L69.10312499999999,100.98072943526637L69.2296875,100.98153187655289L69.4828125,101.01693813456822L69.73593749999999,101.07080255778865L69.98906249999999,101.24095514078283L70.11562500000001,101.36425645505992L70.2421875,101.4232140121198L70.36875,101.43324317320206L70.7484375,101.46815929045688L71.0015625,101.48698207634934L71.2546875,101.49382785855678L71.38125,101.46818426548806L71.5078125,101.4641246134005L71.63437499999999,101.4025664981581L71.76093750000001,101.38420810797076L71.8875,101.35940208493628L72.0140625,101.33782553707933L72.7734375,101.41342383405791L73.153125,101.44199561703938L73.2796875,101.41654191749538L73.7859375,101.35464703999304L74.16562499999999,101.33134330250228L74.29218750000001,101.30102962575796L74.79843749999999,95.25949618770146L74.925,91.28216318579591L75.0515625,89.2603805893187L75.17812500000001,87.87171646317985L75.3046875,87.06371144033163L75.43125,86.28095892177038L75.5578125,85.73402216855294L75.68437499999999,85.63448331608538L75.8109375,85.86896214159825L75.9375,86.0802164248973L76.190625,86.29599430157836L76.3171875,86.45047724005038L76.5703125,86.65395067546642L77.0765625,86.88849797257109L77.203125,86.8427019596596L77.5828125,86.90196241381761L77.70937500000001,87.07829818155169L77.8359375,87.08656679764866L77.9625,87.15986679062532L78.34218750000001,87.43307766714862L78.721875,87.89837190508348L78.8484375,88.23560732960402L79.228125,88.46688096499263L79.3546875,88.47835279927146L79.86093749999999,88.48943058863576L79.98750000000001,88.52360859999237L80.3671875,88.45728450470672L80.49374999999999,88.41141323479118L80.6203125,88.36742399830878L80.74687499999999,88.37040171801604L80.87343750000001,88.277693911669L81,88.27831350581489L81.1265625,88.26719839821244L81.253125,88.23978377014387L81.50625,88.26177927392715L81.63281249999999,88.33445338093037L81.759375,88.42650354673144L81.8859375,88.54038332921074L82.39218749999999,88.56466274632099L82.51875000000001,88.5213487551992L82.6453125,88.49025414981753L82.77187500000001,88.46400137065834L82.8984375,88.4851747806012L83.1515625,88.6141316303694L83.40468750000001,88.62163927370806L83.6578125,88.68456566223203L83.784375,88.63342278891027L84.1640625,88.55415632303489L84.290625,88.4822554324623L84.4171875,88.42645487156844L84.6703125,88.41827770809732L84.92343749999999,88.4037244697833L85.4296875,88.41123112085008L85.55624999999999,88.44594193483913L85.93593750000001,88.46102077117872L86.0625,88.4834708210904L86.1890625,88.49121007901898L86.315625,88.45854875554124L86.44218749999999,88.45040506547382L86.56875,77.85024135128073L86.6953125,75.79970900067934L86.9484375,76.32839899926933L87.075,77.01727761786906L87.2015625,77.52046565748287L87.328125,77.65276788554807L87.58125000000001,76.77938938428295L87.9609375,75.83220511608918L88.46718750000001,75.44328713139058L88.846875,75.18530836892224L88.97343749999999,74.8268466043001L89.10000000000001,74.59521867081675L89.4796875,74.59864188936447L89.7328125,74.52192513529718L89.859375,74.65762554397736L89.9859375,74.94650986427399L90.1125,75.06104729315243L90.2390625,75.2814621886051L90.365625,75.37335096123435L90.4921875,75.41345255328784L90.871875,75.34066430541019L90.99843750000001,75.37748380549037L91.125,75.39238461045794L91.25156249999999,75.43739772908908L91.63125000000001,75.30614682837144L92.5171875,75.52708443643937L92.896875,75.77860061074665L93.0234375,75.91185379830227L93.27656250000001,76.05505520348086L93.403125,76.16920790579516L93.52968750000001,76.18788654271722L93.65625,76.179428483629L93.78281249999999,76.14298210238444L94.03593749999999,76.05258132991213L94.16250000000001,75.97903010593068L94.2890625,75.97410325375922L94.5421875,75.97015966038542L94.66875,76.00733498728654L95.0484375,76.09900868890512L95.3015625,76.19606107805866L95.5546875,76.2417422052306L95.68124999999999,76.23369436717523L95.80781250000001,76.20163816724116L96.5671875,76.30183913775618L96.69375000000001,76.38013107817372L96.8203125,76.40556731725334L97.3265625,76.37921977343916L97.70625,76.38236752690531L97.959375,76.43284536088501L98.33906250000001,76.51690341404078L98.84531249999999,65.65961973053813L99.3515625,64.0626232730305L99.478125,63.421550623593085L99.6046875,63.2268833923443L99.85781250000001,63.12167119789744L99.984375,63.27948666458501L100.1109375,63.53549844291909L100.2375,63.60432553212107L100.3640625,63.81758714628373L100.6171875,64.6362245232591L100.8703125,65.29283129636816L100.996875,65.81124342122303L101.1234375,66.05022982501164L101.25,66.32991951312528L101.50312500000001,66.61618053439797L101.6296875,66.79176891519748L101.75625000000001,66.89306229516342L102.009375,66.91179859497831L102.38906250000001,67.04259322559051L102.6421875,67.18572053954131L103.021875,67.17640196827129L103.14843750000001,67.26977003304408L103.4015625,67.35655473642495L103.6546875,67.26093368871778L103.90781249999999,67.25897821631295L104.1609375,67.35394517449294L104.28750000000001,67.52299190442415L104.6671875,67.52709809828194L104.79374999999999,67.48242431574104L104.92031250000001,67.47994417722845L105.046875,67.53047192320722L105.553125,67.61009515419899L105.80625,67.71819833931505L106.059375,67.7158017493318L106.43906249999999,67.63795631510197L106.56562500000001,67.63568574775563L106.6921875,67.68301386946025L106.81875,67.77810376234996L106.9453125,67.79806382029143L107.07187499999999,67.79844327073626L107.578125,67.7097047144254L107.83125,67.70746460760118L107.9578125,67.66454501631547L108.084375,67.61522873212508L108.2109375,67.56032734852798L108.3375,67.50979752148251L108.7171875,67.44519627335701L108.84375,67.43497966434376L108.97031249999999,67.48530497733243L109.85625,67.60309066881828L110.2359375,67.59244251316838L110.86875,67.66663890877992L110.9953125,67.6869676554181L111.121875,64.05742386603224L111.5015625,61.22381537690084L111.7546875,59.854718417729856L111.88125,59.20399336028449L112.0078125,58.91616362099856L112.3875,58.167848130256L113.02031249999999,57.99575049650079L113.2734375,57.92303634030466L113.4,57.96830655302311L113.5265625,58.11140920380178L113.653125,58.181724281665204L113.90625,58.384822265837485L114.2859375,58.54888114484186L114.4125,58.62822515220663L114.66562499999999,58.82725391418467L115.171875,58.92783305186467L115.29843749999999,59.05922016345522L115.55156249999999,59.06933380629456L115.93125,59.11403195301194L116.184375,59.05592738294301L116.43749999999999,58.98980281534014L116.5640625,59.014719530238004L116.690625,59.107233321841534L116.94375,59.095229895219795L117.19687499999999,59.051558522764196L117.32343750000001,59.03497731946907L117.45,59.041267191547156L117.57656250000001,59.04007838438626L117.703125,59.034588050071434L117.95625,58.98661239577769L118.08281249999999,58.9128163888063L118.20937500000001,58.85951640570201L118.8421875,58.76383116223831L118.96875,58.69942324148669L119.0953125,58.706869425696446L119.3484375,58.694085740043114L119.475,58.63699922501646L119.6015625,58.60976097070935L119.72812499999999,58.610551254056475L120.6140625,58.73464636331951L120.99375,58.79229935363623L121.1203125,58.848995554183105L121.3734375,58.95378282292732L122.00625,59.06791141166714L122.1328125,59.12856466850298L122.259375,59.19326444197091L122.6390625,59.251462586691346L122.765625,59.301480665189246L123.01875,59.38506030463115L123.1453125,59.47873325957618L123.27187500000001,59.522606166683204L123.525,58.62736437826309L123.6515625,56.565994308644264L123.90468750000001,54.02397416964395L124.03125,52.3632576020671L124.1578125,51.06391542626102L124.284375,50.53278424187111L124.4109375,50.186118432543296L124.5375,50.027771571076876L125.1703125,49.87787801909264L125.296875,49.673849728630906L125.55000000000001,49.31201477225238L125.80312500000001,49.33198545560609L126.05624999999999,49.48900112977843L126.1828125,49.61132423324121L126.5625,49.89300929214201L126.6890625,50.149678351316695L127.19531250000001,50.482684122224946L127.321875,50.68685951393859L127.4484375,50.829637671482644L127.575,50.923913384063304L127.95468749999999,50.88340172802403L128.334375,50.82995135328172L128.9671875,50.926388837939506L129.09375,51.03671447875859L129.346875,51.112438643233546L129.47343750000002,51.10436342969926L129.6,51.17245693454379L129.853125,51.227829867894826L129.97968749999998,51.18414818662132L130.10625000000002,51.20882404457166L130.2328125,51.25329622155803L130.7390625,51.40658823327052L130.865625,51.47877159879102L131.11875,51.51589508512909L131.2453125,51.53381412779862L131.371875,51.56807100269539L131.625,51.57166913207379L131.7515625,51.57499273214344L132.13125,51.66139550920488L132.384375,51.69331873366927L133.0171875,51.65570510929641L133.14375,51.68177675667891L133.5234375,51.669719607016376L133.903125,51.75921636008078L134.2828125,51.83977898825919L134.409375,51.8570404199941L134.5359375,51.8668993179907L134.915625,51.894513942295916L135.04218749999998,51.906567307409425L135.5484375,47.83251060730025L135.67499999999998,48.152967305694844L136.940625,46.20164562923596L137.19375,45.26659919776252L137.3203125,44.729127428279725L137.446875,44.45056621870184L137.57343749999998,44.43201600456706L137.8265625,44.56099016990942L138.0796875,44.79465003685168L138.3328125,45.05477860853678L138.7125,44.977151661429424L138.965625,45.06945598442175L139.0921875,45.26252058696042L139.47187499999998,45.37364137858922L139.5984375,45.40214809352622L139.8515625,45.30287271842044L140.1046875,45.257613323358775L140.23125000000002,45.28238911523107L140.35781250000002,45.42084176953841L140.6109375,45.49847799072392L140.7375,45.51883658844071L140.990625,45.461717001663686L141.1171875,45.42123339657011L141.37031249999998,45.51213259508623L141.6234375,45.65385749703893L141.74999999999997,45.78704273919014L142.003125,45.98877709996548L142.25625,46.21579057867438L142.7625,46.41449699696963L142.8890625,46.49846689401308L143.015625,46.55674024878882L143.14218749999998,46.56397880350913L143.26874999999998,46.60526389381507L143.39531250000002,46.64297349513303L143.52187500000002,46.67252007043798L143.775,46.79048166582843L144.28125,46.7957472056738L144.53437499999998,46.82993203464696L144.6609375,46.86777028836936L145.04062499999998,46.824143141496954L145.546875,46.69795264362619L145.9265625,46.56117481684283L146.1796875,46.534862877700284L146.30625,46.57717679606293L146.43281249999998,46.597627736725876L146.9390625,46.64625789737612L147.065625,46.703456852530884L147.19218750000002,46.74212283473934L147.31875,46.72584002126293L147.4453125,46.73387033050676L147.571875,46.744942569168906L147.825,35.71696329082996L147.9515625,33.82017966250151L148.33124999999998,34.246297965881624L148.9640625,35.31681045677507L149.2171875,35.992295660890626L149.34375,36.69074235815852L149.59687499999998,37.300807977074676L149.7234375,37.8593050720419L150.2296875,37.82936412347114L150.4828125,37.85479812534305L150.609375,37.777724732826066L150.7359375,37.72303223959796L150.9890625,37.892194807244486L151.2421875,37.74466118557046L151.36874999999998,37.7074310001301L151.49531249999998,37.67851811507746L151.74843750000002,37.858514877911844L151.875,37.93820511624599L152.128125,38.04787614897123L152.25468750000002,38.106884554357705L152.38125,38.19925127704822L152.5078125,38.24215476441313L152.634375,38.17746206717449L152.76093749999998,38.20144018052075L153.39375,38.275514853704294L153.646875,38.482438438360894L153.9,38.55039895130695L154.0265625,38.71916812749802L154.153125,38.87647135074199L154.7859375,39.1150509870962L155.2921875,39.413950855548116L155.5453125,39.59569618166384L155.671875,39.74424266017017L156.43124999999998,39.921670012453426L156.55781249999998,39.98516673372941L156.68437500000002,40.02432820872518L156.81093750000002,40.0637514071229L156.9375,40.12248203972355L157.44375,40.22387327801807L157.696875,40.36497258932366L157.82343749999998,40.43244830006942L158.58281250000002,40.53599753877272L158.709375,40.561294844751046L159.0890625,40.6096762579706L159.3421875,40.69516882431665L159.46875,40.82460204799272L159.5953125,40.90662547134934L159.8484375,40.951298795840636L160.228125,38.268029987038084L160.3546875,36.42121648503598L160.48125000000002,34.4583402711943L160.734375,33.55471255772084L160.8609375,33.073076176600274L160.98749999999998,32.75803157326975L161.1140625,32.590552176460015L161.240625,32.63709808672927L161.3671875,32.7505230121938L161.74687500000002,33.23470460016297L161.87343750000002,33.56483099602921L162.1265625,34.03120655622044L162.253125,34.38688233140682L162.3796875,34.70615937854987L162.759375,34.94259274092997L162.88593749999998,35.14127095751573L163.0125,35.297419844940954L163.51875,35.53776292495469L163.64531250000002,35.61293786819305L163.771875,35.821466896864905L164.4046875,36.04245447512452L164.65781249999998,36.197328668808844L164.91093750000002,36.365344022498086L165.03750000000002,36.476222175827964L165.1640625,36.582889792008025L165.54375000000002,36.56108070175817L165.6703125,36.52195779300314L165.796875,36.516351565221456L165.9234375,36.438800072967716L166.04999999999998,36.37706026571971L166.1765625,36.354609171974545L166.303125,36.387305412547505L166.4296875,36.454761177216L166.6828125,36.437201074310565L167.0625,36.510001747339054L167.315625,36.60441509755198L167.4421875,36.66093650741422L167.821875,36.80955763389493L167.94843749999998,36.84582827883853L168.20156250000002,36.85722632406888L168.328125,36.82805159568032L168.4546875,36.79956629561925L168.58125,36.74560067825047L168.70781250000002,36.692931505277926L168.9609375,36.67265650524803L169.0875,36.70551055964295L169.2140625,36.75191032824794L169.340625,36.738318142520654L169.59375,36.599030276076356L169.97343750000002,36.554425117931586L170.353125,36.5398747286569L170.4796875,36.58148920067375L170.7328125,36.61980999188555L170.859375,36.66994556353648L170.9859375,36.661076224840635L171.11249999999998,36.69251933872521L171.2390625,36.69933286178005L171.365625,36.71338863651689L171.61875,36.743031865839555L172.125,36.78760641961361L172.2515625,36.83583099692504L172.5046875,30.629677347239486L172.7578125,29.572110788760558L173.01093749999998,29.66003636880993L173.1375,30.044627892758136L173.896875,29.55119552837948L174.0234375,29.26658921377146L174.27656249999998,28.743750086643008L174.403125,28.354162411223488L174.5296875,28.481617243487005L175.03593750000002,28.702971486686696L175.2890625,28.997942092680333L175.5421875,29.112645565666774L175.7953125,29.0580239505756L175.921875,29.16383607215809L176.0484375,29.26142945663408L176.428125,29.453033926345526L176.55468749999997,29.587864409838698L176.68125,29.758775488707155L176.93437500000002,30.007401962383234L177.0609375,30.116006681504025L177.440625,30.171260932196496L177.5671875,30.105352994864784L177.94687499999998,30.21041105572319L178.07343749999998,30.27101516714056L178.20000000000002,30.384544715823893L178.453125,30.37243163677585L178.959375,30.387344155863115L179.0859375,30.430127698275548L179.2125,30.491634138878023L179.465625,30.59018389252174L179.5921875,30.758206853075876L180.09843750000002,30.878171029570147L180.225,30.99756555490639L180.478125,31.042109813290494L180.8578125,30.998547900913756L180.984375,31.01384280037796L181.3640625,31.12064542479462L181.49062500000002,31.209802292031938L182.1234375,31.456404017354785L182.3765625,31.600263203946188L182.50312499999998,31.71748606071915L182.6296875,31.839607723391293L182.75625,31.914239563844326L182.8828125,31.99203601735931L183.00937499999998,32.05215039764703L183.13593749999998,32.11373319932735L183.515625,32.26964492981979L183.6421875,32.43525283923955L183.76875,32.52903873319157L183.8953125,32.612647486893714L184.1484375,32.719504338007226L184.40156249999998,32.81391811221902L184.528125,32.90079008013045L184.9078125,28.158333325803454L185.034375,25.687334418547273L185.4140625,25.090430531652025L185.79375,24.18242948636486L186.29999999999998,24.696766680390088L186.9328125,25.128610135263486L187.05937500000002,25.41205721923487L187.1859375,25.57041072504984L187.6921875,25.642103059633165L188.07187499999998,25.947079729761843L188.4515625,26.24993086321718L188.7046875,26.497650921723654L189.084375,26.73892059110487L189.46406249999998,26.92573900093366L189.7171875,26.960257844148458L189.84375,27.014509780417896L190.096875,27.065299820429697L190.22343750000002,27.118047051147578L190.7296875,27.28753775865788L191.23593749999998,27.439450288480216L191.7421875,27.604827762046835L191.86875,27.67064865612945L192.5015625,27.851258288526314L192.7546875,27.877629296007004L192.88125,27.968314857496168L193.134375,28.01745962334476L193.2609375,28.063666157918018L193.5140625,28.155829613802915L194.4,28.38453629100208L195.5390625,28.594420409702565L195.665625,28.743822570147113L195.91875,28.84933953970791L196.0453125,28.907686991036655L196.425,28.992449366176547L196.55156250000002,29.0958459014442L196.8046875,22.767507540866518L197.3109375,23.7100808642416L197.5640625,24.032189427739905L198.07031249999997,23.781956955746708L198.196875,23.55457443055865L198.3234375,23.599782536371652L198.45000000000002,23.64718032237535L198.5765625,23.605904447773963L199.0828125,23.786822154366874L199.209375,23.82751503601305L199.46249999999998,23.827150873032988L199.58906249999998,23.955617325119857L200.0953125,23.861972518332422L200.221875,23.853851535062553L200.728125,23.846041818940947L200.85468749999998,23.919021032145213L201.36093749999998,24.098633764917007L201.740625,24.25510874672792L202.1203125,24.41593151619474L202.246875,24.439849465670818L202.5,24.44783646201052L202.6265625,24.47837915381763L203.00625000000002,24.488551711803513L203.259375,24.46441466317525L204.271875,24.764837934410284L204.65156249999998,25.059015256068513L204.77812500000002,25.225368307770133L205.03125,25.338363446438812L205.284375,25.39750107147961L205.4109375,25.51446357738179L206.55,25.558266025610003L206.67656250000002,25.616433881418228L206.9296875,25.66860287111777L207.1828125,25.69480649424658L207.4359375,25.71197191115062L207.5625,25.730238538002L207.68906249999998,25.744869921812427L207.81562499999998,25.755210155373227L208.1953125,25.76589594490848L208.4484375,25.773210500523593L208.57500000000002,25.80936746051621L208.7015625,25.817068087164824L208.828125,25.81728277391451L208.9546875,25.820458432354087L209.08124999999998,22.17894322652669L209.2078125,16.847367623919535L209.4609375,14.623202106639347L209.58749999999998,13.427625487616417L209.7140625,13.220427946073265L209.84062500000002,13.393189604176548L209.96718750000002,13.571616715844549L210.09375,14.112793733272603L210.2203125,14.480054512973805L210.346875,15.141334385488138L210.4734375,15.62375160861835L210.6,15.914012184195634L210.7265625,16.15465054896646L211.4859375,16.77278864137633L211.865625,17.261933024837376L211.9921875,17.80700814253911L212.2453125,18.139767105143246L212.371875,18.244919604516593L212.87812499999998,18.515230418715827L213.00468750000002,18.616868220254137L213.13125000000002,18.70285023360513L213.2578125,18.814979688579182L213.6375,19.058535571249955L213.7640625,19.271328360648535L213.890625,19.388546852357113L214.0171875,19.493811180643398L214.14374999999998,19.559552423031445L214.396875,19.73304996959647L214.5234375,19.913800738288632L215.0296875,20.151079629679735L215.15625,20.317771095526343L215.2828125,20.41248564391856L215.5359375,20.462764919218557L215.915625,20.563668272743893L216.421875,20.76878778806343L216.5484375,20.901894678300717L216.675,20.93289954997663L216.928125,20.935002238378317L217.18125,21.03612614084803L217.30781249999998,21.07278019195511L218.19375000000002,21.27257003549165L218.5734375,21.45284914829389L218.8265625,21.5583073702935L219.0796875,21.572225079982495L219.459375,21.650577212601302L219.58593750000003,21.737476015823695L219.96562500000002,21.81980524107072L220.0921875,21.890269060398655L220.3453125,21.913911792913385L220.471875,21.928873914050623L220.97812499999998,22.075727315883373L221.23125,22.182609956348244L221.35781250000002,24.606332169106167L221.7375,21.420539165813054L221.86406250000002,19.750785470770765L221.990625,18.718566070060145L222.24375,18.2235643303753L222.496875,17.816657376072467L223.12968750000002,18.27880764471391L223.3828125,18.64365454952059L223.509375,18.878885686636803L223.6359375,18.99669615998321L223.8890625,19.23292495116265L224.1421875,19.34710556807918L224.26874999999998,19.474601221935778L224.3953125,19.461862307105587L224.521875,19.551135681458785L224.9015625,19.76233391665726L225.1546875,19.76355823459213L225.28125,19.727038587224392L225.4078125,19.697235382254064L225.534375,19.729740364942028L225.6609375,19.776302051301624L226.04062499999998,19.81105015740144L226.6734375,19.838355634602L227.30625,19.79673911928658L227.43281249999998,19.736869736907042L227.559375,19.72446199679202L228.065625,19.677020108841816L228.19218750000002,19.68640001543937L228.31875,19.706266269258144L229.2046875,19.80231611798495L229.33124999999998,19.87362729591302L229.58437500000002,20.02876751829488L229.7109375,20.172854678686274L229.9640625,20.2537534432744L230.4703125,20.216609642334877L230.7234375,20.24380718554744L230.9765625,20.20545971683078L231.2296875,20.18006271059166L231.35625000000002,20.172555563061504L231.7359375,20.179428418403305L231.8625,20.203377733186162L232.36875,20.254174438449894L232.49531249999998,20.25482543905565L232.621875,20.237897123098296L232.7484375,20.23422206711761L233.0015625,20.223560135793633L233.128125,20.191336522836668L233.7609375,19.602554360830307L233.8875,19.291637072446058L234.140625,17.2634917172683L234.39374999999998,15.911437620692984L234.52031250000002,15.315585974439102L234.64687500000002,14.886723077049323L234.7734375,14.876090175956795L235.0265625,14.778094043165611L235.2796875,14.90852156032931L235.7859375,15.455865814386662L236.0390625,15.97480576640299L236.2921875,16.183404082095226L236.671875,16.2883914292071L236.7984375,16.329752072108615L237.3046875,16.471893143899916L237.684375,16.39518852725487L237.9375,16.356348212330726L238.0640625,16.36345340715002L238.190625,16.367699644006212L238.31718750000002,16.36555473627857L238.696875,16.425137199295825L238.8234375,16.4891016562779L238.95,16.45125009059903L239.0765625,16.45252568149561L239.203125,16.523503543281528L239.32968749999998,16.563845215644825L239.70937500000002,16.63252911234281L239.8359375,16.73112313070521L239.9625,16.814114151708043L240.215625,16.888798376507633L240.3421875,16.951932189814507L240.46875,16.942995699615643L240.5953125,17.000132136566275L240.8484375,17.107082551135328L241.10156250000003,17.28338687504157L241.48125000000002,17.36956330826775L241.734375,17.380124081914992L241.8609375,17.35339255675398L241.9875,17.363475496439484L242.1140625,17.413117951672298L242.62031249999998,17.47470541150629L242.87343750000002,17.51788662046945L243,17.558599136893502L243.37968750000002,17.504745482578603L243.50625,17.50074954937385L243.6328125,17.490519653025192L243.759375,17.48111542836603L244.39218749999998,17.497383179520227L245.4046875,17.637609623822353L245.53125,17.719255685182098L245.6578125,17.745514354331302L246.0375,16.61898912025872L246.290625,15.751679698427813L246.54375000000002,14.58804653632659L246.6703125,13.938877821850875L246.796875,13.738559589915322L246.9234375,13.514404512723003L247.05,13.261540218162363L247.303125,13.121122825126571L247.4296875,13.16920342682642L247.80937500000002,13.365054418080087L248.4421875,13.61370600785796L248.56875,13.710062450921406L248.821875,13.961304642412566L248.94843749999998,14.088097187074116L249.2015625,14.095470969791464L250.0875,14.192414713451413L250.2140625,14.218331652014928L250.340625,14.379733761030105L250.7203125,14.566427454875514L250.84687499999998,14.618688345865376L251.2265625,14.680243263790617L251.353125,14.723649708121764L251.4796875,14.724517001920784L251.60625000000002,14.770005792506838L251.859375,14.819116512613466L251.9859375,14.835416517065147L252.2390625,14.875774703863955L252.4921875,14.884974824454568L252.74531249999998,14.931133582035393L252.87187500000002,14.96545425047855L253.2515625,14.992604545297494L253.378125,14.997196857656391L253.5046875,15.043646216705655L253.63125,15.06253565330223L253.7578125,15.124036780470105L254.2640625,15.185852389021774L254.5171875,15.26631500511411L255.0234375,15.38939645164636L255.2765625,15.471744417389806L255.5296875,15.517743429684979L255.65625,15.542566071238703L256.1625,15.531962362698655L256.5421875,15.49400915132281L256.66875,15.512567991175137L256.921875,15.539292007778817L257.04843750000003,15.564838317689137L257.3015625,15.546135952268166L257.428125,15.504049388285953L257.5546875,15.507501950094966L257.8078125,15.520520190137535L257.934375,15.500495955787871L258.06093749999997,17.2413802513139L258.8203125,15.140780432740216L258.94687500000003,13.78205213530027L259.0734375,12.680487556357177L259.2,12.266588127076005L259.3265625,11.756793601190653L259.5796875,11.58424384526945L259.70625,11.419895224169121L259.95937499999997,11.373099320170398L260.3390625,11.223325162552058L260.8453125,11.074726584805417L261.3515625,10.87081695750556L261.478125,10.736342875690443L261.6046875,10.631908216793047L261.73125,10.547109255027014L262.2375,10.617217531699708L262.3640625,10.632341961204254L262.490625,10.681050942027115L262.6171875,10.781797040512254L262.74375,10.810476472979834L262.8703125,10.871386544111994L262.996875,10.935919685485137L263.25,10.953818046642635L263.3765625,10.998756015058323L263.75625,11.099746191356157L263.8828125,11.215968453796878L264.1359375,11.30955330128203L264.3890625,11.412259347407414L264.6421875,11.51012441108726L264.76875,11.571020973861826L265.27500000000003,11.661786025250343L265.78125,11.916273475578066L266.034375,12.070122228199644L266.1609375,12.201483441671362L266.6671875,12.197258835602156L266.9203125,12.247288502197472L267.046875,12.312408335769774L267.17343750000003,12.37093447671209L267.553125,12.501245120917982L267.9328125,12.538598701807995L268.18593749999997,12.556765521438791L268.9453125,12.652445591015752L269.071875,12.695843203379606L269.1984375,12.732220792480641L269.4515625,12.809295701806748L269.578125,12.891942443743325L269.9578125,13.029222272810316L270.08437499999997,13.10804536281641L270.2109375,13.140847706428874" style="fill: none;" fill="none"></path></g></g></g></g><g opacity="0.2"><g><g><g><path stroke="rgb(255, 112, 67)" stroke-width="2px" d="M37.4625,194.41882714033127L37.96875,154.3133083820343L38.0953125,156.22446599006653L38.475,156.4601640343666L38.854687500000004,153.96231969594956L38.98125,154.43761929273606L39.234375,154.0020405292511L39.3609375,153.1305032014847L39.8671875,154.41138138771058L40.120312500000004,154.1509857416153L40.753125,152.41783865690232L41.259375000000006,151.42189546823502L41.385937500000004,151.37510612010956L41.639062499999994,151.83942314386368L41.8921875,151.21529438495637L42.01875,151.14333268404008L42.1453125,151.1730520963669L42.3984375,150.93845125436783L42.6515625,150.84817471504212L42.778124999999996,150.7419254422188L43.5375,149.92721053361893L43.6640625,149.7178558945656L43.9171875,149.6412943840027L44.043749999999996,149.5102420091629L44.4234375,149.0971242427826L45.309374999999996,148.3773384332657L45.5625,148.092983686924L45.6890625,148.00567170381547L45.9421875,147.63184221982957L46.19531250000001,147.2410166501999L46.4484375,146.916550719738L46.9546875,146.6479471564293L47.081250000000004,146.48085590600968L47.2078125,146.30072482824326L47.5875,146.17300626039506L47.7140625,145.97811570167542L47.840624999999996,145.8207199215889L47.9671875,145.65638222694398L48.2203125,145.39195647239686L48.346875000000004,145.47726395130158L48.7265625,145.1849333882332L48.853125,145.154675924778L48.9796875,144.98777457475663L49.359375,144.73636754751206L49.4859375,144.64203979969025L49.612500000000004,144.47533890008927L49.7390625,144.39948424100876L50.11875,118.86341943740844L50.4984375,119.28050401210784L50.625,121.02307226657867L50.751562500000006,121.58665444850921L51.0046875,121.37409260272979L51.131249999999994,120.72720744609832L51.2578125,121.04267420768737L51.384375,121.69814708232879L51.6375,120.90102961063384L51.890625,120.05567743778228L52.143750000000004,120.61601021289825L52.396874999999994,120.22331728935241L52.65,120.2748857975006L52.7765625,120.08990170955657L53.0296875,120.16326656341552L53.15625,120.087074303627L53.282812500000006,119.80695011615752L53.409375,119.90413691997527L53.535937499999996,120.20498135089873L53.7890625,120.5383409500122L53.915625,120.58737745285033L54.421875,120.33183481693267L54.801562499999996,120.26669898033141L55.18125,120.27328219413756L55.434375,119.9487424135208L55.5609375,120.00647213459014L55.6875,119.85216751098632L55.940625,119.90964403152465L56.067187499999996,120.15136613845824L56.3203125,119.92730476856231L56.446875,119.79215898513793L56.573437500000004,119.5875729560852L56.7,119.51237239837646L57.332812499999996,119.49435296058654L57.459375,119.31105687618255L57.5859375,119.28493502140044L57.965625,119.23199501037597L58.0921875,119.08697440624236L58.21874999999999,119.13276150226592L58.3453125,119.08537080287932L58.598437499999996,119.14755263328551L59.6109375,119.12423708438872L59.7375,119.08359839916228L60.1171875,119.22838690280913L60.24375,119.16160526275634L60.370312500000004,119.10704054832458L60.623437499999994,118.99656071662902L60.8765625,118.94174280166625L61.1296875,119.00806024074554L61.25625,118.9936700105667L61.509375,119.11894097328185L61.7625,119.18268420696258L61.889062499999994,119.30162515640258L62.1421875,106.58477618694305L62.775000000000006,101.73611261844634L62.901562500000004,102.866357588768L63.028124999999996,103.2423181772232L63.154687499999994,103.1753255367279L63.28125,102.57414307594298L63.9140625,101.82017519474029L64.1671875,101.94732406139373L64.29375,101.28723027706145L64.4203125,101.05289318561553L64.546875,101.17945125102996L64.9265625,101.00467958450317L65.05312500000001,100.77568080425262L65.4328125,100.97089841365813L65.6859375,100.54883422851562L65.8125,100.67954900264739L66.1921875,100.198024892807L66.4453125,100.3017105102539L67.078125,100.93325593471526L67.2046875,100.89958026409148L67.33125,100.86750819683074L67.4578125,100.89911606311797L68.090625,100.66619267463683L68.2171875,100.6798866033554L68.4703125,100.96752240657806L68.85000000000001,100.93021752834319L68.9765625,101.05084648132323L69.10312499999999,101.04002215862273L69.2296875,100.98273553848266L69.4828125,101.07004752159118L69.73593749999999,101.15159919261932L69.98906249999999,101.49618401527404L70.11562500000001,101.54920842647552L70.2421875,101.51165034770965L70.36875,101.44828691482543L70.7484375,101.5205334663391L71.0015625,101.51521625518798L71.2546875,101.50409653186797L71.38125,101.429718875885L71.5078125,101.45803513526916L71.63437499999999,101.31022932529449L71.76093750000001,101.35667052268981L71.8875,101.32219305038451L72.0140625,101.30546071529388L72.7734375,101.52682127952575L73.153125,101.48485329151153L73.2796875,101.37836136817931L73.7859375,101.26180472373962L74.16562499999999,101.29638769626617L74.29218750000001,101.25555911064147L74.79843749999999,86.19719603061675L74.925,85.31616368293761L75.0515625,86.22770669460296L75.17812500000001,85.78872027397155L75.3046875,85.85170390605926L75.43125,85.10683014392852L75.5578125,84.9136170387268L75.68437499999999,85.48517503738402L75.8109375,86.22068037986755L75.9375,86.39709784984588L76.190625,86.61966111660003L76.3171875,86.68220164775848L76.5703125,86.95916082859038L77.0765625,87.24031891822814L77.203125,86.77400794029235L77.5828125,86.99085309505462L77.70937500000001,87.34280183315276L77.8359375,87.09896972179412L77.9625,87.26981678009032L78.34218750000001,87.84289398193359L78.721875,88.59631326198577L78.8484375,88.74146046638488L79.228125,88.81379141807555L79.3546875,88.49556055068969L79.86093749999999,88.50604727268218L79.98750000000001,88.57487561702727L80.3671875,88.35779836177825L80.49374999999999,88.3426063299179L80.6203125,88.3014401435852L80.74687499999999,88.3748682975769L80.87343750000001,88.13863220214843L81,88.27924289703368L81.1265625,88.25052573680877L81.253125,88.19866182804107L81.50625,88.29477252960204L81.63281249999999,88.44346454143523L81.759375,88.56457879543304L81.8859375,88.71120300292968L82.39218749999999,88.60108187198638L82.51875000000001,88.45637776851653L82.6453125,88.44361224174499L82.77187500000001,88.42462220191955L82.8984375,88.51693489551543L83.1515625,88.80756690502166L83.40468750000001,88.63290073871612L83.6578125,88.778955245018L83.784375,88.5567084789276L84.1640625,88.4352566242218L84.290625,88.37440409660339L84.4171875,88.34275403022765L84.6703125,88.40601196289062L84.92343749999999,88.38189461231231L85.4296875,88.42249109745025L85.55624999999999,88.49800815582275L85.93593750000001,88.48363902568816L86.0625,88.51714589595794L86.1890625,88.50281896591186L86.315625,88.4095567703247L86.44218749999999,88.43818953037261L86.56875,61.94999577999114L86.6953125,72.72391047477721L86.9484375,77.12143399715423L87.075,78.05059554576873L87.2015625,78.27524771690368L87.328125,77.85122122764587L87.58125000000001,75.46932163238525L87.9609375,74.41142871379851L88.46718750000001,74.85991015434264L88.846875,74.79834022521972L88.97343749999999,74.28915395736693L89.10000000000001,74.24777677059173L89.4796875,74.60377671718597L89.7328125,74.40685000419616L89.859375,74.86117615699767L89.9859375,75.37983634471892L90.1125,75.23285343647002L90.2390625,75.61208453178405L90.365625,75.51118412017821L90.4921875,75.4736049413681L90.871875,75.23148193359374L90.99843750000001,75.43271305561065L91.125,75.41473581790923L91.25156249999999,75.50491740703582L91.63125000000001,75.10927047729491L92.5171875,75.85849084854125L92.896875,76.15587487220763L93.0234375,76.11173357963561L93.27656250000001,76.26985731124877L93.403125,76.34043695926665L93.52968750000001,76.21590449810027L93.65625,76.16674139499663L93.78281249999999,76.08831253051757L94.03593749999999,75.9169801712036L94.16250000000001,75.86870326995849L94.2890625,75.966712975502L94.5421875,75.9642442703247L94.66875,76.06309797763824L95.0484375,76.236519241333L95.3015625,76.34163966178893L95.5546875,76.31026389598846L95.68124999999999,76.22162261009215L95.80781250000001,76.15355386734008L96.5671875,76.45214059352874L96.69375000000001,76.49756898880004L96.8203125,76.4437216758728L97.3265625,76.33969845771789L97.70625,76.38708915710448L97.959375,76.50856211185454L98.33906250000001,76.6429904937744L98.84531249999999,49.37369420528411L99.3515625,61.667128586769095L99.478125,62.45994164943694L99.6046875,62.93488254547118L99.85781250000001,62.9638529062271L99.984375,63.516209864616386L100.1109375,63.91951611042022L100.2375,63.707566165924064L100.3640625,64.13747956752776L100.6171875,65.86418058872222L100.8703125,66.27774145603179L100.996875,66.58886160850524L101.1234375,66.40870943069457L101.25,66.7494540452957L101.50312500000001,67.04557206630706L101.6296875,67.05515148639678L101.75625000000001,67.0450023651123L102.009375,66.93990304470061L102.38906250000001,67.23878517150878L102.6421875,67.40041151046752L103.021875,67.16242411136626L103.14843750000001,67.40982213020324L103.4015625,67.48673179149627L103.6546875,67.11750211715697L103.90781249999999,67.25604500770568L104.1609375,67.49639561176299L104.28750000000001,67.77656199932098L104.6671875,67.5332573890686L104.79374999999999,67.41541364192962L104.92031250000001,67.47622396945953L105.046875,67.60626354217528L105.553125,67.72953000068664L105.80625,67.88035311698913L106.059375,67.71220686435699L106.43906249999999,67.52118816375732L106.56562500000001,67.63227989673614L106.6921875,67.7540060520172L106.81875,67.92073860168456L106.9453125,67.82800390720367L107.07187499999999,67.7990124464035L107.578125,67.5765968799591L107.83125,67.7041044473648L107.9578125,67.6001656293869L108.084375,67.54125430583953L108.2109375,67.47797527313232L108.3375,67.4340027809143L108.7171875,67.34829440116881L108.84375,67.41965475082397L108.97031249999999,67.56079294681548L109.85625,67.77976920604705L110.2359375,67.5764702796936L110.86875,67.77793350219726L110.9953125,67.71746077537536L111.121875,58.61310818195342L111.5015625,56.97340264320373L111.7546875,57.80107297897338L111.88125,58.22790577411651L112.0078125,58.484419012069694L112.3875,57.04537489414214L113.02031249999999,57.73760404586791L113.2734375,57.81396510601043L113.4,58.03621187210082L113.5265625,58.32606317996978L113.653125,58.28719689846038L113.90625,58.68946924209594L114.2859375,58.79496946334838L114.4125,58.747241163253776L114.66562499999999,59.125797057151786L115.171875,59.078701758384696L115.29843749999999,59.256300830841056L115.55156249999999,59.08450427055358L115.93125,59.181079173088065L116.184375,58.96877052783965L116.43749999999999,58.89061596393584L116.5640625,59.05209460258483L116.690625,59.24600400924682L116.94375,59.07722475528716L117.19687499999999,58.9860514640808L117.32343750000001,59.01010551452636L117.45,59.0507019996643L117.57656250000001,59.03829517364501L117.703125,59.026352548599235L117.95625,58.91464891433715L118.08281249999999,58.802122378349296L118.20937500000001,58.779566431045524L118.8421875,58.62030329704284L118.96875,58.60281136035918L119.0953125,58.7180387020111L119.3484375,58.6749102115631L119.475,58.55136945247649L119.6015625,58.56890358924865L119.72812499999999,58.61173667907714L120.6140625,58.92078902721404L120.99375,58.87877883911132L121.1203125,58.93403985500335L121.3734375,59.11096372604369L122.00625,59.23910429477691L122.1328125,59.219544553756705L122.259375,59.29031410217284L122.6390625,59.338759803771964L122.765625,59.37650778293609L123.01875,59.51042976379394L123.1453125,59.619242691993705L123.27187500000001,59.58841552734374L123.525,57.284501695632926L123.6515625,53.473939204215995L123.90468750000001,50.210943961143485L124.03125,49.872182750701896L124.1578125,49.11490216255187L124.284375,49.736087465286246L124.4109375,49.66611971855163L124.5375,49.79025127887725L125.1703125,49.653037691116324L125.296875,49.367807292938224L125.55000000000001,48.76926233768462L125.80312500000001,49.36194148063659L126.05624999999999,49.72452464103698L126.1828125,49.794808888435355L126.5625,50.315536880493156L126.6890625,50.53468194007873L127.19531250000001,50.98219277858733L127.321875,50.993122601509086L127.4484375,51.04380490779876L127.575,51.06532695293426L127.95468749999999,50.82263424396514L128.334375,50.749775791168204L128.9671875,51.07104506492614L129.09375,51.202202939987174L129.346875,51.226024889945975L129.47343750000002,51.09225060939788L129.6,51.2745971918106L129.853125,51.31088926792144L129.97968749999998,51.11862566471099L130.10625000000002,51.245837831497184L130.2328125,51.32000448703765L130.7390625,51.636526250839225L130.865625,51.58704664707183L131.11875,51.57158031463622L131.2453125,51.56069269180297L131.371875,51.61945631504058L131.625,51.57706632614135L131.7515625,51.579978132247916L132.13125,51.79099967479705L132.384375,51.7412035703659L133.0171875,51.59928467273711L133.14375,51.72088422775268L133.5234375,51.651633882522574L133.903125,51.89346148967742L134.2828125,51.960622930526725L134.409375,51.88293256759643L134.5359375,51.88168766498565L134.915625,51.935935878753654L135.04218749999998,51.92464735507964L135.5484375,41.72142555713653L135.67499999999998,48.633652353286735L136.940625,43.27466311454772L137.19375,43.86402955055236L137.3203125,43.92291977405547L137.446875,44.03272440433501L137.57343749999998,44.40419068336486L137.8265625,44.754451417922965L138.0796875,45.145139837265006L138.3328125,45.444971466064445L138.7125,44.860711240768424L138.965625,45.20791246891021L139.0921875,45.552117490768424L139.47187499999998,45.5403225660324L139.5984375,45.44490816593169L139.8515625,45.15395965576171L140.1046875,45.18972423076629L140.23125000000002,45.31955280303954L140.35781250000002,45.62852075099944L140.6109375,45.61493232250213L140.7375,45.54937448501586L140.990625,45.3760376214981L141.1171875,45.36050798892974L141.37031249999998,45.648481392860404L141.6234375,45.86644484996795L141.74999999999997,45.986820602416984L142.003125,46.29137864112853L142.25625,46.55631079673766L142.7625,46.71255662441253L142.8890625,46.62442173957824L143.015625,46.644150280952445L143.14218749999998,46.57483663558959L143.26874999999998,46.66719152927398L143.39531250000002,46.69953789710998L143.52187500000002,46.71683993339538L143.775,46.967424058914176L144.28125,46.803645515441886L144.53437499999998,46.88120927810668L144.6609375,46.92452766895293L145.04062499999998,46.758702421188346L145.546875,46.50866689682006L145.9265625,46.35600807666778L146.1796875,46.4953949689865L146.30625,46.640647673606864L146.43281249999998,46.62830414772033L146.9390625,46.71920313835143L147.065625,46.78925528526305L147.19218750000002,46.800121808052054L147.31875,46.70141580104827L147.4453125,46.74591579437255L147.571875,46.76155092716216L147.825,19.174994373321525L147.9515625,30.97500422000884L148.33124999999998,34.885475420951835L148.9640625,36.922579193115226L149.2171875,37.005523467063895L149.34375,37.738412404060355L149.59687499999998,38.215906405448905L149.7234375,38.69705071449279L150.2296875,37.78445270061492L150.4828125,37.89294912815093L150.609375,37.66211464405059L150.7359375,37.64099349975585L150.9890625,38.145938658714286L151.2421875,37.52336075305938L151.36874999999998,37.651585721969596L151.49531249999998,37.635148787498466L151.74843750000002,38.12851002216338L151.875,38.057740473747245L152.128125,38.21238269805907L152.25468750000002,38.19539716243743L152.38125,38.337801361083976L152.5078125,38.3065099954605L152.634375,38.08042302131652L152.76093749999998,38.23740735054015L153.39375,38.386626863479606L153.646875,38.792823815345756L153.9,38.652339720726005L154.0265625,38.97232189178466L154.153125,39.1124261856079L154.7859375,39.472920441627494L155.2921875,39.862300658226005L155.5453125,39.868314170837394L155.671875,39.96706237792968L156.43124999999998,40.18781104087829L156.55781249999998,40.0804118156433L156.68437500000002,40.08307042121886L156.81093750000002,40.122886204719535L156.9375,40.210577988624564L157.44375,40.37596013545989L157.696875,40.576621556282035L157.82343749999998,40.53366186618804L158.58281250000002,40.69132139682769L158.709375,40.59924080371856L159.0890625,40.68224837779998L159.3421875,40.823407673835746L159.46875,41.018751883506766L159.5953125,41.02966060638427L159.8484375,41.018308782577506L160.228125,34.24312677383422L160.3546875,33.65099623203277L160.48125000000002,31.514025950431815L160.734375,32.19927098751067L160.8609375,32.350621604919425L160.98749999999998,32.28546466827392L161.1140625,32.339333081245414L161.240625,32.70691695213317L161.3671875,32.92066040039062L161.74687500000002,33.96097698211669L161.87343750000002,34.06002058982848L162.1265625,34.730769896507255L162.253125,34.92039599418639L162.3796875,35.18507494926452L162.759375,35.29724278450011L162.88593749999998,35.4392882823944L163.0125,35.53164317607879L163.51875,35.89827754497527L163.64531250000002,35.72570028305053L163.771875,36.13426043987273L164.4046875,36.37393584251403L164.65781249999998,36.42963995933532L164.91093750000002,36.61736705303191L165.03750000000002,36.642539405822745L165.1640625,36.74289121627807L165.54375000000002,36.52836706638335L165.6703125,36.4632734298706L165.796875,36.50794222354888L165.9234375,36.32247283458709L166.04999999999998,36.28445055484771L166.1765625,36.3209325313568L166.303125,36.436349773406974L166.4296875,36.55594482421874L166.6828125,36.410860919952384L167.0625,36.619202756881705L167.315625,36.74603512287139L167.4421875,36.74571862220763L167.821875,37.03248932361602L167.94843749999998,36.90023424625396L168.20156250000002,36.87432339191436L168.328125,36.784289503097526L168.4546875,36.75683834552764L168.58125,36.66465225219726L168.70781250000002,36.61392774581908L168.9609375,36.64224400520324L169.0875,36.75479164123534L169.2140625,36.82150998115539L169.340625,36.71792986392974L169.59375,36.390098476409904L169.97343750000002,36.48751738071441L170.353125,36.518049144744865L170.4796875,36.64391090869903L170.7328125,36.6772911787033L170.859375,36.74514892101287L170.9859375,36.64777221679687L171.11249999999998,36.73968400955199L171.2390625,36.709553146362296L171.365625,36.73447229862212L171.61875,36.7874967098236L172.125,36.85446825027465L172.2515625,36.90816786289214L172.5046875,21.320446872711173L172.7578125,27.985760951042167L173.01093749999998,29.791924738883964L173.1375,30.62151517868041L173.896875,28.811046981811515L174.0234375,28.839679741859428L174.27656249999998,27.95949139595031L174.403125,27.76978089809417L174.5296875,28.672799491882316L175.03593750000002,29.035002851486198L175.2890625,29.44039800167083L175.5421875,29.284700775146476L175.7953125,28.976091527938834L175.921875,29.322554254531852L176.0484375,29.407819533348075L176.428125,29.740440630912772L176.55468749999997,29.79011013507842L176.68125,30.01514210700988L176.93437500000002,30.38034167289733L177.0609375,30.278913760185233L177.440625,30.25414230823516L177.5671875,30.00649108886718L177.94687499999998,30.367998147010795L178.07343749999998,30.361921334266654L178.20000000000002,30.55483903884887L178.453125,30.354262018203727L178.959375,30.40971293449401L179.0859375,30.494303011894218L179.2125,30.58389379978179L179.465625,30.738008522987357L179.5921875,31.010241293907157L180.09843750000002,31.058117294311515L180.225,31.176657342910758L180.478125,31.10892620086669L180.8578125,30.933205032348624L180.984375,31.03678514957427L181.3640625,31.28084936141967L181.49062500000002,31.34353759288787L182.1234375,31.82630660533904L182.3765625,31.816051983833304L182.50312499999998,31.893320345878593L182.6296875,32.02279021739959L182.75625,32.02618732452392L182.8828125,32.10873069763183L183.00937499999998,32.142321968078605L183.13593749999998,32.20610740184783L183.515625,32.50351252555846L183.6421875,32.68366470336913L183.76875,32.66971757411956L183.8953125,32.73806061744689L184.1484375,32.87978961467742L184.40156249999998,32.955538773536674L184.528125,33.03109803199767L184.9078125,21.04464819431304L185.034375,21.980836057662955L185.4140625,24.195074701309196L185.79375,22.820427918434135L186.29999999999998,25.46827247142791L186.9328125,25.77637531757354L187.05937500000002,25.837227845191947L187.1859375,25.80794098377227L187.6921875,25.74964156150817L188.07187499999998,26.404544734954825L188.4515625,26.70420756340026L188.7046875,26.86923100948333L189.084375,27.10082509517669L189.46406249999998,27.20596661567687L189.7171875,27.012036108970634L189.84375,27.095887684822074L190.096875,27.14148488044738L190.22343750000002,27.197167897224418L190.7296875,27.541773819923392L191.23593749999998,27.667319083213798L191.7421875,27.852893972396842L191.86875,27.76937999725341L192.5015625,28.122172737121574L192.7546875,27.91718580722808L192.88125,28.10434319972991L193.134375,28.091176772117606L193.2609375,28.132975959777824L193.5140625,28.2940747976303L194.4,28.727596306800834L195.5390625,28.909246587753287L195.665625,28.967925810813895L195.91875,29.007614994049064L196.0453125,28.995208168029777L196.425,29.119592928886405L196.55156250000002,29.250940704345695L196.8046875,13.274999999999991L197.3109375,25.12394084930419L197.5640625,24.515352272987357L198.07031249999997,23.40660824775695L198.196875,23.21350064277648L198.3234375,23.66759469509124L198.45000000000002,23.718277001380912L198.5765625,23.54399063587188L199.0828125,24.058198714256278L199.209375,23.888554358482352L199.46249999999998,23.82660462856292L199.58906249999998,24.148317003250114L200.0953125,23.721505308151237L200.221875,23.841670060157767L200.728125,23.834327244758597L200.85468749999998,24.02848985195159L201.36093749999998,24.3680528640747L201.740625,24.489821219444266L202.1203125,24.65716567039489L202.246875,24.47572638988494L202.5,24.459816956520072L202.6265625,24.524193191528312L203.00625000000002,24.50381054878234L203.259375,24.42820909023284L204.271875,25.21547284126281L204.65156249999998,25.5002812385559L204.77812500000002,25.474897885322562L205.03125,25.507856154441825L205.284375,25.486207509040824L205.4109375,25.689907336235038L206.55,25.623969697952262L206.67656250000002,25.703685665130607L206.9296875,25.746856355667106L207.1828125,25.73411192893981L207.4359375,25.737720036506644L207.5625,25.757638478279105L207.68906249999998,25.766816997528068L207.81562499999998,25.770720505714408L208.1953125,25.781924629211417L208.4484375,25.78418233394622L208.57500000000002,25.863602900505057L208.7015625,25.828619027137748L208.828125,25.817604804038993L208.9546875,25.82522192001342L209.08124999999998,16.716670417785636L209.2078125,8.850004220008842L209.4609375,11.286953830718986L209.58749999999998,11.634260559082023L209.7140625,12.909631633758536L209.84062500000002,13.652332091331473L209.96718750000002,13.839257383346549L210.09375,14.924559259414664L210.2203125,15.030945682525626L210.346875,16.133254194259635L210.4734375,16.34737744331359L210.6,16.349403047561637L210.7265625,16.515608096122733L211.4859375,17.69999577999114L211.865625,17.995649600028983L211.9921875,18.62462081909179L212.2453125,18.63890554904937L212.371875,18.40264835357665L212.87812499999998,18.92069664001464L213.00468750000002,18.769324922561637L213.13125000000002,18.831823253631583L213.2578125,18.983173871040336L213.6375,19.423869395256034L213.7640625,19.59051754474639L213.890625,19.564374589920035L214.0171875,19.651707673072806L214.14374999999998,19.658164286613456L214.396875,19.99329628944396L214.5234375,20.184926891326896L215.0296875,20.50699796676635L215.15625,20.567808294296256L215.2828125,20.55455746650695L215.5359375,20.53818383216857L215.915625,20.715023303031913L216.421875,21.076467061042777L216.5484375,21.101555013656608L216.675,20.97940685749053L216.928125,20.938156270980826L217.18125,21.187811994552604L217.30781249999998,21.127761268615714L218.19375000000002,21.5722548007965L218.5734375,21.723267817497245L218.8265625,21.716494703292838L219.0796875,21.593101644515983L219.459375,21.768105411529532L219.58593750000003,21.86782422065734L219.96562500000002,21.943299078941337L220.0921875,21.995964789390555L220.3453125,21.949375891685477L220.471875,21.951317095756522L220.97812499999998,22.2960074186325L221.23125,22.342933917045585L221.35781250000002,28.241915488243095L221.7375,16.641849660873405L221.86406250000002,17.24615492820739L221.990625,17.170236968994132L222.24375,17.481061720848075L222.496875,17.206296944618217L223.12968750000002,18.972033047676078L223.3828125,19.190924906730643L223.509375,19.231732392311088L223.6359375,19.173411870002738L223.8890625,19.587268137931815L224.1421875,19.51837649345397L224.26874999999998,19.665844702720634L224.3953125,19.44275393486022L224.521875,19.685045742988578L224.9015625,20.079131269454948L225.1546875,19.765394711494437L225.28125,19.672259116172782L225.4078125,19.652530574798575L225.534375,19.77849783897399L225.6609375,19.846144580841056L226.04062499999998,19.8631723165512L226.6734375,19.879313850402824L227.30625,19.734314346313468L227.43281249999998,19.6470656633377L227.559375,19.70585038661956L228.065625,19.605857276916495L228.19218750000002,19.700469875335685L228.31875,19.73606564998626L229.2046875,19.946390891075126L229.33124999999998,19.980594062805167L229.58437500000002,20.261477851867667L229.7109375,20.388985419273368L229.9640625,20.375101590156547L230.4703125,20.16089394092559L230.7234375,20.284603500366202L230.9765625,20.14793851375579L231.2296875,20.1419672012329L231.35625000000002,20.16129484176635L231.7359375,20.189737701416007L231.8625,20.239301705360404L232.36875,20.33036949634551L232.49531249999998,20.255801939964286L232.621875,20.212504649162284L232.7484375,20.22870948314666L233.0015625,20.20756723880767L233.128125,20.143001103401176L233.7609375,18.71938111782073L233.8875,18.82526113986968L234.140625,14.22127368450164L234.39374999999998,13.88335647583007L234.52031250000002,14.42180850505828L234.64687500000002,14.243428730964652L234.7734375,14.860140824317924L235.0265625,14.631099843978873L235.2796875,15.10416283607482L235.7859375,16.27688219547271L236.0390625,16.75321569442748L236.2921875,16.496301555633536L236.671875,16.44587244987487L236.7984375,16.391793036460868L237.3046875,16.685104751586906L237.684375,16.280131602287284L237.9375,16.29808773994445L238.0640625,16.37411119937896L238.190625,16.374068999290458L238.31718750000002,16.362337374687186L238.696875,16.514510893821708L238.8234375,16.58504834175109L238.95,16.39447274208068L239.0765625,16.454439067840568L239.203125,16.62997033596038L239.32968749999998,16.62435772418975L239.70937500000002,16.735554957389823L239.8359375,16.879014158248893L239.9625,16.93860068321227L240.215625,17.00082471370696L240.3421875,17.04663290977477L240.46875,16.929590964317313L240.5953125,17.08583679199218L240.8484375,17.267508172988883L241.10156250000003,17.54784336090087L241.48125000000002,17.498827958106986L241.734375,17.395965242385856L241.8609375,17.313295269012443L241.9875,17.378599905967704L242.1140625,17.487581634521476L242.62031249999998,17.567086601257316L242.87343750000002,17.582658433914176L243,17.619667911529532L243.37968750000002,17.423965001106254L243.50625,17.494755649566642L243.6328125,17.47517480850219L243.759375,17.46700909137725L244.39218749999998,17.521784806251517L245.4046875,17.847949290275565L245.53125,17.84172477722167L245.6578125,17.784902358055106L246.0375,14.929201269149772L246.290625,14.450715565681449L246.54375000000002,12.842596793174735L246.6703125,12.96512475013732L246.796875,13.438082242012015L246.9234375,13.1781718969345L247.05,12.882243776321403L247.303125,12.910496735572806L247.4296875,13.241324329376212L247.80937500000002,13.658830904960624L248.4421875,13.98668339252471L248.56875,13.854597115516654L248.821875,14.338167929649345L248.94843749999998,14.278286004066459L249.2015625,14.106531643867484L250.0875,14.337830328941337L250.2140625,14.257207059860221L250.340625,14.621836924552909L250.7203125,14.846467995643607L250.84687499999998,14.69707968235015L251.2265625,14.772575640678397L251.353125,14.788759374618522L251.4796875,14.725817942619315L251.60625000000002,14.838238978385917L251.859375,14.892782592773429L251.9859375,14.859866523742667L252.2390625,14.936311984062186L252.4921875,14.898775005340568L252.74531249999998,15.000371718406669L252.87187500000002,15.016935253143302L253.2515625,15.033329987525931L253.378125,15.004085326194755L253.5046875,15.113320255279532L253.63125,15.090869808197013L253.7578125,15.216288471221915L254.2640625,15.278575801849357L254.5171875,15.387008929252616L255.0234375,15.574018621444694L255.2765625,15.595266366004935L255.5296875,15.586741948127738L255.65625,15.579800033569327L256.1625,15.516056799888602L256.5421875,15.437079334259025L256.66875,15.540406250953666L256.921875,15.579378032684318L257.04843750000003,15.603157782554618L257.3015625,15.51808240413665L257.428125,15.440919542312614L257.5546875,15.512680792808524L257.8078125,15.540047550201407L257.934375,15.470459604263297L258.06093749999997,19.852706694602958L258.8203125,11.989880704879752L258.94687500000003,11.743959689140311L259.0734375,11.028140687942496L259.2,11.645738983154288L259.3265625,10.992101812362662L259.5796875,11.325419211387626L259.70625,11.173372292518607L259.95937499999997,11.302905464172355L260.3390625,10.998663926124564L260.8453125,10.851828718185416L261.3515625,10.564952516555778L261.478125,10.534631752967826L261.6046875,10.475256228446952L261.73125,10.419910812377921L262.2375,10.72237994670867L262.3640625,10.655028605461112L262.490625,10.754114413261405L262.6171875,10.932916188240043L262.74375,10.853495621681205L262.8703125,10.962751650810233L262.996875,11.032719397544852L263.25,10.980665588378898L263.3765625,11.066162967681876L263.75625,11.251231455802909L263.8828125,11.390301847457877L264.1359375,11.449930572509757L264.3890625,11.56631841659545L264.6421875,11.656922006607047L264.76875,11.662365818023673L265.27500000000003,11.79793360233306L265.78125,12.298004651069633L266.034375,12.30089535713195L266.1609375,12.398525261878959L266.6671875,12.190921926498405L266.9203125,12.322333002090446L267.046875,12.410088086128226L267.17343750000003,12.458723688125602L267.553125,12.69671108722686L267.9328125,12.594629073142997L268.18593749999997,12.584015750885001L268.9453125,12.795965695381156L269.071875,12.760939621925345L269.1984375,12.786787176132194L269.4515625,12.92490806579589L269.578125,13.015912556648246L269.9578125,13.235142016410819L270.08437499999997,13.226279997825614L270.2109375,13.190051221847526" style="fill: none;" fill="none"></path></g></g></g></g></g></g><g transform="translate(51, 177)" clip-path="url(#clip_1)"><clipPath id="clip_1"><rect width="278" height="23"></rect></clipPath><g><g><line x1="0" y1="0" x2="0" y2="5" style="visibility: inherit;" fill="rgb(0, 0, 0)" stroke="rgb(204, 204, 204)" stroke-width="1px"></line><line x1="25.3125" y1="0" x2="25.3125" y2="5" style="visibility: inherit;" fill="rgb(0, 0, 0)" stroke="rgb(204, 204, 204)" stroke-width="1px"></line><line x1="50.625" y1="0" x2="50.625" y2="5" style="visibility: inherit;" fill="rgb(0, 0, 0)" stroke="rgb(204, 204, 204)" stroke-width="1px"></line><line x1="75.9375" y1="0" x2="75.9375" y2="5" style="visibility: inherit;" fill="rgb(0, 0, 0)" stroke="rgb(204, 204, 204)" stroke-width="1px"></line><line x1="101.25" y1="0" x2="101.25" y2="5" style="visibility: inherit;" fill="rgb(0, 0, 0)" stroke="rgb(204, 204, 204)" stroke-width="1px"></line><line x1="126.5625" y1="0" x2="126.5625" y2="5" style="visibility: inherit;" fill="rgb(0, 0, 0)" stroke="rgb(204, 204, 204)" stroke-width="1px"></line><line x1="151.875" y1="0" x2="151.875" y2="5" style="visibility: inherit;" fill="rgb(0, 0, 0)" stroke="rgb(204, 204, 204)" stroke-width="1px"></line><line x1="177.1875" y1="0" x2="177.1875" y2="5" style="visibility: inherit;" fill="rgb(0, 0, 0)" stroke="rgb(204, 204, 204)" stroke-width="1px"></line><line x1="202.5" y1="0" x2="202.5" y2="5" style="visibility: inherit;" fill="rgb(0, 0, 0)" stroke="rgb(204, 204, 204)" stroke-width="1px"></line><line x1="227.8125" y1="0" x2="227.8125" y2="5" style="visibility: inherit;" fill="rgb(0, 0, 0)" stroke="rgb(204, 204, 204)" stroke-width="1px"></line><line x1="253.125" y1="0" x2="253.125" y2="5" style="visibility: inherit;" fill="rgb(0, 0, 0)" stroke="rgb(204, 204, 204)" stroke-width="1px"></line><line x1="278.4375" y1="0" x2="278.4375" y2="5" style="visibility: inherit;" fill="rgb(0, 0, 0)" stroke="rgb(204, 204, 204)" stroke-width="1px"></line></g><g transform="translate(0, 8)"><text x="0" y="0" dx="0em" dy="0.95em" style="text-anchor: middle; visibility: hidden; font-family: Roboto, sans-serif; font-size: 12px; font-weight: 200;" fill="rgb(33, 33, 33)" stroke="none" stroke-width="1px">-20k</text><text x="25.3125" y="0" dx="0em" dy="0.95em" style="text-anchor: middle; visibility: inherit; font-family: Roboto, sans-serif; font-size: 12px; font-weight: 200;" fill="rgb(33, 33, 33)" stroke="none" stroke-width="1px">0</text><text x="50.625" y="0" dx="0em" dy="0.95em" style="text-anchor: middle; visibility: hidden; font-family: Roboto, sans-serif; font-size: 12px; font-weight: 200;" fill="rgb(33, 33, 33)" stroke="none" stroke-width="1px">20k</text><text x="75.9375" y="0" dx="0em" dy="0.95em" style="text-anchor: middle; visibility: inherit; font-family: Roboto, sans-serif; font-size: 12px; font-weight: 200;" fill="rgb(33, 33, 33)" stroke="none" stroke-width="1px">40k</text><text x="101.25" y="0" dx="0em" dy="0.95em" style="text-anchor: middle; visibility: hidden; font-family: Roboto, sans-serif; font-size: 12px; font-weight: 200;" fill="rgb(33, 33, 33)" stroke="none" stroke-width="1px">60k</text><text x="126.5625" y="0" dx="0em" dy="0.95em" style="text-anchor: middle; visibility: inherit; font-family: Roboto, sans-serif; font-size: 12px; font-weight: 200;" fill="rgb(33, 33, 33)" stroke="none" stroke-width="1px">80k</text><text x="151.875" y="0" dx="0em" dy="0.95em" style="text-anchor: middle; visibility: hidden; font-family: Roboto, sans-serif; font-size: 12px; font-weight: 200;" fill="rgb(33, 33, 33)" stroke="none" stroke-width="1px">100k</text><text x="177.1875" y="0" dx="0em" dy="0.95em" style="text-anchor: middle; visibility: inherit; font-family: Roboto, sans-serif; font-size: 12px; font-weight: 200;" fill="rgb(33, 33, 33)" stroke="none" stroke-width="1px">120k</text><text x="202.5" y="0" dx="0em" dy="0.95em" style="text-anchor: middle; visibility: hidden; font-family: Roboto, sans-serif; font-size: 12px; font-weight: 200;" fill="rgb(33, 33, 33)" stroke="none" stroke-width="1px">140k</text><text x="227.8125" y="0" dx="0em" dy="0.95em" style="text-anchor: middle; visibility: inherit; font-family: Roboto, sans-serif; font-size: 12px; font-weight: 200;" fill="rgb(33, 33, 33)" stroke="none" stroke-width="1px">160k</text><text x="253.125" y="0" dx="0em" dy="0.95em" style="text-anchor: middle; visibility: hidden; font-family: Roboto, sans-serif; font-size: 12px; font-weight: 200;" fill="rgb(33, 33, 33)" stroke="none" stroke-width="1px">180k</text><text x="278.4375" y="0" dx="0em" dy="0.95em" style="text-anchor: middle; visibility: hidden; font-family: Roboto, sans-serif; font-size: 12px; font-weight: 200;" fill="rgb(33, 33, 33)" stroke="none" stroke-width="1px">200k</text></g><line x1="0" y1="0" x2="278.4375" y2="0" fill="rgb(0, 0, 0)" stroke="rgb(204, 204, 204)" stroke-width="1px"></line></g></g></g></g></svg>